<?xml version="1.0" standalone="no"?>
<!DOCTYPE svg PUBLIC "-//W3C//DTD SVG 20010904//EN"
 "http://www.w3.org/TR/2001/REC-SVG-20010904/DTD/svg10.dtd">
<svg version="1.0" xmlns="http://www.w3.org/2000/svg"
 width="260.000000pt" height="260.000000pt" viewBox="0 0 260.000000 260.000000"
 preserveAspectRatio="xMidYMid meet">
<metadata>
Created by potrace 1.14, written by Peter Selinger 2001-2017
</metadata>
<g transform="translate(0.000000,260.000000) scale(0.100000,-0.100000)"
fill="#000000" stroke="none">
<path d="M20 1300 l0 -1280 1280 0 1280 0 0 1280 0 1280 -1280 0 -1280 0 0
-1280z m564 753 c2 -10 62 -294 132 -630 70 -337 130 -613 134 -613 3 0 78
282 166 628 l161 627 125 3 125 3 31 -118 c17 -65 90 -354 163 -642 73 -288
134 -520 135 -515 2 5 58 272 124 594 67 322 126 606 132 633 l10 47 147 0
148 0 -168 -727 c-93 -401 -183 -788 -200 -861 l-31 -132 -143 0 -144 0 -10
37 c-6 20 -79 299 -163 620 -84 321 -155 578 -157 571 -3 -7 -77 -285 -166
-618 l-161 -605 -145 -3 -145 -3 -197 853 c-109 469 -197 856 -197 861 0 4 65
7 144 7 129 0 145 -2 150 -17z"/>
</g>
</svg>
