<svg width="96" height="96" viewBox="0 0 96 96" fill="none" xmlns="http://www.w3.org/2000/svg">
<circle cx="48" cy="48" r="39.2727" fill="#536DFE" fill-opacity="0.2"/>
<path fill-rule="evenodd" clip-rule="evenodd" d="M73.9081 41.6657C73.9081 41.8235 73.7798 41.9515 73.6223 41.9515C73.4645 41.9515 73.3365 41.8235 73.3365 41.6657C73.3365 41.5079 73.4645 41.3799 73.6223 41.3799C73.7798 41.3799 73.9081 41.5079 73.9081 41.6657Z" fill="white"/>
<g filter="url(#filter0_d)">
<path fill-rule="evenodd" clip-rule="evenodd" d="M80.0132 51.3996H41.0143C39.094 51.3996 37.5372 49.8429 37.5372 47.9225V20.472C37.5372 18.5516 39.094 16.9949 41.0143 16.9949H80.0132C81.9336 16.9949 83.4907 18.5516 83.4907 20.472V47.9225C83.4907 49.8429 81.9336 51.3996 80.0132 51.3996Z" fill="white"/>
</g>
<g filter="url(#filter1_d)">
<path fill-rule="evenodd" clip-rule="evenodd" d="M41.0143 51.3996C39.094 51.3996 37.5372 49.8429 37.5372 47.9225V20.472C37.5372 18.5516 39.094 16.9949 41.0143 16.9949H80.0132C81.9336 16.9949 83.4907 18.5516 83.4907 20.472V47.9225C83.4907 49.8429 81.9336 51.3996 80.0132 51.3996H41.0143Z" fill="white"/>
</g>
<path fill-rule="evenodd" clip-rule="evenodd" d="M75.3226 25.1728H78.3102C78.7397 25.1728 79.0873 24.8252 79.0873 24.3961V21.4081C79.0873 20.9793 78.7397 20.6313 78.3102 20.6313H75.3226C74.8935 20.6313 74.5455 20.9793 74.5455 21.4081V24.3961C74.5455 24.8252 74.8935 25.1728 75.3226 25.1728ZM43.8728 24.0132C43.3406 24.0132 42.9091 23.5817 42.9091 23.0495C42.9091 22.5173 43.3406 22.0859 43.8728 22.0859H71.0684C71.6006 22.0859 72.032 22.5173 72.032 23.0495C72.032 23.5817 71.6006 24.0132 71.0684 24.0132H43.8728Z" fill="#D9D9D9"/>
<path fill-rule="evenodd" clip-rule="evenodd" d="M75.3226 32.4455H78.3102C78.7397 32.4455 79.0873 32.0979 79.0873 31.6688V28.6808C79.0873 28.2521 78.7397 27.9041 78.3102 27.9041H75.3226C74.8935 27.9041 74.5455 28.2521 74.5455 28.6808V31.6688C74.5455 32.0979 74.8935 32.4455 75.3226 32.4455ZM43.8728 31.2859C43.3406 31.2859 42.9091 30.8544 42.9091 30.3222C42.9091 29.79 43.3406 29.3586 43.8728 29.3586H71.0684C71.6006 29.3586 72.032 29.79 72.032 30.3222C72.032 30.8544 71.6006 31.2859 71.0684 31.2859H43.8728Z" fill="#D9D9D9"/>
<path fill-rule="evenodd" clip-rule="evenodd" d="M75.3226 40.0817H78.3102C78.7397 40.0817 79.0873 39.7341 79.0873 39.305V36.317C79.0873 35.8883 78.7397 35.5403 78.3102 35.5403H75.3226C74.8935 35.5403 74.5455 35.8883 74.5455 36.317V39.305C74.5455 39.7341 74.8935 40.0817 75.3226 40.0817ZM43.8728 38.9221C43.3406 38.9221 42.9091 38.4907 42.9091 37.9585C42.9091 37.4263 43.3406 36.9948 43.8728 36.9948H71.0684C71.6006 36.9948 72.032 37.4263 72.032 37.9585C72.032 38.4907 71.6006 38.9221 71.0684 38.9221H43.8728Z" fill="#D9D9D9"/>
<path fill-rule="evenodd" clip-rule="evenodd" d="M75.3226 47.7182H78.3102C78.7397 47.7182 79.0873 47.3702 79.0873 46.9415V43.9535C79.0873 43.5248 78.7397 43.1768 78.3102 43.1768H75.3226C74.8935 43.1768 74.5455 43.5248 74.5455 43.9535V46.9415C74.5455 47.3702 74.8935 47.7182 75.3226 47.7182ZM43.8728 46.1949C43.3406 46.1949 42.9091 45.7635 42.9091 45.2313C42.9091 44.6991 43.3406 44.2677 43.8728 44.2677H71.0684C71.6006 44.2677 72.032 44.6991 72.032 45.2313C72.032 45.7635 71.6006 46.1949 71.0684 46.1949H43.8728Z" fill="#D9D9D9"/>
<rect x="41.0909" y="25.0908" width="4" height="4.72727" fill="#004FC4"/>
<g filter="url(#filter2_dd)">
<rect x="36" y="22.1816" width="14.5455" height="4.36364" rx="2.18182" fill="#3CC196"/>
</g>
<g filter="url(#filter3_d)">
<path fill-rule="evenodd" clip-rule="evenodd" d="M63.1746 37.7371C71.7124 48.4695 69.9335 64.0913 59.201 72.6291C48.4686 81.1669 32.8469 79.3876 24.3094 68.6556C15.7712 57.9231 17.5501 42.3013 28.2826 33.7635C39.015 25.2257 54.6368 27.0046 63.1746 37.7371Z" fill="url(#paint0_linear)"/>
</g>
<path d="M58.8729 40.8393C65.5995 49.2946 64.1979 61.6015 55.7424 68.3277C47.2875 75.0539 34.9805 73.6524 28.2543 65.1971C21.5278 56.7422 22.9297 44.435 31.3846 37.7087C39.8401 30.9825 52.1467 32.3841 58.8729 40.8393Z" fill="#F3FAFF"/>
<path d="M34.5799 64.1378C35.5599 63.1578 36.5399 62.1777 37.5223 61.1954C38.9575 59.7602 40.3904 58.3273 41.8256 56.8921C42.232 56.4857 42.6384 56.0793 43.0471 55.6705C43.4326 55.285 43.4651 54.5744 43.0471 54.1935C42.6291 53.8127 41.9835 53.7802 41.5701 54.1935C40.5901 55.1736 39.6101 56.1536 38.6277 57.1359C37.1925 58.5711 35.7596 60.004 34.3244 61.4392C33.918 61.8456 33.5116 62.252 33.1029 62.6608C32.7174 63.0463 32.6848 63.7569 33.1029 64.1378C33.5209 64.5186 34.1665 64.5512 34.5799 64.1378Z" fill="#003078"/>
<g filter="url(#filter4_d)">
<path fill-rule="evenodd" clip-rule="evenodd" d="M41.395 36.7486C41.8001 36.6879 42.0797 36.3105 42.019 35.905C41.9586 35.4995 41.5808 35.2203 41.1757 35.281C40.7699 35.3414 40.491 35.7192 40.5514 36.1246C40.6121 36.5297 40.9895 36.809 41.395 36.7486ZM50.9789 37.312C50.8291 37.693 50.3978 37.8807 50.0167 37.7305C49.6356 37.5803 49.448 37.1494 49.5982 36.768C49.7483 36.3869 50.1792 36.1992 50.5607 36.3498C50.9418 36.5 51.1291 36.9305 50.9789 37.312ZM33.4374 40.2091C33.7581 39.9542 33.8112 39.4873 33.5563 39.1666C33.301 38.8458 32.8345 38.7927 32.5134 39.0476C32.1927 39.3029 32.1396 39.7698 32.3949 40.0906C32.6501 40.4113 33.1167 40.4644 33.4374 40.2091ZM28.276 47.1848C28.4262 46.8037 28.2389 46.3728 27.8578 46.2226C27.4763 46.0724 27.0458 46.2597 26.8956 46.6412C26.7451 47.0223 26.9327 47.4532 27.3138 47.6034C27.6953 47.7535 28.1258 47.5663 28.276 47.1848ZM26.4508 55.1825C26.8559 55.1218 27.2337 55.4014 27.2941 55.8065C27.3548 56.2119 27.0755 56.5898 26.6705 56.6501C26.2646 56.7108 25.8872 56.4316 25.8265 56.0261C25.7657 55.6207 26.0457 55.2432 26.4508 55.1825ZM30.7547 63.7641C30.4998 63.4434 30.0329 63.3903 29.7122 63.6456C29.3915 63.9009 29.3384 64.3674 29.5936 64.6881C29.8486 65.0089 30.3155 65.062 30.6362 64.807C30.9569 64.5518 31.01 64.0849 30.7547 63.7641ZM36.7683 69.3439C36.9185 68.9628 37.3494 68.7756 37.7305 68.9254C38.1119 69.0756 38.2992 69.5065 38.149 69.8879C37.9992 70.269 37.5679 70.4566 37.1865 70.3061C36.8058 70.1559 36.6181 69.7254 36.7683 69.3439ZM46.3525 69.9072C45.9474 69.968 45.6674 70.3454 45.7282 70.7509C45.7889 71.1563 46.1663 71.4356 46.5718 71.3749C46.9773 71.3145 47.2565 70.9367 47.1958 70.5312C47.1354 70.1262 46.7576 69.8469 46.3525 69.9072ZM54.1913 67.4893C53.9363 67.1686 53.9891 66.7017 54.3098 66.4468C54.6305 66.1915 55.0974 66.245 55.3524 66.5653C55.608 66.8861 55.5545 67.353 55.2338 67.6082C54.9131 67.8631 54.4465 67.8101 54.1913 67.4893ZM59.4712 59.4712C59.3214 59.8523 59.5083 60.2832 59.8897 60.4334C60.2712 60.5836 60.7017 60.396 60.8519 60.0149C61.0025 59.6334 60.8148 59.2029 60.4334 59.0527C60.0523 58.9025 59.6214 59.0898 59.4712 59.4712ZM61.2967 51.4733C60.8912 51.5341 60.5138 51.2544 60.4531 50.8493C60.3927 50.4439 60.672 50.0661 61.0771 50.0057C61.4825 49.945 61.8603 50.2246 61.9207 50.6297C61.9814 51.0351 61.7018 51.4126 61.2967 51.4733ZM56.9924 42.8915C57.2477 43.2123 57.7143 43.2653 58.035 43.0104C58.3561 42.7552 58.4088 42.2883 58.1539 41.9675C57.8986 41.6468 57.4321 41.5937 57.1114 41.849C56.7903 42.1039 56.7375 42.5712 56.9924 42.8915Z" fill="#3CC196"/>
</g>
<g filter="url(#filter5_d)">
<path d="M46.9424 51.5469C47.9486 53.2139 47.4128 55.3811 45.7454 56.3873C44.0784 57.3934 41.9112 56.8573 40.9051 55.1899C39.8989 53.5229 40.4354 51.3557 42.1024 50.3499C43.7694 49.3438 45.9366 49.8799 46.9424 51.5469Z" fill="#3CC196"/>
</g>
<defs>
<filter id="filter0_d" x="36.5372" y="16.9949" width="47.9535" height="36.4047" filterUnits="userSpaceOnUse" color-interpolation-filters="sRGB">
<feFlood flood-opacity="0" result="BackgroundImageFix"/>
<feColorMatrix in="SourceAlpha" type="matrix" values="0 0 0 0 0 0 0 0 0 0 0 0 0 0 0 0 0 0 127 0"/>
<feOffset dy="1"/>
<feGaussianBlur stdDeviation="0.5"/>
<feColorMatrix type="matrix" values="0 0 0 0 0 0 0 0 0 0 0 0 0 0 0 0 0 0 0.116805 0"/>
<feBlend mode="normal" in2="BackgroundImageFix" result="effect1_dropShadow"/>
<feBlend mode="normal" in="SourceGraphic" in2="effect1_dropShadow" result="shape"/>
</filter>
<filter id="filter1_d" x="36.5372" y="16.9949" width="47.9535" height="36.4047" filterUnits="userSpaceOnUse" color-interpolation-filters="sRGB">
<feFlood flood-opacity="0" result="BackgroundImageFix"/>
<feColorMatrix in="SourceAlpha" type="matrix" values="0 0 0 0 0 0 0 0 0 0 0 0 0 0 0 0 0 0 127 0"/>
<feOffset dy="1"/>
<feGaussianBlur stdDeviation="0.5"/>
<feColorMatrix type="matrix" values="0 0 0 0 0 0 0 0 0 0 0 0 0 0 0 0 0 0 0.116805 0"/>
<feBlend mode="normal" in2="BackgroundImageFix" result="effect1_dropShadow"/>
<feBlend mode="normal" in="SourceGraphic" in2="effect1_dropShadow" result="shape"/>
</filter>
<filter id="filter2_dd" x="34" y="21.1816" width="18.5455" height="8.36364" filterUnits="userSpaceOnUse" color-interpolation-filters="sRGB">
<feFlood flood-opacity="0" result="BackgroundImageFix"/>
<feColorMatrix in="SourceAlpha" type="matrix" values="0 0 0 0 0 0 0 0 0 0 0 0 0 0 0 0 0 0 127 0"/>
<feOffset dy="1"/>
<feGaussianBlur stdDeviation="1"/>
<feColorMatrix type="matrix" values="0 0 0 0 0 0 0 0 0 0 0 0 0 0 0 0 0 0 0.32 0"/>
<feBlend mode="normal" in2="BackgroundImageFix" result="effect1_dropShadow"/>
<feColorMatrix in="SourceAlpha" type="matrix" values="0 0 0 0 0 0 0 0 0 0 0 0 0 0 0 0 0 0 127 0"/>
<feOffset/>
<feGaussianBlur stdDeviation="0.5"/>
<feColorMatrix type="matrix" values="0 0 0 0 0.156863 0 0 0 0 0.160784 0 0 0 0 0.239216 0 0 0 0.08 0"/>
<feBlend mode="normal" in2="effect1_dropShadow" result="effect2_dropShadow"/>
<feBlend mode="normal" in="SourceGraphic" in2="effect2_dropShadow" result="shape"/>
</filter>
<filter id="filter3_d" x="17.9091" y="28.3635" width="51.6655" height="51.6655" filterUnits="userSpaceOnUse" color-interpolation-filters="sRGB">
<feFlood flood-opacity="0" result="BackgroundImageFix"/>
<feColorMatrix in="SourceAlpha" type="matrix" values="0 0 0 0 0 0 0 0 0 0 0 0 0 0 0 0 0 0 127 0"/>
<feOffset dy="1"/>
<feGaussianBlur stdDeviation="0.5"/>
<feColorMatrix type="matrix" values="0 0 0 0 0 0 0 0 0 0 0 0 0 0 0 0 0 0 0.469597 0"/>
<feBlend mode="normal" in2="BackgroundImageFix" result="effect1_dropShadow"/>
<feBlend mode="normal" in="SourceGraphic" in2="effect1_dropShadow" result="shape"/>
</filter>
<filter id="filter4_d" x="24.8182" y="34.2727" width="38.1108" height="38.1105" filterUnits="userSpaceOnUse" color-interpolation-filters="sRGB">
<feFlood flood-opacity="0" result="BackgroundImageFix"/>
<feColorMatrix in="SourceAlpha" type="matrix" values="0 0 0 0 0 0 0 0 0 0 0 0 0 0 0 0 0 0 127 0"/>
<feOffset/>
<feGaussianBlur stdDeviation="0.5"/>
<feColorMatrix type="matrix" values="0 0 0 0 0.156863 0 0 0 0 0.160784 0 0 0 0 0.239216 0 0 0 0.08 0"/>
<feBlend mode="normal" in2="BackgroundImageFix" result="effect1_dropShadow"/>
<feBlend mode="normal" in="SourceGraphic" in2="effect1_dropShadow" result="shape"/>
</filter>
<filter id="filter5_d" x="39.3976" y="48.8423" width="9.0525" height="9.0525" filterUnits="userSpaceOnUse" color-interpolation-filters="sRGB">
<feFlood flood-opacity="0" result="BackgroundImageFix"/>
<feColorMatrix in="SourceAlpha" type="matrix" values="0 0 0 0 0 0 0 0 0 0 0 0 0 0 0 0 0 0 127 0"/>
<feOffset/>
<feGaussianBlur stdDeviation="0.5"/>
<feColorMatrix type="matrix" values="0 0 0 0 0.156863 0 0 0 0 0.160784 0 0 0 0 0.239216 0 0 0 0.08 0"/>
<feBlend mode="normal" in2="BackgroundImageFix" result="effect1_dropShadow"/>
<feBlend mode="normal" in="SourceGraphic" in2="effect1_dropShadow" result="shape"/>
</filter>
<linearGradient id="paint0_linear" x1="18.9091" y1="28.3635" x2="18.9091" y2="78.029" gradientUnits="userSpaceOnUse">
<stop stop-color="#5B8DEF"/>
<stop offset="1" stop-color="#0063F7"/>
</linearGradient>
</defs>
</svg>
