<svg width="96" height="96" viewBox="0 0 96 96" fill="none" xmlns="http://www.w3.org/2000/svg">
<circle cx="48" cy="48" r="39.2727" fill="#536DFE" fill-opacity="0.2"/>
<g filter="url(#filter0_d)">
<path d="M12.7273 37.091C12.7273 30.4635 18.0999 25.0909 24.7273 25.0909H53.8182C60.4456 25.0909 65.8182 30.4635 65.8182 37.0909V75.2728C65.8182 81.9002 60.4456 87.2728 53.8182 87.2728H24.7273C18.0999 87.2728 12.7273 81.9002 12.7273 75.2728V37.091Z" fill="white"/>
</g>
<ellipse cx="39.8181" cy="20.1818" rx="5.27273" ry="5.27273" fill="#FFA539"/>
<mask id="mask0" mask-type="alpha" maskUnits="userSpaceOnUse" x="34" y="14" width="12" height="12">
<ellipse cx="39.9384" cy="20.1639" rx="5.25485" ry="5.25485" fill="#FF9B00"/>
</mask>
<g mask="url(#mask0)">
<rect x="33.3699" y="17.8649" width="12.8087" height="6.897" fill="#FF7900"/>
</g>
<path d="M8.7279 81.8182C8.7279 81.8182 8.5934 86.4811 12.3235 87.0222C16.0537 87.56 58.9091 87.0648 58.9091 87.0648C58.9091 87.0648 56.2261 86.0811 55.0746 81.8182H8.7279Z" fill="#3A4D57"/>
<path d="M26.3712 54.1819H21.6326C20.5313 54.1819 19.6365 53.2907 19.6365 52.1857V47.4507C19.6365 46.3494 20.5277 45.4546 21.6326 45.4546H26.3676C27.4689 45.4546 28.3637 46.3458 28.3637 47.4507V52.1857C28.3637 53.2907 27.4725 54.1819 26.3712 54.1819Z" fill="#D9D9D9"/>
<rect x="30.5454" y="46.5454" width="32.7273" height="2.18182" rx="1.09091" fill="#D9D9D9"/>
<rect x="30.5454" y="50.9091" width="22.5455" height="2.18182" rx="1.09091" fill="#D9D9D9"/>
<path d="M26.3712 65.8182H21.6326C20.5313 65.8182 19.6365 64.927 19.6365 63.8221V59.0871C19.6365 57.9858 20.5277 57.0909 21.6326 57.0909H26.3676C27.4689 57.0909 28.3637 57.9821 28.3637 59.0871V63.8221C28.3637 64.927 27.4725 65.8182 26.3712 65.8182Z" fill="#D9D9D9"/>
<rect x="30.5454" y="58.1818" width="32.7273" height="2.18182" rx="1.09091" fill="#D9D9D9"/>
<rect x="30.5454" y="62.5454" width="22.5455" height="2.18182" rx="1.09091" fill="#D9D9D9"/>
<path d="M26.3712 77.4546H21.6326C20.5313 77.4546 19.6365 76.5634 19.6365 75.4584V70.7234C19.6365 69.6221 20.5277 68.7273 21.6326 68.7273H26.3676C27.4689 68.7273 28.3637 69.6185 28.3637 70.7234V75.4584C28.3637 76.5634 27.4725 77.4546 26.3712 77.4546Z" fill="#D9D9D9"/>
<rect x="30.5454" y="69.8182" width="32.7273" height="2.18182" rx="1.09091" fill="#D9D9D9"/>
<rect x="30.5454" y="74.1818" width="22.5455" height="2.18182" rx="1.09091" fill="#D9D9D9"/>
<g filter="url(#filter1_d)">
<path d="M26.3712 41.8182H21.6326C20.5313 41.8182 19.6365 40.927 19.6365 39.8221V35.0871C19.6365 33.9858 20.5277 33.0909 21.6326 33.0909H26.3676C27.4689 33.0909 28.3637 33.9821 28.3637 35.0871V39.8221C28.3637 40.927 27.4725 41.8182 26.3712 41.8182Z" fill="#3CC196"/>
</g>
<rect x="30.5454" y="34.1818" width="28.3636" height="2.18182" rx="1.09091" fill="#D9D9D9"/>
<rect x="30.5454" y="38.5454" width="22.5455" height="2.18182" rx="1.09091" fill="#D9D9D9"/>
<path d="M29.4546 27.2727C29.4546 23.0553 32.8735 19.6364 37.091 19.6364H42.5455C46.7629 19.6364 50.1819 23.0553 50.1819 27.2727H29.4546Z" fill="#FF9B00"/>
<path fill-rule="evenodd" clip-rule="evenodd" d="M25.8182 36.5772L22.8491 39.2727L21.4546 38.0067L22.0525 37.4295L22.8491 38.1527L25.2203 36L25.8182 36.5772Z" fill="white"/>
<path fill-rule="evenodd" clip-rule="evenodd" d="M77.2411 84.8445L79.9637 87.5672C80.4071 88.0139 80.3776 88.7134 79.9637 89.1634C79.5499 89.6133 78.7847 89.5805 78.3676 89.1634L75.6449 86.4407C75.1983 85.994 75.2311 85.2945 75.6449 84.8445C76.0587 84.3946 76.824 84.4274 77.2411 84.8445ZM55.7192 86.5852L53.141 89.1634C52.6976 89.61 51.9981 89.5772 51.5448 89.1634C51.3347 88.9729 51.2131 88.6412 51.2131 88.3653C51.2131 88.0763 51.3412 87.7708 51.5448 87.5672L54.123 84.9891C54.5697 84.5424 55.2692 84.5752 55.7192 84.9891C55.9294 85.1795 56.0509 85.5113 56.0509 85.7871C56.0509 86.0762 55.9228 86.3816 55.7192 86.5852Z" fill="#004FC4"/>
<g filter="url(#filter2_d)">
<path d="M65.756 89.5345C79.4706 89.5345 90.5885 78.4167 90.5885 64.7021C90.5885 50.9875 79.4706 39.8696 65.756 39.8696C52.0415 39.8696 40.9236 50.9875 40.9236 64.7021C40.9236 78.4167 52.0415 89.5345 65.756 89.5345Z" fill="url(#paint0_linear)"/>
</g>
<path d="M65.7561 84.2665C76.5613 84.2665 85.3206 75.5072 85.3206 64.702C85.3206 53.8969 76.5613 45.1376 65.7561 45.1376C54.951 45.1376 46.1917 53.8969 46.1917 64.702C46.1917 75.5072 54.951 84.2665 65.7561 84.2665Z" fill="#F3FAFF"/>
<path d="M64.7083 52.6586C64.7083 54.0446 64.7083 55.4306 64.7083 56.8198C64.7083 58.8495 64.7083 60.8759 64.7083 62.9056C64.7083 63.4803 64.7083 64.0551 64.7083 64.6331C64.7083 65.1783 65.1878 65.7038 65.7526 65.6775C66.3175 65.6513 66.7971 65.2177 66.7971 64.6331C66.7971 63.2472 66.7971 61.8612 66.7971 60.4719C66.7971 58.4423 66.7971 56.4158 66.7971 54.3862C66.7971 53.8114 66.7971 53.2367 66.7971 52.6586C66.7971 52.1134 66.3175 51.588 65.7526 51.6142C65.1878 51.6405 64.7083 52.074 64.7083 52.6586Z" fill="#003078"/>
<path d="M65.0006 64.088C62.9052 66.1833 60.8099 68.2787 58.7112 70.3774C58.3499 70.7386 57.9854 71.1032 57.6241 71.4645C57.2366 71.852 57.207 72.5614 57.6241 72.9424C58.0412 73.3266 58.6882 73.3562 59.102 72.9424C61.1974 70.847 63.2928 68.7516 65.3914 66.653C65.7527 66.2917 66.1173 65.9272 66.4785 65.5659C66.8661 65.1783 66.8956 64.4689 66.4785 64.088C66.0614 63.7037 65.4111 63.6741 65.0006 64.088Z" fill="#003078"/>
<path fill-rule="evenodd" clip-rule="evenodd" d="M53.3907 51.9657L54.7012 53.2761C54.803 53.3812 54.7964 53.5421 54.7012 53.6439C54.6059 53.749 54.4286 53.7392 54.3333 53.6439L53.0229 52.3335C52.9211 52.2317 52.9277 52.0708 53.0229 51.9657C53.1182 51.8606 53.2955 51.8704 53.3907 51.9657ZM76.8076 53.2761L78.118 51.9657C78.2231 51.8638 78.384 51.8704 78.4858 51.9657C78.5909 52.0609 78.5811 52.2383 78.4858 52.3335L77.1754 53.6439C77.0736 53.7457 76.9127 53.7392 76.8076 53.6439C76.7025 53.5487 76.7123 53.3713 76.8076 53.2761ZM53.0195 77.0641L54.3299 75.7537C54.435 75.6519 54.596 75.6585 54.6978 75.7537C54.8029 75.8489 54.793 76.0263 54.6978 76.1215L53.3873 77.432C53.2855 77.5338 53.1246 77.5272 53.0195 77.432C52.9144 77.3367 52.9243 77.1594 53.0195 77.0641ZM78.4891 77.0675L77.1787 75.757C77.0834 75.6618 76.9061 75.6519 76.8108 75.757C76.7156 75.8621 76.709 76.0231 76.8108 76.1249L78.1213 77.4353C78.2165 77.5305 78.3939 77.5404 78.4891 77.4353C78.5843 77.3302 78.5909 77.1693 78.4891 77.0675Z" fill="#8CA5FF"/>
<path fill-rule="evenodd" clip-rule="evenodd" d="M67.2766 46.9506C67.3127 47.7716 66.5507 48.4712 65.756 48.4712C64.902 48.4712 64.2715 47.7749 64.2353 46.9506C64.1992 46.1295 64.9612 45.4299 65.756 45.4299C66.6099 45.4299 67.2404 46.1262 67.2766 46.9506ZM67.2766 82.4471C67.3127 83.2681 66.5507 83.9677 65.756 83.9677C64.902 83.9677 64.2715 83.2714 64.2353 82.4471C64.1992 81.626 64.9612 80.9264 65.756 80.9264C66.6099 80.9264 67.2404 81.6227 67.2766 82.4471ZM48.0077 66.2194C48.8025 66.2194 49.5645 65.5199 49.5283 64.6988C49.4922 63.8745 48.8616 63.1782 48.0077 63.1782C47.2129 63.1782 46.4509 63.8778 46.4871 64.6988C46.5232 65.5232 47.1538 66.2194 48.0077 66.2194ZM85.0215 64.6988C85.0577 65.5199 84.2957 66.2194 83.5009 66.2194C82.6503 66.2194 82.0197 65.5232 81.9803 64.6988C81.9442 63.8778 82.7061 63.1782 83.5009 63.1782C84.3548 63.1782 84.9854 63.8745 85.0215 64.6988Z" fill="#8CA5FF"/>
<path d="M65.7562 67.382C67.2363 67.382 68.4361 66.1822 68.4361 64.7021C68.4361 63.222 67.2363 62.0221 65.7562 62.0221C64.276 62.0221 63.0762 63.222 63.0762 64.7021C63.0762 66.1822 64.276 67.382 65.7562 67.382Z" fill="#004FC4"/>
<defs>
<filter id="filter0_d" x="8.41554" y="22.9351" width="61.7144" height="70.8053" filterUnits="userSpaceOnUse" color-interpolation-filters="sRGB">
<feFlood flood-opacity="0" result="BackgroundImageFix"/>
<feColorMatrix in="SourceAlpha" type="matrix" values="0 0 0 0 0 0 0 0 0 0 0 0 0 0 0 0 0 0 127 0"/>
<feOffset dy="2.15588"/>
<feGaussianBlur stdDeviation="2.15588"/>
<feColorMatrix type="matrix" values="0 0 0 0 0.054902 0 0 0 0 0.117647 0 0 0 0 0.243137 0 0 0 0.08 0"/>
<feBlend mode="normal" in2="BackgroundImageFix" result="effect1_dropShadow"/>
<feBlend mode="normal" in="SourceGraphic" in2="effect1_dropShadow" result="shape"/>
</filter>
<filter id="filter1_d" x="18.6365" y="32.0909" width="10.7273" height="10.7273" filterUnits="userSpaceOnUse" color-interpolation-filters="sRGB">
<feFlood flood-opacity="0" result="BackgroundImageFix"/>
<feColorMatrix in="SourceAlpha" type="matrix" values="0 0 0 0 0 0 0 0 0 0 0 0 0 0 0 0 0 0 127 0"/>
<feOffset/>
<feGaussianBlur stdDeviation="0.5"/>
<feColorMatrix type="matrix" values="0 0 0 0 0.156863 0 0 0 0 0.160784 0 0 0 0 0.239216 0 0 0 0.08 0"/>
<feBlend mode="normal" in2="BackgroundImageFix" result="effect1_dropShadow"/>
<feBlend mode="normal" in="SourceGraphic" in2="effect1_dropShadow" result="shape"/>
</filter>
<filter id="filter2_d" x="39.9236" y="39.8696" width="51.6649" height="51.6649" filterUnits="userSpaceOnUse" color-interpolation-filters="sRGB">
<feFlood flood-opacity="0" result="BackgroundImageFix"/>
<feColorMatrix in="SourceAlpha" type="matrix" values="0 0 0 0 0 0 0 0 0 0 0 0 0 0 0 0 0 0 127 0"/>
<feOffset dy="1"/>
<feGaussianBlur stdDeviation="0.5"/>
<feColorMatrix type="matrix" values="0 0 0 0 0 0 0 0 0 0 0 0 0 0 0 0 0 0 0.469597 0"/>
<feBlend mode="normal" in2="BackgroundImageFix" result="effect1_dropShadow"/>
<feBlend mode="normal" in="SourceGraphic" in2="effect1_dropShadow" result="shape"/>
</filter>
<linearGradient id="paint0_linear" x1="40.9236" y1="39.8696" x2="40.9236" y2="89.5345" gradientUnits="userSpaceOnUse">
<stop stop-color="#5B8DEF"/>
<stop offset="1" stop-color="#0063F7"/>
</linearGradient>
</defs>
</svg>
