<?xml version="1.0" encoding="iso-8859-1"?>
<!-- Generator: Adobe Illustrator 19.0.0, SVG Export Plug-In . SVG Version: 6.00 Build 0)  -->
<svg version="1.1" id="Capa_1"
     xmlns="http://www.w3.org/2000/svg"
     xmlns:xlink="http://www.w3.org/1999/xlink" x="0px" y="0px" viewBox="0 0 194.56 194.56" style="enable-background:new 0 0 194.56 194.56;" xml:space="preserve" fill="currentColor">
	<g>
		<g>
			<path d="M149.362,126.783c-0.002,0-0.005,0-0.007,0l-22.92-0.968c-1.818-0.034-3.475,1.382-3.553,3.267
			c-0.08,1.882,1.382,3.473,3.267,3.553l23.064,0.971c16.534,0,29.988,11.933,29.988,26.602v27.525H15.36v-27.525
			c0-14.669,13.454-26.602,30.131-26.605l23.479-0.992c1.882-0.08,3.347-1.669,3.267-3.553c-0.078-1.886-1.737-3.337-3.553-3.267
			l-23.335,0.988c-20.299,0-36.815,14.997-36.815,33.429v30.938c0,1.884,1.529,3.413,3.413,3.413h170.667
			c1.884,0,3.413-1.529,3.413-3.413v-30.939C186.027,141.776,169.518,126.783,149.362,126.783z"/>
		</g>
	</g>
  <g>
		<g>
			<path d="M124.587,112.64H69.973c-1.884,0-3.413,1.529-3.413,3.413v16.213c0,1.493,0.969,2.813,2.394,3.258
			c8.87,2.772,18.598,4.157,28.326,4.157c9.728,0,19.456-1.388,28.326-4.157c1.425-0.445,2.394-1.765,2.394-3.258v-16.213
			C128,114.169,126.471,112.64,124.587,112.64z M121.173,129.715c-15.143,4.2-32.643,4.2-47.787,0v-10.249h47.787V129.715z"/>
		</g>
	</g>
  <g>
		<g>
			<path d="M145.067,40.356c-1.884,0-3.413,1.529-3.413,3.413v49.947c0,10.435-8.489,18.924-18.924,18.924h-50.9
			c-10.435,0-18.924-8.489-18.924-18.924V49.493c0-1.884-1.529-3.413-3.413-3.413s-3.413,1.529-3.413,3.413v44.223
			c0,14.198,11.552,25.75,25.75,25.75h50.9c14.198,0,25.75-11.552,25.75-25.75V43.769C148.48,41.885,146.951,40.356,145.067,40.356z
			"/>
		</g>
	</g>
  <g>
		<g>
			<path d="M145.067,40.96c-1.884,0-3.413,1.529-3.413,3.413v13.653H52.907V34.133c0-1.884-1.529-3.413-3.413-3.413
			s-3.413,1.529-3.413,3.413V61.44c0,1.884,1.529,3.413,3.413,3.413h95.573c1.884,0,3.413-1.529,3.413-3.413V44.373
			C148.48,42.489,146.951,40.96,145.067,40.96z"/>
		</g>
	</g>
  <g>
		<g>
			<path d="M155.307,0h-91.59C53.992,0,46.08,7.912,46.08,17.637v30.15c0,1.884,1.529,3.413,3.413,3.413h82.48
			c14.749,0,26.747-11.998,26.747-26.747V3.413C158.72,1.529,157.191,0,155.307,0z M151.893,24.453
			c0,10.984-8.936,19.92-19.92,19.92H52.907V17.637c0-5.96,4.85-10.81,10.81-10.81h88.177V24.453z"/>
		</g>
	</g>
  <g>
		<g>
			<path d="M34.528,129.657c-0.916-0.632-2.079-0.773-3.123-0.387c-13.892,5.166-22.871,17.311-22.871,30.938v30.938
			c0,1.884,1.529,3.413,3.413,3.413H54.53c1.557,0,2.917-1.053,3.306-2.562c1.26-4.886,1.898-9.767,1.898-14.505
			C59.733,158.389,50.311,140.506,34.528,129.657z M51.821,187.733H15.36v-27.525c0-10.208,6.526-19.412,16.775-23.873
			c13.041,9.653,20.772,24.905,20.772,41.158C52.907,180.835,52.541,184.269,51.821,187.733z"/>
		</g>
	</g>
  <g>
		<g>
			<path d="M163.156,129.27c-1.044-0.386-2.208-0.244-3.123,0.387c-15.783,10.849-25.206,28.732-25.206,47.836
			c0,4.745,0.638,9.627,1.898,14.507c0.389,1.507,1.749,2.56,3.306,2.56h42.583c1.884,0,3.413-1.529,3.413-3.413v-30.938
			C186.027,146.58,177.05,134.436,163.156,129.27z M179.2,187.733h-36.461c-0.72-3.459-1.085-6.893-1.085-10.24
			c0-16.253,7.731-31.505,20.772-41.158c10.248,4.461,16.775,13.665,16.775,23.873V187.733z"/>
		</g>
	</g>
  <g>
	</g>
  <g>
	</g>
  <g>
	</g>
  <g>
	</g>
  <g>
	</g>
  <g>
	</g>
  <g>
	</g>
  <g>
	</g>
  <g>
	</g>
  <g>
	</g>
  <g>
	</g>
  <g>
	</g>
  <g>
	</g>
  <g>
	</g>
  <g>
	</g>
</svg>
