<svg width="450" height="450" xmlns="http://www.w3.org/2000/svg">
    <!-- Created with Method Draw - http://github.com/duopixel/Method-Draw/ -->

    <g>
        <title>background</title>
        <rect fill="#ffffff" fill-opacity="0" id="canvas_background" height="452" width="452" y="-1" x="-1" />
        <g display="none" overflow="visible" y="0" x="0" height="100%" width="100%" id="canvasGrid">
            <rect fill="url(#gridpattern)" stroke-width="0" y="0" x="0" height="100%" width="100%" />
        </g>
    </g>
    <g>
        <title>Layer 1</title>
        <!-- Created with Method Draw - http://github.com/duopixel/Method-Draw/ -->
        <g id="svg_17">
            <g fill-opacity="0" transform="matrix(0.26986001735795995,0,0,0.26986001735795995,0,0) " id="svg_14">
                <title fill="#0fffff" transform="translate(1289.75,0) translate(0,919.1875) ">background</title>
                <rect x="1288.75" y="918.1875" width="387" height="387" id="svg_12" fill="#0fffff" />
                <g id="svg_11" display="none">
                    <rect id="svg_15" width="800" height="600" x="1289.75" y="919.1875" stroke-width="0" fill="#0fffff" />
                </g>
            </g>
            <g transform="matrix(1.1345184059137414,0,0,1.1345184059137414,-1116.1400185752427,-1127.1780675734044) " id="svg_16">
                <title transform="translate(1.1368683772161603e-13,3.024351119995117) translate(-0.4407954812049866,1.1368683772161603e-13) translate(7.051450252532959,6.170018672943115) translate(-306.7380676269531,68.75164031982422) translate(1.1368683772161603e-13,1.1368683772161603e-13) translate(1289.75,0) translate(0,919.1875) ">Layer 1</title>
                <g id="svg_8" stroke="null">
                    <g transform="matrix(0.10950311400877677,0,0,-0.10950311400877677,-850.2961304218179,-511.17775767048226) " fill="#000000" id="svg_9">
                        <path d="m19579.47578,-13879.17846c-109,-25 -267,-78 -357,-118l-58,-26l-72,25c-162,56 -297,76 -508,77c-449,1 -853,-167 -1175,-488c-239,-240 -389,-520 -457,-857c-20,-98 -23,-142 -22,-333c0,-231 10,-306 63,-474l20,-65l-33,-75c-227,-516 -163,-886 169,-976c141,-38 375,-11 606,71l96,34l59,-26c367,-164 813,-186 1201,-59c697,229 1164,895 1140,1626c-2,79 -10,176 -16,214c-14,86 -62,257 -96,345l-26,65l50,125c76,190 111,340 111,475c0,251 -91,387 -299,449c-84,25 -270,21 -396,-9zm335,-283c20,-10 42,-32 52,-52c29,-56 22,-181 -18,-315l-17,-60l-35,45c-63,79 -225,235 -300,287c-40,28 -69,53 -65,56c4,2 44,15 88,27c44,12 85,24 90,25c6,2 46,4 90,4c57,1 90,-4 115,-17zm-1147,-61c13,-5 -16,-30 -125,-103c-285,-194 -514,-386 -773,-650c-236,-239 -381,-411 -563,-665c-55,-78 -82,-107 -86,-97c-12,32 -6,284 9,370c48,273 189,539 395,744c242,242 517,375 845,410c81,8 265,3 298,-9zm501,-175c40,-24 100,-63 132,-86c91,-66 263,-246 328,-341l57,-86l-57,-99c-120,-209 -233,-362 -447,-606c-334,-381 -693,-701 -1032,-920c-119,-77 -330,-196 -363,-205c-17,-4 -39,5 -80,33c-79,54 -252,223 -313,305c-65,89 -149,229 -149,251c0,37 166,304 287,460c74,97 309,362 455,513c211,220 480,449 708,604c140,96 357,221 382,221c9,0 51,-20 92,-44zm678,-967c18,-108 15,-365 -6,-471c-36,-187 -117,-377 -226,-529c-73,-103 -215,-247 -324,-328c-147,-111 -360,-205 -556,-247c-161,-34 -473,-20 -597,27l-27,10l39,23c566,324 1222,944 1600,1514c49,73 71,99 77,89c4,-8 13,-47 20,-88zm-2514,-1421c111,-108 111,-101 -3,-118c-156,-22 -241,-7 -268,47c-32,62 -29,181 8,311l16,52l73,-97c41,-54 119,-142 174,-195z" id="svg_10" fill="#ffffff" stroke="#d121c5" />
                    </g>
                </g>
            </g>
        </g>
    </g>
</svg>