<?xml version="1.0" encoding="UTF-8" standalone="no"?><!DOCTYPE svg PUBLIC "-//W3C//DTD SVG 1.1//EN" "http://www.w3.org/Graphics/SVG/1.1/DTD/svg11.dtd"><svg width="100%" height="100%" viewBox="0 0 67 70" version="1.1" xmlns="http://www.w3.org/2000/svg" xmlns:xlink="http://www.w3.org/1999/xlink" xml:space="preserve" style="fill-rule:evenodd;clip-rule:evenodd;stroke-linejoin:round;stroke-miterlimit:1.41421;"><path d="M17.056,52.373c1.004,1.004 1.506,2.216 1.506,3.636c0,1.42 -0.502,2.632 -1.506,3.636c-1.005,1.005 -2.217,1.507 -3.636,1.507c-1.393,0 -2.599,-0.509 -3.616,-1.527c-1.018,-1.018 -1.527,-2.223 -1.527,-3.616c0,-1.42 0.502,-2.632 1.506,-3.636c1.005,-1.005 2.217,-1.507 3.637,-1.507c1.419,0 2.631,0.502 3.636,1.507Zm20.009,8.277c1.004,1.004 1.506,2.216 1.506,3.636c0,1.419 -0.502,2.631 -1.506,3.636c-1.005,1.004 -2.217,1.507 -3.636,1.507c-1.42,0 -2.632,-0.503 -3.637,-1.507c-1.004,-1.005 -1.506,-2.217 -1.506,-3.636c0,-1.42 0.502,-2.632 1.506,-3.636c1.005,-1.005 2.217,-1.507 3.637,-1.507c1.419,0 2.631,0.502 3.636,1.507Zm-28.286,-28.286c1.004,1.004 1.507,2.216 1.507,3.636c0,1.42 -0.503,2.632 -1.507,3.636c-1.004,1.005 -2.216,1.507 -3.636,1.507c-1.42,0 -2.632,-0.502 -3.636,-1.507c-1.005,-1.004 -1.507,-2.216 -1.507,-3.636c0,-1.42 0.502,-2.632 1.507,-3.636c1.004,-1.005 2.216,-1.507 3.636,-1.507c1.42,0 2.632,0.502 3.636,1.507Zm49.801,23.645c0,1.393 -0.509,2.598 -1.526,3.616c-1.018,1.018 -2.224,1.527 -3.616,1.527c-1.42,0 -2.632,-0.502 -3.637,-1.507c-1.004,-1.004 -1.506,-2.216 -1.506,-3.636c0,-1.42 0.502,-2.632 1.506,-3.636c1.005,-1.005 2.217,-1.507 3.637,-1.507c1.419,0 2.631,0.502 3.636,1.507c1.004,1.004 1.506,2.216 1.506,3.636Zm-40.62,-44.558c1.259,1.259 1.888,2.772 1.888,4.54c0,1.768 -0.629,3.281 -1.888,4.54c-1.259,1.259 -2.772,1.889 -4.54,1.889c-1.768,0 -3.282,-0.63 -4.541,-1.889c-1.258,-1.259 -1.888,-2.772 -1.888,-4.54c0,-1.768 0.63,-3.281 1.888,-4.54c1.259,-1.259 2.773,-1.889 4.541,-1.889c1.768,0 3.281,0.63 4.54,1.889Zm47.39,20.913c1.005,1.004 1.507,2.216 1.507,3.636c0,1.42 -0.502,2.632 -1.507,3.636c-1.004,1.005 -2.216,1.507 -3.636,1.507c-1.419,0 -2.631,-0.502 -3.636,-1.507c-1.004,-1.004 -1.507,-2.216 -1.507,-3.636c0,-1.42 0.503,-2.632 1.507,-3.636c1.005,-1.005 2.217,-1.507 3.636,-1.507c1.42,0 2.632,0.502 3.636,1.507Zm-26.457,-30.114c1.5,1.5 2.25,3.321 2.25,5.464c0,2.143 -0.75,3.965 -2.25,5.465c-1.5,1.5 -3.322,2.25 -5.464,2.25c-2.143,0 -3.965,-0.75 -5.465,-2.25c-1.5,-1.5 -2.25,-3.322 -2.25,-5.465c0,-2.143 0.75,-3.964 2.25,-5.464c1.5,-1.5 3.322,-2.25 5.465,-2.25c2.142,0 3.964,0.75 5.464,2.25Zm23.545,13.741c0,2.491 -0.884,4.614 -2.652,6.368c-1.768,1.755 -3.884,2.632 -6.348,2.632c-2.492,0 -4.614,-0.877 -6.369,-2.632c-1.754,-1.754 -2.631,-3.877 -2.631,-6.368c0,-2.464 0.877,-4.58 2.631,-6.348c1.755,-1.768 3.877,-2.652 6.369,-2.652c2.464,0 4.58,0.884 6.348,2.652c1.768,1.768 2.652,3.884 2.652,6.348Z" style="fill:#fff;fill-rule:nonzero;"/></svg>