<?xml version="1.0" encoding="UTF-8" standalone="no"?><!DOCTYPE svg PUBLIC "-//W3C//DTD SVG 1.1//EN" "http://www.w3.org/Graphics/SVG/1.1/DTD/svg11.dtd"><svg width="100%" height="100%" viewBox="0 0 2425 749" version="1.1" xmlns="http://www.w3.org/2000/svg" xmlns:xlink="http://www.w3.org/1999/xlink" xml:space="preserve" xmlns:serif="http://www.serif.com/" style="fill-rule:evenodd;clip-rule:evenodd;stroke-linejoin:round;stroke-miterlimit:1.41421;"><path d="M0,374.123l216,-374.123l432,0l216,374.123l-216,374.123l-432,0l-216,-374.123Z" style="fill:#c12f93;"/><path id="RiteTag" d="M455.533,415.464l15.855,-63.544l-62.921,0l-15.855,63.544l62.921,0Zm190.25,-125.102l-13.872,55.601c-1.156,3.972 -3.716,5.957 -7.68,5.957l-81.004,0l-15.855,63.544l77.042,0c2.477,0 4.541,0.993 6.193,2.979c1.651,2.317 2.147,4.633 1.486,6.95l-13.872,55.601c-0.826,3.972 -3.386,5.957 -7.68,5.957l-81.004,0l-20.066,81.416c-1.156,3.972 -3.716,5.957 -7.679,5.957l-55.49,0c-2.642,0 -4.789,-0.992 -6.44,-2.978c-1.487,-1.986 -1.982,-4.303 -1.487,-6.95l19.323,-77.445l-62.921,0l-20.066,81.416c-1.156,3.972 -3.716,5.957 -7.679,5.957l-55.737,0c-2.478,0 -4.542,-0.992 -6.193,-2.978c-1.487,-1.986 -1.982,-4.303 -1.487,-6.95l19.323,-77.445l-77.042,0c-2.477,0 -4.541,-0.992 -6.193,-2.978c-1.486,-1.986 -1.981,-4.303 -1.486,-6.95l13.872,-55.601c1.156,-3.972 3.716,-5.958 7.68,-5.958l81.004,0l15.855,-63.544l-77.042,0c-2.477,0 -4.541,-0.992 -6.193,-2.978c-1.651,-2.317 -2.146,-4.634 -1.486,-6.95l13.872,-55.601c0.826,-3.972 3.386,-5.958 7.68,-5.958l81.004,0l20.066,-81.415c1.156,-3.972 3.798,-5.958 7.927,-5.958l55.489,0c2.478,0 4.542,0.993 6.193,2.979c1.487,1.986 1.982,4.303 1.487,6.95l-19.323,77.444l62.921,0l20.066,-81.415c1.156,-3.972 3.798,-5.958 7.927,-5.958l55.489,0c2.478,0 4.542,0.993 6.193,2.979c1.487,1.986 1.982,4.303 1.487,6.95l-19.323,77.444l77.042,0c2.477,0 4.541,0.993 6.193,2.979c1.486,1.986 1.981,4.303 1.486,6.95Z" style="fill:#fff;fill-rule:nonzero;"/><g><path d="M1690.52,214.442l262.5,0l0,42l-107.5,0l0,308l-47.5,0l0,-308l-107.5,0l0,-42Z" style="fill:#fff;fill-rule:nonzero;"/><path d="M1913.02,435.942c0,-19.333 3,-37.416 9,-54.25c6,-16.833 14.417,-31.416 25.25,-43.75c10.833,-12.333 23.833,-22 39,-29c15.167,-7 31.75,-10.5 49.75,-10.5c15,0 28.583,2.584 40.75,7.75c12.167,5.167 22.75,11.584 31.75,19.25l0,-21l41,0l0,197c0,12.667 3.083,20.917 9.25,24.75c6.167,3.834 12.917,5.75 20.25,5.75l-9.5,35c-32,0 -51.333,-13 -58,-39c-4,5.334 -8.583,10.584 -13.75,15.75c-5.167,5.167 -11.083,9.75 -17.75,13.75c-6.667,4 -14.167,7.167 -22.5,9.5c-8.333,2.334 -17.5,3.5 -27.5,3.5c-16.333,0 -31.583,-3.166 -45.75,-9.5c-14.167,-6.333 -26.5,-15.333 -37,-27c-10.5,-11.666 -18.833,-25.75 -25,-42.25c-6.167,-16.5 -9.25,-35.083 -9.25,-55.75Zm127,94.5c12.667,0 24.667,-3 36,-9c11.333,-6 20.833,-13.833 28.5,-23.5l0,-139.5c-9,-6.333 -18.917,-11.416 -29.75,-15.25c-10.833,-3.833 -22.25,-5.75 -34.25,-5.75c-12,0 -23,2.334 -33,7c-10,4.667 -18.583,11.25 -25.75,19.75c-7.167,8.5 -12.75,18.75 -16.75,30.75c-4,12 -6,25.167 -6,39.5c0,14 2,26.917 6,38.75c4,11.834 9.667,22 17,30.5c7.333,8.5 15.917,15.084 25.75,19.75c9.833,4.667 20.583,7 32.25,7Z" style="fill:#fff;fill-rule:nonzero;"/><path d="M2312.02,298.442c15,0 28.417,2.5 40.25,7.5c11.833,5 22.083,11.167 30.75,18.5l0,-20l41,0l0,254c0,21.667 -2.833,40.167 -8.5,55.5c-5.667,15.334 -13.75,27.917 -24.25,37.75c-10.5,9.834 -23.083,17.084 -37.75,21.75c-14.667,4.667 -31,7 -49,7c-15.667,0 -30.667,-1.833 -45,-5.5c-14.333,-3.666 -27.167,-9.166 -38.5,-16.5l16.5,-39c8,6.334 17.333,11.584 28,15.75c10.667,4.167 23.667,6.25 39,6.25c23.667,0 42.25,-6.166 55.75,-18.5c13.5,-12.333 20.25,-32.333 20.25,-60l0,-32c-6.667,8 -16.25,15.584 -28.75,22.75c-12.5,7.167 -27.417,10.75 -44.75,10.75c-14.667,0 -29,-2.916 -43,-8.75c-14,-5.833 -26.333,-14.333 -37,-25.5c-10.667,-11.166 -19.25,-24.833 -25.75,-41c-6.5,-16.166 -9.75,-34.75 -9.75,-55.75c0,-19.333 3.167,-37.25 9.5,-53.75c6.333,-16.5 14.917,-30.75 25.75,-42.75c10.833,-12 23.583,-21.416 38.25,-28.25c14.667,-6.833 30.333,-10.25 47,-10.25Zm5,226c13.333,0 25.333,-3 36,-9c10.667,-6 19.333,-13 26,-21l0,-136c-7.667,-5.333 -16.5,-10.166 -26.5,-14.5c-10,-4.333 -22,-6.5 -36,-6.5c-10.333,0 -20.25,2.084 -29.75,6.25c-9.5,4.167 -17.917,10.25 -25.25,18.25c-7.333,8 -13.167,17.75 -17.5,29.25c-4.333,11.5 -6.5,24.75 -6.5,39.75c0,14.334 2.167,27.25 6.5,38.75c4.333,11.5 10.167,21.334 17.5,29.5c7.333,8.167 15.75,14.417 25.25,18.75c9.5,4.334 19.583,6.5 30.25,6.5Z" style="fill:#fff;fill-rule:nonzero;"/></g><g id="Rite"><path d="M1168.22,570.442l-43.5,-95c-11,-23.666 -24.833,-40.5 -41.5,-50.5c-16.666,-10 -38,-15 -64,-15l-7.5,0l0,154.5l-47.5,0l0,-349c18,-1.666 34.917,-2.916 50.75,-3.75c15.834,-0.833 33.084,-1.25 51.75,-1.25c21.334,0 40,2.25 56,6.75c16,4.5 29.334,10.917 40,19.25c10.667,8.334 18.75,18.167 24.25,29.5c5.5,11.334 8.25,23.834 8.25,37.5c0,24.334 -7.25,43.917 -21.75,58.75c-14.5,14.834 -35.416,25.917 -62.75,33.25c6.667,3 12.834,6.417 18.5,10.25c5.667,3.834 11,8.5 16,14c5,5.5 9.917,12.084 14.75,19.75c4.834,7.667 9.75,17 14.75,28l38,82l-44.5,21Zm-101.5,-320c-11.333,0 -21.5,0.167 -30.5,0.5c-9,0.334 -17.166,0.834 -24.5,1.5l0,117.5l55,0c24,0 43.5,-5.333 58.5,-16c15,-10.666 22.5,-26 22.5,-46c0,-16.666 -7,-30.416 -21,-41.25c-14,-10.833 -34,-16.25 -60,-16.25Z" style="fill:#fff;fill-rule:nonzero;"/><path d="M1297.72,564.442l-45,0l0,-260l45,0l0,260Zm-22.5,-304.5c-8.666,0 -16.083,-3.083 -22.25,-9.25c-6.166,-6.166 -9.25,-13.583 -9.25,-22.25c0,-9.666 2.834,-17.333 8.5,-23c5.667,-5.666 13.334,-8.5 23,-8.5c8.667,0 16.084,3.084 22.25,9.25c6.167,6.167 9.25,13.584 9.25,22.25c0,9.667 -2.833,17.334 -8.5,23c-5.666,5.667 -13.333,8.5 -23,8.5Z" style="fill:#fff;fill-rule:nonzero;"/><path d="M1383.22,231.942l34.5,0l0,82l72,0l0,39l-72,0l0,125.5c0,9.667 1.084,17.834 3.25,24.5c2.167,6.667 5.084,12 8.75,16c3.667,4 8.084,6.917 13.25,8.75c5.167,1.834 10.584,2.75 16.25,2.75c8.334,0 16.167,-1.333 23.5,-4c7.334,-2.666 14.334,-5.833 21,-9.5l12.5,36c-6.666,4 -15.666,7.917 -27,11.75c-11.333,3.834 -23.166,5.75 -35.5,5.75c-25,0 -44.75,-8.166 -59.25,-24.5c-14.5,-16.333 -21.75,-40 -21.75,-71l0,-122l-45,0l0,-39l46,0l9.5,-82Z" style="fill:#fff;fill-rule:nonzero;"/><path d="M1564.72,452.942c3,24.334 11.5,43.334 25.5,57c14,13.667 32.5,20.5 55.5,20.5c15,0 28.5,-1.583 40.5,-4.75c12,-3.166 23.5,-7.25 34.5,-12.25l10.5,38.5c-12,5.667 -25.5,10.167 -40.5,13.5c-15,3.334 -31.833,5 -50.5,5c-18.666,0 -35.5,-3.083 -50.5,-9.25c-15,-6.166 -27.75,-15 -38.25,-26.5c-10.5,-11.5 -18.583,-25.666 -24.25,-42.5c-5.666,-16.833 -8.5,-36.083 -8.5,-57.75c0,-19.333 2.834,-37.333 8.5,-54c5.667,-16.666 13.667,-31.083 24,-43.25c10.334,-12.166 22.667,-21.666 37,-28.5c14.334,-6.833 30.334,-10.25 48,-10.25c18.667,0 35,3.167 49,9.5c14,6.334 25.667,15 35,26c9.334,11 16.334,23.834 21,38.5c4.667,14.667 7,30.167 7,46.5c0,11.667 -0.5,23 -1.5,34l-182,0Zm70.5,-115.5c-19.666,0 -35.75,6.667 -48.25,20c-12.5,13.334 -20.083,33 -22.75,59l142.5,0c0,-25.333 -6.333,-44.833 -19,-58.5c-12.666,-13.666 -30.166,-20.5 -52.5,-20.5Z" style="fill:#fff;fill-rule:nonzero;"/></g></svg>