<?xml version="1.0" encoding="UTF-8" standalone="no"?><!DOCTYPE svg PUBLIC "-//W3C//DTD SVG 1.1//EN" "http://www.w3.org/Graphics/SVG/1.1/DTD/svg11.dtd"><svg width="100%" height="100%" viewBox="0 0 60 65" version="1.1" xmlns="http://www.w3.org/2000/svg" xmlns:xlink="http://www.w3.org/1999/xlink" xml:space="preserve" xmlns:serif="http://www.serif.com/" style="fill-rule:evenodd;clip-rule:evenodd;stroke-linejoin:round;stroke-miterlimit:1.41421;"><path d="M9.258,14.258c0.495,-0.495 0.742,-1.081 0.742,-1.758c0,-0.677 -0.247,-1.263 -0.742,-1.758c-0.495,-0.495 -1.081,-0.742 -1.758,-0.742c-0.677,0 -1.263,0.247 -1.758,0.742c-0.495,0.495 -0.742,1.081 -0.742,1.758c0,0.677 0.247,1.263 0.742,1.758c0.495,0.495 1.081,0.742 1.758,0.742c0.677,0 1.263,-0.247 1.758,-0.742Zm45.742,20.742c0,-0.911 -0.28,-1.966 -0.84,-3.164c-0.56,-1.198 -1.256,-1.81 -2.09,-1.836c0.391,-0.443 0.716,-1.061 0.977,-1.855c0.26,-0.795 0.391,-1.517 0.391,-2.168c0,-1.797 -0.691,-3.347 -2.071,-4.649c0.469,-0.833 0.703,-1.732 0.703,-2.695c0,-0.964 -0.228,-1.921 -0.683,-2.871c-0.456,-0.951 -1.074,-1.634 -1.856,-2.051c0.13,-0.781 0.196,-1.51 0.196,-2.188c0,-2.213 -0.638,-3.854 -1.914,-4.921c-1.277,-1.068 -3.047,-1.602 -5.313,-1.602l-5,0c-3.411,0 -7.865,0.951 -13.359,2.852c-0.131,0.052 -0.508,0.188 -1.133,0.41c-0.625,0.221 -1.087,0.384 -1.387,0.488c-0.299,0.104 -0.755,0.254 -1.367,0.449c-0.612,0.196 -1.107,0.339 -1.484,0.43c-0.378,0.091 -0.808,0.176 -1.29,0.254c-0.481,0.078 -0.891,0.117 -1.23,0.117l-1.25,0l0,25l1.25,0c0.417,0 0.879,0.117 1.387,0.352c0.508,0.234 1.028,0.585 1.562,1.054c0.534,0.469 1.035,0.931 1.504,1.387c0.469,0.456 0.99,1.029 1.563,1.719c0.573,0.69 1.022,1.243 1.347,1.66c0.326,0.417 0.736,0.95 1.231,1.601c0.495,0.651 0.794,1.042 0.898,1.172c1.432,1.771 2.435,2.956 3.008,3.555c1.068,1.12 1.842,2.546 2.324,4.277c0.482,1.732 0.879,3.366 1.192,4.903c0.312,1.536 0.807,2.643 1.484,3.32c2.5,0 4.167,-0.612 5,-1.836c0.833,-1.224 1.25,-3.112 1.25,-5.664c0,-1.536 -0.625,-3.626 -1.875,-6.27c-1.25,-2.643 -1.875,-4.72 -1.875,-6.23l13.75,0c1.302,0 2.461,-0.501 3.477,-1.504c1.015,-1.003 1.523,-2.168 1.523,-3.496Zm5,0.039c0,2.682 -0.99,5.013 -2.969,6.992c-1.979,1.979 -4.323,2.969 -7.031,2.969l-6.875,0c1.25,2.578 1.875,5.078 1.875,7.5c0,3.073 -0.456,5.495 -1.367,7.266c-0.912,1.796 -2.24,3.118 -3.985,3.964c-1.744,0.847 -3.71,1.27 -5.898,1.27c-1.328,0 -2.5,-0.482 -3.516,-1.445c-0.885,-0.86 -1.588,-1.927 -2.109,-3.203c-0.521,-1.276 -0.853,-2.455 -0.996,-3.536c-0.143,-1.08 -0.371,-2.181 -0.684,-3.3c-0.312,-1.12 -0.716,-1.953 -1.211,-2.5c-1.25,-1.302 -2.643,-2.956 -4.179,-4.961c-2.631,-3.412 -4.414,-5.43 -5.352,-6.055l-10.703,0c-1.38,0 -2.559,-0.488 -3.535,-1.465c-0.977,-0.976 -1.465,-2.155 -1.465,-3.535l0,-25c0,-1.38 0.488,-2.559 1.465,-3.535c0.976,-0.977 2.155,-1.465 3.535,-1.465l11.25,0c0.573,0 2.37,-0.521 5.391,-1.562c3.333,-1.146 6.237,-2.006 8.711,-2.579c2.474,-0.573 5.078,-0.859 7.812,-0.859l4.375,0c3.646,0 6.595,1.029 8.848,3.086c2.252,2.057 3.366,4.87 3.34,8.437l0,0.196c1.562,2.005 2.343,4.323 2.343,6.953c0,0.573 -0.039,1.133 -0.117,1.68c0.99,1.744 1.485,3.619 1.485,5.625c0,0.937 -0.118,1.836 -0.352,2.695c1.276,1.927 1.914,4.049 1.914,6.367Z" style="fill:#fff;fill-rule:nonzero;"/></svg>