<?xml version="1.0" encoding="UTF-8" standalone="no"?><!DOCTYPE svg PUBLIC "-//W3C//DTD SVG 1.1//EN" "http://www.w3.org/Graphics/SVG/1.1/DTD/svg11.dtd"><svg width="100%" height="100%" viewBox="0 0 16 15" version="1.1" xmlns="http://www.w3.org/2000/svg" xmlns:xlink="http://www.w3.org/1999/xlink" xml:space="preserve" xmlns:serif="http://www.serif.com/" style="fill-rule:evenodd;clip-rule:evenodd;stroke-linejoin:round;stroke-miterlimit:1.41421;"><path id="RiteTag" d="M8.844,8.282l0.591,-2.366l-2.343,0l-0.591,2.366l2.343,0Zm7.085,-4.659l-0.517,2.071c-0.043,0.148 -0.138,0.222 -0.286,0.222l-3.016,0l-0.591,2.366l2.869,0c0.093,0 0.169,0.037 0.231,0.111c0.061,0.086 0.08,0.172 0.055,0.259l-0.516,2.07c-0.031,0.148 -0.126,0.222 -0.286,0.222l-3.017,0l-0.747,3.032c-0.043,0.148 -0.138,0.222 -0.286,0.222l-2.066,0c-0.099,0 -0.179,-0.037 -0.24,-0.111c-0.055,-0.074 -0.074,-0.16 -0.055,-0.259l0.719,-2.884l-2.343,0l-0.747,3.032c-0.043,0.148 -0.139,0.222 -0.286,0.222l-2.076,0c-0.092,0 -0.169,-0.037 -0.23,-0.111c-0.056,-0.074 -0.074,-0.16 -0.056,-0.259l0.72,-2.884l-2.869,0c-0.092,0 -0.169,-0.037 -0.231,-0.111c-0.055,-0.074 -0.074,-0.16 -0.055,-0.259l0.517,-2.07c0.043,-0.148 0.138,-0.222 0.285,-0.222l3.017,0l0.59,-2.366l-2.869,0c-0.092,0 -0.169,-0.037 -0.23,-0.111c-0.062,-0.086 -0.08,-0.173 -0.056,-0.259l0.517,-2.071c0.031,-0.147 0.126,-0.221 0.286,-0.221l3.017,0l0.747,-3.032c0.043,-0.148 0.141,-0.222 0.295,-0.222l2.066,0c0.093,0 0.169,0.037 0.231,0.111c0.055,0.074 0.074,0.16 0.055,0.259l-0.719,2.884l2.343,0l0.747,-3.032c0.043,-0.148 0.141,-0.222 0.295,-0.222l2.067,0c0.092,0 0.169,0.037 0.23,0.111c0.055,0.074 0.074,0.16 0.055,0.259l-0.719,2.884l2.869,0c0.092,0 0.169,0.037 0.23,0.111c0.056,0.074 0.074,0.16 0.056,0.258Z" style="fill:#fff;fill-rule:nonzero;"/></svg>