<svg width="2812" height="594" viewBox="0 0 2812 594"
    xmlns="http://www.w3.org/2000/svg"
    xmlns:xlink="http://www.w3.org/1999/xlink">
    <defs>
        <path d="M149 217.3a23.4 23.4 0 1 1 0-46.9 23.4 23.4 0 0 1 0 46.9zm86.2 0a23.4 23.4 0 1 1 0-46.9 23.4 23.4 0 0 1 0 46.9zM192.8 30.5l-179 179.1L0 195.8 192.8 3l82.7 82.6-13.8 13.8-68.9-68.9zm0 41.4L34.4 230.3l-13.7-13.8L192.8 44.3l62 62-13.8 13.8-48.2-48.2zm-1.6 284.6l179-179.1 13.8 13.8L191.2 384l-82.7-82.6 13.8-13.8 68.9 68.9zm0-41.4l158.4-158.4 13.7 13.8-172.1 172.2-62-62 13.8-13.8 48.2 48.2z" id="a"/>
        <linearGradient x1="50%" y1="0%" x2="50%" y2="100%" id="c">
            <stop stop-color="#2196F3" offset="0%"/>
            <stop stop-color="#464AFD" offset="100%"/>
        </linearGradient>
        <path d="M190 322.3A139 139 0 0 1 89.4 282a131 131 0 0 1-41.6-97.8 131 131 0 0 1 41.6-97.7A140.7 140.7 0 0 1 190 45.8c32.8 0 62.2 10 88.3 30 2 1.8 3.3 4 3.7 6.8.4 2.7-.4 5-2.2 6.8a8.4 8.4 0 0 1-6.4 3.9 9 9 0 0 1-6.9-2A121.4 121.4 0 0 0 190 64.8c-34.2 0-63.2 11.7-87.2 35.1-24 23.4-35.9 51.5-35.9 84.5s12 61 36 84.1a117 117 0 0 0 83.7 34.7c32 0 58.3-8.8 79.2-26.5 2.3-1.5 4.8-2.1 7.6-1.7 2.7.4 4.7 1.7 6 4a8.3 8.3 0 0 1 2.4 7c-.3 3-1.5 5.1-3.5 6.7a141.4 141.4 0 0 1-88.3 29.6zm330.9-9.4V195.3H380.2V313c0 2.6-1 4.9-3 6.7a9.7 9.7 0 0 1-13.4 0 9 9 0 0 1-2.7-6.7V59a9 9 0 0 1 2.7-6.6 9.7 9.7 0 0 1 13.5 0c2 1.8 3 4 3 6.6v117.6h140.6V59a9 9 0 0 1 2.7-6.6 9.7 9.7 0 0 1 13.5 0c2 1.8 3 4 3 6.6v254c0 2.5-1 4.8-3 6.6a9.7 9.7 0 0 1-13.5 0 9 9 0 0 1-2.7-6.7zm102.6 0V59a9 9 0 0 1 2.7-6.6 9 9 0 0 1 6.6-2.7h140.7a9 9 0 0 1 6.6 2.7c1.8 1.8 2.7 4 2.7 6.8 0 2.7-.9 5-2.7 6.8a9 9 0 0 1-6.6 2.7H642.6v108h114.5c2.6 0 4.8.9 6.6 2.8a9.7 9.7 0 0 1 0 13.5 9 9 0 0 1-6.6 2.7H642.6v107.5h130.9a9 9 0 0 1 6.6 2.7 9.5 9.5 0 0 1 2.7 6.9c0 2.7-.9 5-2.7 6.8a9 9 0 0 1-6.6 2.7H632a9.9 9.9 0 0 1-6-3 8.7 8.7 0 0 1-2.5-6.4zm361.7 9.4c-39.3 0-72.8-13.4-100.6-40.3a131 131 0 0 1-41.6-97.8 131 131 0 0 1 41.6-97.7 140.7 140.7 0 0 1 100.6-40.7c32.8 0 62.3 10 88.3 30 2 1.8 3.3 4 3.7 6.8.4 2.7-.3 5-2.1 6.8a8.4 8.4 0 0 1-6.5 3.9c-2.7.2-5-.4-6.8-2a121.4 121.4 0 0 0-76.6-26.5c-34.1 0-63.1 11.7-87.1 35.1-24 23.4-36 51.5-36 84.5s12 61 36 84.1a117 117 0 0 0 83.8 34.7c31.9 0 58.3-8.8 79.1-26.5 2.4-1.5 4.9-2.1 7.6-1.7 2.8.4 4.8 1.7 6 4a8.3 8.3 0 0 1 2.4 7c-.2 3-1.4 5.1-3.5 6.7a141.4 141.4 0 0 1-88.3 29.6zm171.1-9.4V60.2c0-2.6 1-4.9 2.8-6.8 1.8-2 4-3 6.6-3a9.7 9.7 0 0 1 9.8 9.8v157.7l165.2-164.7c2.1-1.9 4.5-2.8 7-2.8a9 9 0 0 1 6.7 2.8 9 9 0 0 1 2.7 6.6c0 2.6-1 5-3 7l-104.8 104.4 107 135.5c3.4 4.7 3 9.2-1.5 13.6-1.6 1.3-3.8 2-6.6 2-3 0-5.1-1.2-6.7-3.5l-105.9-134-60.1 60v68.1c0 2.6-1 4.9-3 6.7a9.7 9.7 0 0 1-13.4 0 9 9 0 0 1-2.8-6.7zm264.8 0V59a9 9 0 0 1 2.7-6.6 9 9 0 0 1 6.6-2.7h61a67.7 67.7 0 0 1 68 70c0 20-8.8 37-26.2 51a80.1 80.1 0 0 1 38.5 28.3 74 74 0 0 1 15 45.4 75 75 0 0 1-22.9 55.1 75.4 75.4 0 0 1-55.2 22.8H1430c-2.6 0-4.7-1-6.4-2.7a9.4 9.4 0 0 1-2.5-6.7zm19-9.7h68.5c16.1 0 30-5.7 41.4-17.1a58 58 0 0 0 0-83.2 56.2 56.2 0 0 0-41.4-17.3h-68.4v117.6zm0-137h51.3a47 47 0 0 0 34.5-14.3 46.6 46.6 0 0 0 14.3-34.3c0-13.4-4.7-24.8-14.3-34.5a46.8 46.8 0 0 0-34.5-14.4h-51.2v97.4zM1641 184c.3-38.4 13.2-71 38.7-98a123.7 123.7 0 0 1 93.2-40.2c36.5 0 67.5 13.4 92.7 40.3 25.3 26.8 38 59.5 38.3 98-.2 38.4-13 71-38.3 97.9a122.4 122.4 0 0 1-92.7 40.3c-36.6 0-67.7-13.4-93.2-40.3a138.5 138.5 0 0 1-38.7-98zm131.3-118.8a106 106 0 0 0-79.1 34.3 117 117 0 0 0-33 84.3c0 33.4 11 61.6 33 84.7a105 105 0 0 0 79 34.7c30.8 0 57.1-11.6 79-34.8a120 120 0 0 0 33.2-84.4 119.3 119.3 0 0 0-33-84.5 105.2 105.2 0 0 0-79.1-34.3zM2026.7 313V68.7h-82.5c-2.6 0-4.8-1-6.6-2.9a9.7 9.7 0 0 1 0-13.4 9 9 0 0 1 6.6-2.7H2128a9 9 0 0 1 6.6 2.7 9.7 9.7 0 0 1 0 13.4c-1.8 2-4 3-6.6 3h-82.5v244.1a9 9 0 0 1-2.7 6.7 9 9 0 0 1-6.7 2.7 9 9 0 0 1-6.6-2.7 9 9 0 0 1-2.7-6.7z" id="d"/>
    </defs>
    <g fill="none" fill-rule="evenodd">
        <g transform="translate(130.1 104.1)">
            <mask id="b" fill="#fff">
                <use xlink:href="#a"/>
            </mask>
            <use fill="#FFF" xlink:href="#a"/>
            <g mask="url(#b)">
                <path fill="url(#c)" d="M0 0h768v768H0z" transform="translate(-192 -192)"/>
            </g>
        </g>
        <g transform="translate(541 107)">
            <mask id="e" fill="#fff">
                <use xlink:href="#d"/>
            </mask>
            <g mask="url(#e)">
                <path fill="url(#c)" d="M0 0h2503v398H0z" transform="translate(-51.7 -16)"/>
            </g>
        </g>
    </g>
</svg>