<svg width="13" height="13" viewBox="0 0 13 13" fill="none" xmlns="http://www.w3.org/2000/svg">
<g clip-path="url(#clip0)">
<path d="M7.9318 6.50069L12.7923 1.63996C12.926 1.50615 12.9998 1.32764 13 1.13729C13 0.946838 12.9262 0.768114 12.7923 0.634521L12.3664 0.208691C12.2325 0.0745692 12.054 0.00111389 11.8634 0.00111389C11.6732 0.00111389 11.4946 0.0745692 11.3607 0.208691L6.50021 5.06911L1.63948 0.208691C1.50578 0.0745692 1.32716 0.00111389 1.13671 0.00111389C0.946463 0.00111389 0.767846 0.0745692 0.634146 0.208691L0.208 0.634521C-0.0693333 0.911854 -0.0693333 1.36294 0.208 1.63996L5.06863 6.50069L0.208 11.3612C0.0741951 11.4952 0.000528455 11.6737 0.000528455 11.8641C0.000528455 12.0544 0.0741951 12.233 0.208 12.3669L0.634041 12.7927C0.76774 12.9267 0.946463 13.0003 1.1366 13.0003C1.32706 13.0003 1.50567 12.9267 1.63937 12.7927L6.50011 7.93217L11.3606 12.7927C11.4945 12.9267 11.673 13.0003 11.8633 13.0003H11.8635C12.0539 13.0003 12.2324 12.9267 12.3663 12.7927L12.7922 12.3669C12.9259 12.2331 12.9997 12.0544 12.9997 11.8641C12.9997 11.6737 12.9259 11.4952 12.7922 11.3613L7.9318 6.50069Z" fill="white"/>
</g>
<defs>
<clipPath id="clip0">
<rect width="13" height="13" fill="white"/>
</clipPath>
</defs>
</svg>
