<svg width="33" height="33" viewBox="0 0 33 33" fill="none" xmlns="http://www.w3.org/2000/svg">
    <rect width="33" height="33" rx="16.5" fill="black"/>
    <path d="M18.1144 25.5196L15.8068 23.212C15.5766 22.9818 15.2034 22.9818 14.9732 23.212C14.743 23.4422 14.743 23.8153 14.9732 24.0456L16.4073 25.4797C11.4885 25.4294 7.51563 21.4306 7.51563 16.5C7.51563 13.6083 8.88739 11.0428 11.0094 9.39941L11.007 9.39703C11.2361 9.1649 11.2379 8.79268 11.0082 8.56266C10.7775 8.33149 10.4021 8.33206 10.17 8.5639L10.1711 8.56504C7.84102 10.4262 6.34375 13.286 6.34375 16.5C6.34375 21.9955 10.7115 26.4603 16.1634 26.6393L14.9732 27.8295C14.743 28.0598 14.743 28.4329 14.9732 28.6632C15.2034 28.8934 15.5766 28.8934 15.8068 28.6632L18.1144 26.3556C18.2298 26.2402 18.2869 26.0888 18.2865 25.9376C18.2869 25.7863 18.2298 25.635 18.1144 25.5196Z" fill="white"/>
    <path d="M26.6563 16.5C26.6563 10.9712 22.2361 6.48346 16.738 6.35576L18.0308 5.06296C18.261 4.83274 18.261 4.45957 18.0308 4.22935C17.8005 3.99923 17.4274 3.99923 17.1972 4.22935L14.8895 6.53696C14.7742 6.65245 14.717 6.80361 14.7174 6.95496C14.717 7.10621 14.7742 7.25756 14.8895 7.37295L17.1972 9.68056C17.4274 9.91077 17.8005 9.91077 18.0308 9.68056C18.261 9.45044 18.261 9.07717 18.0308 8.84705L16.71 7.52621C21.5741 7.63893 25.4844 11.6089 25.4844 16.5C25.4844 19.2774 24.2229 21.759 22.243 23.4071L22.2431 23.4074C22.016 23.6375 22.0158 24.0074 22.2434 24.2354C22.4713 24.4637 22.8411 24.4626 23.0713 24.2353L23.0717 24.2357C23.0721 24.2354 23.0724 24.2351 23.0727 24.2348C23.0731 24.2344 23.0739 24.2345 23.0743 24.2341L23.0739 24.2337C25.2632 22.3709 26.6563 19.5999 26.6563 16.5Z" fill="white"/>
    <path d="M21.1527 15.5905L14.705 11.8679C14.0093 11.4663 13.1397 11.9683 13.1397 12.7717V20.2168C13.1397 21.0201 14.0093 21.5222 14.705 21.1205L21.1527 17.398C21.8484 16.9963 21.8484 15.9922 21.1527 15.5905ZM14.2187 20.0506V12.8617L20.4445 16.4562L14.2187 20.0506Z" fill="white"/>
</svg>


