<svg width="15" height="15" viewBox="0 0 15 15" fill="none" xmlns="http://www.w3.org/2000/svg">
<path d="M9.11133 15H3.51562C2.22324 15 1.17188 13.9486 1.17188 12.6562V4.7168C1.17188 3.42442 2.22324 2.37305 3.51562 2.37305H9.11133C10.4037 2.37305 11.4551 3.42442 11.4551 4.7168V12.6562C11.4551 13.9486 10.4037 15 9.11133 15ZM3.51562 3.54492C2.86949 3.54492 2.34375 4.07066 2.34375 4.7168V12.6562C2.34375 13.3024 2.86949 13.8281 3.51562 13.8281H9.11133C9.75746 13.8281 10.2832 13.3024 10.2832 12.6562V4.7168C10.2832 4.07066 9.75746 3.54492 9.11133 3.54492H3.51562ZM13.7988 11.1914V2.34375C13.7988 1.05137 12.7475 0 11.4551 0H4.95117C4.62753 0 4.36523 0.262299 4.36523 0.585938C4.36523 0.909576 4.62753 1.17188 4.95117 1.17188H11.4551C12.1012 1.17188 12.627 1.69762 12.627 2.34375V11.1914C12.627 11.515 12.8893 11.7773 13.2129 11.7773C13.5365 11.7773 13.7988 11.515 13.7988 11.1914Z" fill="white"/>
</svg>
