<svg width="17" height="17" viewBox="0 0 17 17" fill="none" xmlns="http://www.w3.org/2000/svg">
    <path d="M14.0781 2.125H11.1562V1.59375C11.1562 0.714963 10.4413 0 9.5625 0H7.4375C6.55871 0 5.84375 0.714963 5.84375 1.59375V2.125H2.92188C2.18955 2.125 1.59375 2.7208 1.59375 3.45312V5.3125C1.59375 5.60588 1.83162 5.84375 2.125 5.84375H2.41533L2.87429 15.4821C2.91484 16.3332 3.61409 17 4.46622 17H12.5338C13.3859 17 14.0852 16.3332 14.1257 15.4821L14.5847 5.84375H14.875C15.1684 5.84375 15.4062 5.60588 15.4062 5.3125V3.45312C15.4062 2.7208 14.8105 2.125 14.0781 2.125ZM6.90625 1.59375C6.90625 1.30083 7.14458 1.0625 7.4375 1.0625H9.5625C9.85542 1.0625 10.0938 1.30083 10.0938 1.59375V2.125H6.90625V1.59375ZM2.65625 3.45312C2.65625 3.30667 2.77542 3.1875 2.92188 3.1875H14.0781C14.2246 3.1875 14.3438 3.30667 14.3438 3.45312V4.78125C14.18 4.78125 3.33469 4.78125 2.65625 4.78125V3.45312ZM13.0644 15.4315C13.0509 15.7152 12.8178 15.9375 12.5338 15.9375H4.46622C4.18217 15.9375 3.94908 15.7152 3.9356 15.4315L3.47902 5.84375H13.521L13.0644 15.4315Z" fill="#717284"/>
    <path d="M8.5 14.875C8.79338 14.875 9.03125 14.6371 9.03125 14.3438V7.4375C9.03125 7.14412 8.79338 6.90625 8.5 6.90625C8.20662 6.90625 7.96875 7.14412 7.96875 7.4375V14.3438C7.96875 14.6371 8.20658 14.875 8.5 14.875Z" fill="#717284"/>
    <path d="M11.1562 14.875C11.4496 14.875 11.6875 14.6371 11.6875 14.3438V7.4375C11.6875 7.14412 11.4496 6.90625 11.1562 6.90625C10.8629 6.90625 10.625 7.14412 10.625 7.4375V14.3438C10.625 14.6371 10.8628 14.875 11.1562 14.875Z" fill="#717284"/>
    <path d="M5.84375 14.875C6.13713 14.875 6.375 14.6371 6.375 14.3438V7.4375C6.375 7.14412 6.13713 6.90625 5.84375 6.90625C5.55037 6.90625 5.3125 7.14412 5.3125 7.4375V14.3438C5.3125 14.6371 5.55033 14.875 5.84375 14.875Z" fill="#717284"/>
</svg>




