<svg width="33" height="33" viewBox="0 0 33 33" fill="none" xmlns="http://www.w3.org/2000/svg">
<path fill-rule="evenodd" clip-rule="evenodd" d="M1.71875 8.25C1.71875 6.16168 3.41168 4.46875 5.5 4.46875H27.5C29.5884 4.46875 31.2813 6.16168 31.2813 8.25V22C31.2813 24.0884 29.5884 25.7813 27.5 25.7813H19.5436L20.5748 27.8438H23.375C23.9445 27.8438 24.4063 28.3055 24.4063 28.875C24.4063 29.4445 23.9445 29.9063 23.375 29.9063H9.625C9.05547 29.9063 8.59375 29.4445 8.59375 28.875C8.59375 28.3055 9.05547 27.8438 9.625 27.8438H12.4252L13.4564 25.7813H5.5C3.41168 25.7813 1.71875 24.0884 1.71875 22V8.25ZM27.5 23.7188H5.5C4.55076 23.7188 3.78125 22.9493 3.78125 22V8.25C3.78125 7.30076 4.55076 6.53125 5.5 6.53125H27.5C28.4493 6.53125 29.2188 7.30076 29.2188 8.25V22C29.2188 22.9493 28.4493 23.7188 27.5 23.7188Z" fill="#B2B3BC"/>
</svg>





