<svg width="20" height="20" viewBox="0 0 20 20" fill="none" xmlns="http://www.w3.org/2000/svg">
<path fill-rule="evenodd" clip-rule="evenodd" d="M10 0C10.5523 0 11 0.447715 11 1V8.58579L13.2929 6.29289C13.6834 5.90237 14.3166 5.90237 14.7071 6.29289C15.0976 6.68342 15.0976 7.31658 14.7071 7.70711L10.7071 11.7071C10.3166 12.0976 9.68342 12.0976 9.29289 11.7071L5.29289 7.70711C4.90237 7.31658 4.90237 6.68342 5.29289 6.29289C5.68342 5.90237 6.31658 5.90237 6.70711 6.29289L9 8.58579V1C9 0.447715 9.44771 0 10 0ZM0 15C0 14.4477 0.447715 14 1 14H19C19.5523 14 20 14.4477 20 15C20 15.5523 19.5523 16 19 16H1C0.447715 16 0 15.5523 0 15ZM3 19C3 18.4477 3.44772 18 4 18H16C16.5523 18 17 18.4477 17 19C17 19.5523 16.5523 20 16 20H4C3.44772 20 3 19.5523 3 19Z" fill="#1552FC"/>
</svg>
