<svg width="33" height="33" viewBox="0 0 33 33" fill="none" xmlns="http://www.w3.org/2000/svg">
    <rect width="33" height="33" rx="16.5" fill="black"/>
    <path d="M16.5286 21.1381C16.5287 21.1382 16.5289 21.1383 16.529 21.1384C16.5444 21.1538 16.5606 21.1684 16.5774 21.1822C16.5852 21.1886 16.5933 21.1941 16.6013 21.2C16.6107 21.2071 16.62 21.2145 16.6299 21.2211C16.6394 21.2274 16.6492 21.2329 16.6589 21.2387C16.6679 21.2441 16.6766 21.2497 16.6858 21.2546C16.6957 21.2599 16.7059 21.2644 16.7161 21.2692C16.7257 21.2737 16.7351 21.2785 16.7449 21.2825C16.7548 21.2866 16.7648 21.2899 16.7748 21.2935C16.7854 21.2973 16.7957 21.3013 16.8065 21.3045C16.8165 21.3076 16.8266 21.3098 16.8368 21.3123C16.8477 21.3151 16.8586 21.3182 16.8698 21.3204C16.8815 21.3227 16.8933 21.3241 16.9051 21.3258C16.9148 21.3271 16.9244 21.329 16.9342 21.33C16.978 21.3343 17.0221 21.3343 17.0658 21.33C17.0757 21.329 17.0853 21.3272 17.095 21.3258C17.1068 21.3241 17.1186 21.3227 17.1303 21.3204C17.1415 21.3182 17.1523 21.3151 17.1633 21.3123C17.1734 21.3098 17.1836 21.3076 17.1936 21.3045C17.2043 21.3013 17.2147 21.2973 17.2252 21.2935C17.2352 21.2899 17.2453 21.2866 17.2551 21.2825C17.2649 21.2785 17.2744 21.2737 17.2839 21.2692C17.2941 21.2644 17.3043 21.2599 17.3143 21.2546C17.3234 21.2497 17.3322 21.244 17.3411 21.2387C17.3509 21.2329 17.3607 21.2274 17.3702 21.2211C17.38 21.2145 17.3893 21.2071 17.3988 21.2C17.4067 21.1941 17.4149 21.1886 17.4226 21.1822C17.4394 21.1684 17.4557 21.1538 17.4711 21.1384C17.4712 21.1383 17.4713 21.1382 17.4714 21.1381L22.1381 16.4714C22.3984 16.2111 22.3984 15.7889 22.1381 15.5286C21.8778 15.2683 21.4556 15.2683 21.1953 15.5286L17.6667 19.0572V8.66666C17.6667 8.29847 17.3682 8 17 8C16.6318 8 16.3334 8.29847 16.3334 8.66666V19.0572L12.8048 15.5286C12.5444 15.2683 12.1223 15.2683 11.8619 15.5286C11.6016 15.7889 11.6016 16.2111 11.8619 16.4714L16.5286 21.1381Z" fill="white"/>
    <path d="M21.6667 22.6667H12.3334C11.9652 22.6667 11.6667 22.9652 11.6667 23.3333C11.6667 23.7015 11.9652 24 12.3334 24H21.6667C22.0349 24 22.3334 23.7016 22.3334 23.3334C22.3334 22.9652 22.0349 22.6667 21.6667 22.6667Z" fill="white"/>
</svg>

