<svg width="33" height="33" viewBox="0 0 33 33" fill="none" xmlns="http://www.w3.org/2000/svg">
<rect width="33" height="33" rx="16.5" fill="black"/>
<g clip-path="url(#clip0)">
<path d="M13.1281 19.3664L12.9442 23.0154L9.55407 25.5911L6 19.3258L13.4165 6.409L16.8889 8.79247L17.0034 12.656L16.9706 12.6749L13.1281 19.3664Z" fill="#28B446"/>
<path d="M13.4165 6.409L15.527 15.189L17.0034 12.656L16.8889 7.57018L13.4165 6.409Z" fill="#219B38"/>
<path d="M20.583 6.409L28 19.3258L24.0003 21.3487L20.833 19.3452V19.3258L17.0034 12.656L13.4165 6.409H20.583Z" fill="#FFD837"/>
<path d="M28 19.3258L24.4482 25.5506L9.55408 25.5911L13.1281 19.3664L20.833 19.3452L28 19.3258Z" fill="#518EF8"/>
<path d="M9.55408 25.5911L15.7861 19.359L13.1281 19.3663L9.55408 25.5911Z" fill="#3A5BBC"/>
<path d="M28 19.3258L19.8686 17.6462L20.833 19.3452L28 19.3258Z" fill="#FBBB00"/>
</g>
<defs>
<clipPath id="clip0">
<rect width="22" height="22" fill="white" transform="translate(6 5)"/>
</clipPath>
</defs>
</svg>

