<svg width="18" height="18" viewBox="0 0 18 18" fill="none" xmlns="http://www.w3.org/2000/svg">
<g clip-path="url(#clip0)">
<path d="M8.99998 11.9077V16.7871H2.881C2.85523 16.7871 2.83016 16.7802 2.80875 16.7675C2.78769 16.7556 2.76955 16.7381 2.75647 16.7164L0.103442 12.1253C0.0475433 12.0285 0.117223 11.9077 0.229055 11.9077H8.99998Z" fill="#2196F3"/>
<path d="M11.6933 1.43052L2.80875 16.7675C2.78769 16.7555 2.76955 16.7381 2.75647 16.7163L0.103439 12.1253L0.0195562 11.9802C-0.0066001 11.9352 -0.0066001 11.8797 0.0195562 11.8351L6.13815 1.28504C6.15123 1.26254 6.16972 1.2444 6.19152 1.23171C6.21293 1.21976 6.23799 1.21283 6.26376 1.21283H11.5676C11.6795 1.21286 11.7492 1.33366 11.6933 1.43052Z" fill="#4CAF50"/>
<path d="M11.5677 1.21289H10.4811C10.593 1.21289 10.6627 1.33369 10.6068 1.43054L2.25476 15.8482L2.75644 16.7163C2.76952 16.7381 2.78766 16.7555 2.80872 16.7675L11.6933 1.43054C11.7492 1.33369 11.6794 1.21289 11.5677 1.21289Z" fill="#43A047"/>
<path d="M18 11.9077C18 11.9327 17.9935 11.9578 17.9804 11.9803L15.3267 16.5723C15.27 16.6667 15.1324 16.6659 15.0769 16.5698L6.19159 1.23177C6.213 1.21982 6.23807 1.21289 6.26384 1.21289H11.7362C11.7881 1.21289 11.836 1.24045 11.8618 1.28507L17.9804 11.8351C17.9935 11.8576 18 11.8823 18 11.9077Z" fill="#FFC107"/>
<path d="M17.9804 11.8351L11.8618 1.28507C11.836 1.24045 11.7881 1.21289 11.7362 1.21289H10.6497C10.7016 1.21289 10.7495 1.24045 10.7753 1.28507L16.8939 11.8351C16.9069 11.8576 16.9135 11.8822 16.9135 11.9077C16.9135 11.9327 16.9069 11.9577 16.8939 11.9802L14.6587 15.8479L15.0768 16.5698C15.1324 16.6659 15.27 16.6666 15.3266 16.5723L17.9804 11.9802C17.9934 11.9577 18 11.9327 18 11.9076C18 11.8822 17.9934 11.8576 17.9804 11.8351Z" fill="#FFB300"/>
<path d="M18 11.9077C18 11.9327 17.9935 11.9577 17.9804 11.9802L15.3266 16.5723L15.2446 16.7145C15.2184 16.7595 15.1705 16.7871 15.1186 16.7871H9V11.9077H18Z" fill="#2196F3"/>
<path d="M16.9135 11.9077C16.9135 11.9327 16.907 11.9577 16.8939 11.9802L14.2402 16.5724L14.1581 16.7146C14.1319 16.7596 14.084 16.7871 14.0321 16.7871H15.1186C15.1705 16.7871 15.2185 16.7596 15.2446 16.7146L15.3267 16.5724L17.9804 11.9802C17.9935 11.9577 18 11.9327 18 11.9077H16.9135Z" fill="#1E88E5"/>
</g>
<defs>
<clipPath id="clip0">
<rect width="18" height="18" fill="white"/>
</clipPath>
</defs>
</svg>

