<?xml version="1.0" encoding="iso-8859-1"?>
<!-- Generator: Adobe Illustrator 16.0.0, SVG Export Plug-In . SVG Version: 6.00 Build 0)  -->
<!DOCTYPE svg PUBLIC "-//W3C//DTD SVG 1.1//EN" "http://www.w3.org/Graphics/SVG/1.1/DTD/svg11.dtd">
<svg version="1.1" id="Capa_1" xmlns="http://www.w3.org/2000/svg" xmlns:xlink="http://www.w3.org/1999/xlink" x="0px" y="0px"
	 width="47.001px" height="47.001px" viewBox="0 0 47.001 47.001" style="enable-background:new 0 0 47.001 47.001;"
	 xml:space="preserve">
<g>
	<g id="Layer_1_65_">
		<g>
			<path d="M46.907,20.12c-0.163-0.347-0.511-0.569-0.896-0.569h-2.927C41.223,9.452,32.355,1.775,21.726,1.775
				C9.747,1.775,0,11.522,0,23.501C0,35.48,9.746,45.226,21.726,45.226c7.731,0,14.941-4.161,18.816-10.857
				c0.546-0.945,0.224-2.152-0.722-2.699c-0.944-0.547-2.152-0.225-2.697,0.72c-3.172,5.481-9.072,8.887-15.397,8.887
				c-9.801,0-17.776-7.974-17.776-17.774c0-9.802,7.975-17.776,17.776-17.776c8.442,0,15.515,5.921,17.317,13.825h-2.904
				c-0.385,0-0.732,0.222-0.896,0.569c-0.163,0.347-0.11,0.756,0.136,1.051l4.938,5.925c0.188,0.225,0.465,0.355,0.759,0.355
				c0.293,0,0.571-0.131,0.758-0.355l4.938-5.925C47.018,20.876,47.07,20.467,46.907,20.12z"/>
			<path d="M21.726,6.713c-1.091,0-1.975,0.884-1.975,1.975v11.984c-0.893,0.626-1.481,1.658-1.481,2.83
				c0,1.906,1.551,3.457,3.457,3.457c0.522,0,1.014-0.125,1.458-0.334l6.87,3.965c0.312,0.181,0.65,0.266,0.986,0.266
				c0.682,0,1.346-0.354,1.712-0.988c0.545-0.943,0.222-2.152-0.724-2.697l-6.877-3.971c-0.092-1.044-0.635-1.956-1.449-2.526V8.688
				C23.701,7.598,22.816,6.713,21.726,6.713z M21.726,24.982c-0.817,0-1.481-0.665-1.481-1.48c0-0.816,0.665-1.481,1.481-1.481
				s1.481,0.665,1.481,1.481C23.207,24.317,22.542,24.982,21.726,24.982z"/>
		</g>
	</g>
</g>
</svg>
