<?xml version="1.0" encoding="utf-8"?>
<!-- Generator: Adobe Illustrator 24.0.0, SVG Export Plug-In . SVG Version: 6.00 Build 0)  -->
<!DOCTYPE svg PUBLIC "-//W3C//DTD SVG 1.1//EN" "http://www.w3.org/Graphics/SVG/1.1/DTD/svg11.dtd" [
	<!ENTITY ns_extend "http://ns.adobe.com/Extensibility/1.0/">
	<!ENTITY ns_ai "http://ns.adobe.com/AdobeIllustrator/10.0/">
	<!ENTITY ns_graphs "http://ns.adobe.com/Graphs/1.0/">
	<!ENTITY ns_vars "http://ns.adobe.com/Variables/1.0/">
	<!ENTITY ns_imrep "http://ns.adobe.com/ImageReplacement/1.0/">
	<!ENTITY ns_sfw "http://ns.adobe.com/SaveForWeb/1.0/">
	<!ENTITY ns_custom "http://ns.adobe.com/GenericCustomNamespace/1.0/">
	<!ENTITY ns_adobe_xpath "http://ns.adobe.com/XPath/1.0/">
]>
<svg version="1.1" id="Слой_1" width="18" height="16" xmlns:x="&ns_extend;" xmlns:i="&ns_ai;" xmlns:graph="&ns_graphs;"
	 xmlns="http://www.w3.org/2000/svg" xmlns:xlink="http://www.w3.org/1999/xlink" x="0px" y="0px" viewBox="0 0 18 16"
	 style="enable-background:new 0 0 18 16;" xml:space="preserve">
<style type="text/css">
	.st0{fill:#717284;}
</style>
<metadata>
	<sfw  xmlns="&ns_sfw;">
		<slices></slices>
		<sliceSourceBounds  bottomLeftOrigin="true" height="16" width="18" x="0" y="0"></sliceSourceBounds>
	</sfw>
</metadata>
<title>menu</title>
<path class="st0" d="M1,0h16c0.5522842,0,1,0.4477152,1,1l0,0c0,0.5522847-0.4477158,1-1,1H1C0.4477152,2,0,1.5522847,0,1l0,0
	C0,0.4477152,0.4477152,0,1,0z"/>
<path class="st0" d="M1.22,5.5h15.5600004C17.4537888,5.5,18,6.0462127,18,6.7200003v0.5599995
	C18,7.9537873,17.4537888,8.5,16.7800007,8.5H1.22C0.5462126,8.5,0,7.9537873,0,7.2799997V6.7200003
	C0,6.0462127,0.5462126,5.5,1.22,5.5z"/>
<path class="st0" d="M1.41,12h15.1800003C17.368721,12,18,12.631278,18,13.4099998v1.1800003
	C18,15.368722,17.368721,16,16.5900002,16H1.41C0.6312785,16,0,15.368722,0,14.5900002v-1.1800003C0,12.631278,0.6312785,12,1.41,12
	z"/>
</svg>
