<svg width="15" height="15" viewBox="0 0 15 15" fill="none" xmlns="http://www.w3.org/2000/svg">
<path d="M7.50004 10.3844C6.70667 10.3844 6.02771 10.1019 5.46284 9.53725C4.89805 8.97259 4.61563 8.2933 4.61563 7.49998V2.88469C4.61563 2.09138 4.89783 1.41237 5.46284 0.847427C6.02771 0.282613 6.70667 0 7.50004 0C8.29332 0 8.97237 0.282613 9.53728 0.847427C10.1022 1.41227 10.3846 2.09138 10.3846 2.88469V7.49998C10.3846 8.29326 10.1021 8.97259 9.53728 9.53725C8.97246 10.1019 8.29332 10.3844 7.50004 10.3844Z" fill="#5EBF72"/>
<path d="M2.47918 5.94047C2.59303 5.82627 2.72855 5.76915 2.8848 5.76915C3.0409 5.76915 3.1761 5.82627 3.29043 5.94047C3.4045 6.05464 3.46158 6.18983 3.46158 6.34603V7.49994C3.46158 8.61176 3.85682 9.56271 4.6471 10.353C5.43712 11.1432 6.38821 11.5384 7.50006 11.5384C8.61188 11.5384 9.56287 11.1432 10.3532 10.353C11.1434 9.56293 11.5385 8.61179 11.5385 7.49994V6.34603C11.5385 6.18983 11.5956 6.05464 11.7097 5.94047C11.8239 5.82627 11.959 5.76915 12.1153 5.76915C12.2717 5.76915 12.4069 5.82627 12.5211 5.94047C12.6353 6.05464 12.6924 6.18983 12.6924 6.34603V7.49994C12.6924 8.82807 12.2491 9.98346 11.3628 10.9659C10.4764 11.9484 9.38117 12.5118 8.077 12.6559V13.8459H10.3847C10.5409 13.8459 10.6761 13.9031 10.7903 14.0173C10.9045 14.1314 10.9616 14.2667 10.9616 14.4229C10.9616 14.579 10.9045 14.7145 10.7903 14.8286C10.6761 14.9427 10.5409 15 10.3847 15H4.61562C4.45939 15 4.32401 14.9427 4.21 14.8286C4.09567 14.7145 4.03852 14.579 4.03852 14.4229C4.03852 14.2667 4.09567 14.1315 4.21 14.0173C4.32398 13.9031 4.45936 13.8459 4.61562 13.8459H6.92299V12.6559C5.61905 12.5118 4.5239 11.9484 3.63745 10.9659C2.751 9.98346 2.30758 8.82807 2.30758 7.49994V6.34603C2.30758 6.18986 2.36482 6.05476 2.47918 5.94047Z" fill="#5EBF72"/>
</svg>
