<svg width="18" height="18" viewBox="0 0 18 18" fill="none" xmlns="http://www.w3.org/2000/svg">
<path d="M9.00015 12.4612C8.0481 12.4612 7.23336 12.1223 6.5555 11.4447C5.87776 10.7671 5.53885 9.95195 5.53885 8.99998V3.46163C5.53885 2.50966 5.8775 1.69484 6.5555 1.01691C7.23336 0.339135 8.0481 0 9.00015 0C9.95208 0 10.7669 0.339135 11.4448 1.01691C12.1228 1.69473 12.4617 2.50966 12.4617 3.46163V8.99998C12.4617 9.95192 12.1226 10.7671 11.4448 11.4447C10.7671 12.1223 9.95208 12.4612 9.00015 12.4612Z" fill="#BBBBBB"/>
<path d="M2.97512 7.12857C3.11174 6.99153 3.27435 6.92299 3.46186 6.92299C3.64918 6.92299 3.81142 6.99153 3.94861 7.12857C4.0855 7.26557 4.154 7.42781 4.154 7.61524V8.99993C4.154 10.3341 4.62828 11.4753 5.57662 12.4236C6.52465 13.3719 7.66595 13.8461 9.00017 13.8461C10.3344 13.8461 11.4755 13.3719 12.4239 12.4236C13.3722 11.4755 13.8463 10.3342 13.8463 8.99993V7.61524C13.8463 7.42781 13.9148 7.26557 14.0518 7.12857C14.1888 6.99153 14.3509 6.92299 14.5385 6.92299C14.7261 6.92299 14.8884 6.99153 15.0254 7.12857C15.1625 7.26557 15.231 7.42781 15.231 7.61524V8.99993C15.231 10.5937 14.699 11.9802 13.6354 13.1591C12.5718 14.3381 11.2575 15.0142 9.6925 15.1871V16.6151H12.4617C12.6492 16.6151 12.8114 16.6838 12.9484 16.8208C13.0855 16.9577 13.154 17.12 13.154 17.3076C13.154 17.4948 13.0855 17.6574 12.9484 17.7943C12.8114 17.9312 12.6492 18 12.4617 18H5.53884C5.35137 18 5.18891 17.9313 5.0521 17.7943C4.9149 17.6574 4.84633 17.4948 4.84633 17.3076C4.84633 17.1201 4.9149 16.9578 5.0521 16.8208C5.18887 16.6838 5.35133 16.6151 5.53884 16.6151H8.30769V15.1871C6.74296 15.0142 5.42878 14.3381 4.36504 13.1591C3.30129 11.9802 2.7692 10.5937 2.7692 8.99993V7.61524C2.7692 7.42785 2.83789 7.26572 2.97512 7.12857Z" fill="#BBBBBB"/>
<rect x="1.29289" y="17.6191" width="23.5115" height="2.2" rx="1.1" transform="rotate(-45 1.29289 17.6191)" fill="#BBBBBB" stroke="#1D2022"/>
</svg>


