<svg width="18" height="18" viewBox="0 0 18 18" fill="none" xmlns="http://www.w3.org/2000/svg">
<path d="M9.00002 12.4612C8.04797 12.4612 7.23323 12.1223 6.55538 11.4447C5.87764 10.7671 5.53874 9.95195 5.53874 8.99998V3.46163C5.53874 2.50966 5.87738 1.69484 6.55538 1.01691C7.23323 0.339135 8.04797 0 9.00002 0C9.95195 0 10.7668 0.339135 11.4447 1.01691C12.1226 1.69473 12.4615 2.50966 12.4615 3.46163V8.99998C12.4615 9.95192 12.1225 10.7671 11.4447 11.4447C10.7669 12.1223 9.95195 12.4612 9.00002 12.4612Z" fill="#BBBBBB"/>
<path d="M2.97501 7.12861C3.11164 6.99157 3.27425 6.92303 3.46176 6.92303C3.64908 6.92303 3.81132 6.99157 3.94851 7.12861C4.0854 7.26562 4.1539 7.42785 4.1539 7.61529V8.99998C4.1539 10.3342 4.62818 11.4753 5.57652 12.4236C6.52455 13.3719 7.66585 13.8461 9.00007 13.8461C10.3343 13.8461 11.4754 13.3719 12.4238 12.4236C13.3721 11.4756 13.8462 10.3342 13.8462 8.99998V7.61529C13.8462 7.42785 13.9147 7.26562 14.0517 7.12861C14.1887 6.99157 14.3508 6.92303 14.5384 6.92303C14.726 6.92303 14.8883 6.99157 15.0253 7.12861C15.1624 7.26562 15.2309 7.42785 15.2309 7.61529V8.99998C15.2309 10.5937 14.6989 11.9802 13.6353 13.1592C12.5717 14.3382 11.2574 15.0142 9.6924 15.1872V16.6152H12.4616C12.6491 16.6152 12.8113 16.6838 12.9483 16.8208C13.0854 16.9578 13.1539 17.1201 13.1539 17.3076C13.1539 17.4948 13.0854 17.6574 12.9483 17.7943C12.8113 17.9313 12.6491 18 12.4616 18H5.53874C5.35127 18 5.18881 17.9313 5.05199 17.7943C4.9148 17.6575 4.84622 17.4948 4.84622 17.3076C4.84622 17.1201 4.9148 16.9578 5.05199 16.8208C5.18877 16.6838 5.35123 16.6152 5.53874 16.6152H8.30759V15.1872C6.74286 15.0142 5.42868 14.3382 4.36493 13.1592C3.30119 11.9802 2.76909 10.5937 2.76909 8.99998V7.61529C2.76909 7.42789 2.83778 7.26577 2.97501 7.12861Z" fill="#BBBBBB"/>
</svg>
