<svg width="20" height="20" viewBox="0 0 20 20" fill="none" xmlns="http://www.w3.org/2000/svg">
<path d="M10.319 0.896545C10.4173 0.937212 10.5094 0.997494 10.5893 1.07739L13.0893 3.57739C13.4147 3.90283 13.4147 4.43046 13.0893 4.7559C12.7638 5.08134 12.2362 5.08134 11.9107 4.7559L10.8333 3.67849V5.83331C10.8333 6.29355 10.4602 6.66665 10 6.66665C9.53976 6.66665 9.16667 6.29355 9.16667 5.83331V3.67849L8.08926 4.7559C7.76382 5.08134 7.23618 5.08134 6.91075 4.7559C6.58531 4.43046 6.58531 3.90283 6.91075 3.57739L9.41072 1.07742C9.49061 0.997521 9.58273 0.937212 9.68102 0.896545C9.77927 0.855801 9.88701 0.833313 10 0.833313C10.113 0.833313 10.2207 0.855801 10.319 0.896545Z" fill="#717284"/>
<path d="M10.8333 16.3215L11.9107 15.2441C12.2362 14.9186 12.7638 14.9186 13.0893 15.2441C13.4147 15.5695 13.4147 16.0971 13.0893 16.4226L10.5895 18.9223L10.5875 18.9243C10.508 19.0034 10.4166 19.063 10.319 19.1034C10.2207 19.1442 10.113 19.1666 10 19.1666C9.88701 19.1666 9.77927 19.1442 9.68102 19.1034C9.58345 19.063 9.492 19.0034 9.41252 18.9243L9.41075 18.9226L6.91075 16.4226C6.58531 16.0971 6.58531 15.5695 6.91075 15.2441C7.23618 14.9186 7.76382 14.9186 8.08926 15.2441L9.16667 16.3215V14.1666C9.16667 13.7064 9.53976 13.3333 10 13.3333C10.4602 13.3333 10.8333 13.7064 10.8333 14.1666V16.3215Z" fill="#717284"/>
<path d="M16.4226 6.91072C16.0972 6.58529 15.5695 6.58529 15.2441 6.91072C14.9186 7.23616 14.9186 7.7638 15.2441 8.08923L16.3215 9.16665H14.1667C13.7064 9.16665 13.3333 9.53974 13.3333 9.99998C13.3333 10.4602 13.7064 10.8333 14.1667 10.8333H16.3215L15.2441 11.9107C14.9186 12.2362 14.9186 12.7638 15.2441 13.0892C15.5695 13.4147 16.0972 13.4147 16.4226 13.0892L18.9223 10.5895L18.9244 10.5875C19.0034 10.508 19.0631 10.4165 19.1034 10.319C19.1442 10.2207 19.1667 10.113 19.1667 9.99998C19.1667 9.88699 19.1442 9.77925 19.1034 9.68099C19.0631 9.58343 19.0034 9.49198 18.9244 9.41249L18.9226 9.41072L16.4226 6.91072Z" fill="#717284"/>
<path d="M4.75592 6.91072C5.08136 7.23616 5.08136 7.7638 4.75592 8.08923L3.67851 9.16665H5.83334C6.29357 9.16665 6.66667 9.53974 6.66667 9.99998C6.66667 10.4602 6.29357 10.8333 5.83334 10.8333H3.67851L4.75592 11.9107C5.08136 12.2362 5.08136 12.7638 4.75592 13.0892C4.43049 13.4147 3.90285 13.4147 3.57741 13.0892L1.07741 10.5892C0.997516 10.5093 0.937235 10.4173 0.896568 10.319C0.855824 10.2207 0.833336 10.113 0.833336 9.99998C0.833336 9.88699 0.855824 9.77925 0.896568 9.68099C0.937235 9.5827 0.997516 9.49062 1.07741 9.41072L3.57741 6.91072C3.90285 6.58529 4.43049 6.58529 4.75592 6.91072Z" fill="#717284"/>
<path fill-rule="evenodd" clip-rule="evenodd" d="M10 7.49998C8.61929 7.49998 7.5 8.61927 7.5 9.99998C7.5 11.3807 8.61929 12.5 10 12.5C11.3807 12.5 12.5 11.3807 12.5 9.99998C12.5 8.61927 11.3807 7.49998 10 7.49998ZM9.16667 9.99998C9.16667 9.53974 9.53976 9.16665 10 9.16665C10.4602 9.16665 10.8333 9.53974 10.8333 9.99998C10.8333 10.4602 10.4602 10.8333 10 10.8333C9.53976 10.8333 9.16667 10.4602 9.16667 9.99998Z" fill="#717284"/>
</svg>
