<?xml version="1.0" encoding="utf-8"?>
<!-- Generator: Adobe Illustrator 25.0.0, SVG Export Plug-In . SVG Version: 6.00 Build 0)  -->
<svg version="1.1" id="Capa_1" xmlns="http://www.w3.org/2000/svg" xmlns:xlink="http://www.w3.org/1999/xlink" x="0px" y="0px"
	 viewBox="0 0 93 93" style="enable-background:new 0 0 93 93;" xml:space="preserve">
<style type="text/css">
	.st0{clip-path:url(#SVGID_2_);}
	.st1{fill:#EA5252;}
</style>
<g>
	<defs>
		<rect id="SVGID_1_" x="0" y="6.1" width="76.8" height="76.8"/>
	</defs>
	<clipPath id="SVGID_2_">
		<use xlink:href="#SVGID_1_"  style="overflow:visible;"/>
	</clipPath>
	<g class="st0">
		<path class="st1" d="M52.9,72c-1.5-1-2.4-2.6-2.5-4.3H46c0,0.5-0.1,0.9-0.2,1.4c0.2,0.6,0.2,1.3,0.1,1.9c0.3,0.7,0.5,1.4,0.6,2.2
			h8.1C54.1,72.8,53.5,72.5,52.9,72z"/>
		<path class="st1" d="M67.1,6.1H9.9C4.4,6.1,0,10.5,0,15.9v47.4c0,5.5,4.4,9.9,9.9,9.9H37c0-0.1,0-0.1,0-0.2
			c-0.6-1.2-0.7-2.6-0.4-3.9c-0.1-0.5-0.2-0.9-0.2-1.4H9.9c-2.5,0-4.5-2-4.5-4.5V31c0-2.2,1.8-4,4-4h58.1c2.2,0,4,1.8,4,4.1
			l-0.1,23.3c0.4-0.1,0.8-0.2,1.3-0.2c2,0,3.3,0.9,4.1,2.2V15.9C76.9,10.5,72.4,6.1,67.1,6.1z M12.5,23.3c-2.2,0-4-1.8-4-4
			s1.8-4,4-4s4,1.8,4,4S14.7,23.3,12.5,23.3z M23,23.3c-2.2,0-4-1.8-4-4c-0.1-2.2,1.8-4,4-4s4,1.8,4,4S25.3,23.3,23,23.3z
			 M34.4,23.3c-2.2,0-4-1.8-4-4c-0.1-2.2,1.8-4,4-4c2.2,0,4,1.8,4,4S36.7,23.3,34.4,23.3z"/>
	</g>
</g>
<path class="st1" d="M72.2,66.7l-5-5c-0.6-0.6-0.6-1.4,0-2l0.7-0.7c0.6-0.6,1.4-0.6,2,0l5,5l5-5c0.6-0.6,1.4-0.6,2,0l0.7,0.7
	c0.6,0.6,0.6,1.4,0,2l-5,5l5,5c0.6,0.6,0.6,1.4,0,2l-0.7,0.7c-0.6,0.6-1.4,0.6-2,0l-5-5l-5,5c-0.6,0.6-1.4,0.6-2,0l-0.7-0.7
	c-0.6-0.6-0.6-1.4,0-2L72.2,66.7z"/>
<g>
	<path class="st1" d="M64.1,82c0,0.8-0.5,1.6-1.2,2c-0.3,0.1-0.6,0.2-0.9,0.2c-0.5,0-1-0.2-1.4-0.5l-11.8-9.8h-6.3
		c-1.2,0-2.2-1-2.2-2.2V63c0-1.2,1-2.2,2.2-2.2h6.3l11.8-9.8c0.6-0.5,1.5-0.7,2.3-0.3c0.8,0.4,1.2,1.1,1.2,2L64.1,82L64.1,82z"/>
</g>
</svg>
