<?xml version="1.0" encoding="utf-8"?>
<!-- Generator: Adobe Illustrator 25.0.0, SVG Export Plug-In . SVG Version: 6.00 Build 0)  -->
<svg version="1.1" id="Capa_1" xmlns="http://www.w3.org/2000/svg" xmlns:xlink="http://www.w3.org/1999/xlink" x="0px" y="0px"
	 viewBox="0 0 93 93" style="enable-background:new 0 0 93 93;" xml:space="preserve">
<style type="text/css">
	.st0{clip-path:url(#SVGID_2_);}
	.st1{fill:#B2B3BC;}
</style>
<g>
	<defs>
		<rect id="SVGID_1_" x="0" y="6.1" width="76.8" height="76.8"/>
	</defs>
	<clipPath id="SVGID_2_">
		<use xlink:href="#SVGID_1_"  style="overflow:visible;"/>
	</clipPath>
	<g class="st0">
		<path class="st1" d="M52.9,72c-1.5-1-2.4-2.6-2.5-4.3H46c0,0.5-0.1,0.9-0.2,1.4c0.2,0.6,0.2,1.3,0.1,1.9c0.3,0.7,0.5,1.4,0.6,2.2
			h8.1C54.1,72.8,53.5,72.5,52.9,72z"/>
		<path class="st1" d="M71.5,47.9c0.8-1.3,2.1-2.2,4.1-2.2c0.4,0,0.8,0,1.1,0.1c0.1,0,0.1-0.1,0.2-0.1V15.9c0.1-5.5-4.4-9.9-9.8-9.9
			H9.9C4.4,6.1,0,10.5,0,15.9v47.4c0,5.5,4.4,9.9,9.9,9.9H37c0-0.1,0-0.1,0-0.2c-0.6-1.2-0.7-2.6-0.4-3.9c-0.1-0.5-0.2-0.9-0.2-1.4
			H9.9c-2.5,0-4.5-2-4.5-4.5V31c0-2.2,1.8-4,4-4h58.1c2.2,0,4,1.8,4,4.1L71.5,47.9z M12.5,23.3c-2.2,0-4-1.8-4-4s1.8-4,4-4
			s4,1.8,4,4S14.7,23.3,12.5,23.3z M23,23.3c-2.2,0-4-1.8-4-4c-0.1-2.2,1.8-4,4-4s4,1.8,4,4S25.3,23.3,23,23.3z M34.4,23.3
			c-2.2,0-4-1.8-4-4c-0.1-2.2,1.8-4,4-4c2.2,0,4,1.8,4,4S36.7,23.3,34.4,23.3z"/>
	</g>
</g>
<g>
	<path class="st1" d="M64.1,82c0,0.8-0.5,1.6-1.2,2c-0.3,0.1-0.6,0.2-0.9,0.2c-0.5,0-1-0.2-1.4-0.5l-11.8-9.8h-6.3
		c-1.2,0-2.2-1-2.2-2.2V63c0-1.2,1-2.2,2.2-2.2h6.3l11.8-9.8c0.6-0.5,1.5-0.7,2.3-0.3c0.8,0.4,1.2,1.1,1.2,2L64.1,82L64.1,82z"/>
</g>
<g>
	<path class="st1" d="M72.5,78.8c-0.1,0-0.1,0-0.2,0c-0.6,0-1.1-0.2-1.6-0.6l-0.3-0.3c-0.8-0.8-0.9-2-0.2-2.9
		c1.6-2.2,2.5-4.8,2.5-7.6c0-3-1-5.7-2.8-8c-0.7-0.9-0.6-2.1,0.2-2.9l0.3-0.3c0.4-0.4,1-0.7,1.7-0.6c0.6,0,1.2,0.3,1.6,0.8
		c2.6,3.2,3.9,7,3.9,11.1c0,3.8-1.2,7.5-3.5,10.5C73.8,78.5,73.2,78.8,72.5,78.8z M81.6,85.6c-0.4,0.5-1,0.8-1.6,0.8
		c0,0-0.1,0-0.1,0c-0.6,0-1.1-0.2-1.6-0.6l-0.3-0.3c-0.8-0.8-0.9-2.1-0.1-3c3.5-4.2,5.5-9.5,5.5-15c0-5.7-2.1-11.2-5.9-15.5
		c-0.8-0.9-0.7-2.2,0.1-3l0.3-0.3c0.4-0.4,1-0.7,1.6-0.6c0.6,0,1.2,0.3,1.6,0.7c4.6,5.2,7.1,11.8,7.1,18.7
		C88.2,74.1,85.9,80.5,81.6,85.6z"/>
</g>
</svg>
