<svg width="51" height="51" viewBox="0 0 51 51" fill="none" xmlns="http://www.w3.org/2000/svg">
<circle cx="25.5" cy="25.5" r="24.5" fill="#DFB157"/>
<circle cx="25.5" cy="25.5" r="24.5" fill="#DFB157"/>
<circle cx="25.5" cy="25.5" r="24.5" fill="#7BD58E"/>
<circle cx="25.5" cy="25.5" r="24.5" stroke="#50AE63" stroke-width="2"/>
<path d="M20.1064 15H18.6709C16.8616 15 15.3896 16.472 15.3896 18.2812V32.7188C15.3896 34.528 16.8616 36 18.6709 36H20.1064C21.9157 36 23.3877 34.528 23.3877 32.7188V18.2812C23.3877 16.472 21.9157 15 20.1064 15ZM21.7471 32.7188C21.7471 33.6234 21.0111 34.3594 20.1064 34.3594H18.6709C17.7663 34.3594 17.0303 33.6234 17.0303 32.7188V18.2812C17.0303 17.3766 17.7663 16.6406 18.6709 16.6406H20.1064C21.0111 16.6406 21.7471 17.3766 21.7471 18.2812V32.7188Z" fill="white"/>
<path d="M34.79 29.4375C35.2431 29.4375 35.6104 29.0702 35.6104 28.6172V18.2812C35.6104 16.472 34.1384 15 32.3291 15H30.9346C29.1253 15 27.6533 16.472 27.6533 18.2812V32.7188C27.6533 34.528 29.1253 36 30.9346 36H32.3291C34.1384 36 35.6104 34.528 35.6104 32.7188C35.6104 32.2657 35.2431 31.8984 34.79 31.8984C34.337 31.8984 33.9697 32.2657 33.9697 32.7188C33.9697 33.6234 33.2337 34.3594 32.3291 34.3594H30.9346C30.0299 34.3594 29.2939 33.6234 29.2939 32.7188V18.2812C29.2939 17.3766 30.0299 16.6406 30.9346 16.6406H32.3291C33.2337 16.6406 33.9697 17.3766 33.9697 18.2812V28.6172C33.9697 29.0702 34.337 29.4375 34.79 29.4375Z" fill="white"/>
</svg>



