<svg width="16" height="16" viewBox="0 0 16 16" fill="none" xmlns="http://www.w3.org/2000/svg">
    <path d="M5.66666 0H2.33334C1.782 0 1.33334 0.448656 1.33334 1V15C1.33334 15.5513 1.782 16 2.33334 16H5.66669C6.21803 16 6.66669 15.5513 6.66669 15V1C6.66666 0.448656 6.218 0 5.66666 0Z" fill="white"/>
    <path d="M13.6667 0H10.3333C9.782 0 9.33334 0.448656 9.33334 1V15C9.33334 15.5513 9.782 16 10.3333 16H13.6667C14.218 16 14.6667 15.5513 14.6667 15V1C14.6667 0.448656 14.218 0 13.6667 0Z" fill="white"/>
</svg>
