<svg id="Слой_1" data-name="Слой 1" xmlns="http://www.w3.org/2000/svg" xmlns:xlink="http://www.w3.org/1999/xlink" viewBox="0 0 51 51"><defs><style>.cls-1,.cls-4{fill:none;}.cls-2{fill:#dfb157;}.cls-3{fill:#ffe3a8;}.cls-4{stroke:#dfb157;stroke-width:2px;}.cls-5{clip-path:url(#clip-path);}</style><clipPath id="clip-path" transform="translate(-0.37 -0.28)"><rect class="cls-1" x="15.98" y="13.81" width="23.94" height="23.94"/></clipPath></defs><title>Безымянный-1</title><circle class="cls-2" cx="25.5" cy="25.5" r="24.5"/><circle class="cls-2" cx="25.5" cy="25.5" r="24.5"/><circle class="cls-3" cx="25.5" cy="25.5" r="25.5"/><circle class="cls-4" cx="25.5" cy="25.5" r="24.5"/><g class="cls-5"><path class="cls-2" d="M36.37,22.15a.75.75,0,0,0-.79,1.28,2.78,2.78,0,0,1,0,4.71L23.26,35.82A2.78,2.78,0,0,1,19,33.46V18.1a2.78,2.78,0,0,1,4.25-2.36l7.17,4.48a.75.75,0,0,0,.79-1.28l-7.17-4.47a4.28,4.28,0,0,0-6.54,3.63V33.46a4.24,4.24,0,0,0,2.2,3.75,4.26,4.26,0,0,0,4.34-.11l12.32-7.69a4.27,4.27,0,0,0,0-7.26Z" transform="translate(-0.37 -0.28)"/></g></svg>

