<svg width="20" height="20" viewBox="0 0 20 20" fill="none" xmlns="http://www.w3.org/2000/svg">
<path fill-rule="evenodd" clip-rule="evenodd" d="M8.99585 3.41836V14C8.99585 14.5523 9.44356 15 9.99585 15C10.5481 15 10.9958 14.5523 10.9958 14V3.41006L13.7929 6.20711C14.1834 6.59763 14.8166 6.59763 15.2071 6.20711C15.5976 5.81658 15.5976 5.18342 15.2071 4.79289L10.7071 0.292893C10.5113 0.0971044 10.2545 -0.000525951 9.99793 2.14577e-06C9.99724 7.15256e-07 9.99654 0 9.99585 0C9.69206 0 9.41992 0.135459 9.23652 0.349271L4.79289 4.79289C4.40237 5.18342 4.40237 5.81658 4.79289 6.20711C5.18342 6.59763 5.81658 6.59763 6.20711 6.20711L8.99585 3.41836ZM19 9C19.5523 9 20 9.44771 20 10V19C20 19.5523 19.5523 20 19 20H1C0.447715 20 0 19.5523 0 19V10.0042C0 9.45187 0.447715 9.00415 1 9.00415C1.55228 9.00415 2 9.45187 2 10.0042V18H18V10C18 9.44771 18.4477 9 19 9Z" fill="#1552FC"/>
</svg>
