


<svg width="31" height="30" viewBox="0 0 31 30" fill="none" xmlns="http://www.w3.org/2000/svg">
<path d="M27.9168 29.361H3.08322C2.14544 29.361 1.30477 28.8765 0.834504 28.0652C0.373859 27.2704 0.366817 26.3329 0.815139 25.4929L13.232 2.23341C13.6766 1.40049 14.5245 0.903229 15.5 0.903229C16.4755 0.903229 17.3233 1.40049 17.768 2.23341L30.1848 25.4928C30.6333 26.3328 30.6262 27.2705 30.1655 28.0652C29.6953 28.8765 28.8546 29.361 27.9168 29.361Z" fill="#FF4C04"/>
<path d="M30.1849 25.4928L17.768 2.23341C17.3233 1.40049 16.4755 0.903229 15.5 0.903229V29.361H27.9168C28.8547 29.361 29.6954 28.8765 30.1655 28.0652C30.6262 27.2705 30.6333 26.3328 30.1849 25.4928Z" fill="#E10000"/>
<path d="M15.4998 25.5478C14.2056 25.5478 13.1526 24.4949 13.1526 23.2006C13.1526 21.9064 14.2056 20.8534 15.4998 20.8534C16.7941 20.8534 17.8471 21.9064 17.8471 23.2006C17.8471 24.4949 16.7941 25.5478 15.4998 25.5478Z" fill="#FFF3F3"/>
<path d="M15.4999 18.5062C14.2056 18.5062 13.1526 17.4532 13.1526 16.1589V11.083C13.1526 9.78878 14.2056 8.73581 15.4998 8.73581C16.7941 8.73581 17.8471 9.78878 17.8471 11.083V16.1589C17.8471 17.4532 16.7942 18.5062 15.4999 18.5062Z" fill="#FFF3F3"/>
<path d="M15.5001 8.73581H15.5V18.5062H15.5001C16.7944 18.5062 17.8473 17.4532 17.8473 16.1589V11.083C17.8473 9.78884 16.7943 8.73581 15.5001 8.73581Z" fill="#DAD0CB"/>
<path d="M15.5001 20.8534H15.5V25.5478H15.5001C16.7943 25.5478 17.8473 24.4949 17.8473 23.2006C17.8473 21.9064 16.7943 20.8534 15.5001 20.8534Z" fill="#DAD0CB"/>
</svg>


