<svg width="21" height="21" viewBox="0 0 21 21" fill="none" xmlns="http://www.w3.org/2000/svg">
<circle cx="10.5" cy="10.5" r="10.5" fill="#DA0909"/>
<path d="M14.6399 15H5.9134C5.58387 15 5.28846 14.8298 5.12321 14.5447C4.96134 14.2654 4.95886 13.9359 5.1164 13.6408L9.47967 5.46742C9.63592 5.17474 9.93386 5 10.2766 5C10.6194 5 10.9173 5.17474 11.0736 5.46742L15.4369 13.6407C15.5944 13.9359 15.5919 14.2654 15.4301 14.5447C15.2648 14.8298 14.9694 15 14.6399 15Z" fill="white"/>
<path d="M15.4369 13.6407L11.0736 5.46742C10.9173 5.17474 10.6194 5 10.2766 5V15H14.6399C14.9694 15 15.2648 14.8298 15.43 14.5447C15.5919 14.2654 15.5944 13.9359 15.4369 13.6407Z" fill="white"/>
<path d="M10.2766 13.6601C9.82179 13.6601 9.45178 13.2901 9.45178 12.8353C9.45178 12.3805 9.82179 12.0105 10.2766 12.0105C10.7314 12.0105 11.1014 12.3805 11.1014 12.8353C11.1014 13.2901 10.7314 13.6601 10.2766 13.6601Z" fill="#DA0909"/>
<path d="M10.2766 11.1857C9.82179 11.1857 9.45178 10.8156 9.45178 10.3608V8.57717C9.45178 8.12237 9.82179 7.75236 10.2766 7.75236C10.7314 7.75236 11.1014 8.12237 11.1014 8.57717V10.3608C11.1014 10.8156 10.7314 11.1857 10.2766 11.1857Z" fill="#DA0909"/>
<path d="M10.2766 7.75236H10.2766V11.1857H10.2767C10.7315 11.1857 11.1014 10.8156 11.1014 10.3608V8.57717C11.1014 8.12239 10.7314 7.75236 10.2766 7.75236Z" fill="#DA0909"/>
<path d="M10.2766 12.0105H10.2766V13.6601H10.2766C10.7314 13.6601 11.1014 13.2901 11.1014 12.8353C11.1014 12.3805 10.7314 12.0105 10.2766 12.0105Z" fill="#DA0909"/>
</svg>



