<svg width="33" height="33" viewBox="0 0 33 33" fill="none" xmlns="http://www.w3.org/2000/svg">
<rect width="33" height="33" rx="16.5" fill="black"/>
<g clip-path="url(#clip0)">
<path d="M26.5879 12.199C26.3574 11.3422 25.6819 10.6669 24.8252 10.4362C23.2602 10.0079 16.9998 10.0079 16.9998 10.0079C16.9998 10.0079 10.7396 10.0079 9.17452 10.4199C8.33438 10.6504 7.64239 11.3424 7.41183 12.199C7 13.764 7 17.0095 7 17.0095C7 17.0095 7 20.2713 7.41183 21.82C7.64254 22.6766 8.3179 23.3521 9.17467 23.5828C10.7561 24.0111 17 24.0111 17 24.0111C17 24.0111 23.2602 24.0111 24.8252 23.5991C25.682 23.3686 26.3574 22.6931 26.5881 21.8364C26.9999 20.2713 26.9999 17.026 26.9999 17.026C26.9999 17.026 27.0164 13.764 26.5879 12.199Z" fill="#FF0000"/>
<path d="M15.0065 20.0078L20.2124 17.0095L15.0065 14.0111V20.0078Z" fill="white"/>
</g>
<defs>
<clipPath id="clip0">
<rect width="20" height="20" fill="white" transform="translate(7 7)"/>
</clipPath>
</defs>
</svg>

