<svg width="20" height="20" viewBox="0 0 20 20" fill="none" xmlns="http://www.w3.org/2000/svg">
<g clip-path="url(#clip0)">
<path d="M19.5879 5.19903C19.3574 4.34225 18.6819 3.6669 17.8252 3.43619C16.2602 3.00787 9.99981 3.00787 9.99981 3.00787C9.99981 3.00787 3.73961 3.00787 2.17452 3.41986C1.33438 3.65042 0.642392 4.3424 0.411833 5.19903C0 6.76396 0 10.0095 0 10.0095C0 10.0095 0 13.2713 0.411833 14.82C0.642545 15.6766 1.3179 16.3521 2.17467 16.5828C3.75609 17.0111 9.99996 17.0111 9.99996 17.0111C9.99996 17.0111 16.2602 17.0111 17.8252 16.5991C18.682 16.3686 19.3574 15.6931 19.5881 14.8364C19.9999 13.2713 19.9999 10.026 19.9999 10.026C19.9999 10.026 20.0164 6.76396 19.5879 5.19903Z" fill="#FF0000"/>
<path d="M8.00659 13.0078L13.2124 10.0095L8.00659 7.01111V13.0078Z" fill="white"/>
</g>
<defs>
<clipPath id="clip0">
<rect width="20" height="20" fill="white"/>
</clipPath>
</defs>
</svg>
