<svg width="24" height="24" viewBox="0 0 24 24" fill="none" xmlns="http://www.w3.org/2000/svg">
    <path fill-rule="evenodd" clip-rule="evenodd" d="M6 12C9.31371 12 12 9.31371 12 6C12 2.68629 9.31371 0 6 0C2.68629 0 0 2.68629 0 6C0 9.31371 2.68629 12 6 12ZM6 10C8.20914 10 10 8.20914 10 6C10 5.28434 9.81206 4.61258 9.48283 4.03138L4.03138 9.48283C4.61258 9.81206 5.28434 10 6 10ZM8.09434 2.59145L2.59145 8.09434C2.21636 7.48519 2 6.76786 2 6C2 3.79086 3.79086 2 6 2C6.76786 2 7.48519 2.21636 8.09434 2.59145ZM13.737 4H23C23.5523 4 24 4.44772 24 5V18C24 18.5523 23.5523 19 23 19H10.362L4.64 23.769C4.3418 24.0174 3.92683 24.0708 3.57545 23.906C3.22408 23.7413 2.99976 23.3881 3 23V13.411C5.79892 14.5503 9.00121 14.012 11.2738 12.0201C13.5463 10.0282 14.4997 6.9241 13.737 4Z" fill="#9E9E9E"/>
</svg>
