<svg width="20" height="20" viewBox="0 0 20 20" fill="none" xmlns="http://www.w3.org/2000/svg">
<path fill-rule="evenodd" clip-rule="evenodd" d="M15 10C17.7614 10 20 7.76142 20 5C20 2.23858 17.7614 0 15 0C12.2386 0 9.99999 2.23858 9.99999 5C9.99999 7.76142 12.2386 10 15 10ZM15 8.33333C16.8409 8.33333 18.3333 6.84095 18.3333 5C18.3333 4.40362 18.1767 3.84382 17.9024 3.35948L13.3595 7.90236C13.8438 8.17671 14.4036 8.33333 15 8.33333ZM16.7453 2.15954L12.1595 6.74528C11.847 6.23766 11.6667 5.63988 11.6667 5C11.6667 3.15905 13.159 1.66667 15 1.66667C15.6399 1.66667 16.2376 1.84697 16.7453 2.15954ZM2.66666 1.66667C2.11437 1.66667 1.66666 2.11438 1.66666 2.66667V7.33333C1.66666 7.88562 2.11437 8.33333 2.66666 8.33333H7.33332C7.88561 8.33333 8.33332 7.88562 8.33332 7.33333V2.66667C8.33332 2.11438 7.88561 1.66667 7.33332 1.66667H2.66666ZM11.6667 12.6667C11.6667 12.1144 12.1144 11.6667 12.6667 11.6667H17.3333C17.8856 11.6667 18.3333 12.1144 18.3333 12.6667V17.3333C18.3333 17.8856 17.8856 18.3333 17.3333 18.3333H12.6667C12.1144 18.3333 11.6667 17.8856 11.6667 17.3333V12.6667ZM2.66666 11.6667C2.11437 11.6667 1.66666 12.1144 1.66666 12.6667V17.3333C1.66666 17.8856 2.11437 18.3333 2.66666 18.3333H7.33332C7.88561 18.3333 8.33332 17.8856 8.33332 17.3333V12.6667C8.33332 12.1144 7.88561 11.6667 7.33332 11.6667H2.66666Z" fill="#9E9E9E"/>
</svg>
