<svg xmlns="http://www.w3.org/2000/svg" width="82" height="15" viewBox="0 0 82 15">
    <path fill="#50565D" fill-rule="evenodd" d="M9.62 10.753v1.52c0 1.89-.852 2.727-2.792 2.727H0V1.364h6.828c1.94 0 2.791.837 2.791 2.727v1.52c0 1.616-.594 2.395-2.098 2.57 1.504.176 2.098.975 2.098 2.572zM5.74 6.974c.811 0 1.069-.312 1.069-1.09V4.87c0-.78-.297-1.09-1.05-1.09H2.812v3.194H5.74zM2.81 9.39v3.194h2.95c.752 0 1.049-.311 1.049-1.09V10.48c0-.78-.258-1.091-1.07-1.091H2.812zm12.51 3.292c-.773 0-1.05-.273-1.05-1.033V0H11.56v12.292c0 1.87.831 2.708 2.79 2.708h2.099v-2.318h-1.129zm8.114-9.429c1.92 0 2.791.877 2.791 2.786v6.175c0 1.91-.87 2.786-2.79 2.786h-2.93c-1.94 0-2.81-.877-2.81-2.786V6.04c0-1.91.87-2.786 2.81-2.786h2.93zm-1.01 9.429c.793 0 1.11-.331 1.11-1.091V6.662c0-.76-.317-1.09-1.11-1.09h-.91c-.791 0-1.108.33-1.108 1.09v4.929c0 .76.317 1.09 1.108 1.09h.91zM30.877 15h4.909v-2.318h-3.9c-.771 0-1.108-.331-1.108-1.091V6.662c0-.76.337-1.09 1.109-1.09h3.899V3.252h-4.909c-1.94 0-2.81.877-2.81 2.786v6.175c0 1.91.87 2.786 2.81 2.786zm12.608-7.929c0 .604-.297.897-.93.897h-2.177V0h-2.712v15h2.712v-4.714h2.177c.633 0 .93.292.93.896V15h2.712v-3.41c0-1.519-.535-2.298-1.98-2.454 1.445-.175 1.98-.954 1.98-2.454V3.253h-2.712v3.818zm7.323 2.319h2.435c.752 0 1.049.292 1.049 1.071v1.033c0 .779-.297 1.09-1.05 1.09h-5.403V15h6.413c1.98 0 2.85-.896 2.85-2.805V9.779c0-1.89-.87-2.805-2.87-2.805h-2.414c-.753 0-1.07-.292-1.07-1.071V4.87c0-.78.317-1.09 1.07-1.09h4.79V1.363h-5.8c-1.98 0-2.87.896-2.87 2.805v2.415c0 1.89.89 2.806 2.87 2.806zm11.955 3.292c-.752 0-1.03-.273-1.03-1.033V3.253h-2.711v9.04c0 1.87.811 2.707 2.77 2.707h2.099v-2.318h-1.128zM61.95.253h-3.167v1.753h3.167V.253zM68.106 15h3.444v-2.318h-2.474c-.772 0-1.109-.331-1.109-1.091V5.57h3.583V3.253h-3.583V0h-2.711v12.214c0 1.91.87 2.786 2.85 2.786zM82 7.656c0 1.753-.792 2.552-2.514 2.552h-3.602v1.383c0 .76.337 1.09 1.109 1.09h4.413V15h-5.423c-1.94 0-2.81-.877-2.81-2.786V6.04c0-1.91.87-2.786 2.81-2.786h3.503c1.703 0 2.514.799 2.514 2.552v1.85zM78.378 5.57h-1.385c-.772 0-1.109.332-1.109 1.091v1.383h2.494c.653 0 .93-.253.93-.896v-.662c0-.643-.277-.916-.93-.916z"/>
</svg>
