<svg width="25" height="24" viewBox="0 0 25 24" fill="none" xmlns="http://www.w3.org/2000/svg">
<path fill-rule="evenodd" clip-rule="evenodd" d="M17.9397 8H19.9397C20.492 8 20.9397 8.44771 20.9397 9V18C20.9397 18.5523 20.492 19 19.9397 19H5.9397C5.38741 19 4.9397 18.5523 4.9397 18V9C4.9397 8.44771 5.38741 8 5.9397 8H7.9397V5C7.9397 2.23858 10.1783 0 12.9397 0C15.7011 0 17.9397 2.23858 17.9397 5V8ZM11.4397 13.5C11.4397 14.3284 12.1113 15 12.9397 15C13.7681 15 14.4397 14.3284 14.4397 13.5C14.4397 12.6716 13.7681 12 12.9397 12C12.1113 12 11.4397 12.6716 11.4397 13.5ZM15.9397 8H9.9397V5C9.9397 3.34315 11.2828 2 12.9397 2C14.5966 2 15.9397 3.34315 15.9397 5V8ZM4.4397 22.5C4.4397 23.3284 3.76812 24 2.9397 24C2.11127 24 1.4397 23.3284 1.4397 22.5C1.4397 21.6716 2.11127 21 2.9397 21C3.76812 21 4.4397 21.6716 4.4397 22.5ZM7.9397 24C8.76812 24 9.4397 23.3284 9.4397 22.5C9.4397 21.6716 8.76812 21 7.9397 21C7.11127 21 6.4397 21.6716 6.4397 22.5C6.4397 23.3284 7.11127 24 7.9397 24ZM12.9397 24C13.7681 24 14.4397 23.3284 14.4397 22.5C14.4397 21.6716 13.7681 21 12.9397 21C12.1113 21 11.4397 21.6716 11.4397 22.5C11.4397 23.3284 12.1113 24 12.9397 24ZM19.4397 22.5C19.4397 23.3284 18.7681 24 17.9397 24C17.1113 24 16.4397 23.3284 16.4397 22.5C16.4397 21.6716 17.1113 21 17.9397 21C18.7681 21 19.4397 21.6716 19.4397 22.5ZM22.9397 24C23.7681 24 24.4397 23.3284 24.4397 22.5C24.4397 21.6716 23.7681 21 22.9397 21C22.1113 21 21.4397 21.6716 21.4397 22.5C21.4397 23.3284 22.1113 24 22.9397 24Z" fill="#9E9E9E"/>
</svg>
