<svg width="48" height="48" viewBox="0 0 48 48" fill="none" xmlns="http://www.w3.org/2000/svg">
<g filter="url(#filter0_d)">
<path d="M23.9181 46.3777L22.9309 45.9787C14.5933 42.8353 8.85111 37.6154 5.36201 30.9266C3.54026 27.4343 2.42584 23.7165 1.88212 19.943C1.50852 17.3501 1.44188 15.0419 1.55326 13.1778C1.56309 13.0134 1.57372 12.8666 1.58462 12.7378C1.59175 12.6535 1.5969 12.5999 1.60241 12.5468L1.83702 10.6468L3.08819 10.326L3.64123 10.1843C9.29664 8.70674 13.8914 6.94512 17.5154 5.05484C18.8139 4.37757 19.904 3.72585 20.7958 3.11975C21.1227 2.89755 21.4044 2.69383 21.6415 2.51169C21.8028 2.38776 21.9241 2.2887 21.995 2.22703C23.1 1.26023 24.7246 1.25766 25.8324 2.21933C25.9165 2.29132 26.0362 2.38838 26.1953 2.51035C26.4344 2.6936 26.7166 2.89739 27.0435 3.11951C27.937 3.72651 29.0265 4.37795 30.324 5.05496C33.9477 6.94569 38.5403 8.70691 44.1865 10.1821L45.9992 10.6468L46.2319 12.5284C46.2393 12.5999 46.2445 12.6535 46.2516 12.7378C46.2625 12.8666 46.2732 13.0134 46.283 13.1778C46.3944 15.0419 46.3277 17.3501 45.9541 19.943C45.4104 23.7165 44.296 27.4343 42.4742 30.9266C38.9851 37.6154 33.2429 42.8353 24.9054 45.9787L23.9181 46.3777Z" fill="white"/>
</g>
<mask id="mask0" mask-type="alpha" maskUnits="userSpaceOnUse" x="1" y="1" width="46" height="46">
<path d="M23.9181 46.3777L22.9309 45.9787C14.5933 42.8353 8.85111 37.6154 5.36201 30.9266C3.54026 27.4343 2.42584 23.7165 1.88212 19.943C1.50852 17.3501 1.44188 15.0419 1.55326 13.1778C1.56309 13.0134 1.57372 12.8666 1.58462 12.7378C1.59175 12.6535 1.5969 12.5999 1.60241 12.5468L1.83702 10.6468L3.08819 10.326L3.64123 10.1843C9.29664 8.70674 13.8914 6.94512 17.5154 5.05484C18.8139 4.37757 19.904 3.72585 20.7958 3.11975C21.1227 2.89755 21.4044 2.69383 21.6415 2.51169C21.8028 2.38776 21.9241 2.2887 21.995 2.22703C23.1 1.26023 24.7246 1.25766 25.8324 2.21933C25.9165 2.29132 26.0362 2.38838 26.1953 2.51035C26.4344 2.6936 26.7166 2.89739 27.0435 3.11951C27.937 3.72651 29.0265 4.37795 30.324 5.05496C33.9477 6.94569 38.5403 8.70691 44.1865 10.1821L45.9992 10.6468L46.2319 12.5284C46.2393 12.5999 46.2445 12.6535 46.2516 12.7378C46.2625 12.8666 46.2732 13.0134 46.283 13.1778C46.3944 15.0419 46.3277 17.3501 45.9541 19.943C45.4104 23.7165 44.296 27.4343 42.4742 30.9266C38.9851 37.6154 33.2429 42.8353 24.9054 45.9787L23.9181 46.3777Z" fill="white"/>
</mask>
<g mask="url(#mask0)">
<path fill-rule="evenodd" clip-rule="evenodd" d="M23.959 44.3143L44.3935 12.1738L65.3737 27.7797L39.3394 55.4462L23.959 44.3143Z" fill="url(#paint0_linear)"/>
</g>
<path d="M44.3487 12.7429C44.3727 12.9748 46.7792 35.7259 24.2149 44.2186L23.9181 44.3385L23.6213 44.2186C1.05702 35.7259 3.46345 12.9748 3.48751 12.7429L3.5597 12.1591L4.1212 12.0152C17.2523 8.58454 22.6748 4.14628 23.2443 3.65048C23.6373 3.30661 24.1988 3.30661 24.5919 3.65048C25.1694 4.14628 30.5839 8.58454 43.715 12.0152L44.2765 12.1591L44.3487 12.7429Z" fill="#FF5252"/>
<mask id="mask1" mask-type="alpha" maskUnits="userSpaceOnUse" x="3" y="3" width="42" height="42">
<path d="M44.3487 12.7429C44.3727 12.9748 46.7792 35.7259 24.2149 44.2186L23.9181 44.3385L23.6213 44.2186C1.05702 35.7259 3.46345 12.9748 3.48751 12.7429L3.5597 12.1591L4.1212 12.0152C17.2523 8.58454 22.6748 4.14628 23.2443 3.65048C23.6373 3.30661 24.1988 3.30661 24.5919 3.65048C25.1694 4.14628 30.5839 8.58454 43.715 12.0152L44.2765 12.1591L44.3487 12.7429Z" fill="white"/>
</mask>
<g mask="url(#mask1)">
<path fill-rule="evenodd" clip-rule="evenodd" d="M30.3389 30.5877C34.1366 26.7899 34.143 20.639 30.3532 16.8492C30.281 16.777 30.208 16.7062 30.1341 16.6368L30.2832 16.4877L45.6927 31.8973L31.8797 45.7104L17.7703 31.601C21.5658 34.3546 26.911 34.0156 30.3389 30.5877Z" fill="url(#paint1_linear)"/>
<path fill-rule="evenodd" clip-rule="evenodd" d="M44.6383 2.88156V44.338H23.8669C23.8669 44.338 24.01 25.5875 23.8669 2.88156C23.8581 1.48563 44.6383 2.88156 44.6383 2.88156Z" fill="url(#paint2_linear)"/>
</g>
<g filter="url(#filter1_d)">
<path fill-rule="evenodd" clip-rule="evenodd" d="M30.8176 17.0749C32.6832 18.9077 33.6899 21.3612 33.6899 23.9626C33.6899 26.564 32.6832 29.0176 30.8176 30.8503C28.9225 32.7718 26.4351 33.7178 23.9182 33.7178C21.4308 33.7178 18.9138 32.7718 17.0187 30.8503C15.1532 29.0176 14.1464 26.564 14.1464 23.9626C14.1464 21.3612 15.1532 18.9077 17.0187 17.0749C20.809 13.2615 27.0274 13.2615 30.8176 17.0749ZM29.1593 29.1949C30.551 27.8055 31.3209 25.9431 31.3209 23.9626C31.3209 22.3958 30.8175 20.8882 29.9292 19.6466L19.5948 29.9635C20.8385 30.8503 22.3487 31.3528 23.9181 31.3528C25.902 31.3528 27.7675 30.5842 29.1593 29.1949ZM28.2415 17.9617L17.9071 28.2785C17.0187 27.0369 16.5153 25.5293 16.5153 23.9626C16.5153 21.982 17.2852 20.1196 18.677 18.7303C20.0687 17.3409 21.9342 16.5723 23.9182 16.5723C25.4876 16.5723 26.9978 17.0748 28.2415 17.9617Z" fill="url(#paint3_linear)"/>
</g>
<defs>
<filter id="filter0_d" x="0.00439453" y="0" width="47.8274" height="47.8777" filterUnits="userSpaceOnUse" color-interpolation-filters="sRGB">
<feFlood flood-opacity="0" result="BackgroundImageFix"/>
<feColorMatrix in="SourceAlpha" type="matrix" values="0 0 0 0 0 0 0 0 0 0 0 0 0 0 0 0 0 0 127 0" result="hardAlpha"/>
<feOffset/>
<feGaussianBlur stdDeviation="0.75"/>
<feColorMatrix type="matrix" values="0 0 0 0 0 0 0 0 0 0 0 0 0 0 0 0 0 0 0.174423 0"/>
<feBlend mode="normal" in2="BackgroundImageFix" result="effect1_dropShadow"/>
<feBlend mode="normal" in="SourceGraphic" in2="effect1_dropShadow" result="shape"/>
</filter>
<filter id="filter1_d" x="12.6464" y="12.7148" width="22.5436" height="22.5029" filterUnits="userSpaceOnUse" color-interpolation-filters="sRGB">
<feFlood flood-opacity="0" result="BackgroundImageFix"/>
<feColorMatrix in="SourceAlpha" type="matrix" values="0 0 0 0 0 0 0 0 0 0 0 0 0 0 0 0 0 0 127 0" result="hardAlpha"/>
<feOffset/>
<feGaussianBlur stdDeviation="0.75"/>
<feColorMatrix type="matrix" values="0 0 0 0 0 0 0 0 0 0 0 0 0 0 0 0 0 0 0.174423 0"/>
<feBlend mode="normal" in2="BackgroundImageFix" result="effect1_dropShadow"/>
<feBlend mode="normal" in="SourceGraphic" in2="effect1_dropShadow" result="shape"/>
</filter>
<linearGradient id="paint0_linear" x1="61.2084" y1="16.8942" x2="24.3272" y2="16.8942" gradientUnits="userSpaceOnUse">
<stop stop-opacity="0.01"/>
<stop offset="1" stop-opacity="0.0518286"/>
</linearGradient>
<linearGradient id="paint1_linear" x1="35.3627" y1="32.2013" x2="32.2567" y2="28.2348" gradientUnits="userSpaceOnUse">
<stop stop-opacity="0.01"/>
<stop offset="1" stop-opacity="0.0518286"/>
</linearGradient>
<linearGradient id="paint2_linear" x1="42.5492" y1="6.78198" x2="24.0515" y2="6.78198" gradientUnits="userSpaceOnUse">
<stop stop-opacity="0.01"/>
<stop offset="1" stop-opacity="0.0518286"/>
</linearGradient>
<linearGradient id="paint3_linear" x1="37.5638" y1="23.9238" x2="24.0577" y2="37.598" gradientUnits="userSpaceOnUse">
<stop stop-color="white"/>
<stop offset="1" stop-color="#E2E0E0"/>
</linearGradient>
</defs>
</svg>
