<svg width="25" height="24" viewBox="0 0 25 24" fill="none" xmlns="http://www.w3.org/2000/svg">
<path fill-rule="evenodd" clip-rule="evenodd" d="M23.0607 1.87836C21.8892 0.707214 19.9902 0.707214 18.8187 1.87836L12.0247 8.67136C14.0981 9.22135 15.7177 10.8402 16.2687 12.9134L23.0607 6.12036C24.2318 4.94886 24.2318 3.04986 23.0607 1.87836ZM13.3037 11.6354C12.5535 10.8852 11.5361 10.4637 10.4752 10.4637C9.4143 10.4637 8.39685 10.8852 7.6467 11.6354C6.2737 13.0084 5.9847 17.1354 5.9407 17.9454C5.92587 18.2196 6.0245 18.4879 6.21345 18.6873C6.4024 18.8866 6.66503 18.9995 6.9397 18.9994H6.9937C7.8057 18.9554 11.9307 18.6664 13.3037 17.2934C14.0539 16.5432 14.4753 15.5258 14.4753 14.4649C14.4753 13.404 14.0539 12.3865 13.3037 11.6364V11.6354ZM20.9397 19.9994V10.2284L22.9397 8.22736V20.9994C22.9397 21.5516 22.492 21.9994 21.9397 21.9994H3.9397C3.38741 21.9994 2.9397 21.5516 2.9397 20.9994V2.99936C2.9397 2.44707 3.38741 1.99936 3.9397 1.99936H16.6837L14.6837 3.99936H4.9397V19.9994H20.9397Z" fill="#9E9E9E"/>
</svg>
