<svg width="64" height="12" viewBox="0 0 64 12" fill="none" xmlns="http://www.w3.org/2000/svg">
<path d="M0.142853 11.3072V1.12538H4.21956C4.96861 1.12538 5.59337 1.23641 6.09385 1.45847C6.59432 1.68054 6.9705 1.98878 7.2224 2.38319C7.47429 2.77429 7.60024 3.22505 7.60024 3.73546C7.60024 4.13319 7.52069 4.48286 7.3616 4.78447C7.20251 5.08276 6.98376 5.32803 6.70535 5.52026C6.43026 5.70918 6.11539 5.84342 5.76075 5.92296V6.02239C6.14853 6.03897 6.51146 6.14834 6.84953 6.35052C7.19091 6.5527 7.46766 6.83608 7.67978 7.20066C7.89191 7.56193 7.99797 7.9928 7.99797 8.49328C7.99797 9.03352 7.86373 9.51577 7.59527 9.94001C7.33012 10.3609 6.93736 10.694 6.417 10.9393C5.89664 11.1846 5.25531 11.3072 4.49299 11.3072H0.142853ZM2.29555 9.54725H4.05052C4.65043 9.54725 5.08793 9.43291 5.36302 9.20421C5.63812 8.97221 5.77567 8.66397 5.77567 8.2795C5.77567 7.99777 5.70772 7.74919 5.57183 7.53376C5.43594 7.31832 5.24205 7.14929 4.99015 7.02666C4.74157 6.90402 4.44494 6.84271 4.10024 6.84271H2.29555V9.54725ZM2.29555 5.38603H3.89143C4.18641 5.38603 4.44825 5.33466 4.67694 5.23191C4.90895 5.12585 5.09124 4.9767 5.22382 4.78447C5.35971 4.59223 5.42765 4.36188 5.42765 4.09342C5.42765 3.72552 5.29674 3.42888 5.0349 3.2035C4.77638 2.97812 4.40848 2.86543 3.93121 2.86543H2.29555V5.38603Z" fill="#212121"/>
<path d="M11.4768 1.12538V11.3072H9.35894V1.12538H11.4768Z" fill="#212121"/>
<path d="M16.6237 11.4563C15.8514 11.4563 15.1836 11.2923 14.6201 10.9642C14.06 10.6327 13.6275 10.172 13.3225 9.58205C13.0176 8.98878 12.8652 8.30104 12.8652 7.51884C12.8652 6.73002 13.0176 6.04062 13.3225 5.45066C13.6275 4.85739 14.06 4.39668 14.6201 4.06856C15.1836 3.73712 15.8514 3.5714 16.6237 3.5714C17.3959 3.5714 18.0621 3.73712 18.6223 4.06856C19.1857 4.39668 19.6199 4.85739 19.9248 5.45066C20.2297 6.04062 20.3822 6.73002 20.3822 7.51884C20.3822 8.30104 20.2297 8.98878 19.9248 9.58205C19.6199 10.172 19.1857 10.6327 18.6223 10.9642C18.0621 11.2923 17.3959 11.4563 16.6237 11.4563ZM16.6336 9.81572C16.9849 9.81572 17.2783 9.71629 17.5136 9.51742C17.7489 9.31525 17.9262 9.04015 18.0456 8.69214C18.1682 8.34413 18.2295 7.94806 18.2295 7.50393C18.2295 7.0598 18.1682 6.66373 18.0456 6.31572C17.9262 5.96771 17.7489 5.69261 17.5136 5.49043C17.2783 5.28826 16.9849 5.18717 16.6336 5.18717C16.279 5.18717 15.9807 5.28826 15.7387 5.49043C15.5001 5.69261 15.3195 5.96771 15.1968 6.31572C15.0775 6.66373 15.0179 7.0598 15.0179 7.50393C15.0179 7.94806 15.0775 8.34413 15.1968 8.69214C15.3195 9.04015 15.5001 9.31525 15.7387 9.51742C15.9807 9.71629 16.279 9.81572 16.6336 9.81572Z" fill="#212121"/>
<path d="M25.2096 11.4563C24.4274 11.4563 23.7546 11.2906 23.1911 10.9592C22.631 10.6244 22.2001 10.1604 21.8985 9.56714C21.6002 8.97386 21.4511 8.2911 21.4511 7.51884C21.4511 6.73665 21.6019 6.05057 21.9035 5.46061C22.2084 4.86733 22.641 4.40497 23.2011 4.07353C23.7612 3.73878 24.4274 3.5714 25.1997 3.5714C25.8659 3.5714 26.4492 3.69238 26.9497 3.93433C27.4501 4.17628 27.8462 4.516 28.1379 4.9535C28.4296 5.391 28.5903 5.90473 28.6201 6.4947H26.6215C26.5652 6.11354 26.4161 5.80696 26.1741 5.57495C25.9355 5.33963 25.6223 5.22197 25.2345 5.22197C24.9063 5.22197 24.6197 5.31146 24.3744 5.49043C24.1324 5.6661 23.9435 5.92296 23.8076 6.26103C23.6717 6.5991 23.6038 7.00843 23.6038 7.48901C23.6038 7.97623 23.6701 8.39053 23.8027 8.73191C23.9385 9.07329 24.1291 9.33348 24.3744 9.51245C24.6197 9.69143 24.9063 9.78092 25.2345 9.78092C25.4764 9.78092 25.6935 9.7312 25.8857 9.63177C26.0813 9.53234 26.242 9.38816 26.368 9.19924C26.4973 9.00701 26.5818 8.77666 26.6215 8.50819H28.6201C28.587 9.09152 28.4279 9.60526 28.1429 10.0494C27.8611 10.4902 27.4717 10.8349 26.9745 11.0835C26.4774 11.3321 25.8891 11.4563 25.2096 11.4563Z" fill="#212121"/>
<path d="M31.8952 9.10975L31.9001 6.56927H32.2084L34.6544 3.67083H37.0855L33.7993 7.5089H33.2971L31.8952 9.10975ZM29.9761 11.3072V1.12538H32.094V11.3072H29.9761ZM34.7489 11.3072L32.5017 7.9812L33.9136 6.48475L37.2297 11.3072H34.7489Z" fill="#212121"/>
<path d="M43.6878 4.05364C43.648 3.6526 43.4773 3.34105 43.1757 3.11899C42.8741 2.89692 42.4648 2.78589 41.9477 2.78589C41.5964 2.78589 41.2998 2.8356 41.0578 2.93504C40.8159 3.03115 40.6302 3.16539 40.501 3.33774C40.375 3.51008 40.3121 3.70563 40.3121 3.92438C40.3054 4.10668 40.3436 4.26577 40.4264 4.40166C40.5126 4.53755 40.6302 4.65521 40.7794 4.75464C40.9285 4.85076 41.1009 4.93527 41.2964 5.00819C41.492 5.07779 41.7008 5.13745 41.9229 5.18717L42.8376 5.40592C43.2818 5.50535 43.6894 5.63793 44.0606 5.80364C44.4319 5.96936 44.7534 6.1732 45.0251 6.41515C45.2969 6.6571 45.5074 6.94214 45.6565 7.27026C45.809 7.59839 45.8869 7.97457 45.8902 8.39882C45.8869 9.02192 45.7278 9.56217 45.4129 10.0196C45.1014 10.4736 44.6506 10.8266 44.0606 11.0785C43.474 11.3271 42.7664 11.4514 41.9378 11.4514C41.1158 11.4514 40.3999 11.3254 39.79 11.0735C39.1835 10.8216 38.7096 10.4488 38.3682 9.95492C38.0301 9.45776 37.8528 8.84294 37.8362 8.11046H39.9193C39.9425 8.45185 40.0403 8.73688 40.2126 8.96558C40.3883 9.19096 40.622 9.36165 40.9136 9.47765C41.2086 9.59034 41.5417 9.64668 41.9129 9.64668C42.2775 9.64668 42.594 9.59365 42.8625 9.48759C43.1343 9.38153 43.3447 9.23404 43.4939 9.04512C43.643 8.8562 43.7176 8.63911 43.7176 8.39384C43.7176 8.16515 43.6497 7.97292 43.5138 7.81714C43.3812 7.66136 43.1856 7.52879 42.9271 7.41941C42.6719 7.31004 42.3587 7.21061 41.9875 7.12112L40.8788 6.84271C40.0204 6.6339 39.3426 6.30743 38.8454 5.8633C38.3483 5.41918 38.1014 4.82093 38.1047 4.06856C38.1014 3.45208 38.2654 2.91349 38.5969 2.45279C38.9316 1.99209 39.3907 1.63248 39.974 1.37396C40.5573 1.11543 41.2202 0.986173 41.9626 0.986173C42.7183 0.986173 43.3779 1.11543 43.9413 1.37396C44.5081 1.63248 44.9489 1.99209 45.2638 2.45279C45.5786 2.91349 45.741 3.44711 45.751 4.05364H43.6878Z" fill="#212121"/>
<path d="M47.2984 11.3072V3.67083H49.4163V11.3072H47.2984ZM48.3673 2.68646C48.0524 2.68646 47.7823 2.58205 47.5569 2.37325C47.3315 2.16113 47.2188 1.90757 47.2188 1.61259C47.2188 1.32093 47.3315 1.07069 47.5569 0.861884C47.7823 0.649762 48.0508 0.543701 48.3623 0.543701C48.6805 0.543701 48.9506 0.649762 49.1727 0.861884C49.3981 1.07069 49.5107 1.32093 49.5107 1.61259C49.5107 1.90757 49.3981 2.16113 49.1727 2.37325C48.9506 2.58205 48.6822 2.68646 48.3673 2.68646Z" fill="#212121"/>
<path d="M55.1746 3.67083V5.26174H50.5759V3.67083H55.1746ZM51.6199 1.84129H53.7378V8.96061C53.7378 9.15615 53.7677 9.30862 53.8273 9.41799C53.887 9.52405 53.9699 9.59863 54.0759 9.64171C54.1853 9.6848 54.3112 9.70634 54.4538 9.70634C54.5532 9.70634 54.6526 9.69806 54.752 9.68149C54.8515 9.6616 54.9277 9.64668 54.9807 9.63674L55.3138 11.2127C55.2078 11.2459 55.0586 11.284 54.8664 11.3271C54.6742 11.3735 54.4405 11.4017 54.1654 11.4116C53.655 11.4315 53.2075 11.3635 52.8231 11.2078C52.4419 11.052 52.1453 10.81 51.9332 10.4819C51.721 10.1538 51.6166 9.73949 51.6199 9.23901V1.84129Z" fill="#212121"/>
<path d="M59.9523 11.4563C59.1668 11.4563 58.4907 11.2973 57.9239 10.9791C57.3605 10.6576 56.9263 10.2035 56.6214 9.61686C56.3164 9.02689 56.164 8.32921 56.164 7.52382C56.164 6.7383 56.3164 6.04891 56.6214 5.45563C56.9263 4.86236 57.3555 4.4 57.909 4.06856C58.4658 3.73712 59.1188 3.5714 59.8678 3.5714C60.3716 3.5714 60.8406 3.6526 61.2748 3.81501C61.7123 3.9741 62.0934 4.21439 62.4183 4.53589C62.7464 4.85739 63.0016 5.26174 63.1839 5.74896C63.3662 6.23286 63.4573 6.79962 63.4573 7.44924V8.03092H57.0092V6.71842H61.4637C61.4637 6.41349 61.3974 6.14337 61.2648 5.90805C61.1323 5.67273 60.9483 5.48878 60.713 5.3562C60.481 5.22031 60.2109 5.15237 59.9026 5.15237C59.5811 5.15237 59.2961 5.22694 59.0475 5.37609C58.8022 5.52192 58.61 5.71913 58.4708 5.96771C58.3316 6.21297 58.2603 6.48641 58.257 6.78802V8.03589C58.257 8.41373 58.3266 8.7402 58.4658 9.01529C58.6083 9.29039 58.8089 9.50251 59.0674 9.65166C59.3259 9.8008 59.6325 9.87538 59.9871 9.87538C60.2225 9.87538 60.4379 9.84223 60.6334 9.77595C60.829 9.70966 60.9964 9.61023 61.1356 9.47765C61.2748 9.34507 61.3808 9.18267 61.4538 8.99043L63.4126 9.1197C63.3131 9.59034 63.1093 10.0013 62.8011 10.3526C62.4961 10.7007 62.1017 10.9724 61.6178 11.168C61.1372 11.3602 60.5821 11.4563 59.9523 11.4563Z" fill="#212121"/>
</svg>
