<svg xmlns="http://www.w3.org/2000/svg" xmlns:xlink="http://www.w3.org/1999/xlink" width="136" height="181" viewBox="0 0 136 181">
    <defs>
        <ellipse id="a" cx="67.273" cy="67.286" rx="67.273" ry="67.286"/>
        <path id="c" d="M6.727 89.714H0V0h148v89.714h-6.727C141.273 126.875 111.153 157 74 157c-37.154 0-67.273-30.125-67.273-67.286z"/>
        <path id="e" d="M42.606 81.086c-9.665-4.591-16.612-13.976-17.769-25.081a6.729 6.729 0 0 1-5.776-6.66v-7.853a6.73 6.73 0 0 1 5.606-6.635v-3.463C24.667 14.056 38.722 0 56.06 0c17.338 0 31.394 14.056 31.394 31.394v3.463a6.73 6.73 0 0 1 5.606 6.635v7.852a6.729 6.729 0 0 1-5.777 6.66c-1.157 11.106-8.104 20.49-17.769 25.082v10.396c23.774 1.452 42.606 21.193 42.606 45.332H0c0-24.139 18.832-43.88 42.606-45.332V81.086z"/>
        <path id="g" d="M93.952 17.369c20.63 4.377 36.109 22.696 36.109 44.631H17.939c0-21.912 15.446-40.216 36.044-44.618a17.809 17.809 0 0 0 5.672 10.367L71.25 38.2a4 4 0 0 0 5.358 0l11.666-10.527a17.903 17.903 0 0 0 5.679-10.304z"/>
        <path id="i" d="M0 0h148v157H0z"/>
        <path id="k" d="M56.752 54.897c-1.407 1.283-2.905 1.86-4.799 1.456-.325-.07-1.654-2.538-4.953-2.538-3.3 0-4.628 2.469-4.954 2.538-1.893.404-3.391-.173-4.798-1.456-2.644-2.412-4.842-5.738-3.521-9.367.688-1.89 1.808-3.967 3.845-4.57 2.176-.643 5.23-.001 7.422-.44.71-.143 1.486-.396 2.006-.816.52.42 1.296.673 2.006.815 2.192.44 5.246-.202 7.421.44 2.038.604 3.157 2.68 3.846 4.571 1.321 3.63-.877 6.955-3.521 9.367m21.627-40.358c-1.908 4.698-1.172 10.546-1.525 15.477-.287 4.008-1.13 10.016-4.69 12.604-1.822 1.324-5.136 3.548-7.516 2.928-1.637-.427-1.812-5.123-3.965-6.88-2.441-1.994-5.49-2.87-8.564-2.734-1.326.058-4.009.044-5.119 1.064-1.11-1.02-3.793-1.006-5.12-1.064-3.073-.136-6.122.74-8.563 2.734-2.153 1.757-2.327 6.453-3.965 6.88-2.38.62-5.694-1.604-7.515-2.928-3.562-2.588-4.404-8.596-4.692-12.604-.353-4.93.384-10.779-1.524-15.477-.928 0-.316 9.02-.316 9.02v11.383c.018 8.55 5.361 21.346 17.208 26.232 2.897 1.195 9.46 3.135 14.487 3.135 5.027 0 11.59-1.756 14.487-2.95 11.847-4.887 17.19-17.867 17.208-26.417V23.56s.612-9.02-.316-9.02"/>
        <path id="m" d="M75.972 16.84c3.03-2.777 3.76-8.404 2.04-12.056-2.113-4.483-6.4-5.045-10.51-3.073-3.872 1.859-7.32 2.478-11.56 1.577C51.872 2.424 48.012.9 43.806.65c-6.91-.411-13.622 2.152-18.332 7.319-.898.986-1.622 2.113-2.306 3.255-.548.914-1.165 1.895-1.398 2.948-.11.501.095 1.737-.154 2.147-.27.444-1.287.85-1.72 1.179a14.025 14.025 0 0 0-2.344 2.27c-1.494 1.806-2.317 3.693-3.01 5.927-2.3 7.427-2.494 16.26.48 23.552.396.973 1.624 3.001 2.346.919.143-.412-.187-1.791-.187-2.206.003-1.526.845-11.623 4.512-17.28 1.193-1.841 6.712-8.736 7.839-8.792.597.95 6.66 7.014 22.392 6.303 7.098-.32 12.557-3.51 13.868-4.893.577 3.102 7.284 7.747 8.306 9.658 2.952 5.52 3.607 16.992 4.734 16.97 1.127-.021 1.936-2.937 2.168-3.493 1.722-4.136 2.015-9.326 1.831-13.77-.24-5.721-2.6-11.903-6.859-15.824z"/>
        <filter id="o" width="103.8%" height="118.5%" x="-1.4%" y="-4.4%" filterUnits="objectBoundingBox">
            <feOffset dy="2" in="SourceAlpha" result="shadowOffsetOuter1"/>
            <feColorMatrix in="shadowOffsetOuter1" result="shadowMatrixOuter1" values="0 0 0 0 0 0 0 0 0 0 0 0 0 0 0 0 0 0 0.2 0"/>
            <feMerge>
                <feMergeNode in="shadowMatrixOuter1"/>
                <feMergeNode in="SourceGraphic"/>
            </feMerge>
        </filter>
        <path id="p" d="M4.226 0h107.548c2.376 0 4.193 1.79 4.059 4l-3.59 59c-.134 2.21-2.034 4-4.243 4H8c-2.21 0-4.109-1.79-4.243-4L.167 4C.033 1.79 1.85 0 4.226 0z"/>
        <filter id="q" width="103.5%" height="106%" x="-1.7%" y="-3%" filterUnits="objectBoundingBox">
            <feOffset dy="-4" in="SourceAlpha" result="shadowOffsetInner1"/>
            <feComposite in="shadowOffsetInner1" in2="SourceAlpha" k2="-1" k3="1" operator="arithmetic" result="shadowInnerInner1"/>
            <feColorMatrix in="shadowInnerInner1" result="shadowMatrixInner1" values="0 0 0 0 0 0 0 0 0 0 0 0 0 0 0 0 0 0 0.0454313859 0"/>
            <feOffset dy="1" in="SourceAlpha" result="shadowOffsetInner2"/>
            <feComposite in="shadowOffsetInner2" in2="SourceAlpha" k2="-1" k3="1" operator="arithmetic" result="shadowInnerInner2"/>
            <feColorMatrix in="shadowInnerInner2" result="shadowMatrixInner2" values="0 0 0 0 1 0 0 0 0 1 0 0 0 0 1 0 0 0 0.222316576 0"/>
            <feMerge>
                <feMergeNode in="shadowMatrixInner1"/>
                <feMergeNode in="shadowMatrixInner2"/>
            </feMerge>
        </filter>
    </defs>
    <g fill="none" fill-rule="evenodd">
        <g transform="translate(-6 -5)">
            <g transform="translate(6.727 22.429)">
                <mask id="b" fill="#fff">
                    <use xlink:href="#a"/>
                </mask>
                <use fill="#E6E6E6" xlink:href="#a"/>
                <g fill="#FF5C5C" mask="url(#b)">
                    <path d="M0 0h135v135H0z"/>
                </g>
            </g>
            <mask id="d" fill="#fff">
                <use xlink:href="#c"/>
            </mask>
            <g mask="url(#d)">
                <g transform="translate(17.94 20.186)">
                    <mask id="f" fill="#fff">
                        <use xlink:href="#e"/>
                    </mask>
                    <use fill="#D0C6AC" xlink:href="#e"/>
                    <g fill="#EDB98A" mask="url(#f)">
                        <path d="M-17.94 0h148v137h-148z"/>
                    </g>
                    <path fill="#000" fill-opacity=".1" d="M87.455 52.713V57.2c0 17.338-14.056 31.394-31.394 31.394-17.339 0-31.394-14.056-31.394-31.394v-4.486c0 17.339 14.055 31.394 31.394 31.394 17.338 0 31.394-14.055 31.394-31.394z" mask="url(#f)"/>
                </g>
                <g transform="translate(0 95.321)">
                    <mask id="h" fill="#fff">
                        <use xlink:href="#g"/>
                    </mask>
                    <use fill="#E6E6E6" xlink:href="#g"/>
                    <g fill="#3C4F5C" mask="url(#h)">
                        <path d="M0 0h148v62H0z"/>
                    </g>
                </g>
                <g fill="#000">
                    <rect width="13.556" height="3.409" x="23.722" y="10.227" fill-opacity=".7" rx="1.705" transform="translate(43.727 75.136)"/>
                    <path fill-opacity=".16" d="M67.16 72.74c0 2.394 2.974 4.334 6.643 4.334 3.669 0 6.643-1.94 6.643-4.334"/>
                    <g fill-opacity=".6" transform="translate(42.606 57.464)">
                        <ellipse cx="16.875" cy="12.5" rx="3.375" ry="3.409"/>
                        <ellipse cx="46.125" cy="12.5" rx="3.375" ry="3.409"/>
                    </g>
                    <g fill-opacity=".6">
                        <path d="M57.528 52.307c-3.265.135-8.536 2.404-8.39 5.578.005.104.164.15.24.07 1.545-1.598 12.539-3.183 16.416-2.312.355.08.623-.257.398-.5-1.932-2.092-5.738-2.96-8.664-2.836M91.246 52.307c3.265.135 8.537 2.404 8.39 5.578-.005.104-.163.15-.24.07-1.544-1.598-12.538-3.183-16.415-2.312-.355.08-.623-.257-.398-.5 1.931-2.092 5.738-2.96 8.663-2.836"/>
                    </g>
                </g>
                <mask id="j" fill="#fff">
                    <use xlink:href="#i"/>
                </mask>
                <g mask="url(#j)">
                    <g transform="translate(26.44 5)">
                        <g transform="translate(.47 35.371)">
                            <mask id="l" fill="#fff">
                                <use xlink:href="#k"/>
                            </mask>
                            <use fill="#331B0C" xlink:href="#k"/>
                            <g fill="#A55728" mask="url(#l)">
                                <path d="M0 0h94v85H0z"/>
                            </g>
                        </g>
                        <mask id="n" fill="#fff">
                            <use xlink:href="#m"/>
                        </mask>
                        <use fill="#28354B" xlink:href="#m"/>
                        <g mask="url(#n)">
                            <path fill="#A55728" d="M-26.44-5h148v157h-148z"/>
                        </g>
                        <g mask="url(#n)">
                            <g fill="#252C2F" fill-rule="nonzero" filter="url(#o)" transform="translate(11.138 49.55)">
                                <path d="M19.155 22.778H17.6c-7.846 0-12.53-4.258-12.53-11.39C5.07 5.627 6.093 0 18.326 0h1.656C32.216 0 33.24 5.626 33.24 11.389c0 6.705-5.79 11.389-14.084 11.389zm-.91-19.445c-10.921 0-10.921 3.8-10.921 8.612 0 3.928 1.756 8.61 10.124 8.61h1.707c6.966 0 11.83-3.54 11.83-8.61 0-4.811 0-8.612-10.92-8.612h-1.82zM54.085 22.778H52.53C44.684 22.778 40 18.52 40 11.388 40 5.627 41.024 0 53.256 0h1.657c12.232 0 13.256 5.626 13.256 11.389 0 6.705-5.79 11.389-14.084 11.389zm-.91-19.445c-10.921 0-10.921 3.8-10.921 8.612 0 3.928 1.757 8.61 10.124 8.61h1.707c6.966 0 11.83-3.54 11.83-8.61 0-4.811 0-8.612-10.92-8.612h-1.82z"/>
                                <path d="M1.665 3.206C2.054 2.831 6.315 0 18.31 0c10.057 0 12.186 1.03 15.408 2.584l.236.115c.224.078 1.37.462 2.71.504a9.694 9.694 0 0 0 2.57-.482C42.914.957 46.515 0 54.93 0c11.994 0 16.255 2.831 16.645 3.206.92 0 1.664.717 1.664 1.604v1.603c0 .886-.744 1.603-1.664 1.603 0 0-3.888 0-3.888 1.603S66.58 7.3 66.58 6.413V4.85c-2.03-.766-5.664-2.192-11.651-2.192-6.672 0-9.994 1.167-12.844 2.325l.032.076-.002 1.103-1.249 2.972-1.543-.601a7.42 7.42 0 0 0-.847-.25c-1.15-.28-2.331-.365-3.376-.154-.383.078-.74.194-1.066.352l-1.488.717-1.49-2.868.066-1.274.046-.109c-2.458-1.13-4.724-2.289-12.86-2.289-5.987 0-9.62 1.426-11.65 2.192v1.562c0 .886-1.665 4.81-1.665 3.206 0-1.603-3.33-1.603-3.33-1.603C.747 8.016 0 7.3 0 6.413V4.81c0-.887.746-1.604 1.665-1.604z"/>
                            </g>
                        </g>
                    </g>
                </g>
            </g>
        </g>
        <g transform="translate(10 112)">
            <rect width="110" height="4" x="3" y="65" fill="#000" fill-opacity=".05" rx="2"/>
            <use fill="#D4D5D6" xlink:href="#p"/>
            <use fill="#000" filter="url(#q)" xlink:href="#p"/>
            <circle cx="58" cy="32" r="8" fill="#FBFBFB"/>
        </g>
    </g>
</svg>
