<svg width="20" height="20" viewBox="0 0 20 20" fill="none" xmlns="http://www.w3.org/2000/svg">
<path fill-rule="evenodd" clip-rule="evenodd" d="M15 10C17.7614 10 20 7.76142 20 5C20 2.23858 17.7614 0 15 0C12.2386 0 10 2.23858 10 5C10 7.76142 12.2386 10 15 10ZM15 8.33333C16.841 8.33333 18.3334 6.84095 18.3334 5C18.3334 4.40362 18.1767 3.84382 17.9024 3.35948L13.3595 7.90236C13.8438 8.17671 14.4036 8.33333 15 8.33333ZM16.7453 2.15954L12.1596 6.74528C11.847 6.23766 11.6667 5.63988 11.6667 5C11.6667 3.15905 13.1591 1.66667 15 1.66667C15.6399 1.66667 16.2377 1.84697 16.7453 2.15954ZM2.66669 1.66667C2.1144 1.66667 1.66669 2.11438 1.66669 2.66667V7.33333C1.66669 7.88562 2.1144 8.33333 2.66669 8.33333H7.33335C7.88564 8.33333 8.33335 7.88562 8.33335 7.33333V2.66667C8.33335 2.11438 7.88564 1.66667 7.33335 1.66667H2.66669ZM11.6667 12.6667C11.6667 12.1144 12.1144 11.6667 12.6667 11.6667H17.3334C17.8856 11.6667 18.3334 12.1144 18.3334 12.6667V17.3333C18.3334 17.8856 17.8856 18.3333 17.3334 18.3333H12.6667C12.1144 18.3333 11.6667 17.8856 11.6667 17.3333V12.6667ZM2.66669 11.6667C2.1144 11.6667 1.66669 12.1144 1.66669 12.6667V17.3333C1.66669 17.8856 2.1144 18.3333 2.66669 18.3333H7.33335C7.88564 18.3333 8.33335 17.8856 8.33335 17.3333V12.6667C8.33335 12.1144 7.88564 11.6667 7.33335 11.6667H2.66669Z" fill="#212121"/>
</svg>
