<svg width="12" height="12" viewBox="0 0 12 12" fill="none" xmlns="http://www.w3.org/2000/svg">
<g id="Icon/block">
<path id="Combined Shape" fill-rule="evenodd" clip-rule="evenodd" d="M11 6C11 8.76142 8.76142 11 6 11C3.23858 11 1 8.76142 1 6C1 3.23858 3.23858 1 6 1C8.76142 1 11 3.23858 11 6ZM10 6C10 8.20914 8.20914 10 6 10C5.13979 10 4.343 9.72847 3.69067 9.26644L9.26644 3.69067C9.72847 4.343 10 5.13979 10 6ZM8.59068 2.95221C7.89273 2.35836 6.98821 2 6 2C3.79086 2 2 3.79086 2 6C2 6.98821 2.35836 7.89273 2.95221 8.59068L8.59068 2.95221Z" fill="#9E9E9E"/>
</g>
</svg>
