<svg xmlns="http://www.w3.org/2000/svg" xmlns:xlink="http://www.w3.org/1999/xlink" width="24" height="24" viewBox="0 0 24 24">
    <defs>
        <path id="prefix__a" d="M23.95 5.48c.014.137 1.422 13.472-11.776 18.45L12 24l-.174-.07C-1.372 18.952.036 5.617.05 5.48l.042-.342.328-.084C8.101 3.044 11.273.442 11.606.151c.23-.201.558-.201.788 0 .338.29 3.505 2.892 11.186 4.903l.328.084.042.343z"/>
    </defs>
    <g fill="none" fill-rule="evenodd">
        <path stroke="#007AFF" d="M11.918.542C11.503.9 8.345 3.447.523 5.86c-.074 1.298-.124 6.227 2.875 10.79 1.724 2.624 4.46 5.122 8.773 6.746 4.328-1.673 7.02-4.275 8.667-7.002 1.136-1.88 1.777-3.817 2.121-5.544.524-2.626.398-4.789.257-5.374C16.12 3.584 12.907 1.207 11.918.542z"/>
        <path fill="#007AFF" fill-rule="nonzero" d="M15.53 8.466c.955.94 1.47 2.198 1.47 3.532s-.515 2.592-1.47 3.532C14.56 16.515 13.288 17 12 17c-1.273 0-2.56-.485-3.53-1.47C7.515 14.59 7 13.332 7 11.998s.515-2.592 1.47-3.532c1.94-1.955 5.12-1.955 7.06 0zm-.84 6.223c.713-.714 1.107-1.67 1.107-2.687 0-.805-.258-1.58-.713-2.217l-5.3 5.299c.639.455 1.413.713 2.218.713 1.017 0 1.973-.394 2.687-1.108zm-5.774-.474l5.3-5.299c-.639-.455-1.413-.713-2.218-.713-1.017 0-1.973.394-2.687 1.108-.714.714-1.108 1.67-1.108 2.687 0 .805.258 1.58.713 2.217z"/>
    </g>
</svg>
