<svg xmlns="http://www.w3.org/2000/svg" width="48" height="48" viewBox="0 0 48 48">
    <path fill="#7f7f7f" fill-rule="evenodd" d="M26.05.77c.09.076.218.18.388.31.256.197.558.415.909.652.956.65 2.123 1.346 3.512 2.07 3.88 2.023 8.798 3.906 14.844 5.484l1.94.497.25 2.013.021.224c.012.137.023.294.034.47.119 1.994.048 4.463-.352 7.236-.583 4.036-1.776 8.013-3.727 11.748-3.736 7.154-9.884 12.737-18.812 16.1L24 48l-1.057-.427C14.015 44.211 7.867 38.628 4.13 31.474 2.18 27.739.987 23.762.404 19.726c-.4-2.773-.47-5.242-.352-7.236a19.156 19.156 0 0 1 .053-.675l.251-2.032 1.34-.343.592-.152c6.056-1.58 10.976-3.464 14.856-5.486a35.451 35.451 0 0 0 3.513-2.07c.35-.237.651-.455.905-.65.173-.132.303-.238.379-.304A3.115 3.115 0 0 1 26.05.769zm5.988 15.184c-4.416-4.452-11.66-4.452-16.076 0-2.174 2.14-3.347 5.005-3.347 8.042s1.173 5.901 3.347 8.041c2.208 2.243 5.14 3.348 8.038 3.348 2.932 0 5.83-1.105 8.038-3.348 2.174-2.14 3.347-5.004 3.347-8.041 0-3.037-1.173-5.902-3.347-8.042zm-1.016 3.002a8.698 8.698 0 0 1 1.625 5.048 8.602 8.602 0 0 1-2.524 6.119 8.602 8.602 0 0 1-6.12 2.524 8.698 8.698 0 0 1-5.047-1.625zm-7.026-3.603c1.833 0 3.596.588 5.048 1.625L16.978 29.044a8.698 8.698 0 0 1-1.625-5.048c0-2.316.9-4.494 2.524-6.119l.225-.217a8.603 8.603 0 0 1 5.894-2.307z"/>
</svg>
