<svg width="32" height="32" viewBox="0 0 32 32" fill="none" xmlns="http://www.w3.org/2000/svg">
<g filter="url(#filter0_d)">
<path d="M15.9454 30.919L15.2873 30.6529C9.72892 28.5574 5.90077 25.0774 3.5747 20.6182C2.3602 18.29 1.61726 15.8115 1.25478 13.2958C1.00571 11.5672 0.961286 10.0284 1.03554 8.7857C1.04209 8.67607 1.04918 8.57823 1.05644 8.49238C1.0612 8.43617 1.06463 8.40044 1.06831 8.36502L1.22471 7.09834L2.05882 6.88451L2.42752 6.79001C6.19779 5.80498 9.261 4.63057 11.677 3.37038C12.5426 2.91887 13.2694 2.48439 13.8639 2.08032C14.0818 1.93219 14.2696 1.79637 14.4277 1.67495C14.5352 1.59233 14.6161 1.52629 14.6633 1.48518C15.4001 0.840642 16.4831 0.83893 17.2217 1.48004C17.2777 1.52803 17.3575 1.59274 17.4636 1.67406C17.623 1.79622 17.8111 1.93208 18.029 2.08016C18.6247 2.48483 19.351 2.91912 20.216 3.37046C22.6318 4.63095 25.6935 5.8051 29.4577 6.78855L30.6662 7.09834L30.8213 8.35273C30.8263 8.40044 30.8297 8.43617 30.8344 8.49238C30.8417 8.57823 30.8488 8.67607 30.8553 8.7857C30.9296 10.0284 30.8852 11.5672 30.6361 13.2958C30.2736 15.8115 29.5307 18.29 28.3162 20.6182C25.9901 25.0774 22.162 28.5574 16.6036 30.6529L15.9454 30.919Z" fill="white"/>
</g>
<mask id="mask0" mask-type="alpha" maskUnits="userSpaceOnUse" x="1" y="1" width="30" height="30">
<path d="M15.9454 30.919L15.2873 30.6529C9.72892 28.5574 5.90077 25.0774 3.5747 20.6182C2.3602 18.29 1.61726 15.8115 1.25478 13.2958C1.00571 11.5672 0.961286 10.0284 1.03554 8.7857C1.04209 8.67607 1.04918 8.57823 1.05644 8.49238C1.0612 8.43617 1.06463 8.40044 1.06831 8.36502L1.22471 7.09834L2.05882 6.88451L2.42752 6.79001C6.19779 5.80498 9.261 4.63057 11.677 3.37038C12.5426 2.91887 13.2694 2.48439 13.8639 2.08032C14.0818 1.93219 14.2696 1.79637 14.4277 1.67495C14.5352 1.59233 14.6161 1.52629 14.6633 1.48518C15.4001 0.840642 16.4831 0.83893 17.2217 1.48004C17.2777 1.52803 17.3575 1.59274 17.4636 1.67406C17.623 1.79622 17.8111 1.93208 18.029 2.08016C18.6247 2.48483 19.351 2.91912 20.216 3.37046C22.6318 4.63095 25.6935 5.8051 29.4577 6.78855L30.6662 7.09834L30.8213 8.35273C30.8263 8.40044 30.8297 8.43617 30.8344 8.49238C30.8417 8.57823 30.8488 8.67607 30.8553 8.7857C30.9296 10.0284 30.8852 11.5672 30.6361 13.2958C30.2736 15.8115 29.5307 18.29 28.3162 20.6182C25.9901 25.0774 22.162 28.5574 16.6036 30.6529L15.9454 30.919Z" fill="white"/>
</mask>
<g mask="url(#mask0)">
<path fill-rule="evenodd" clip-rule="evenodd" d="M15.9728 29.5432L29.5958 8.11621L43.5826 18.5202L26.2264 36.9644L15.9728 29.5432Z" fill="url(#paint0_linear)"/>
</g>
<path d="M29.5658 8.49478C29.5818 8.64939 31.1861 23.8168 16.1433 29.4786L15.9454 29.5585L15.7476 29.4786C0.704708 23.8168 2.30899 8.64939 2.32504 8.49478L2.37317 8.1056L2.7475 8.00964C11.5015 5.72254 15.1165 2.7637 15.4962 2.43316C15.7583 2.20392 16.1326 2.20392 16.3946 2.43316C16.7796 2.7637 20.3893 5.72254 29.1433 8.00964L29.5177 8.1056L29.5658 8.49478Z" fill="#536DFE"/>
<mask id="mask1" mask-type="alpha" maskUnits="userSpaceOnUse" x="2" y="2" width="28" height="28">
<path d="M29.5658 8.49478C29.5818 8.64939 31.1861 23.8168 16.1433 29.4786L15.9454 29.5585L15.7476 29.4786C0.704708 23.8168 2.30899 8.64939 2.32504 8.49478L2.37317 8.1056L2.7475 8.00964C11.5015 5.72254 15.1165 2.7637 15.4962 2.43316C15.7583 2.20392 16.1326 2.20392 16.3946 2.43316C16.7796 2.7637 20.3893 5.72254 29.1433 8.00964L29.5177 8.1056L29.5658 8.49478Z" fill="white"/>
</mask>
<g mask="url(#mask1)">
<path fill-rule="evenodd" clip-rule="evenodd" d="M20.226 20.3912C22.7578 17.8594 22.7621 13.7587 20.2355 11.2322C20.1874 11.1841 20.1387 11.1368 20.0894 11.0905L20.1887 10.9912L30.4618 21.2643L21.2531 30.473L11.8464 21.0664C14.3768 22.9025 17.9406 22.6766 20.226 20.3912Z" fill="url(#paint1_linear)"/>
<path fill-rule="evenodd" clip-rule="evenodd" d="M29.7589 1.92093V29.5586H15.9113C15.9113 29.5586 16.0067 17.0582 15.9113 1.92093C15.9055 0.990314 29.7589 1.92093 29.7589 1.92093Z" fill="url(#paint2_linear)"/>
</g>
<g filter="url(#filter1_d)">
<path fill-rule="evenodd" clip-rule="evenodd" d="M20.5494 11.3837C21.7903 12.6056 22.46 14.2413 22.46 15.9756C22.46 17.7098 21.7903 19.3455 20.5494 20.5674C19.2888 21.8484 17.6342 22.479 15.96 22.479C14.3054 22.479 12.6312 21.8484 11.3706 20.5674C10.1297 19.3455 9.45999 17.7098 9.45999 15.9756C9.45999 14.2413 10.1297 12.6056 11.3706 11.3837C13.8918 8.84149 18.0282 8.84149 20.5494 11.3837ZM21 15.9999C21 18.7614 18.7615 20.9999 16 20.9999C13.2386 20.9999 11 18.7614 11 15.9999C11 13.2385 13.2386 10.9999 16 10.9999C18.7615 10.9999 21 13.2385 21 15.9999ZM14.225 16.9458L13.7666 19.6082L16.1667 18.3513L18.5668 19.6082L18.1083 16.9458L20.0516 15.0589L17.3662 14.6702L16.1667 12.2491L14.9671 14.6702L12.2817 15.0589L14.225 16.9458Z" fill="url(#paint3_linear)"/>
</g>
<defs>
<filter id="filter0_d" x="0.00296021" y="0.000488281" width="31.885" height="31.9185" filterUnits="userSpaceOnUse" color-interpolation-filters="sRGB">
<feFlood flood-opacity="0" result="BackgroundImageFix"/>
<feColorMatrix in="SourceAlpha" type="matrix" values="0 0 0 0 0 0 0 0 0 0 0 0 0 0 0 0 0 0 127 0"/>
<feOffset/>
<feGaussianBlur stdDeviation="0.5"/>
<feColorMatrix type="matrix" values="0 0 0 0 0 0 0 0 0 0 0 0 0 0 0 0 0 0 0.174423 0"/>
<feBlend mode="normal" in2="BackgroundImageFix" result="effect1_dropShadow"/>
<feBlend mode="normal" in="SourceGraphic" in2="effect1_dropShadow" result="shape"/>
</filter>
<filter id="filter1_d" x="8.45999" y="8.47705" width="15" height="15.002" filterUnits="userSpaceOnUse" color-interpolation-filters="sRGB">
<feFlood flood-opacity="0" result="BackgroundImageFix"/>
<feColorMatrix in="SourceAlpha" type="matrix" values="0 0 0 0 0 0 0 0 0 0 0 0 0 0 0 0 0 0 127 0"/>
<feOffset/>
<feGaussianBlur stdDeviation="0.5"/>
<feColorMatrix type="matrix" values="0 0 0 0 0 0 0 0 0 0 0 0 0 0 0 0 0 0 0.174423 0"/>
<feBlend mode="normal" in2="BackgroundImageFix" result="effect1_dropShadow"/>
<feBlend mode="normal" in="SourceGraphic" in2="effect1_dropShadow" result="shape"/>
</filter>
<linearGradient id="paint0_linear" x1="40.8057" y1="11.2631" x2="16.2183" y2="11.2631" gradientUnits="userSpaceOnUse">
<stop stop-opacity="0.01"/>
<stop offset="1" stop-opacity="0.0518286"/>
</linearGradient>
<linearGradient id="paint1_linear" x1="23.5751" y1="21.467" x2="21.5044" y2="18.8227" gradientUnits="userSpaceOnUse">
<stop stop-opacity="0.01"/>
<stop offset="1" stop-opacity="0.0518286"/>
</linearGradient>
<linearGradient id="paint2_linear" x1="28.3662" y1="4.52122" x2="16.0344" y2="4.52122" gradientUnits="userSpaceOnUse">
<stop stop-opacity="0.01"/>
<stop offset="1" stop-opacity="0.0518286"/>
</linearGradient>
<linearGradient id="paint3_linear" x1="25.0368" y1="15.9497" x2="16.0325" y2="25.0457" gradientUnits="userSpaceOnUse">
<stop stop-color="white"/>
<stop offset="1" stop-color="#E2E0E0"/>
</linearGradient>
</defs>
</svg>
