<svg xmlns="http://www.w3.org/2000/svg" width="24" height="24" viewBox="0 0 24 24">
    <path fill="#F26D6E" fill-rule="nonzero" d="M13.025.385c.045.038.109.09.194.155.128.098.28.207.454.326.479.325 1.062.673 1.757 1.035 1.94 1.011 4.398 1.953 7.421 2.742l.97.249.125 1.006a5.3 5.3 0 0 1 .028.347c.06.997.024 2.231-.176 3.618-.291 2.018-.888 4.006-1.863 5.874-1.868 3.577-4.943 6.369-9.406 8.05L12 24l-.529-.213c-4.463-1.681-7.538-4.473-9.406-8.05C1.09 13.869.493 11.881.202 9.863a18.112 18.112 0 0 1-.176-3.618 9.578 9.578 0 0 1 .026-.337l.126-1.016.67-.172.296-.076c3.028-.79 5.488-1.732 7.428-2.743.695-.362 1.279-.71 1.756-1.035a9.67 9.67 0 0 0 .453-.325c.086-.066.151-.12.19-.152a1.558 1.558 0 0 1 2.054-.004zm2.994 7.592a5.672 5.672 0 0 0-8.038 0 5.597 5.597 0 0 0-1.673 4.02c0 1.52.586 2.952 1.673 4.021A5.626 5.626 0 0 0 12 17.692a5.598 5.598 0 0 0 4.02-1.674 5.597 5.597 0 0 0 1.672-4.02c0-1.519-.586-2.95-1.673-4.02zm-.508 1.501c.518.726.812 1.608.812 2.524 0 1.158-.45 2.247-1.262 3.06a4.301 4.301 0 0 1-3.06 1.261 4.349 4.349 0 0 1-2.523-.812zm-3.513-1.801c.916 0 1.798.294 2.524.812l-6.033 6.033a4.349 4.349 0 0 1-.812-2.524c0-1.158.45-2.247 1.262-3.06l.178-.168a4.302 4.302 0 0 1 2.881-1.093z"/>
</svg>
