<svg width="32" height="32" viewBox="0 0 32 32" fill="none" xmlns="http://www.w3.org/2000/svg">
<circle cx="28" cy="26" r="4" fill="#536DFE"/>
<mask id="mask0" mask-type="alpha" maskUnits="userSpaceOnUse" x="0" y="0" width="32" height="32">
<path fill-rule="evenodd" clip-rule="evenodd" d="M15.2952 31.7155L16 32L16.7048 31.7155C18.9224 30.8803 20.8828 29.8396 22.5987 28.6158C22.2151 27.8252 22 26.9377 22 26C22 22.6863 24.6863 20 28 20C28.5632 20 29.1083 20.0776 29.6252 20.2227C30.7034 17.9561 31.3815 15.5695 31.7304 13.1507C31.9971 11.3019 32.0446 9.65606 31.9651 8.32685C31.9581 8.2096 31.9505 8.10495 31.9427 8.01313C31.9376 7.95301 31.934 7.91479 31.9287 7.86376L31.7626 6.5221L30.4686 6.19076C26.438 5.13888 23.1596 3.88304 20.5728 2.53486C19.6466 2.05212 18.8689 1.58761 18.2311 1.15479C17.9977 0.996404 17.7962 0.851095 17.6256 0.72043C17.512 0.633461 17.4266 0.564249 17.3665 0.512915C16.5757 -0.172798 15.416 -0.170967 14.6272 0.518409C14.5766 0.562381 14.49 0.633015 14.3748 0.721383C14.2056 0.851259 14.0045 0.996519 13.7711 1.15496C13.1345 1.58714 12.3564 2.05185 11.4295 2.53478C8.84248 3.88264 5.56248 5.13876 1.52538 6.19232L1.13059 6.2934L0.237441 6.5221L0.069971 7.87691C0.0660355 7.91479 0.0623596 7.95301 0.0572659 8.01313C0.0494879 8.10495 0.0418969 8.2096 0.0348837 8.32685C-0.0446232 9.65606 0.00294248 11.3019 0.26964 13.1507C0.657771 15.8414 1.4533 18.4924 2.75375 20.9826C5.24444 25.752 9.34352 29.4741 15.2952 31.7155Z" fill="white"/>
</mask>
<g mask="url(#mask0)">
<g filter="url(#filter0_d)">
<path d="M15.9455 30.919L15.2873 30.6529C9.72895 28.5574 5.9008 25.0774 3.57473 20.6182C2.36023 18.29 1.61729 15.8115 1.25481 13.2958C1.00574 11.5672 0.961317 10.0284 1.03557 8.7857C1.04212 8.67607 1.04921 8.57823 1.05647 8.49238C1.06123 8.43617 1.06466 8.40044 1.06834 8.36502L1.22474 7.09834L2.05885 6.88451L2.42755 6.79001C6.19782 5.80498 9.26103 4.63057 11.677 3.37038C12.5427 2.91887 13.2694 2.48439 13.8639 2.08032C14.0818 1.93219 14.2697 1.79637 14.4277 1.67495C14.5352 1.59233 14.6161 1.52629 14.6634 1.48518C15.4001 0.840642 16.4831 0.83893 17.2217 1.48004C17.2777 1.52803 17.3575 1.59274 17.4636 1.67406C17.623 1.79622 17.8111 1.93208 18.0291 2.08016C18.6247 2.48483 19.3511 2.91912 20.2161 3.37046C22.6319 4.63095 25.6936 5.8051 29.4578 6.78855L30.6662 7.09834L30.8213 8.35273C30.8263 8.40044 30.8297 8.43617 30.8345 8.49238C30.8417 8.57823 30.8488 8.67607 30.8554 8.7857C30.9296 10.0284 30.8852 11.5672 30.6361 13.2958C30.2737 15.8115 29.5307 18.29 28.3162 20.6182C25.9901 25.0774 22.162 28.5574 16.6036 30.6529L15.9455 30.919Z" fill="white"/>
</g>
<mask id="mask1" mask-type="alpha" maskUnits="userSpaceOnUse" x="1" y="1" width="30" height="30">
<path d="M15.9455 30.919L15.2873 30.6529C9.72895 28.5574 5.9008 25.0774 3.57473 20.6182C2.36023 18.29 1.61729 15.8115 1.25481 13.2958C1.00574 11.5672 0.961317 10.0284 1.03557 8.7857C1.04212 8.67607 1.04921 8.57823 1.05647 8.49238C1.06123 8.43617 1.06466 8.40044 1.06834 8.36502L1.22474 7.09834L2.05885 6.88451L2.42755 6.79001C6.19782 5.80498 9.26103 4.63057 11.677 3.37038C12.5427 2.91887 13.2694 2.48439 13.8639 2.08032C14.0818 1.93219 14.2697 1.79637 14.4277 1.67495C14.5352 1.59233 14.6161 1.52629 14.6634 1.48518C15.4001 0.840642 16.4831 0.83893 17.2217 1.48004C17.2777 1.52803 17.3575 1.59274 17.4636 1.67406C17.623 1.79622 17.8111 1.93208 18.0291 2.08016C18.6247 2.48483 19.3511 2.91912 20.2161 3.37046C22.6319 4.63095 25.6936 5.8051 29.4578 6.78855L30.6662 7.09834L30.8213 8.35273C30.8263 8.40044 30.8297 8.43617 30.8345 8.49238C30.8417 8.57823 30.8488 8.67607 30.8554 8.7857C30.9296 10.0284 30.8852 11.5672 30.6361 13.2958C30.2737 15.8115 29.5307 18.29 28.3162 20.6182C25.9901 25.0774 22.162 28.5574 16.6036 30.6529L15.9455 30.919Z" fill="white"/>
</mask>
<g mask="url(#mask1)">
<path fill-rule="evenodd" clip-rule="evenodd" d="M15.9728 29.5432L29.5959 8.11621L43.5827 18.5202L26.2265 36.9644L15.9728 29.5432Z" fill="url(#paint0_linear)"/>
</g>
<path d="M29.5658 8.49478C29.5819 8.64939 31.1862 23.8168 16.1433 29.4786L15.9455 29.5585L15.7476 29.4786C0.704739 23.8168 2.30902 8.64939 2.32507 8.49478L2.3732 8.1056L2.74753 8.00964C11.5016 5.72254 15.1166 2.7637 15.4963 2.43316C15.7583 2.20392 16.1326 2.20392 16.3947 2.43316C16.7797 2.7637 20.3893 5.72254 29.1434 8.00964L29.5177 8.1056L29.5658 8.49478Z" fill="#FF5252"/>
<mask id="mask2" mask-type="alpha" maskUnits="userSpaceOnUse" x="2" y="2" width="28" height="28">
<path d="M29.5658 8.49478C29.5819 8.64939 31.1862 23.8168 16.1433 29.4786L15.9455 29.5585L15.7476 29.4786C0.704739 23.8168 2.30902 8.64939 2.32507 8.49478L2.3732 8.1056L2.74753 8.00964C11.5016 5.72254 15.1166 2.7637 15.4963 2.43316C15.7583 2.20392 16.1326 2.20392 16.3947 2.43316C16.7797 2.7637 20.3893 5.72254 29.1434 8.00964L29.5177 8.1056L29.5658 8.49478Z" fill="white"/>
</mask>
<g mask="url(#mask2)">
<path fill-rule="evenodd" clip-rule="evenodd" d="M20.226 20.3912C22.7579 17.8594 22.7621 13.7587 20.2356 11.2322C20.1874 11.1841 20.1387 11.1368 20.0895 11.0905L20.1888 10.9912L30.4618 21.2643L21.2531 30.473L11.8465 21.0664C14.3768 22.9025 17.9406 22.6766 20.226 20.3912Z" fill="url(#paint1_linear)"/>
<path fill-rule="evenodd" clip-rule="evenodd" d="M29.759 1.92088V29.5585H15.9114C15.9114 29.5585 16.0067 17.0582 15.9114 1.92088C15.9055 0.990257 29.759 1.92088 29.759 1.92088Z" fill="url(#paint2_linear)"/>
</g>
<g filter="url(#filter1_d)">
<path fill-rule="evenodd" clip-rule="evenodd" d="M20.5451 11.3837C21.7888 12.6056 22.46 14.2413 22.46 15.9756C22.46 17.7098 21.7888 19.3455 20.5451 20.5674C19.2817 21.8484 17.6234 22.479 15.9454 22.479C14.2872 22.479 12.6092 21.8484 11.3458 20.5674C10.1021 19.3455 9.43092 17.7098 9.43092 15.9756C9.43092 14.2413 10.1021 12.6056 11.3458 11.3837C13.8726 8.84149 18.0182 8.84149 20.5451 11.3837ZM19.4396 19.4637C20.3674 18.5375 20.8806 17.2959 20.8806 15.9755C20.8806 14.931 20.545 13.926 19.9528 13.0982L13.0632 19.9761C13.8923 20.5673 14.8991 20.9024 15.9454 20.9024C17.268 20.9024 18.5117 20.39 19.4396 19.4637ZM18.8276 11.9749L11.938 18.8528C11.3458 18.0251 11.0102 17.02 11.0102 15.9755C11.0102 14.6552 11.5234 13.4136 12.4513 12.4873C13.3791 11.5611 14.6228 11.0487 15.9454 11.0487C16.9917 11.0487 17.9985 11.3837 18.8276 11.9749Z" fill="url(#paint3_linear)"/>
</g>
</g>
<defs>
<filter id="filter0_d" x="0.00299072" y="0.000488281" width="31.885" height="31.9185" filterUnits="userSpaceOnUse" color-interpolation-filters="sRGB">
<feFlood flood-opacity="0" result="BackgroundImageFix"/>
<feColorMatrix in="SourceAlpha" type="matrix" values="0 0 0 0 0 0 0 0 0 0 0 0 0 0 0 0 0 0 127 0"/>
<feOffset/>
<feGaussianBlur stdDeviation="0.5"/>
<feColorMatrix type="matrix" values="0 0 0 0 0 0 0 0 0 0 0 0 0 0 0 0 0 0 0.174423 0"/>
<feBlend mode="normal" in2="BackgroundImageFix" result="effect1_dropShadow"/>
<feBlend mode="normal" in="SourceGraphic" in2="effect1_dropShadow" result="shape"/>
</filter>
<filter id="filter1_d" x="8.43091" y="8.47705" width="15.029" height="15.002" filterUnits="userSpaceOnUse" color-interpolation-filters="sRGB">
<feFlood flood-opacity="0" result="BackgroundImageFix"/>
<feColorMatrix in="SourceAlpha" type="matrix" values="0 0 0 0 0 0 0 0 0 0 0 0 0 0 0 0 0 0 127 0"/>
<feOffset/>
<feGaussianBlur stdDeviation="0.5"/>
<feColorMatrix type="matrix" values="0 0 0 0 0 0 0 0 0 0 0 0 0 0 0 0 0 0 0.174423 0"/>
<feBlend mode="normal" in2="BackgroundImageFix" result="effect1_dropShadow"/>
<feBlend mode="normal" in="SourceGraphic" in2="effect1_dropShadow" result="shape"/>
</filter>
<linearGradient id="paint0_linear" x1="40.8058" y1="11.2631" x2="16.2183" y2="11.2631" gradientUnits="userSpaceOnUse">
<stop stop-opacity="0.01"/>
<stop offset="1" stop-opacity="0.0518286"/>
</linearGradient>
<linearGradient id="paint1_linear" x1="23.5751" y1="21.467" x2="21.5044" y2="18.8227" gradientUnits="userSpaceOnUse">
<stop stop-opacity="0.01"/>
<stop offset="1" stop-opacity="0.0518286"/>
</linearGradient>
<linearGradient id="paint2_linear" x1="28.3662" y1="4.52116" x2="16.0344" y2="4.52116" gradientUnits="userSpaceOnUse">
<stop stop-opacity="0.01"/>
<stop offset="1" stop-opacity="0.0518286"/>
</linearGradient>
<linearGradient id="paint3_linear" x1="25.0425" y1="15.9497" x2="16.0385" y2="25.0658" gradientUnits="userSpaceOnUse">
<stop stop-color="white"/>
<stop offset="1" stop-color="#E2E0E0"/>
</linearGradient>
</defs>
</svg>
