<svg xmlns="http://www.w3.org/2000/svg" width="32" height="32" viewBox="0 0 32 32">
    <g fill="none" fill-rule="evenodd">
        <rect width="32" height="32" rx="8"/>
        <g fill="#FFF" transform="translate(5 6)">
            <ellipse cx="16.377" cy="8.136" rx="1" ry="1"/>
            <path stroke="#FFF" stroke-width=".2" d="M20.046 7.032c-.726-1.818-2.2-3.127-4.246-3.877l.546-1.882a.696.696 0 0 0-.2-.708.643.643 0 0 0-.706-.106l-4.25 2.005c-5.021.127-8.52 2.959-8.66 7.009-.669-.196-.96-.432-.999-.582-.04-.15.088-.486.572-.986a.698.698 0 0 0-.016-.947.645.645 0 0 0-.917-.017C.374 7.764.066 8.54.26 9.255c.193.713.906 1.277 2.098 1.581a.652.652 0 0 0 .163 0c.031.003.062.003.093 0C2.926 12.691 4 13.95 5.157 14.927v2.387c-.006 1.279.963 2.336 2.2 2.4h1.32c.978-.03 1.827-.707 2.103-1.678h.757c.25 0 .506.041.757 0 .278.966 1.128 1.636 2.103 1.66h1.32c1.237-.064 2.206-1.121 2.2-2.4v-2.369a6.54 6.54 0 0 0 1.896-2.05c1.162-.074 2.066-1.07 2.064-2.272V9.24c-.015-1.096-.785-2.025-1.83-2.21zm.51 3.604c0 .502-.393.91-.88.91h-.725c-.405 1.3-1.241 1.863-2.354 2.727v3.054c.008.528-.373.976-.88 1.037h-1.32a1.017 1.017 0 0 1-.88-1.037v-.909a8.526 8.526 0 0 1-3.96 0v.91c.008.527-.373.975-.88 1.036h-1.32a1.017 1.017 0 0 1-.88-1.037v-3.054c-1.615-1.25-2.64-2.5-2.64-4.546 0-3.436 2.873-5.513 6.6-5.854a.64.64 0 0 0 .713.109l.347-.164h.084-.035l3.12-1.473-.88 3.119a.685.685 0 0 0 .45.815.655.655 0 0 0 .812-.424l.396-1.364c1.852.7 3.216 1.977 3.656 3.904h.594c.486 0 .88.407.88.91l-.017 1.331z"/>
        </g>
    </g>
</svg>
