<svg xmlns="http://www.w3.org/2000/svg" width="32" height="32" viewBox="0 0 32 32">
    <g fill="none" fill-rule="evenodd">
        <rect width="32" height="32" rx="8"/>
        <path fill="#FFF" fill-rule="nonzero" stroke="#FFF" stroke-width=".6" d="M10.9 7.393a.38.38 0 0 1 .077-.043 9.963 9.963 0 0 1 7.545-1.022c5.414 1.472 8.542 6.877 7.147 12.2-1.439 5.49-7.154 8.688-12.589 7.036-8.288-2.52-9.666-13.753-2.18-18.171zm7.308-.193a9.063 9.063 0 0 0-6.4.745l2.615 4.466a9.028 9.028 0 0 0 3.785-5.21zm5.377 3.823a9.042 9.042 0 0 0-4.493-3.552 9.964 9.964 0 0 1-4.2 5.737l1.264 2.16 7.429-4.345zm1.364 6.451a9.02 9.02 0 0 0-.899-5.652l-7.428 4.343 1.265 2.158a9.969 9.969 0 0 1 7.062-.849zm-3.981 6.114a9.035 9.035 0 0 0 3.784-5.21 9.071 9.071 0 0 0-6.4.744l2.616 4.466zm-7.197 1.21a9.05 9.05 0 0 0 6.4-.745l-2.615-4.466a9.046 9.046 0 0 0-3.785 5.211zm-5.374-3.823a9.028 9.028 0 0 0 4.49 3.553 9.977 9.977 0 0 1 4.203-5.737l-1.265-2.16-7.428 4.344zm-1.365-6.451a9.027 9.027 0 0 0 .897 5.654l7.43-4.344-1.265-2.159a9.97 9.97 0 0 1-7.062.849zm3.98-6.114a9.054 9.054 0 0 0-3.785 5.211 9.07 9.07 0 0 0 6.4-.745L11.01 8.41z"/>
    </g>
</svg>
