<svg width="24" height="24" viewBox="0 0 24 24" fill="none" xmlns="http://www.w3.org/2000/svg">
    <path fill-rule="evenodd" clip-rule="evenodd" d="M21.6 0H7.2C5.874 0 4.8 1.074 4.8 2.4V16.8C4.8 18.126 5.874 19.2 7.2 19.2H21.6C22.926 19.2 24 18.126 24 16.8V2.4C24 1.074 22.926 0 21.6 0ZM2.4 4.8H0V21.6C0 22.926 1.074 24 2.4 24H19.2V21.6H2.4V4.8ZM14.5 15.5C17.8137 15.5 20.5 12.8137 20.5 9.5C20.5 6.18629 17.8137 3.5 14.5 3.5C11.1863 3.5 8.5 6.18629 8.5 9.5C8.5 12.8137 11.1863 15.5 14.5 15.5ZM14.5 13.5C16.7091 13.5 18.5 11.7091 18.5 9.5C18.5 8.78434 18.3121 8.11258 17.9828 7.53138L12.5314 12.9828C13.1126 13.3121 13.7843 13.5 14.5 13.5ZM16.5943 6.09145L11.0914 11.5943C10.7164 10.9852 10.5 10.2679 10.5 9.5C10.5 7.29086 12.2909 5.5 14.5 5.5C15.2679 5.5 15.9852 5.71636 16.5943 6.09145Z" fill="#212121"/>
</svg>
