<svg xmlns="http://www.w3.org/2000/svg" width="32" height="32" viewBox="0 0 32 32">
    <g fill="none" fill-rule="evenodd">
        <path d="M0 0h32v32H0z"/>
        <g fill="#FFF">
            <path d="M25.82 8.26c-.288-1.143-1.861-3.064-9.213-3.064-3.464 0-5.978.38-7.473 1.134-1.652.83-1.783 1.955-1.783 2.288v6.502a11.251 11.251 0 0 0 5.71 9.778l2.83 1.598c.445.251.988.251 1.432 0l2.83-1.598a11.251 11.251 0 0 0 5.71-9.778V8.618c0-.12-.014-.24-.043-.357zm-1.418 6.845a9.784 9.784 0 0 1-4.964 8.522l-2.83 1.613-2.831-1.599a9.784 9.784 0 0 1-4.965-8.521V8.618s0-1.956 7.795-1.956c7.308 0 7.795 1.956 7.795 1.956v6.487z"/>
            <path d="M16.607 10.084c-3.546 0-5.87 3.711-6.124 4.132-.28.466-.28 1.05 0 1.515.254.42 2.578 4.121 6.12 4.131 3.541.01 5.875-3.71 6.128-4.136a1.471 1.471 0 0 0 0-1.51c-.253-.42-2.577-4.132-6.124-4.132zm0 8.312c-2.82 0-4.872-3.423-4.872-3.423s2.051-3.422 4.872-3.422c2.82 0 4.872 3.422 4.872 3.422s-2.046 3.423-4.862 3.423h-.01z"/>
            <path d="M16.607 12.529a2.44 2.44 0 0 0-2.436 2.444 2.44 2.44 0 0 0 2.436 2.445 2.44 2.44 0 0 0 2.436-2.445 2.44 2.44 0 0 0-2.436-2.444zm0 3.422a.976.976 0 0 1-.974-.978c0-.54.436-.977.974-.977s.975.437.975.977-.437.978-.975.978z"/>
        </g>
    </g>
</svg>
