<svg xmlns="http://www.w3.org/2000/svg" width="32" height="32" viewBox="0 0 32 32">
    <path fill="#FFF" fill-rule="evenodd" d="M26 14.548c0-1.311-1.092-2.375-2.439-2.375h-3.415V8.85c0-1.424-.839-2.849-2.439-2.849s-2.439 1.425-2.439 2.85v1.31l-1.76 1.714-2.254.713a1.464 1.464 0 0 0-1.352-.884H7.463c-.808 0-1.463.638-1.463 1.425v10.447C6 24.362 6.655 25 7.463 25h2.44c.808 0 1.463-.638 1.463-1.425v-.185l2.117 1.373c.24.155.522.237.81.237h9.268C24.908 25 26 23.937 26 22.626v-.475a1.392 1.392 0 0 1 0-1.425v-1.425a1.392 1.392 0 0 1 0-1.424v-1.425a1.392 1.392 0 0 1 0-1.425v-.48zM9.902 23.57H7.463V13.123h2.44v10.448zm14.635-8.548h-.732a.722.722 0 0 0-.732.712c0 .393.328.712.732.712h.732v1.425h-.732a.722.722 0 0 0-.732.712c0 .394.328.713.732.713h.732v1.424h-.732a.722.722 0 0 0-.732.713c0 .393.328.712.732.712h.732v.475c0 .524-.437.95-.976.95h-9.268l-2.927-1.9v-7.627l2.927-.92 2.439-2.375v-1.9s0-1.424.975-1.424c.976 0 .976 1.424.976 1.424v4.75h4.878c.539 0 .976.424.976.949v.475z"/>
</svg>
