<svg xmlns="http://www.w3.org/2000/svg" width="32" height="32" viewBox="0 0 32 32">
    <g fill="#FFF" fill-rule="nonzero">
        <path d="M21.932 11.24h-7.75a.686.686 0 0 0-.682.688v3.561c0 .38.305.69.682.69h7.75a.686.686 0 0 0 .682-.69v-3.56c0-.381-.306-.69-.682-.69zm-.682 3.583h-6.386v-2.205h6.386v2.205z"/>
        <path d="M25.955 10.182a2.057 2.057 0 0 0-2.046-2.067H12.205c-1.13 0-2.046.926-2.046 2.067v1.356H8.091c-1.13 0-2.046.926-2.046 2.067v8.523c0 1.523 1.221 2.757 2.728 2.757h13.932c1.794 0 3.25-1.47 3.25-3.285V10.182zM10.159 22.128c0 .768-.616 1.39-1.375 1.39-.76 0-1.375-.622-1.375-1.39v-8.523c0-.38.305-.689.682-.689h2.068v9.212zm14.455-.528a1.897 1.897 0 0 1-1.887 1.907h-11.59a2.78 2.78 0 0 0 .363-1.379V10.182c0-.38.305-.689.682-.689h11.727c.377 0 .682.309.682.69l.023 11.417z"/>
        <path d="M21.932 17.557h-7.75a.686.686 0 0 0-.682.689c0 .38.305.69.682.69h7.75a.686.686 0 0 0 .682-.69c0-.38-.306-.69-.682-.69zM21.932 20.314h-7.75a.686.686 0 0 0-.682.689c0 .38.305.689.682.689h7.75a.686.686 0 0 0 .682-.69c0-.38-.306-.688-.682-.688z"/>
    </g>
</svg>
