<svg width="24" height="24" viewBox="0 0 24 24" fill="none" xmlns="http://www.w3.org/2000/svg">
    <path fill-rule="evenodd" clip-rule="evenodd" d="M22.121 1.879C20.9495 0.707854 19.0505 0.707854 17.879 1.879L11.085 8.672C13.1584 9.22199 14.778 10.8409 15.329 12.914L22.121 6.121C23.2921 4.9495 23.2921 3.0505 22.121 1.879ZM12.364 11.636C11.6138 10.8858 10.5964 10.4644 9.5355 10.4644C8.4746 10.4644 7.45715 10.8858 6.707 11.636C5.334 13.009 5.045 17.136 5.001 17.946C4.98617 18.2203 5.0848 18.4886 5.27375 18.6879C5.4627 18.8873 5.72533 19.0001 6 19H6.054C6.866 18.956 10.991 18.667 12.364 17.294C13.1142 16.5438 13.5356 15.5264 13.5356 14.4655C13.5356 13.4046 13.1142 12.3872 12.364 11.637V11.636ZM20 20V10.229L22 8.228V21C22 21.5523 21.5523 22 21 22H3C2.44772 22 2 21.5523 2 21V3C2 2.44772 2.44772 2 3 2H15.744L13.744 4H4V20H20Z" fill="#212121"/>
</svg>
