<svg width="140" height="40" viewBox="0 0 140 40" fill="none" xmlns="http://www.w3.org/2000/svg">
<rect width="140" height="40" rx="6" fill="#212121"/>
<path fill-rule="evenodd" clip-rule="evenodd" d="M84.7078 28.6391C83.073 28.6391 81.8767 27.8306 81.739 26.5991L79.8366 26.599C79.9568 28.8451 81.8161 30.266 84.57 30.266C87.5134 30.266 89.364 28.8109 89.364 26.4877C89.364 24.6713 88.3054 23.6479 85.7575 23.0453L84.3894 22.7094C82.7888 22.3139 82.1345 21.7973 82.1345 20.9194C82.1345 19.8178 83.1589 19.061 84.656 19.061C86.153 19.061 87.1775 19.809 87.2898 21.0483H89.1658C89.1052 18.9057 87.3064 17.434 84.6824 17.434C82.031 17.434 80.1638 18.9057 80.1638 21.0483C80.1638 22.7788 81.2224 23.8452 83.5027 24.3959L85.1121 24.7836C86.7214 25.1792 87.4011 25.7563 87.4011 26.7202C87.4011 27.8305 86.2742 28.6391 84.7078 28.6391ZM52.3308 26.7026H47.5974L46.4607 30.0591H44.4558L48.9392 17.6411H51.0222L55.5056 30.0591H53.4665L52.3308 26.7026ZM48.0876 25.1538H51.8396L49.99 19.7065H49.9383L48.0876 25.1538ZM61.4099 30.1538C63.6824 30.1538 65.1882 28.3462 65.1882 25.5327C65.1882 22.727 63.6735 20.9106 61.3757 20.9106C60.1933 20.8725 59.0857 21.4875 58.4929 22.5112H58.4587V21.0054H56.6599V33.0542H58.5183V28.5698H58.5613C59.1289 29.6 60.2353 30.2152 61.4099 30.1538ZM63.2781 25.5327C63.2781 23.6997 62.3308 22.4946 60.8855 22.4946C59.4656 22.4946 58.5105 23.7251 58.5105 25.5327C58.5105 27.3569 59.4656 28.5786 60.8855 28.5786C62.3308 28.5786 63.2781 27.3823 63.2781 25.5327ZM71.3748 30.1538C73.6472 30.1538 75.1531 28.3462 75.1531 25.5327C75.1531 22.727 73.6384 20.9106 71.3405 20.9106C70.1582 20.8725 69.0505 21.4875 68.4577 22.5112H68.4235V21.0054H66.6247V33.0542H68.4831V28.5698H68.5261C69.0937 29.6 70.2001 30.2152 71.3748 30.1538ZM73.2429 25.5327C73.2429 23.6997 72.2956 22.4946 70.8503 22.4946C69.4304 22.4946 68.4753 23.7251 68.4753 25.5327C68.4753 27.3569 69.4304 28.5786 70.8503 28.5786C72.2957 28.5786 73.2429 27.3823 73.2429 25.5327ZM93.3748 18.8628V21.0054H95.0964V22.477H93.3748V27.4683C93.3748 28.2436 93.7195 28.605 94.4763 28.605C94.6807 28.6014 94.8848 28.5871 95.0876 28.562V30.0249C94.7474 30.0884 94.4015 30.1172 94.0554 30.1108C92.2224 30.1108 91.5076 29.4223 91.5076 27.6665V22.477H90.1912V21.0054H91.5075V18.8628H93.3748ZM100.387 20.894C97.7713 20.894 96.0935 22.6841 96.0935 25.5327C96.0935 28.3892 97.7546 30.1714 100.387 30.1714C103.021 30.1714 104.682 28.3892 104.682 25.5327C104.682 22.684 103.012 20.894 100.387 20.894ZM102.789 25.5327C102.789 23.5786 101.893 22.4253 100.387 22.4253C98.8816 22.4253 97.9871 23.5874 97.9871 25.5327C97.9871 27.4946 98.8816 28.6392 100.387 28.6392C101.893 28.6392 102.789 27.4946 102.789 25.5327H102.789ZM107.987 21.0054H106.215L106.215 30.0591H108.073V24.6889C108.011 24.1457 108.19 23.6025 108.562 23.202C108.934 22.8015 109.463 22.5838 110.01 22.6059C110.292 22.5977 110.574 22.6356 110.845 22.7182V20.98C110.636 20.9331 110.422 20.9099 110.208 20.9106C109.186 20.8716 108.277 21.5543 108.03 22.5464H107.987V21.0054ZM119.413 27.3999C119.163 29.0434 117.562 30.1714 115.514 30.1714C112.881 30.1714 111.246 28.4067 111.246 25.5757C111.246 22.7358 112.889 20.894 115.436 20.894C117.941 20.894 119.516 22.6147 119.516 25.3599V25.9966H113.122V26.1089C113.062 26.7829 113.295 27.4501 113.761 27.9408C114.227 28.4314 114.881 28.6982 115.557 28.6733C116.459 28.7578 117.309 28.24 117.648 27.3999L119.413 27.3999ZM117.657 24.6977H113.131C113.129 24.0865 113.372 23.4999 113.805 23.0684C114.238 22.6369 114.825 22.3962 115.436 22.3999C116.043 22.3869 116.627 22.6274 117.049 23.0636C117.47 23.4998 117.691 24.0921 117.657 24.6977Z" fill="white"/>
<path fill-rule="evenodd" clip-rule="evenodd" d="M69.1223 8H70.011V14.2607H69.1223V8ZM49.9603 9.11187C49.4164 8.53755 48.6437 8.23738 47.8547 8.294H45.6995V14.2608H47.8547C49.6321 14.2608 50.6624 13.1651 50.6624 11.2588C50.7618 10.4741 50.5042 9.6862 49.9603 9.11187ZM47.7512 13.417H46.6262V9.13721H47.7512C48.312 9.10609 48.8574 9.32722 49.2382 9.74013C49.619 10.153 49.7953 10.7145 49.719 11.271C49.8013 11.8298 49.6275 12.3959 49.2458 12.8123C48.864 13.2286 48.315 13.4507 47.7512 13.417ZM51.7092 12.0073C51.632 11.2002 52.019 10.4191 52.708 9.9916C53.3969 9.56408 54.2686 9.56408 54.9576 9.9916C55.6465 10.4191 56.0335 11.2002 55.9563 12.0073C56.035 12.8153 55.6483 13.598 54.9588 14.0264C54.2692 14.4548 53.3963 14.4548 52.7067 14.0264C52.0172 13.598 51.6305 12.8153 51.7092 12.0073ZM53.8342 10.4605C54.6037 10.4605 55.0422 11.0313 55.0422 12.0073H55.0422C55.0422 12.9873 54.6038 13.5576 53.8342 13.5576C53.0618 13.5576 52.6272 12.9912 52.6272 12.0073C52.6272 11.0313 53.0618 10.4605 53.8342 10.4605ZM61.6018 14.2608H60.6799L59.7493 10.9443H59.679L58.7522 14.2608H57.8391L56.5979 9.75782H57.4993L58.3059 13.1938H58.3723L59.2981 9.75782H60.1506L61.0764 13.1938H61.1467L61.9495 9.75782H62.8381L61.6018 14.2608ZM64.7375 9.75782H63.8821L63.8821 14.2607H64.7707V11.6265C64.7389 11.3268 64.8394 11.0282 65.0461 10.8088C65.2528 10.5895 65.5449 10.4713 65.8459 10.4854C66.5032 10.4854 66.8176 10.8452 66.8176 11.5689V14.2607H67.7063V11.3457C67.7714 10.9054 67.6328 10.4594 67.3296 10.1336C67.0264 9.80779 66.5915 9.63753 66.1477 9.6709C65.5745 9.62431 65.0349 9.94648 64.804 10.4732H64.7375V9.75782ZM72.2452 9.99152C71.5563 10.419 71.1692 11.2002 71.2463 12.0073C71.1678 12.8154 71.5545 13.598 72.2441 14.0264C72.9336 14.4548 73.8066 14.4548 74.4962 14.0264C75.1857 13.598 75.5725 12.8154 75.4939 12.0073C75.571 11.2002 75.184 10.419 74.495 9.99152C73.806 9.564 72.9342 9.564 72.2452 9.99152ZM74.5793 12.0073C74.5793 11.0313 74.1409 10.4605 73.3713 10.4605C72.5989 10.4605 72.1643 11.0313 72.1643 12.0073C72.1643 12.9912 72.5989 13.5576 73.3713 13.5576C74.1409 13.5576 74.5793 12.9873 74.5793 12.0073ZM78.1042 11.6431C77.033 11.7095 76.4294 12.1768 76.4294 12.9873C76.431 13.3716 76.595 13.7374 76.8809 13.9942C77.1669 14.2509 77.5482 14.3747 77.9304 14.3349C78.4757 14.3602 78.9924 14.0901 79.283 13.628H79.3533V14.2608H80.2087V11.1841C80.2087 10.2329 79.572 9.67092 78.4431 9.67092C77.4216 9.67092 76.6941 10.167 76.6033 10.9405H77.4636C77.5623 10.6221 77.906 10.44 78.4021 10.44C79.0095 10.44 79.324 10.7085 79.324 11.1841V11.5728L78.1042 11.6431ZM79.324 12.6026V12.2261L78.2244 12.2964C77.6042 12.3379 77.323 12.5488 77.323 12.9458C77.323 13.3511 77.6746 13.5869 78.158 13.5869C78.4442 13.6159 78.7299 13.5275 78.9497 13.3419C79.1695 13.1564 79.3045 12.8895 79.324 12.6026ZM83.2458 9.68312C82.1082 9.68312 81.3767 10.5845 81.3767 12.0073C81.3767 13.4336 82.1003 14.335 83.2458 14.3349C83.8266 14.3564 84.3713 14.0537 84.6599 13.5493H84.7302V14.2607H85.5818V8H84.6931V10.4731H84.6267C84.3584 9.96447 83.8203 9.65665 83.2458 9.68312ZM82.2947 12.0073C82.2947 12.9624 82.7449 13.5371 83.4978 13.5371C84.2468 13.5371 84.7097 12.9541 84.7097 12.0113C84.7097 11.0728 84.242 10.4815 83.4978 10.4815C82.7498 10.4815 82.2947 11.0601 82.2947 12.0073H82.2947ZM90.2573 9.9916C89.5683 10.4191 89.1813 11.2002 89.2585 12.0073C89.1799 12.8153 89.5665 13.598 90.2561 14.0264C90.9456 14.4548 91.8185 14.4548 92.5081 14.0264C93.1976 13.598 93.5843 12.8153 93.5056 12.0073C93.5828 11.2002 93.1958 10.4191 92.5069 9.9916C91.8179 9.56408 90.9462 9.56408 90.2573 9.9916ZM92.5915 12.0073C92.5915 11.0313 92.1531 10.4605 91.3835 10.4605C90.6111 10.4605 90.1765 11.0313 90.1765 12.0073C90.1765 12.9912 90.6111 13.5576 91.3835 13.5576C92.1531 13.5576 92.5915 12.9873 92.5915 12.0073ZM95.5535 9.75782H94.698V14.2607H95.5867V11.6265C95.5548 11.3268 95.6554 11.0282 95.862 10.8088C96.0687 10.5895 96.3608 10.4713 96.6619 10.4854C97.3191 10.4854 97.6335 10.8452 97.6335 11.5689V14.2607H98.5222V11.3457C98.5874 10.9054 98.4488 10.4594 98.1456 10.1336C97.8424 9.80779 97.4074 9.63753 96.9636 9.6709C96.3904 9.62431 95.8508 9.94648 95.6199 10.4732H95.5535V9.75782ZM103.544 8.63673V9.77833H104.519V10.5269H103.544V12.8423C103.544 13.314 103.738 13.5205 104.18 13.5205C104.294 13.5202 104.407 13.5133 104.519 13.5V14.2402C104.36 14.2688 104.198 14.284 104.036 14.2857C103.048 14.2857 102.654 13.938 102.654 13.0698V10.5268H101.939V9.77829H102.654V8.63673H103.544ZM106.614 8H105.733L105.733 14.2607H106.622V11.6309C106.594 11.3219 106.705 11.0165 106.923 10.7964C107.142 10.5763 107.446 10.4639 107.756 10.4892C108.384 10.4892 108.719 10.8535 108.719 11.5728V14.2607H109.608V11.3535C109.667 10.9155 109.527 10.4741 109.228 10.1494C108.928 9.8248 108.499 9.6508 108.057 9.67481C107.475 9.62759 106.926 9.95017 106.684 10.4815H106.614V8ZM114.79 13.0449C114.541 13.8943 113.719 14.4431 112.839 14.3477C112.238 14.3635 111.661 14.1146 111.261 13.6671C110.86 13.2195 110.676 12.6185 110.759 12.0234C110.679 11.4268 110.862 10.8248 111.26 10.3734C111.658 9.92209 112.233 9.66578 112.835 9.67091C114.088 9.67091 114.844 10.5269 114.844 11.9409V12.251H111.664V12.3008C111.636 12.6349 111.75 12.9654 111.978 13.211C112.206 13.4566 112.528 13.5945 112.863 13.5908C113.298 13.643 113.721 13.4273 113.934 13.0449L114.79 13.0449ZM113.938 11.5938H111.664C111.66 11.2833 111.781 10.9843 112.001 10.7646C112.22 10.545 112.519 10.4234 112.83 10.4273C113.136 10.4202 113.431 10.5429 113.642 10.7651C113.853 10.9872 113.961 11.2882 113.938 11.5938Z" fill="white"/>
<path fill-rule="evenodd" clip-rule="evenodd" d="M33.1802 8.28326C33.277 9.5475 32.8772 10.7997 32.0657 11.7739C31.2783 12.7531 30.0854 13.3172 28.8289 13.3043C28.749 12.0764 29.1605 10.8672 29.9726 9.94287C30.7951 9.00604 31.9404 8.41348 33.1802 8.28326ZM37.1539 15.7116C35.7086 16.6002 34.8192 18.1672 34.7973 19.8637C34.7994 21.783 35.9488 23.5152 37.7166 24.2628C37.3766 25.3673 36.8641 26.411 36.1981 27.3554C35.3038 28.6933 34.366 30.0003 32.8776 30.0245C32.1698 30.0408 31.6919 29.8373 31.194 29.6252C30.6747 29.4039 30.1335 29.1734 29.2866 29.1734C28.3885 29.1734 27.8231 29.4114 27.2777 29.6409C26.8065 29.8392 26.3502 30.0312 25.7072 30.0579C24.2898 30.1104 23.2065 28.6299 22.2796 27.3046C20.427 24.598 18.9844 19.6769 20.9184 16.3285C21.8266 14.6965 23.5246 13.6609 25.3913 13.6006C26.1952 13.5841 26.9666 13.8939 27.643 14.1656C28.1602 14.3733 28.6218 14.5588 28.9998 14.5588C29.3321 14.5588 29.7808 14.3807 30.3038 14.1731C31.1276 13.8462 32.1355 13.4461 33.1627 13.5539C34.7588 13.6039 36.2379 14.4035 37.1539 15.7116Z" fill="white"/>
</svg>
