<svg xmlns="http://www.w3.org/2000/svg" width="95" height="27" viewBox="0 0 95 27">
    <g fill="none" fill-rule="evenodd">
        <g>
            <g>
                <g>
                    <g transform="translate(-724 -396) translate(496 132) translate(116 48) translate(112.5 216)">
                        <rect width="94.5" height="27" fill="#000" rx="4.5"/>
                        <g fill="#FFF" fill-rule="nonzero">
                            <path d="M21.823 12.624h-3.195l-.767 2.266h-1.353l3.026-8.382h1.406l3.026 8.382H22.59l-.767-2.266zM18.96 11.58h2.533l-1.249-3.677h-.035l-1.249 3.677zm11.543.256c0 1.899-1.016 3.119-2.55 3.119-.793.041-1.54-.374-1.923-1.07h-.03v3.028h-1.254V8.779h1.215v1.016h.023c.4-.69 1.147-1.106 1.946-1.08 1.55 0 2.573 1.226 2.573 3.12zm-1.29 0c0-1.238-.639-2.051-1.614-2.051-.959 0-1.603.83-1.603 2.05 0 1.232.644 2.057 1.603 2.057.975 0 1.615-.808 1.615-2.056zm8.016 0c0 1.899-1.016 3.119-2.55 3.119-.793.041-1.54-.374-1.923-1.07h-.029v3.028h-1.254V8.779h1.214v1.016h.023c.4-.69 1.148-1.106 1.946-1.08 1.55 0 2.573 1.226 2.573 3.12zm-1.29 0c0-1.238-.639-2.051-1.614-2.051-.959 0-1.603.83-1.603 2.05 0 1.232.644 2.057 1.603 2.057.975 0 1.615-.808 1.615-2.056zm5.736.72c.093.83.9 1.376 2.004 1.376 1.057 0 1.818-.545 1.818-1.295 0-.65-.46-1.04-1.545-1.307l-1.087-.262c-1.539-.372-2.253-1.091-2.253-2.26 0-1.446 1.26-2.439 3.05-2.439 1.77 0 2.985.993 3.026 2.44H45.42c-.076-.837-.768-1.342-1.778-1.342s-1.702.511-1.702 1.255c0 .592.441.94 1.522 1.208l.923.227c1.72.406 2.435 1.097 2.435 2.323 0 1.568-1.25 2.55-3.236 2.55-1.86 0-3.114-.959-3.195-2.475h1.284zm7.854-5.223V8.78h1.162v.993h-1.162v3.37c0 .522.233.766.743.766.138-.002.276-.012.413-.029v.988c-.23.043-.463.062-.697.058-1.237 0-1.72-.465-1.72-1.65V9.772h-.888v-.993h.889V7.332h1.26zm1.835 4.503c0-1.923 1.133-3.132 2.898-3.132 1.772 0 2.9 1.209 2.9 3.132 0 1.928-1.122 3.13-2.9 3.13-1.777 0-2.898-1.202-2.898-3.13zm4.52 0c0-1.32-.605-2.098-1.622-2.098-1.016 0-1.62.785-1.62 2.098 0 1.324.604 2.096 1.62 2.096 1.017 0 1.621-.772 1.621-2.096zm2.312-3.056h1.196v1.04h.03c.166-.67.78-1.13 1.47-1.104.144 0 .288.015.429.046v1.174c-.183-.056-.373-.082-.564-.076-.368-.015-.725.132-.977.402-.251.27-.372.637-.33 1.004v3.625h-1.254V8.779zm8.909 4.316c-.17 1.11-1.25 1.87-2.632 1.87-1.778 0-2.881-1.19-2.881-3.101 0-1.917 1.11-3.16 2.828-3.16 1.691 0 2.754 1.161 2.754 3.014v.43h-4.316v.076c-.04.454.117.905.432 1.236.314.331.756.511 1.212.495.609.057 1.183-.293 1.411-.86h1.192zm-4.24-1.824h3.054c.023-.409-.126-.809-.41-1.103-.285-.294-.68-.457-1.089-.448-.412-.003-.809.16-1.1.451-.293.291-.457.687-.456 1.1zM18.802.198c.532-.038 1.054.165 1.421.553.367.387.541.919.474 1.449 0 1.286-.695 2.026-1.895 2.026h-1.455V.198h1.455zm-.83 3.458h.76c.38.023.751-.127 1.009-.408.257-.28.375-.663.32-1.04.05-.376-.068-.755-.325-1.033-.257-.28-.625-.428-1.004-.407h-.76v2.888zm3.432-.951c-.052-.545.209-1.072.674-1.36.465-.29 1.053-.29 1.518 0 .465.288.727.815.674 1.36.054.545-.207 1.074-.673 1.363-.465.289-1.055.289-1.52 0-.465-.29-.726-.818-.673-1.363zm2.25 0c0-.659-.297-1.044-.816-1.044-.521 0-.815.385-.815 1.044 0 .664.294 1.046.815 1.046.52 0 .815-.385.815-1.046zm4.427 1.521h-.622l-.628-2.239h-.048l-.625 2.239h-.617l-.837-3.04h.608l.544 2.32h.045l.625-2.32h.576l.625 2.32h.047l.542-2.32h.6l-.835 3.04zm1.54-3.04h.577v.483h.045c.155-.355.52-.573.907-.541.3-.023.593.092.797.312.205.22.299.521.255.818v1.968h-.6V2.409c0-.488-.212-.731-.656-.731-.203-.01-.4.07-.54.218s-.207.35-.186.552v1.778h-.6v-3.04zM33.156 0h.6v4.226h-.6V0zm1.434 2.705c-.052-.545.21-1.072.674-1.36.466-.29 1.054-.29 1.519 0 .465.288.726.815.674 1.36.053.545-.208 1.074-.673 1.363-.466.289-1.055.289-1.52 0-.466-.29-.727-.818-.674-1.363zm2.25 0c0-.659-.296-1.044-.815-1.044-.522 0-.815.385-.815 1.044 0 .664.293 1.046.815 1.046.519 0 .815-.385.815-1.046zm1.249.661c0-.547.407-.862 1.13-.907l.824-.047v-.263c0-.32-.213-.502-.623-.502-.335 0-.567.123-.633.338h-.58c.06-.522.552-.857 1.241-.857.762 0 1.192.38 1.192 1.021v2.077h-.578v-.427h-.047c-.196.312-.545.494-.913.477-.258.027-.515-.057-.708-.23-.193-.173-.304-.42-.305-.68zm1.954-.26v-.253L39.3 2.9c-.418.028-.608.17-.608.438 0 .274.237.433.564.433.193.02.386-.04.534-.165.148-.125.24-.306.253-.5zm1.385-.401c0-.96.494-1.569 1.262-1.569.388-.018.75.19.932.533h.045V0h.6v4.226h-.575v-.48h-.048c-.194.34-.562.545-.954.53-.773 0-1.262-.608-1.262-1.571zm.62 0c0 .645.304 1.033.812 1.033.506 0 .818-.394.818-1.03 0-.634-.316-1.033-.818-1.033-.505 0-.812.39-.812 1.03zm4.7 0c-.052-.545.21-1.072.675-1.36.465-.29 1.053-.29 1.518 0 .465.288.726.815.674 1.36.053.545-.208 1.074-.673 1.363-.466.289-1.055.289-1.52 0-.466-.29-.727-.818-.674-1.363zm2.25 0c0-.659-.296-1.044-.815-1.044-.522 0-.815.385-.815 1.044 0 .664.293 1.046.815 1.046.52 0 .815-.385.815-1.046zm1.422-1.518H51v.482h.044c.156-.355.52-.573.907-.541.3-.023.594.092.798.312.205.22.298.521.254.818v1.968h-.6V2.409c0-.488-.212-.731-.655-.731-.204-.01-.4.07-.54.218s-.208.35-.186.552v1.778h-.6v-3.04zm5.97-.757v.77h.66v.506h-.66v1.563c0 .318.132.457.43.457.077 0 .154-.005.23-.013v.5c-.108.018-.217.029-.327.03-.667 0-.933-.235-.933-.82V1.705h-.482V1.2h.482V.43h.6zM57.87 0h.594v1.675h.048c.163-.359.534-.576.927-.545.297-.016.587.102.79.32.202.22.296.518.256.814v1.962h-.6V2.412c0-.486-.226-.732-.65-.732-.209-.017-.414.059-.562.208-.147.148-.222.354-.203.563v1.775h-.6V0zm6.113 3.405c-.168.574-.723.944-1.317.88-.405.01-.795-.158-1.065-.46-.27-.302-.394-.708-.34-1.11-.053-.402.07-.808.34-1.113.268-.305.656-.478 1.062-.474.846 0 1.356.578 1.356 1.532v.21h-2.146v.033c-.019.226.058.449.212.614.154.166.371.26.597.257.294.035.58-.11.724-.369h.577zm-2.11-.98h1.535c.016-.205-.057-.409-.2-.559-.142-.15-.341-.232-.548-.228-.21-.002-.411.08-.56.228-.148.148-.23.35-.227.56zM9.988 8.008c.015-1.145.615-2.203 1.59-2.803-.617-.883-1.616-1.422-2.693-1.456-1.134-.12-2.233.678-2.81.678-.589 0-1.478-.666-2.436-.647-1.26.041-2.406.74-3.02 1.842-1.305 2.26-.33 5.582.92 7.409.625.894 1.357 1.894 2.313 1.858.937-.039 1.286-.597 2.416-.597 1.12 0 1.448.597 2.424.575 1.005-.017 1.638-.899 2.242-1.802.45-.638.795-1.342 1.025-2.088-1.194-.504-1.97-1.673-1.97-2.969zm-1.844-5.46c.548-.658.818-1.503.753-2.357-.837.088-1.61.488-2.165 1.12-.549.624-.826 1.44-.772 2.27.848.008 1.653-.373 2.184-1.034z" transform="translate(13.5 5.4)"/>
                        </g>
                    </g>
                </g>
            </g>
        </g>
    </g>
</svg>
