<svg width="20" height="20" viewBox="0 0 20 20" fill="none" xmlns="http://www.w3.org/2000/svg">
<path fill-rule="evenodd" clip-rule="evenodd" d="M1.66669 10.0001C1.66669 5.39771 5.39765 1.66675 10 1.66675C12.2102 1.66675 14.3298 2.54472 15.8926 4.10752C17.4554 5.67033 18.3334 7.78994 18.3334 10.0001C18.3334 14.6025 14.6024 18.3334 10 18.3334C5.39765 18.3334 1.66669 14.6025 1.66669 10.0001ZM3.75002 10.0001C3.75002 13.4519 6.54824 16.2501 10 16.2501C13.4502 16.2463 16.2462 13.4503 16.25 10.0001C16.25 6.5483 13.4518 3.75008 10 3.75008C6.54824 3.75008 3.75002 6.5483 3.75002 10.0001ZM11.3889 10.0001C11.3889 10.7671 10.7671 11.389 10 11.389C9.23296 11.389 8.61113 10.7671 8.61113 10.0001C8.61113 9.23302 9.23296 8.61119 10 8.61119C10.7671 8.61119 11.3889 9.23302 11.3889 10.0001ZM10 5.13897C7.3153 5.13897 5.13891 7.31536 5.13891 10.0001C5.13891 12.6848 7.3153 14.8612 10 14.8612C12.6847 14.8612 14.8611 12.6848 14.8611 10.0001C14.8581 7.31663 12.6835 5.14203 10 5.13897ZM10 12.7779C8.4659 12.7779 7.22224 11.5342 7.22224 10.0001C7.22224 8.46596 8.4659 7.2223 10 7.2223C11.5341 7.2223 12.7778 8.46596 12.7778 10.0001C12.7778 10.7368 12.4851 11.4433 11.9642 11.9643C11.4433 12.4852 10.7367 12.7779 10 12.7779Z" fill="#212121"/>
</svg>
