<svg xmlns="http://www.w3.org/2000/svg" width="95" height="27" viewBox="0 0 95 27">
    <defs>
        <linearGradient id="lkdi2zw0ka" x1="61.034%" x2="26.503%" y1="4.948%" y2="71.907%">
            <stop offset="0%" stop-color="#00A0FF"/>
            <stop offset="1%" stop-color="#00A1FF"/>
            <stop offset="26%" stop-color="#00BEFF"/>
            <stop offset="51%" stop-color="#00D2FF"/>
            <stop offset="76%" stop-color="#00DFFF"/>
            <stop offset="100%" stop-color="#00E3FF"/>
        </linearGradient>
        <linearGradient id="8ou434ywxb" x1="107.685%" x2="-130.64%" y1="50%" y2="50%">
            <stop offset="0%" stop-color="#FFE000"/>
            <stop offset="41%" stop-color="#FFBD00"/>
            <stop offset="78%" stop-color="orange"/>
            <stop offset="100%" stop-color="#FF9C00"/>
        </linearGradient>
        <linearGradient id="sht5jhpr9c" x1="86.219%" x2="-50.15%" y1="30.911%" y2="135.988%">
            <stop offset="0%" stop-color="#FF3A44"/>
            <stop offset="100%" stop-color="#C31162"/>
        </linearGradient>
        <linearGradient id="89abb9k11d" x1="-18.754%" x2="42.121%" y1="-11.832%" y2="35.095%">
            <stop offset="0%" stop-color="#32A071"/>
            <stop offset="7%" stop-color="#2DA771"/>
            <stop offset="48%" stop-color="#15CF74"/>
            <stop offset="80%" stop-color="#06E775"/>
            <stop offset="100%" stop-color="#00F076"/>
        </linearGradient>
    </defs>
    <g fill="none" fill-rule="evenodd">
        <g>
            <g>
                <g>
                    <g>
                        <g transform="translate(-621 -396) translate(496 132) translate(116 48) translate(9 215) translate(0 .325)">
                            <rect width="94.5" height="27" y=".675" fill="#000" rx="4.5"/>
                            <g fill-rule="nonzero">
                                <path fill="#FFF" d="M39.92 10.055c-1.583.007-2.86 1.295-2.856 2.877.005 1.583 1.29 2.863 2.873 2.86 1.583-.002 2.865-1.286 2.865-2.868.01-.767-.29-1.505-.833-2.046-.543-.54-1.283-.838-2.05-.823zm0 4.61c-.714.05-1.385-.341-1.693-.987-.309-.645-.191-1.413.296-1.936.487-.524 1.245-.697 1.91-.436.666.261 1.105.902 1.106 1.618.022.447-.137.884-.442 1.212-.305.328-.73.519-1.178.529zm-6.285-4.61c-1.583.004-2.864 1.29-2.862 2.873.003 1.584 1.288 2.866 2.871 2.864 1.584-.001 2.867-1.285 2.867-2.868.01-.767-.29-1.505-.833-2.046-.543-.54-1.283-.838-2.05-.823h.007zm0 4.61c-.713.053-1.387-.337-1.697-.981-.31-.645-.195-1.414.291-1.94.487-.524 1.245-.698 1.911-.438.667.26 1.107.902 1.108 1.618.022.447-.137.884-.442 1.212-.305.328-.73.519-1.177.529h.006zm-7.485-3.726v1.215h2.916c-.046.572-.284 1.112-.675 1.532-.59.601-1.407.925-2.248.891-1.79 0-3.24-1.45-3.24-3.24 0-1.79 1.45-3.24 3.24-3.24.822-.013 1.616.3 2.207.871l.857-.857c-.806-.817-1.91-1.272-3.058-1.262-1.634-.064-3.172.772-4.008 2.177-.836 1.406-.836 3.156 0 4.562.836 1.405 2.374 2.24 4.009 2.177 1.168.053 2.303-.402 3.111-1.248.707-.777 1.085-1.799 1.053-2.849.002-.256-.02-.511-.067-.763l-4.098.034zm30.584.945c-.36-1.06-1.338-1.788-2.457-1.83-.747 0-1.46.307-1.972.85-.511.544-.775 1.275-.728 2.02-.017.762.277 1.498.815 2.04.537.54 1.27.84 2.033.828.96.005 1.857-.471 2.39-1.269l-.979-.675c-.297.496-.833.798-1.41.797-.6.023-1.15-.323-1.391-.871l3.84-1.586-.141-.304zm-3.915.959c-.028-.422.115-.837.397-1.152.282-.315.679-.503 1.101-.522.445-.03.865.21 1.067.607l-2.565 1.067zm-3.119 2.78h1.262V7.187H49.7v8.438zm-2.065-4.927h-.047c-.385-.43-.935-.676-1.513-.675-1.532.074-2.736 1.338-2.736 2.872 0 1.534 1.204 2.798 2.736 2.872.58.01 1.133-.237 1.512-.675h.041v.412c0 1.1-.587 1.688-1.532 1.688-.644-.016-1.215-.418-1.445-1.02l-1.1.46c.424 1.03 1.43 1.7 2.545 1.694 1.478 0 2.7-.871 2.7-2.99v-5.11h-1.161v.472zm-1.445 3.969c-.902-.08-1.595-.835-1.595-1.741 0-.907.693-1.662 1.595-1.742.436.022.845.22 1.133.548.289.328.433.758.4 1.194.037.437-.107.87-.397 1.2-.291.329-.704.524-1.142.541h.006zm16.457-7.479H59.63v8.438h1.262v-3.2h1.761c.981.07 1.919-.413 2.43-1.252.512-.84.512-1.894 0-2.734-.511-.84-1.449-1.322-2.43-1.252h-.006zm0 4.05h-1.762V8.361h1.789c.8 0 1.448.648 1.448 1.447 0 .8-.649 1.448-1.448 1.448l-.027-.02zm7.783-1.215c-.94-.056-1.823.45-2.248 1.29l1.12.465c.226-.416.676-.66 1.148-.621.323-.038.649.056.903.26.253.205.415.502.447.827v.088c-.406-.215-.858-.326-1.316-.324-1.209 0-2.43.675-2.43 1.896.024.527.26 1.02.654 1.37.394.35.913.525 1.438.487.647.046 1.269-.265 1.62-.81h.04v.675h1.216v-3.247c0-1.478-1.121-2.336-2.559-2.336l-.033-.02zm-.156 4.624c-.412 0-.985-.21-.985-.716 0-.675.715-.897 1.35-.897.4-.01.797.088 1.147.283-.087.756-.718 1.331-1.478 1.35l-.034-.02zm7.175-4.421l-1.444 3.658h-.04l-1.499-3.658h-1.35l2.248 5.116-1.283 2.842h1.316l3.456-7.958H77.45zm-11.346 5.4h1.262V7.186h-1.262v8.438zM25.933 2.286c.024.5-.16.988-.506 1.35-.387.402-.927.62-1.485.6-.855-.006-1.624-.525-1.95-1.317-.325-.791-.145-1.7.459-2.307.391-.4.931-.62 1.491-.608.286 0 .568.057.83.169.245.098.462.253.635.452l-.358.358c-.273-.325-.683-.503-1.107-.48-.426-.002-.834.17-1.131.476-.297.305-.456.719-.442 1.145-.009.643.37 1.229.961 1.484.59.255 1.277.13 1.74-.317.207-.225.327-.517.337-.823h-1.465v-.486h1.965c.018.1.027.202.026.304zM29.025.598h-1.822v1.283h1.66v.486h-1.66v1.282h1.822v.5h-2.362V.099h2.362v.499zm2.214 3.55h-.52V.599h-1.134v-.5H32.4v.5h-1.161v3.55zm3.146 0V.099h.52v4.05h-.52zm2.828 0h-.52V.599h-1.134v-.5h2.781v.5h-1.127v3.55zm6.399-.526c-.822.817-2.149.817-2.97 0-.797-.843-.797-2.16 0-3.004.393-.395.927-.618 1.485-.618.557 0 1.092.223 1.485.618.8.842.8 2.162 0 3.004zm-2.586-.337c.609.605 1.593.605 2.201 0 .598-.66.598-1.664 0-2.322-.608-.606-1.592-.606-2.2 0-.598.658-.598 1.663 0 2.322zm3.915.864V.099h.635l1.971 3.152V.099h.52v4.05h-.54L45.468.848v3.3h-.527z" transform="translate(8.1 5.4)"/>
                                <g>
                                    <path fill="url(#lkdi2zw0ka)" d="M.972.364c-.22.264-.331.602-.31.946v14.93c-.021.344.09.682.31.946l.047.047 8.364-8.357v-.195L1.018.316.972.364z" transform="translate(8.1 5.4) translate(0 .099)"/>
                                    <path fill="url(#8ou434ywxb)" d="M12.15 11.664L9.382 8.876v-.195l2.768-2.795.06.034 3.315 1.883c.945.533.945 1.41 0 1.95l-3.3 1.877-.075.034z" transform="translate(8.1 5.4) translate(0 .099)"/>
                                    <path fill="url(#sht5jhpr9c)" d="M12.231 11.623L9.383 8.776l-8.411 8.41c.397.35.987.367 1.404.041l9.862-5.602" transform="translate(8.1 5.4) translate(0 .099)"/>
                                    <path fill="url(#89abb9k11d)" d="M12.231 5.926L2.369.324C1.952-.002 1.363.015.965.364l8.417 8.411 2.849-2.849z" transform="translate(8.1 5.4) translate(0 .099)"/>
                                    <path fill="#000" d="M12.15 11.563L2.37 17.13c-.401.3-.95.3-1.35 0l-.048.048.047.047c.4.302.95.302 1.35 0l9.862-5.602-.081-.061z" opacity=".2" transform="translate(8.1 5.4) translate(0 .099)"/>
                                    <path fill="#000" d="M.972 17.091c-.22-.264-.331-.602-.31-.945v.101c-.021.343.09.681.31.945l.047-.047-.047-.054zm14.553-7.439l-3.375 1.91.06.062 3.315-1.877c.383-.18.64-.55.675-.972-.077.381-.326.705-.675.877z" opacity=".12" transform="translate(8.1 5.4) translate(0 .099)"/>
                                    <path fill="#FFF" d="M2.37.418l13.155 7.48c.349.172.598.496.675.877-.035-.421-.292-.792-.675-.972L2.369.324C1.424-.209.655.236.655 1.316v.101C.675.331 1.43-.115 2.369.418z" opacity=".25" transform="translate(8.1 5.4) translate(0 .099)"/>
                                </g>
                            </g>
                        </g>
                    </g>
                </g>
            </g>
        </g>
    </g>
</svg>
