<svg width="140" height="40" viewBox="0 0 140 40" fill="none" xmlns="http://www.w3.org/2000/svg">
<rect width="140" height="40" rx="6" fill="#212121"/>
<path fill-rule="evenodd" clip-rule="evenodd" d="M50.7399 23.206V25.0059H55.0599C54.9921 25.8538 54.6397 26.6537 54.0599 27.276C53.1859 28.1662 51.9764 28.6456 50.7299 28.596C48.0789 28.596 45.9299 26.4469 45.9299 23.7959C45.9299 21.145 48.0789 18.996 50.7299 18.996C51.9476 18.9761 53.1236 19.44 53.9999 20.286L55.2699 19.016C54.0748 17.8058 52.4406 17.1312 50.7399 17.146C48.3188 17.0517 46.0402 18.2896 44.8017 20.372C43.5632 22.4544 43.5632 25.0475 44.8017 27.1299C46.0402 29.2123 48.3188 30.4502 50.7399 30.356C52.4716 30.4342 54.1526 29.7596 55.3499 28.5059C56.3975 27.3549 56.9569 25.8417 56.9099 24.286C56.9131 23.9069 56.8796 23.5285 56.8099 23.156L50.7399 23.206ZM61.8299 21.896C59.484 21.9015 57.5862 23.8067 57.5899 26.1526C57.5935 28.4985 59.4973 30.3978 61.8432 30.3959C64.1891 30.3941 66.0898 28.4919 66.0899 26.146C66.1063 25.0103 65.6611 23.9167 64.8561 23.1155C64.0511 22.3142 62.9554 21.8741 61.8199 21.896H61.8299ZM66.9099 26.1592C66.9025 23.8146 68.7953 21.907 71.1399 21.896C72.2754 21.8741 73.3711 22.3142 74.1761 23.1155C74.9811 23.9167 75.4263 25.0103 75.4099 26.146C75.4098 28.4906 73.5111 30.3922 71.1665 30.3959C68.8219 30.3996 66.9172 28.5038 66.9099 26.1592ZM68.6319 27.2644C69.0885 28.2203 70.0831 28.7999 71.1399 28.726C71.8031 28.7106 72.4321 28.4279 72.884 27.9421C73.3359 27.4563 73.5724 26.8086 73.5399 26.146C73.5373 25.0866 72.8874 24.1365 71.901 23.75C70.9147 23.3636 69.7923 23.6193 69.0708 24.395C68.3493 25.1706 68.1752 26.3085 68.6319 27.2644ZM59.3152 27.272C59.7751 28.2273 60.7725 28.804 61.8299 28.726H61.8199C62.4831 28.7106 63.1121 28.4279 63.564 27.9421C64.0159 27.4563 64.2524 26.8086 64.2199 26.146C64.217 25.0858 63.5658 24.1352 62.5782 23.7496C61.5906 23.364 60.4677 23.6219 59.7472 24.3996C59.0267 25.1774 58.8553 26.3168 59.3152 27.272ZM92.4099 21.896C94.0678 21.957 95.5159 23.0352 96.0499 24.606L96.2599 25.056L90.5699 27.406C90.9265 28.2182 91.7434 28.7297 92.6299 28.696C93.4857 28.6981 94.2796 28.2499 94.7199 27.516L96.1699 28.516C95.3805 29.6974 94.0507 30.4036 92.6299 30.396C91.5004 30.4125 90.4128 29.9691 89.6169 29.1675C88.821 28.366 88.3853 27.2752 88.4099 26.146C88.3407 25.0425 88.7315 23.9596 89.4892 23.1545C90.247 22.3494 91.3042 21.8938 92.4099 21.896ZM90.2499 26.026C90.2089 25.4011 90.4212 24.7861 90.8388 24.3195C91.2565 23.853 91.8443 23.5742 92.4699 23.546C93.1292 23.5025 93.7509 23.8566 94.0499 24.446L90.2499 26.026ZM87.4999 30.146H85.6299V17.646H87.4999V30.146ZM82.5699 22.846H82.4999C81.9298 22.2086 81.1149 21.8448 80.2599 21.846C77.99 21.956 76.2062 23.8284 76.2062 26.101C76.2062 28.3735 77.99 30.2459 80.2599 30.3559C81.1177 30.3704 81.9379 30.0042 82.4999 29.356H82.5599V29.966C82.5599 31.596 81.6899 32.466 80.2899 32.466C79.3362 32.4436 78.4906 31.847 78.1499 30.9559L76.5199 31.636C77.1475 33.1628 78.6391 34.1558 80.2899 34.146C82.4799 34.146 84.2899 32.856 84.2899 29.716V22.146H82.5699V22.846ZM80.4268 28.7257L80.4299 28.726H80.4199L80.4268 28.7257ZM82.1118 27.9237C81.6827 28.4094 81.0741 28.6989 80.4268 28.7257C79.0912 28.6064 78.0672 27.4872 78.0672 26.146C78.0672 24.8037 79.0927 23.6838 80.4299 23.566C81.076 23.5991 81.6813 23.8917 82.1087 24.3774C82.5361 24.8632 82.7492 25.5009 82.6999 26.146C82.755 26.794 82.5425 27.4364 82.1118 27.9237ZM104.81 17.646H100.34V30.146H102.21V25.406H104.82C106.273 25.5103 107.662 24.7945 108.42 23.5509C109.178 22.3074 109.178 20.7445 108.42 19.501C107.662 18.2574 106.273 17.5416 104.82 17.646H104.81ZM102.2 23.646H104.81L104.85 23.676C106.035 23.676 106.995 22.7156 106.995 21.531C106.995 20.3463 106.035 19.386 104.85 19.386H102.2V23.646ZM116.34 21.846C114.949 21.7628 113.641 22.513 113.01 23.7559L114.67 24.446C115.004 23.8296 115.671 23.4688 116.37 23.5259C116.849 23.4699 117.331 23.6089 117.707 23.9117C118.083 24.2144 118.322 24.6555 118.37 25.136V25.266C117.769 24.9479 117.099 24.7831 116.42 24.786C114.63 24.786 112.82 25.7859 112.82 27.596C112.856 28.3757 113.205 29.1078 113.789 29.6257C114.373 30.1437 115.141 30.4035 115.92 30.346C116.879 30.4148 117.799 29.9547 118.32 29.146H118.38V30.146H120.18V25.3359C120.18 23.146 118.52 21.876 116.39 21.876L116.34 21.846ZM114.65 27.636C114.65 28.386 115.5 28.6959 116.11 28.6959L116.16 28.726C117.286 28.6985 118.221 27.8454 118.35 26.726C117.831 26.4363 117.244 26.2913 116.65 26.306C115.71 26.306 114.65 26.636 114.65 27.636ZM126.74 22.146L124.6 27.566H124.54L122.32 22.146H120.32L123.65 29.726L121.75 33.936H123.7L128.82 22.146H126.74ZM111.8 30.146H109.93V17.646H111.8V30.146Z" fill="white"/>
<path fill-rule="evenodd" clip-rule="evenodd" d="M72.2099 7.91597C71.0302 9.16473 71.0302 11.1172 72.2099 12.366C73.4269 13.5762 75.3929 13.5762 76.6099 12.366C77.7947 11.1192 77.7947 9.16273 76.6099 7.91597C76.0279 7.32971 75.236 7 74.4099 7C73.5838 7 72.7919 7.32971 72.2099 7.91597ZM49.6699 12.386C50.1832 11.8501 50.4543 11.1272 50.4199 10.386C50.42 10.2351 50.4066 10.0845 50.3799 9.93597H47.4699V10.656H49.6399C49.6251 11.1095 49.4476 11.5425 49.1399 11.876C48.4545 12.5385 47.4378 12.7236 46.5629 12.3452C45.6879 11.9668 45.1265 11.0992 45.1399 10.146C45.1181 9.51518 45.3543 8.90276 45.794 8.44991C46.2336 7.99705 46.8388 7.74287 47.4699 7.74597C48.0978 7.71166 48.7053 7.97464 49.1099 8.45597L49.6399 7.92597C49.3839 7.63152 49.0618 7.40192 48.6999 7.25597C48.3113 7.08964 47.8927 7.00456 47.4699 7.00597C46.6405 6.98748 45.8405 7.31329 45.2599 7.90597C44.3665 8.80529 44.0992 10.1526 44.5816 11.3249C45.0641 12.4972 46.2023 13.266 47.4699 13.276C48.2964 13.3054 49.0964 12.9818 49.6699 12.386ZM52.2999 7.88597H54.9999V7.14597H51.4999V13.146H54.9999V12.406H52.2999V10.506H54.7599V9.78597H52.2999V7.88597ZM58.2799 13.146H57.5099V7.88597H55.8299V7.14597H59.9999V7.88597H58.2799V13.146ZM63.7099 7.14597H62.9399V13.146H63.7099V7.14597ZM67.1299 13.146H66.3599V7.88597H64.6799V7.14597H68.7999V7.88597H67.1299V13.146ZM79.5199 7.14597H78.5799V13.146H79.3599V8.25597L82.4099 13.146H83.2099V7.14597H82.4399V11.816L79.5199 7.14597ZM72.7799 11.866C73.6812 12.7635 75.1386 12.7635 76.0399 11.866C76.9251 10.8901 76.9251 9.4018 76.0399 8.42597C75.1386 7.5284 73.6812 7.5284 72.7799 8.42597C71.8947 9.4018 71.8947 10.8901 72.7799 11.866Z" fill="white"/>
<path d="M13.4399 7.68597C13.114 8.07708 12.9495 8.57776 12.9799 9.08597V31.206C12.9495 31.7142 13.114 32.2149 13.4399 32.606L13.5099 32.676L25.8999 20.296V20.006L13.5099 7.61597L13.4399 7.68597Z" fill="url(#paint0_linear)"/>
<path d="M29.9999 24.426L25.8999 20.296V20.006L29.9999 15.866L30.0899 15.916L34.9999 18.706C36.3999 19.496 36.3999 20.796 34.9999 21.596L30.1099 24.376L29.9999 24.426Z" fill="url(#paint1_linear)"/>
<path d="M30.1199 24.366L25.8999 20.146L13.4399 32.606C14.0287 33.1235 14.9024 33.1487 15.5199 32.666L30.1299 24.366" fill="url(#paint2_linear)"/>
<path d="M30.1199 15.926L15.5099 7.62599C14.8924 7.14326 14.0186 7.16846 13.4299 7.68599L25.8999 20.146L30.1199 15.926Z" fill="url(#paint3_linear)"/>
<path opacity="0.2" d="M29.9999 24.276L15.5099 32.526C14.917 32.9693 14.1029 32.9693 13.5099 32.526L13.4399 32.596L13.5099 32.666C14.1018 33.1127 14.9181 33.1127 15.5099 32.666L30.1199 24.366L29.9999 24.276Z" fill="#212121"/>
<path opacity="0.12" fill-rule="evenodd" clip-rule="evenodd" d="M29.9999 24.276L34.9999 21.446C35.5166 21.191 35.8859 20.7108 35.9999 20.146C35.9484 20.7704 35.567 21.3196 34.9999 21.586L30.0899 24.366L29.9999 24.276ZM12.9777 31.2607C12.9942 31.7006 13.1557 32.125 13.4399 32.466L13.5099 32.546L13.4399 32.616C13.1235 32.2364 12.9592 31.7535 12.9777 31.2607ZM12.9777 31.2607C12.9783 31.2458 12.979 31.2309 12.9799 31.216V31.066C12.976 31.1311 12.9753 31.196 12.9777 31.2607Z" fill="#212121"/>
<path opacity="0.25" d="M15.51 7.76599L35 18.846C35.5167 19.101 35.886 19.5812 36 20.146C35.9484 19.5216 35.567 18.9724 35 18.706L15.51 7.62599C14.11 6.83599 12.97 7.49599 12.97 9.09599V9.24599C13 7.63599 14.12 6.97599 15.51 7.76599Z" fill="white"/>
<defs>
<linearGradient id="paint0_linear" x1="20.4731" y1="-7.41301" x2="0.633706" y2="-2.13667" gradientUnits="userSpaceOnUse">
<stop stop-color="#00A0FF"/>
<stop offset="0.01" stop-color="#00A1FF"/>
<stop offset="0.26" stop-color="#00BEFF"/>
<stop offset="0.51" stop-color="#00D2FF"/>
<stop offset="0.76" stop-color="#00DFFF"/>
<stop offset="1" stop-color="#00E3FF"/>
</linearGradient>
<linearGradient id="paint1_linear" x1="36.8299" y1="9.94565" x2="12.6399" y2="9.94565" gradientUnits="userSpaceOnUse">
<stop stop-color="#FFE000"/>
<stop offset="0.41" stop-color="#FFBD00"/>
<stop offset="0.78" stop-color="#FFA500"/>
<stop offset="1" stop-color="#FF9C00"/>
</linearGradient>
<linearGradient id="paint2_linear" x1="13.0738" y1="13.6735" x2="-2.86261" y2="40.4801" gradientUnits="userSpaceOnUse">
<stop stop-color="#FF3A44"/>
<stop offset="1" stop-color="#C31162"/>
</linearGradient>
<linearGradient id="paint3_linear" x1="3.70995" y1="4.24199" x2="10.8232" y2="16.2125" gradientUnits="userSpaceOnUse">
<stop stop-color="#32A071"/>
<stop offset="0.07" stop-color="#2DA771"/>
<stop offset="0.48" stop-color="#15CF74"/>
<stop offset="0.8" stop-color="#06E775"/>
<stop offset="1" stop-color="#00F076"/>
</linearGradient>
</defs>
</svg>
