<svg xmlns="http://www.w3.org/2000/svg" width="88" height="73" viewBox="0 0 88 73">
    <path fill="#D9D9D9" d="M84.961.094c1.657 0 3 1.344 3 3v66c0 1.657-1.343 3-3 3h-6c-1.657 0-3-1.343-3-3v-66c0-1.656 1.343-3 3-3h6zm-15 18c1.657 0 3 1.344 3 3v48c0 1.657-1.343 3-3 3h-6c-1.657 0-3-1.343-3-3v-48c0-1.656 1.343-3 3-3h6zm-15 18c1.657 0 3 1.344 3 3v30c0 1.657-1.343 3-3 3h-6c-1.657 0-3-1.343-3-3v-30c0-1.656 1.343-3 3-3h6zm-15 12c1.657 0 3 1.344 3 3v18c0 1.657-1.343 3-3 3h-6c-1.657 0-3-1.343-3-3v-18c0-1.656 1.343-3 3-3h6zm-15 9c1.657 0 3 1.344 3 3v9c0 1.657-1.343 3-3 3h-6c-1.657 0-3-1.343-3-3v-9c0-1.656 1.343-3 3-3h6zm-15 6c1.657 0 3 1.344 3 3v3c0 1.657-1.343 3-3 3h-6c-1.657 0-3-1.343-3-3v-3c0-1.656 1.343-3 3-3h6z"/>
</svg>
