<svg xmlns="http://www.w3.org/2000/svg" width="24" height="24" viewBox="0 0 24 24">
    <g fill="none" fill-rule="evenodd">
        <g fill="#007AFF" fill-rule="nonzero">
            <path d="M2.465 12.573c1.277 1.335 1.98 3.04 1.98 4.805v.363c0 .039.002.078.01.118.002.006.006.01.007.016.012.046.029.087.052.128.006.007.008.017.013.023.027.04.06.076.096.107l.02.017c.04.03.082.053.13.071.004.003.01.004.015.006.05.017.103.028.157.028.04 0 .08-.006.118-.015l5.823-1.265.013-.004c.02-.005.039-.011.058-.02l.035-.013c.019-.008.034-.019.051-.03.01-.006.022-.012.033-.02l.044-.038.026-.024c.014-.016.026-.032.038-.049l.02-.027c.01-.017.019-.035.027-.053l.015-.034c.007-.017.01-.035.016-.054.004-.014.008-.028.01-.043 0-.006.003-.011.003-.018.18-1.46.854-2.864 1.9-3.95 1.342-1.386 2.082-3.214 2.082-5.145 0-2.06-.824-3.975-2.32-5.392C11.441.646 9.485-.072 7.418.04 3.53.25.45 3.471.405 7.372c-.017 1.948.714 3.796 2.06 5.2v.001zM7.477 1.039c1.785-.096 3.481.523 4.774 1.749 1.296 1.226 2.008 2.882 2.008 4.665 0 1.67-.64 3.25-1.802 4.45-1.11 1.154-1.849 2.622-2.115 4.167l-4.909 1.065c-.06-1.936-.848-3.794-2.246-5.254-1.165-1.216-1.796-2.813-1.78-4.498.038-3.377 2.704-6.163 6.07-6.344z" transform="translate(4)"/>
            <path d="M7.333 9.073v6.19c0 .276.224.5.5.5s.5-.224.5-.5v-6.19l1.808-1.807c.195-.196.195-.512 0-.707-.196-.196-.512-.196-.707 0l-1.6 1.6-1.6-1.6c-.196-.196-.513-.196-.708 0-.195.195-.195.511 0 .707l1.807 1.807zM10.646 17.908L4.81 19.175c-.27.058-.441.325-.383.595.051.234.258.394.488.394.036 0 .07-.004.107-.012l5.836-1.266c.27-.059.442-.326.383-.596-.06-.27-.325-.442-.595-.382zM11.268 20.198c-.058-.27-.325-.441-.595-.383l-5.836 1.267c-.27.059-.441.326-.383.595.051.235.258.395.489.395.035 0 .07-.004.107-.012l5.836-1.267c.27-.059.44-.325.382-.595zM10.107 22.01c.036-.273-.157-.524-.431-.56-.274-.036-.525.155-.562.43-.083.638-.635 1.12-1.282 1.12-.345 0-.672-.135-.918-.382-.07-.07-.128-.143-.173-.217-.142-.237-.45-.314-.686-.172-.237.142-.314.45-.172.686.087.145.195.283.323.41.436.435 1.013.675 1.626.675 1.147 0 2.126-.856 2.275-1.99z" transform="translate(4)"/>
        </g>
    </g>
</svg>
