<svg width="192" height="192" viewBox="0 0 192 192" fill="none" xmlns="http://www.w3.org/2000/svg">
<path d="M99.6364 15.2727C100.031 17.4327 100.449 19.616 100.844 21.776C100.867 21.9622 102.889 22.3105 103.121 22.3571C103.329 22.4036 105.374 22.728 105.396 22.8909C105.002 20.7309 104.584 18.5476 104.189 16.3876C104.166 16.2014 102.145 15.8531 101.913 15.8073C101.681 15.7607 99.6596 15.4356 99.6364 15.2727Z" fill="#AC5DD9"/>
<path d="M176.727 25.4546V31.5397C176.727 31.7724 180.188 31.9811 180.188 32.1666V26.0815C180.188 25.8488 176.727 25.64 176.727 25.4546Z" fill="#FF5C5C"/>
<path d="M166.609 67.7018C171.162 67.632 175.69 67.5389 180.243 67.4698C180.499 67.4698 180.197 62.5454 180.29 62.5454C175.738 62.6152 171.208 62.7076 166.655 62.7774C166.4 62.7774 166.679 67.7018 166.609 67.7018Z" fill="#0063F7"/>
<path d="M133.999 183.291C132.342 180.673 133.763 177.542 135.95 175.721C136.489 175.277 137.098 174.876 137.725 174.57C138.043 174.427 138.36 174.284 138.697 174.184C138.94 174.101 139.181 174.069 139.433 174.008C136.004 174.934 136.861 174.346 138.037 174.302C139.922 174.247 141.779 174.585 143.613 174.985C147.146 175.767 150.559 176.681 154.229 176.181C157.543 175.739 161.228 175.384 163.258 172.361C166.339 167.824 163.815 161.625 166.762 157.07C167.618 155.744 168.905 154.811 170.394 154.271C170.806 154.112 171.216 154.004 171.626 153.897C173.369 153.472 171.284 153.872 171.032 153.934C171.284 153.872 171.565 153.873 171.806 153.842C172.746 153.726 173.677 153.588 174.629 153.441C178.061 152.921 181.359 152.384 183.822 149.702C190.11 142.835 186.644 133.062 183.611 125.615C183.487 125.339 180.231 126.366 180.136 126.155C182.925 132.998 185.953 141.058 181.924 148.083C181.094 149.524 179.979 150.839 178.619 151.78C177.955 152.23 177.253 152.596 176.493 152.886C176.017 153.074 175.544 153.21 175.061 153.324C174.787 153.396 173.552 153.593 174.963 153.393C176.303 153.2 175.299 153.345 175.006 153.374C173.135 153.628 171.284 153.872 169.42 154.199C167.795 154.494 166.165 154.945 164.833 155.949C160.332 159.42 162.384 166.211 160.769 170.957C160.296 172.34 159.505 173.586 158.364 174.504C157.708 175.028 156.952 175.443 156.161 175.722C155.749 175.881 153.819 176.288 155.567 175.987C157.295 175.697 155.249 175.902 154.803 175.872C151.034 175.754 147.497 174.337 143.771 173.921C141.868 173.705 140.038 173.939 138.155 174.225C136.46 174.474 134.838 174.718 133.374 175.655C130.725 177.352 128.725 180.896 130.586 183.854C130.664 183.971 132.143 183.639 132.333 183.606C132.428 183.537 133.952 183.185 133.999 183.291Z" fill="#FFCC00"/>
<path d="M34.2393 4.52306C38.8801 6.98124 42.8524 11.7405 42.2233 17.2656C41.9477 19.7042 40.827 22.1034 38.9193 23.6765C38.0343 24.4045 37.0124 24.9747 35.891 25.2307C35.7724 25.2496 35.6546 25.2692 35.5368 25.3085C34.7106 25.5449 36.7957 25.2692 36.8153 25.2896C36.6183 25.2103 36.3041 25.2496 36.0873 25.2103C35.5172 25.1318 34.9666 24.9747 34.4364 24.7783C32.1746 23.9129 30.3652 22.0641 29.9913 19.6452C29.0081 19.6852 28.0052 19.7238 27.0226 19.7638C33.4328 20.7071 38.5455 26.174 39.8037 32.4271C41.1412 39.094 37.4052 45.3667 31.4073 48.2772C29.795 49.0634 28.0641 49.5951 26.2946 49.8103C25.9804 49.8503 24.6233 49.9296 26.3928 49.8503C28.1033 49.7718 26.7863 49.8103 26.3535 49.7718C25.8815 49.7325 25.4292 49.6925 24.9768 49.6147C24.0532 49.4569 23.1484 49.2016 22.283 48.8671C21.4372 48.9063 20.5921 48.9456 19.7463 48.9856H20.0015H19.5695C21.9681 49.0831 23.6008 51.3841 23.7972 53.6263C24.0728 56.7136 21.7128 59.3485 19.5295 61.1972C17.0524 63.3005 13.9455 65.0707 12.451 68.0991C11.3303 70.3601 11.2117 73.2911 13.0801 75.1783C13.2372 75.3354 14.3383 75.1391 14.5746 75.1391C14.7906 75.1391 15.9113 74.9027 16.0495 75.0605C14.1223 73.1136 14.299 70.0263 15.5383 67.7456C17.2095 64.6583 20.4735 62.9274 23.011 60.646C25.1739 58.6991 27.3564 55.8874 26.6488 52.7805C26.0983 50.3812 24.3084 48.8278 21.8699 48.9063C21.339 48.9267 20.7884 48.9456 20.2575 48.9652C20.0415 48.9856 19.5499 49.1034 19.3528 49.0241C22.5979 50.2831 26.4124 50.2045 29.8146 49.654C33.3543 49.0831 36.6975 47.3529 39.1746 44.7572C44.2873 39.4278 44.131 31.4241 39.7848 25.6627C37.4052 22.5165 33.9637 20.2554 30.0313 19.6649C29.7361 19.6263 27.0612 19.8416 27.0612 19.7827C27.8874 25.1907 34.2197 26.0561 38.6444 25.1907C44.5237 24.0307 46.4699 16.6758 44.3666 11.7602C42.9899 8.53542 40.2764 6.03724 37.2277 4.42488C36.9332 4.26706 36.0873 4.46415 35.7339 4.46415C35.3797 4.46415 34.5339 4.68088 34.2393 4.52306Z" fill="#AC5DD9"/>
<path d="M176.913 100.692C178.98 101.853 181.372 101.9 183.486 100.855C183.649 100.785 183.416 98.7404 183.416 98.5084C183.416 98.2764 183.161 96.232 183.3 96.1622C181.187 97.208 178.794 97.1382 176.727 96C176.89 96.0931 176.797 98.0902 176.797 98.3455C176.797 98.6473 176.657 100.553 176.913 100.692Z" fill="#FF5C5C"/>
<path d="M112.793 167.204C112.073 170.062 110.238 172.431 107.636 173.825C107.823 173.732 109.472 174.753 109.727 174.892C110.006 175.032 111.562 176.054 111.84 175.915C114.442 174.521 116.277 172.152 116.996 169.295C117.066 168.923 112.7 167.506 112.793 167.204Z" fill="#0063F7"/>
<path d="M171.636 172.12C173.031 173.374 174.447 174.627 175.841 175.859C175.98 175.975 177.769 175.022 177.977 174.907C178.187 174.814 179.975 173.815 180.091 173.931C178.697 172.677 177.281 171.422 175.887 170.192C175.748 170.075 173.959 171.027 173.75 171.144C173.541 171.237 171.753 172.235 171.636 172.12Z" fill="#FFCC00"/>
<path d="M163.637 120.18C164.218 122.364 165.936 124.013 168.143 124.477C168.19 124.477 168.724 123.989 168.677 124.036C169.096 123.664 169.514 123.316 169.931 122.944C170.349 122.572 170.768 122.225 171.163 121.852C171.232 121.783 171.604 121.365 171.674 121.388C169.467 120.923 167.748 119.252 167.168 117.091C167.214 117.23 165.565 118.484 165.402 118.624C165.194 118.787 163.591 119.948 163.637 120.18Z" fill="#3CC196"/>
<path d="M158.546 9.43491C158.727 10.8582 159.474 12.0887 160.644 12.9207C160.705 12.9687 161.549 12.2815 161.634 12.2087C161.718 12.1491 162.562 11.4495 162.61 11.4858C161.44 10.6655 160.692 9.42255 160.511 8C160.524 8.08436 159.62 8.63927 159.523 8.71127C159.402 8.79564 158.533 9.30255 158.546 9.43491Z" fill="#3CC196"/>
<path d="M61.2673 184.652C64.0775 184.537 66.8884 184.42 69.6986 184.304C69.8608 184.304 69.6753 177.29 69.7219 177.29C66.9117 177.406 64.1008 177.522 61.2906 177.638C61.1284 177.638 61.3139 184.652 61.2673 184.652Z" fill="#FFCC00"/>
<path d="M20.8664 142.806C20.9595 144.826 21.0526 146.871 21.1449 148.891C21.1449 149.077 25.814 149.007 25.814 149.124C25.7209 147.103 25.6279 145.059 25.5348 143.038C25.5348 142.876 20.8664 142.921 20.8664 142.806Z" fill="#3CC196"/>
<path d="M8.76553 120.012C10.5074 120.708 12.2499 121.428 14.015 122.125C13.9452 122.102 14.1074 120.523 14.1074 120.383C14.1074 120.22 14.2935 118.688 14.1772 118.642C12.4353 117.945 10.6935 117.225 8.92844 116.528C8.99753 116.551 8.83535 118.13 8.83535 118.269C8.83535 118.432 8.64917 119.966 8.76553 120.012Z" fill="#AC5DD9"/>
<path d="M57.3178 24.9644C57.112 27.3738 56.9287 29.7789 56.7273 32.2109C56.7367 32.1382 58.8225 31.7927 59.0276 31.752C59.2327 31.7113 61.3011 31.3927 61.3193 31.2473C61.5251 28.8378 61.7084 26.4327 61.9091 24C61.9004 24.0727 59.8145 24.4189 59.6087 24.4596C59.3767 24.4822 57.3084 24.8 57.3178 24.9644Z" fill="#FFCC00"/>
<path d="M81.4979 12.6451C83.5416 13.5513 85.5859 14.4335 87.6296 15.3396C87.5597 15.3164 87.8616 13.2029 87.8616 13.0167C87.8848 12.808 88.2099 10.7644 88.0477 10.6938C86.0041 9.78836 83.9597 8.90545 81.9161 8C81.9852 8.02327 81.6834 10.1367 81.6834 10.3229C81.6834 10.5316 81.335 12.5753 81.4979 12.6451Z" fill="#3CC196"/>
<path d="M152.587 38.416H157.255C157.371 38.416 157.44 34.9091 157.488 34.9091H152.819C152.726 34.9091 152.632 38.416 152.587 38.416Z" fill="#AC5DD9"/>
</svg>
