<svg xmlns="http://www.w3.org/2000/svg" width="87" height="87" viewBox="0 0 87 87">
    <g fill="none" fill-rule="evenodd">
        <circle cx="43.5" cy="43.5" r="43.5" fill="#FF5C5C"/>
        <path fill="#FFF" d="M37.056 40.111h12.888v-4.833c0-1.78-.629-3.298-1.888-4.557-1.258-1.258-2.777-1.888-4.556-1.888s-3.298.63-4.556 1.888c-1.26 1.259-1.888 2.778-1.888 4.557v4.833zM58 42.528v14.5a2.33 2.33 0 0 1-.705 1.712 2.33 2.33 0 0 1-1.712.704H31.417a2.33 2.33 0 0 1-1.712-.704A2.33 2.33 0 0 1 29 57.028v-14.5c0-.672.235-1.242.705-1.712a2.33 2.33 0 0 1 1.712-.705h.805v-4.833c0-3.088 1.108-5.74 3.323-7.955S40.412 24 43.5 24s5.74 1.108 7.955 3.323 3.323 4.867 3.323 7.955v4.833h.805a2.33 2.33 0 0 1 1.712.705c.47.47.705 1.04.705 1.712z"/>
    </g>
</svg>
