<svg width="24" height="24" viewBox="0 0 24 24" fill="none" xmlns="http://www.w3.org/2000/svg">
<path d="M0 12C0 5.37258 5.37258 0 12 0C18.6274 0 24 5.37258 24 12C24 18.6274 18.6274 24 12 24C5.37258 24 0 18.6274 0 12Z" fill="#536DFE"/>
<path fill-rule="evenodd" clip-rule="evenodd" d="M15.3015 10.8828H15.6306L15.6307 10.8828C16.2452 10.8828 16.7452 11.3802 16.7452 11.9948V16.8823C16.7468 17.4974 16.2479 17.9958 15.6333 17.9958L8.7026 18C8.08802 18 7.58802 17.501 7.58802 16.8864V12C7.58644 11.3855 8.0854 10.887 8.69999 10.8855L8.81718 10.8849L8.81457 9.24373C8.81351 7.45627 10.2682 6.00156 12.0562 6C13.8436 5.99853 15.2983 7.4532 15.2999 9.2412L15.3015 10.8828ZM10.0092 9.24421L10.0118 10.8854L14.1066 10.8829L14.104 9.24167C14.104 8.11349 13.1853 7.19474 12.0562 7.19474C10.9264 7.19634 10.0092 8.11503 10.0092 9.24421Z" fill="white"/>
</svg>
