<svg width="113" height="32" viewBox="0 0 113 32" fill="none" xmlns="http://www.w3.org/2000/svg">
<g filter="url(#filter0_d)">
<path d="M15.9454 30.9189L15.2872 30.6529C9.72889 28.5573 5.90074 25.0773 3.57467 20.6182C2.36017 18.2899 1.61723 15.8114 1.25475 13.2957C1.00568 11.5671 0.961256 10.0284 1.03551 8.78563C1.04206 8.67601 1.04915 8.57817 1.05641 8.49232C1.06117 8.43611 1.0646 8.40038 1.06828 8.36496L1.22468 7.09828L2.05879 6.88445L2.42749 6.78995C6.19776 5.80492 9.26097 4.63051 11.677 3.37032C12.5426 2.91881 13.2693 2.48433 13.8638 2.08026C14.0818 1.93212 14.2696 1.79631 14.4277 1.67489C14.5352 1.59227 14.6161 1.52623 14.6633 1.48511C15.4 0.840581 16.4831 0.838869 17.2216 1.47998C17.2777 1.52797 17.3575 1.59268 17.4635 1.674C17.6229 1.79616 17.811 1.93202 18.029 2.0801C18.6247 2.48477 19.351 2.91906 20.216 3.3704C22.6318 4.63089 25.6935 5.80504 29.4577 6.78849L30.6661 7.09828L30.8213 8.35266C30.8262 8.40038 30.8297 8.43611 30.8344 8.49232C30.8417 8.57817 30.8488 8.67601 30.8553 8.78563C30.9296 10.0284 30.8851 11.5671 30.6361 13.2957C30.2736 15.8114 29.5306 18.2899 28.3162 20.6182C25.9901 25.0773 22.1619 28.5573 16.6036 30.6529L15.9454 30.9189Z" fill="white"/>
</g>
<mask id="mask0" mask-type="alpha" maskUnits="userSpaceOnUse" x="1" y="1" width="30" height="30">
<path d="M15.9454 30.9189L15.2872 30.6529C9.72889 28.5573 5.90074 25.0773 3.57467 20.6182C2.36017 18.2899 1.61723 15.8114 1.25475 13.2957C1.00568 11.5671 0.961256 10.0284 1.03551 8.78563C1.04206 8.67601 1.04915 8.57817 1.05641 8.49232C1.06117 8.43611 1.0646 8.40038 1.06828 8.36496L1.22468 7.09828L2.05879 6.88445L2.42749 6.78995C6.19776 5.80492 9.26097 4.63051 11.677 3.37032C12.5426 2.91881 13.2693 2.48433 13.8638 2.08026C14.0818 1.93212 14.2696 1.79631 14.4277 1.67489C14.5352 1.59227 14.6161 1.52623 14.6633 1.48511C15.4 0.840581 16.4831 0.838869 17.2216 1.47998C17.2777 1.52797 17.3575 1.59268 17.4635 1.674C17.6229 1.79616 17.811 1.93202 18.029 2.0801C18.6247 2.48477 19.351 2.91906 20.216 3.3704C22.6318 4.63089 25.6935 5.80504 29.4577 6.78849L30.6661 7.09828L30.8213 8.35266C30.8262 8.40038 30.8297 8.43611 30.8344 8.49232C30.8417 8.57817 30.8488 8.67601 30.8553 8.78563C30.9296 10.0284 30.8851 11.5671 30.6361 13.2957C30.2736 15.8114 29.5306 18.2899 28.3162 20.6182C25.9901 25.0773 22.1619 28.5573 16.6036 30.6529L15.9454 30.9189Z" fill="white"/>
</mask>
<g mask="url(#mask0)">
<path fill-rule="evenodd" clip-rule="evenodd" d="M15.9728 29.543L29.5958 8.11603L43.5826 18.52L26.2264 36.9643L15.9728 29.543Z" fill="url(#paint0_linear)"/>
</g>
<path d="M29.5658 8.49491C29.5818 8.64951 31.1861 23.8169 16.1433 29.4787L15.9454 29.5586L15.7475 29.4787C0.704678 23.8169 2.30896 8.64951 2.32501 8.49491L2.37313 8.10573L2.74747 8.00976C11.5015 5.72266 15.1165 2.76382 15.4962 2.43329C15.7582 2.20404 16.1326 2.20404 16.3946 2.43329C16.7796 2.76382 20.3893 5.72266 29.1433 8.00976L29.5176 8.10573L29.5658 8.49491Z" fill="#FF5252"/>
<mask id="mask1" mask-type="alpha" maskUnits="userSpaceOnUse" x="2" y="2" width="28" height="28">
<path d="M29.5658 8.49491C29.5818 8.64951 31.1861 23.8169 16.1433 29.4787L15.9454 29.5586L15.7475 29.4787C0.704678 23.8169 2.30896 8.64951 2.32501 8.49491L2.37313 8.10573L2.74747 8.00976C11.5015 5.72266 15.1165 2.76382 15.4962 2.43329C15.7582 2.20404 16.1326 2.20404 16.3946 2.43329C16.7796 2.76382 20.3893 5.72266 29.1433 8.00976L29.5176 8.10573L29.5658 8.49491Z" fill="white"/>
</mask>
<g mask="url(#mask1)">
<path fill-rule="evenodd" clip-rule="evenodd" d="M20.226 20.3914C22.7578 17.8595 22.7621 13.7589 20.2355 11.2324C20.1874 11.1842 20.1387 11.137 20.0894 11.0907L20.1887 10.9914L30.4617 21.2645L21.253 30.4732L11.8464 21.0666C14.3768 22.9027 17.9405 22.6768 20.226 20.3914Z" fill="url(#paint1_linear)"/>
<path fill-rule="evenodd" clip-rule="evenodd" d="M29.7589 1.921V29.5587H15.9113C15.9113 29.5587 16.0067 17.0583 15.9113 1.921C15.9054 0.990379 29.7589 1.921 29.7589 1.921Z" fill="url(#paint2_linear)"/>
</g>
<g filter="url(#filter1_d)">
<path fill-rule="evenodd" clip-rule="evenodd" d="M20.5451 11.3838C21.7888 12.6057 22.46 14.2414 22.46 15.9756C22.46 17.7099 21.7888 19.3456 20.5451 20.5674C19.2817 21.8484 17.6234 22.4791 15.9454 22.4791C14.2872 22.4791 12.6092 21.8484 11.3458 20.5674C10.1021 19.3456 9.43092 17.7099 9.43092 15.9756C9.43092 14.2414 10.1021 12.6057 11.3458 11.3838C13.8726 8.84155 18.0182 8.84155 20.5451 11.3838ZM19.4396 19.4638C20.3674 18.5375 20.8806 17.296 20.8806 15.9756C20.8806 14.9311 20.545 13.926 19.9528 13.0983L13.0632 19.9762C13.8923 20.5674 14.8991 20.9024 15.9454 20.9024C17.268 20.9024 18.5117 20.39 19.4396 19.4638ZM18.8276 11.975L11.938 18.8529C11.3458 18.0252 11.0102 17.0201 11.0102 15.9756C11.0102 14.6552 11.5234 13.4137 12.4513 12.4874C13.3791 11.5612 14.6228 11.0488 15.9454 11.0488C16.9917 11.0488 17.9985 11.3838 18.8276 11.975Z" fill="url(#paint3_linear)"/>
</g>
<path d="M40 22.0654V10.429H44.6591C45.5152 10.429 46.2292 10.5559 46.8011 10.8097C47.3731 11.0635 47.803 11.4157 48.0909 11.8665C48.3788 12.3135 48.5227 12.8286 48.5227 13.4119C48.5227 13.8665 48.4318 14.2661 48.25 14.6108C48.0682 14.9517 47.8182 15.232 47.5 15.4517C47.1856 15.6676 46.8258 15.821 46.4205 15.9119V16.0256C46.8636 16.0445 47.2784 16.1695 47.6648 16.4006C48.0549 16.6316 48.3712 16.9555 48.6136 17.3722C48.8561 17.7851 48.9773 18.2775 48.9773 18.8494C48.9773 19.4669 48.8239 20.018 48.517 20.5029C48.214 20.9839 47.7652 21.3646 47.1705 21.6449C46.5758 21.9252 45.8428 22.0654 44.9716 22.0654H40ZM42.4602 20.054H44.4659C45.1515 20.054 45.6515 19.9233 45.9659 19.6619C46.2803 19.3968 46.4375 19.0445 46.4375 18.6051C46.4375 18.2832 46.3598 17.9991 46.2045 17.7529C46.0492 17.5066 45.8277 17.3135 45.5398 17.1733C45.2557 17.0332 44.9167 16.9631 44.5227 16.9631H42.4602V20.054ZM42.4602 15.2983H44.2841C44.6212 15.2983 44.9205 15.2396 45.1818 15.1222C45.447 15.001 45.6553 14.8305 45.8068 14.6108C45.9621 14.3911 46.0398 14.1279 46.0398 13.821C46.0398 13.4006 45.8902 13.0616 45.5909 12.804C45.2955 12.5464 44.875 12.4176 44.3295 12.4176H42.4602V15.2983Z" fill="#212121"/>
<path d="M52.9531 10.429V22.0654H50.5327V10.429H52.9531Z" fill="#212121"/>
<path d="M58.8352 22.2358C57.9527 22.2358 57.1894 22.0483 56.5455 21.6733C55.9053 21.2945 55.411 20.768 55.0625 20.0938C54.714 19.4157 54.5398 18.6298 54.5398 17.7358C54.5398 16.8343 54.714 16.0464 55.0625 15.3722C55.411 14.6941 55.9053 14.1676 56.5455 13.7926C57.1894 13.4138 57.9527 13.2244 58.8352 13.2244C59.7178 13.2244 60.4792 13.4138 61.1193 13.7926C61.7633 14.1676 62.2595 14.6941 62.608 15.3722C62.9564 16.0464 63.1307 16.8343 63.1307 17.7358C63.1307 18.6298 62.9564 19.4157 62.608 20.0938C62.2595 20.768 61.7633 21.2945 61.1193 21.6733C60.4792 22.0483 59.7178 22.2358 58.8352 22.2358ZM58.8466 20.3608C59.2481 20.3608 59.5833 20.2472 59.8523 20.0199C60.1212 19.7888 60.3239 19.4744 60.4602 19.0767C60.6004 18.679 60.6705 18.2263 60.6705 17.7188C60.6705 17.2112 60.6004 16.7585 60.4602 16.3608C60.3239 15.9631 60.1212 15.6487 59.8523 15.4176C59.5833 15.1866 59.2481 15.071 58.8466 15.071C58.4413 15.071 58.1004 15.1866 57.8239 15.4176C57.5511 15.6487 57.3447 15.9631 57.2045 16.3608C57.0682 16.7585 57 17.2112 57 17.7188C57 18.2263 57.0682 18.679 57.2045 19.0767C57.3447 19.4744 57.5511 19.7888 57.8239 20.0199C58.1004 20.2472 58.4413 20.3608 58.8466 20.3608Z" fill="#212121"/>
<path d="M68.6477 22.2358C67.7538 22.2358 66.9848 22.0464 66.3409 21.6676C65.7008 21.2851 65.2083 20.7548 64.8636 20.0767C64.5227 19.3987 64.3523 18.6184 64.3523 17.7358C64.3523 16.8419 64.5246 16.0578 64.8693 15.3835C65.2178 14.7055 65.7121 14.1771 66.3523 13.7983C66.9924 13.4157 67.7538 13.2244 68.6364 13.2244C69.3977 13.2244 70.0644 13.3627 70.6364 13.6392C71.2083 13.9157 71.661 14.304 71.9943 14.804C72.3277 15.304 72.5114 15.8911 72.5455 16.5654H70.2614C70.197 16.1298 70.0265 15.7794 69.75 15.5142C69.4773 15.2453 69.1193 15.1108 68.6761 15.1108C68.3011 15.1108 67.9735 15.2131 67.6932 15.4176C67.4167 15.6184 67.2008 15.9119 67.0455 16.2983C66.8902 16.6847 66.8125 17.1525 66.8125 17.7017C66.8125 18.2585 66.8883 18.732 67.0398 19.1222C67.1951 19.5123 67.4129 19.8097 67.6932 20.0142C67.9735 20.2188 68.3011 20.321 68.6761 20.321C68.9527 20.321 69.2008 20.2642 69.4205 20.1506C69.6439 20.037 69.8277 19.8722 69.9716 19.6563C70.1193 19.4366 70.2159 19.1733 70.2614 18.8665H72.5455C72.5076 19.5332 72.3258 20.1203 72 20.6279C71.678 21.1316 71.233 21.5256 70.6648 21.8097C70.0966 22.0938 69.4242 22.2358 68.6477 22.2358Z" fill="#212121"/>
<path d="M76.2884 19.554L76.294 16.6506H76.6463L79.4418 13.3381H82.2202L78.4645 17.7244H77.8906L76.2884 19.554ZM74.0952 22.0654V10.429H76.5156V22.0654H74.0952ZM79.5497 22.0654L76.9815 18.2642L78.5952 16.554L82.3849 22.0654H79.5497Z" fill="#212121"/>
<path d="M89.7656 13.7756C89.7202 13.3173 89.5251 12.9612 89.1804 12.7074C88.8357 12.4536 88.3679 12.3267 87.777 12.3267C87.3755 12.3267 87.0365 12.3835 86.7599 12.4972C86.4834 12.607 86.2713 12.7604 86.1236 12.9574C85.9796 13.1544 85.9077 13.3779 85.9077 13.6279C85.9001 13.8362 85.9437 14.018 86.0384 14.1733C86.1368 14.3286 86.2713 14.4631 86.4418 14.5767C86.6122 14.6866 86.8092 14.7832 87.0327 14.8665C87.2562 14.946 87.4948 15.0142 87.7486 15.071L88.794 15.321C89.3016 15.4347 89.7675 15.5862 90.1918 15.7756C90.616 15.965 90.9834 16.1979 91.294 16.4744C91.6046 16.751 91.8452 17.0767 92.0156 17.4517C92.1899 17.8267 92.2789 18.2566 92.2827 18.7415C92.2789 19.4536 92.0971 20.071 91.7372 20.5938C91.3812 21.1127 90.866 21.5161 90.1918 21.804C89.5213 22.0881 88.7126 22.2301 87.7656 22.2301C86.8262 22.2301 86.008 22.0862 85.3111 21.7983C84.6179 21.5104 84.0762 21.0843 83.6861 20.5199C83.2997 19.9517 83.0971 19.2491 83.0781 18.4119H85.4588C85.4853 18.8021 85.5971 19.1279 85.794 19.3892C85.9948 19.6468 86.2618 19.8419 86.5952 19.9744C86.9323 20.1032 87.313 20.1676 87.7372 20.1676C88.1539 20.1676 88.5156 20.107 88.8224 19.9858C89.133 19.8646 89.3736 19.696 89.544 19.4801C89.7145 19.2642 89.7997 19.0161 89.7997 18.7358C89.7997 18.4744 89.7221 18.2548 89.5668 18.0767C89.4152 17.8987 89.1918 17.7472 88.8963 17.6222C88.6046 17.4972 88.2467 17.3835 87.8224 17.2813L86.5554 16.9631C85.5743 16.7244 84.7997 16.3513 84.2315 15.8438C83.6634 15.3362 83.3812 14.6525 83.3849 13.7926C83.3812 13.0881 83.5687 12.4726 83.9474 11.946C84.33 11.4195 84.8546 11.0085 85.5213 10.7131C86.188 10.4176 86.9455 10.2699 87.794 10.2699C88.6577 10.2699 89.4115 10.4176 90.0554 10.7131C90.7031 11.0085 91.2069 11.4195 91.5668 11.946C91.9266 12.4726 92.1122 13.0824 92.1236 13.7756H89.7656Z" fill="#212121"/>
<path d="M93.892 22.0654V13.3381H96.3125V22.0654H93.892ZM95.1136 12.2131C94.7538 12.2131 94.4451 12.0938 94.1875 11.8551C93.9299 11.6127 93.8011 11.3229 93.8011 10.9858C93.8011 10.6525 93.9299 10.3665 94.1875 10.1279C94.4451 9.88543 94.7519 9.76422 95.108 9.76422C95.4716 9.76422 95.7803 9.88543 96.0341 10.1279C96.2917 10.3665 96.4205 10.6525 96.4205 10.9858C96.4205 11.3229 96.2917 11.6127 96.0341 11.8551C95.7803 12.0938 95.4735 12.2131 95.1136 12.2131Z" fill="#212121"/>
<path d="M102.893 13.3381V15.1563H97.6378V13.3381H102.893ZM98.831 11.2472H101.251V19.3835C101.251 19.607 101.286 19.7813 101.354 19.9063C101.422 20.0275 101.517 20.1127 101.638 20.1619C101.763 20.2112 101.907 20.2358 102.07 20.2358C102.183 20.2358 102.297 20.2263 102.411 20.2074C102.524 20.1847 102.611 20.1676 102.672 20.1563L103.053 21.9574C102.931 21.9953 102.761 22.0388 102.541 22.0881C102.321 22.1411 102.054 22.1733 101.74 22.1847C101.157 22.2074 100.645 22.1298 100.206 21.9517C99.7704 21.7737 99.4313 21.4972 99.1889 21.1222C98.9465 20.7472 98.8272 20.2737 98.831 19.7017V11.2472Z" fill="#212121"/>
<path d="M108.354 22.2358C107.456 22.2358 106.683 22.054 106.036 21.6904C105.392 21.3229 104.895 20.804 104.547 20.1335C104.198 19.4593 104.024 18.6619 104.024 17.7415C104.024 16.8438 104.198 16.0559 104.547 15.3779C104.895 14.6998 105.386 14.1714 106.018 13.7926C106.655 13.4138 107.401 13.2244 108.257 13.2244C108.833 13.2244 109.369 13.3173 109.865 13.5029C110.365 13.6847 110.801 13.9593 111.172 14.3267C111.547 14.6941 111.839 15.1563 112.047 15.7131C112.255 16.2661 112.359 16.9138 112.359 17.6563V18.321H104.99V16.821H110.081C110.081 16.4726 110.005 16.1638 109.854 15.8949C109.702 15.626 109.492 15.4157 109.223 15.2642C108.958 15.1089 108.649 15.0313 108.297 15.0313C107.929 15.0313 107.604 15.1165 107.32 15.2869C107.039 15.4536 106.82 15.679 106.661 15.9631C106.501 16.2434 106.42 16.5559 106.416 16.9006V18.3267C106.416 18.7585 106.496 19.1316 106.655 19.446C106.818 19.7604 107.047 20.0029 107.342 20.1733C107.638 20.3438 107.988 20.429 108.393 20.429C108.662 20.429 108.909 20.3911 109.132 20.3154C109.356 20.2396 109.547 20.126 109.706 19.9744C109.865 19.8229 109.986 19.6373 110.07 19.4176L112.308 19.5654C112.195 20.1032 111.962 20.5729 111.609 20.9744C111.261 21.3722 110.81 21.6828 110.257 21.9063C109.708 22.126 109.073 22.2358 108.354 22.2358Z" fill="#212121"/>
<defs>
<filter id="filter0_d" x="0.00292969" y="0.000427246" width="31.885" height="31.9185" filterUnits="userSpaceOnUse" color-interpolation-filters="sRGB">
<feFlood flood-opacity="0" result="BackgroundImageFix"/>
<feColorMatrix in="SourceAlpha" type="matrix" values="0 0 0 0 0 0 0 0 0 0 0 0 0 0 0 0 0 0 127 0"/>
<feOffset/>
<feGaussianBlur stdDeviation="0.5"/>
<feColorMatrix type="matrix" values="0 0 0 0 0 0 0 0 0 0 0 0 0 0 0 0 0 0 0.174423 0"/>
<feBlend mode="normal" in2="BackgroundImageFix" result="effect1_dropShadow"/>
<feBlend mode="normal" in="SourceGraphic" in2="effect1_dropShadow" result="shape"/>
</filter>
<filter id="filter1_d" x="8.43091" y="8.47711" width="15.029" height="15.002" filterUnits="userSpaceOnUse" color-interpolation-filters="sRGB">
<feFlood flood-opacity="0" result="BackgroundImageFix"/>
<feColorMatrix in="SourceAlpha" type="matrix" values="0 0 0 0 0 0 0 0 0 0 0 0 0 0 0 0 0 0 127 0"/>
<feOffset/>
<feGaussianBlur stdDeviation="0.5"/>
<feColorMatrix type="matrix" values="0 0 0 0 0 0 0 0 0 0 0 0 0 0 0 0 0 0 0.174423 0"/>
<feBlend mode="normal" in2="BackgroundImageFix" result="effect1_dropShadow"/>
<feBlend mode="normal" in="SourceGraphic" in2="effect1_dropShadow" result="shape"/>
</filter>
<linearGradient id="paint0_linear" x1="40.8057" y1="11.2629" x2="16.2183" y2="11.2629" gradientUnits="userSpaceOnUse">
<stop stop-opacity="0.01"/>
<stop offset="1" stop-opacity="0.0518286"/>
</linearGradient>
<linearGradient id="paint1_linear" x1="23.575" y1="21.4672" x2="21.5044" y2="18.8228" gradientUnits="userSpaceOnUse">
<stop stop-opacity="0.01"/>
<stop offset="1" stop-opacity="0.0518286"/>
</linearGradient>
<linearGradient id="paint2_linear" x1="28.3662" y1="4.52128" x2="16.0344" y2="4.52128" gradientUnits="userSpaceOnUse">
<stop stop-opacity="0.01"/>
<stop offset="1" stop-opacity="0.0518286"/>
</linearGradient>
<linearGradient id="paint3_linear" x1="25.0425" y1="15.9497" x2="16.0385" y2="25.0658" gradientUnits="userSpaceOnUse">
<stop stop-color="white"/>
<stop offset="1" stop-color="#E2E0E0"/>
</linearGradient>
</defs>
</svg>
