<svg width="32" height="32" viewBox="0 0 32 32" fill="none" xmlns="http://www.w3.org/2000/svg">
<path fill-rule="evenodd" clip-rule="evenodd" d="M25.2898 14.4C25.5742 14.4 25.9024 14.6101 25.9344 14.8922L25.9342 14.8922C26.0178 15.6453 26.0178 16.4047 25.9342 17.1578C25.8983 17.4508 25.642 17.6656 25.3475 17.65H25.224C24.3029 17.6359 23.4709 18.1976 23.1388 19.0562C22.8068 19.9157 23.0451 20.8907 23.7357 21.5C23.9537 21.6993 23.9787 22.0329 23.7935 22.2618C23.317 22.8547 22.7748 23.3914 22.1779 23.8618C21.949 24.0422 21.6201 24.0149 21.424 23.8C20.788 23.1344 19.8169 22.9102 18.9536 23.2297C18.0974 23.5852 17.5528 24.4359 17.588 25.3617C17.5981 25.6539 17.3817 25.9039 17.0919 25.9359C16.7271 25.9781 16.3606 25.9984 15.9935 25.9977C15.6091 25.9977 15.2239 25.9758 14.8419 25.932C14.5489 25.8969 14.3341 25.6406 14.3497 25.3461C14.4044 24.4093 13.8638 23.5405 12.9997 23.1757C12.1295 22.8429 11.1451 23.0663 10.5037 23.7421C10.3053 23.9593 9.9709 23.9851 9.742 23.7999C9.15528 23.3288 8.6248 22.7913 8.15996 22.1999C7.97872 21.971 8.00606 21.6405 8.22168 21.4437C8.9045 20.8164 9.12716 19.832 8.7795 18.9719C8.4405 18.1367 7.62566 17.5929 6.7241 17.6C6.43816 17.6 6.09754 17.4 6.07176 17.1078C5.98426 16.3532 5.98426 15.5907 6.07176 14.836C6.0991 14.543 6.35458 14.3259 6.64754 14.3438C7.57726 14.3743 8.43508 13.8454 8.82414 13.0001C9.18586 12.1313 8.95852 11.1282 8.25774 10.5001C8.04211 10.3001 8.01712 9.96802 8.19993 9.73834C8.67571 9.14458 9.21789 8.60788 9.81555 8.13834C10.0444 7.95788 10.3734 7.98522 10.5702 8.20006C11.2101 8.86256 12.182 9.08288 13.046 8.76178C13.9031 8.40712 14.4492 7.55712 14.4156 6.62978C14.4078 6.33992 14.6234 6.09227 14.9117 6.06024C15.6593 5.97821 16.4132 5.98055 17.1601 6.06571C17.4522 6.10165 17.6679 6.35789 17.6522 6.65243C17.5999 7.58751 18.139 8.45547 18.9999 8.82423C19.8679 9.15783 20.8515 8.93595 21.4921 8.26173C21.6898 8.04298 22.0234 8.01642 22.2538 8.20001C22.8405 8.67267 23.3726 9.20939 23.8398 9.80001C24.0226 10.0297 23.9952 10.361 23.778 10.5578C23.0898 11.1711 22.8569 12.1484 23.1944 13.0062C23.532 13.864 24.3687 14.4203 25.2898 14.4ZM13.6586 18.3774C14.2835 19.0032 15.132 19.354 16.0156 19.354L16.0156 19.354C16.8999 19.3532 17.7476 19.0016 18.3726 18.3766C18.9976 17.7516 19.3492 16.904 19.3499 16.0204C19.3499 15.1361 18.9984 14.2876 18.3734 13.6626C17.7484 13.0376 16.9 12.686 16.0156 12.686C15.132 12.686 14.2836 13.0376 13.6586 13.6626C13.0336 14.2876 12.682 15.136 12.682 16.0204C12.682 16.904 13.0336 17.7524 13.6586 18.3774Z" fill="#767676"/>
</svg>
