<svg width="24" height="24" viewBox="0 0 24 24" fill="none" xmlns="http://www.w3.org/2000/svg">
<path fill-rule="evenodd" clip-rule="evenodd" d="M17 8H19C19.5523 8 20 8.44771 20 9V18C20 18.5523 19.5523 19 19 19H5C4.44772 19 4 18.5523 4 18V9C4 8.44771 4.44772 8 5 8H7V5C7 2.23858 9.23858 0 12 0C14.7614 0 17 2.23858 17 5V8ZM10.5 13.5C10.5 14.3284 11.1716 15 12 15C12.8284 15 13.5 14.3284 13.5 13.5C13.5 12.6716 12.8284 12 12 12C11.1716 12 10.5 12.6716 10.5 13.5ZM15 8H9V5C9 3.34315 10.3431 2 12 2C13.6569 2 15 3.34315 15 5V8ZM3.5 22.5C3.5 23.3284 2.82843 24 2 24C1.17157 24 0.5 23.3284 0.5 22.5C0.5 21.6716 1.17157 21 2 21C2.82843 21 3.5 21.6716 3.5 22.5ZM7 24C7.82843 24 8.5 23.3284 8.5 22.5C8.5 21.6716 7.82843 21 7 21C6.17157 21 5.5 21.6716 5.5 22.5C5.5 23.3284 6.17157 24 7 24ZM12 24C12.8284 24 13.5 23.3284 13.5 22.5C13.5 21.6716 12.8284 21 12 21C11.1716 21 10.5 21.6716 10.5 22.5C10.5 23.3284 11.1716 24 12 24ZM18.5 22.5C18.5 23.3284 17.8284 24 17 24C16.1716 24 15.5 23.3284 15.5 22.5C15.5 21.6716 16.1716 21 17 21C17.8284 21 18.5 21.6716 18.5 22.5ZM22 24C22.8284 24 23.5 23.3284 23.5 22.5C23.5 21.6716 22.8284 21 22 21C21.1716 21 20.5 21.6716 20.5 22.5C20.5 23.3284 21.1716 24 22 24Z" fill="#9E9E9E"/>
</svg>
