<svg width="80" height="80" viewBox="0 0 80 80" fill="none" xmlns="http://www.w3.org/2000/svg">
<circle cx="40" cy="40" r="40" fill="#536DFE" fill-opacity="0.2"/>
<g filter="url(#filter0_d)">
<path fill-rule="evenodd" clip-rule="evenodd" d="M47.1977 23.3334C44.6574 23.3516 42.2265 24.3699 40.4309 26.1654C38.6354 27.961 37.6172 30.392 37.599 32.9324L37.573 37.573L32.9325 37.599C30.3922 37.6173 27.9613 38.6355 26.1657 40.431C24.3702 42.2266 23.352 44.6577 23.3338 47.198C23.3194 49.7058 24.3064 52.1146 26.0746 53.8919C27.844 55.6693 30.2478 56.668 32.7553 56.6667H32.8022C35.3425 56.6484 37.7734 55.6302 39.569 53.8346C41.3645 52.0391 42.3827 49.608 42.4009 47.0677L42.4243 42.4244L47.0675 42.401C49.6078 42.3827 52.0387 41.3645 53.8343 39.569C55.6298 37.7734 56.648 35.3423 56.6662 32.802C56.6805 30.2942 55.6936 27.8854 53.9254 26.1081C52.1559 24.3307 49.7522 23.332 47.2446 23.3333L47.1977 23.3334ZM39.0025 47.1302C38.9921 48.7552 38.3436 50.3099 37.1952 51.4582C36.0468 52.6079 34.4922 53.2576 32.8674 53.2681H32.8361C31.2112 53.2694 29.654 52.6222 28.5083 51.4699C27.3612 50.3189 26.7232 48.7577 26.7323 47.1326C26.7427 45.5076 27.3925 43.9529 28.5422 42.8047C29.6906 41.6562 31.2452 41.0078 32.87 40.9974C34.0809 40.9922 36.4739 40.9791 38.1928 40.9687C38.4181 40.9687 38.6303 41.056 38.7852 41.2122C38.9415 41.3698 39.0274 41.582 39.0261 41.802L39.0025 47.1302ZM41.802 39.026L47.1299 39.0026C48.7547 38.9987 50.3119 38.3476 51.4577 37.1953C52.61 36.0496 53.261 34.4923 53.2675 32.8673C53.2767 31.2423 52.6387 29.6811 51.4916 28.53C50.3459 27.3777 48.7887 26.7306 47.1637 26.7319H47.1325C45.5077 26.7423 43.953 27.3921 42.8046 28.5418C41.6562 29.6901 41.0078 31.2448 40.9974 32.8697C40.9922 34.0807 40.9792 36.474 40.9687 38.1927C40.9674 38.414 41.0547 38.6263 41.2109 38.7838C41.3672 38.9401 41.5794 39.0273 41.802 39.026Z" fill="#536DFE"/>
</g>
<defs>
<filter id="filter0_d" x="12" y="16" width="56" height="56" filterUnits="userSpaceOnUse" color-interpolation-filters="sRGB">
<feFlood flood-opacity="0" result="BackgroundImageFix"/>
<feColorMatrix in="SourceAlpha" type="matrix" values="0 0 0 0 0 0 0 0 0 0 0 0 0 0 0 0 0 0 127 0"/>
<feOffset dy="4"/>
<feGaussianBlur stdDeviation="4"/>
<feColorMatrix type="matrix" values="0 0 0 0 0.32549 0 0 0 0 0.427451 0 0 0 0 0.996078 0 0 0 0.6 0"/>
<feBlend mode="normal" in2="BackgroundImageFix" result="effect1_dropShadow"/>
<feBlend mode="normal" in="SourceGraphic" in2="effect1_dropShadow" result="shape"/>
</filter>
</defs>
</svg>
