<svg width="264" height="264" viewBox="0 0 264 264" fill="none" xmlns="http://www.w3.org/2000/svg">
<rect width="264" height="264" fill="white"/>
<circle cx="132" cy="132" r="108" fill="#536DFE" fill-opacity="0.2"/>
<path d="M86.642 14.6913C83.864 14.8193 81.053 14.9473 78.275 15.0743C78.019 15.0743 78.115 21.4943 77.955 21.4943C80.734 21.3663 83.544 21.2383 86.323 21.1103C86.546 21.1103 86.483 14.6913 86.642 14.6913Z" fill="#3CC196"/>
<path d="M133.984 35.0526C133.026 37.4476 132.036 39.8436 131.078 42.2706C131.11 42.1746 133.281 42.3976 133.473 42.3976C133.697 42.3976 135.804 42.6536 135.868 42.4936C136.826 40.0986 137.816 37.7036 138.774 35.2766C138.743 35.3716 136.571 35.1486 136.38 35.1486C136.156 35.1486 134.047 34.8926 133.984 35.0526Z" fill="#AC5DD9"/>
<circle cx="169" cy="252" r="2" transform="rotate(90 169 252)" fill="#536DFE" fill-opacity="0.2"/>
<circle cx="39" cy="248" r="2" transform="rotate(90 39 248)" fill="#536DFE" fill-opacity="0.2"/>
<path d="M66.876 56.0613C67.035 59.9253 67.195 63.7903 67.355 67.6543C67.355 67.8773 77 67.6223 77 67.6863C76.84 63.8223 76.681 59.9573 76.521 56.0933C76.521 55.8703 66.876 56.1253 66.876 56.0613Z" fill="#FFCC00"/>
<path d="M236.718 199.009C231.864 201.82 228.734 206.897 228.383 212.487C228.383 212.613 229.501 213.508 229.437 213.445C230.299 214.21 231.129 214.946 231.991 215.68C232.854 216.414 233.716 217.181 234.578 217.915C234.738 218.043 235.664 218.682 235.664 218.81C236.015 213.221 239.145 208.143 244 205.332C243.84 205.428 240.71 202.394 240.391 202.139C240.072 201.851 237.037 198.818 236.718 199.009Z" fill="#FFCC00"/>
<path d="M226.539 136.002C223.25 137.056 220.823 139.803 220.184 143.22C220.152 143.443 222.643 144.784 222.898 144.944C223.154 145.104 225.677 146.445 225.645 146.637C226.316 143.252 228.711 140.505 232 139.419C231.681 139.515 229.637 137.887 229.286 137.694C228.647 137.279 228.008 136.897 227.37 136.481C227.21 136.386 226.667 135.97 226.539 136.002Z" fill="#FF5C5C"/>
<path d="M250.73 44.011C246.227 43.819 242.011 46.151 239.808 50.079C239.584 50.462 242.107 53.719 242.395 54.167C243.001 55.125 243.64 56.083 244.279 57.009C244.375 57.136 245.109 58.095 245.077 58.191C247.281 54.262 251.496 51.931 256 52.123C255.936 52.123 255.169 50.782 255.265 50.909C254.658 49.951 254.051 48.993 253.413 48.035C252.806 47.077 252.167 46.119 251.528 45.193C251.4 45.001 250.89 44.043 250.73 44.011Z" fill="#3CC196"/>
<path d="M224.455 40C222.922 42.107 221.357 44.215 219.824 46.323C219.601 46.611 224.551 50.635 224.359 50.89C225.892 48.782 227.457 46.675 228.99 44.567C229.246 44.248 224.295 40.224 224.455 40Z" fill="#0063F7"/>
<path d="M14.9814 65.396C13.0614 64.264 11.1424 63.132 9.22341 62C9.40341 62.115 7.13941 66.462 7.38541 66.61C9.30541 67.742 11.2244 68.874 13.1434 70.006C12.9474 69.891 15.2274 65.543 14.9814 65.396Z" fill="#FFCC00"/>
<path d="M38.2356 2.99998C36.7026 4.02198 35.1706 5.07598 33.6696 6.09798C33.5726 6.16198 34.4346 8.17398 34.5316 8.36598C34.5946 8.55698 35.4896 10.569 35.4246 10.601C36.9586 9.57898 38.4916 8.52498 39.9926 7.50298C40.0886 7.43898 39.2256 5.42698 39.1306 5.23598C39.0656 5.07598 38.1726 3.03198 38.2356 2.99998Z" fill="#3CC196"/>
<path d="M78 246.024C74.423 247.045 70.559 245.321 68.897 242C69.058 242.287 67.685 244.523 67.492 244.906C67.301 245.321 65.96 247.397 66.151 247.844C67.812 251.197 71.677 252.89 75.253 251.868C75.668 251.74 76.435 249.377 76.658 248.962C76.978 248.259 77.297 247.588 77.616 246.886C77.681 246.758 77.936 246.024 78 246.024Z" fill="#AC5DD9"/>
<path d="M105.255 182.025C102.026 185.693 97.7879 191.176 100.996 196.276C102.338 198.413 104.574 198.674 106.83 199.017C108.541 199.279 110.485 198.634 111.478 197.082C112.858 194.905 111.282 192.567 109.318 191.599C108.288 191.095 107.199 190.853 106.091 190.631C104.885 190.39 103.66 190.108 102.416 190.047C96.8939 189.745 91.2339 191.176 86.3539 193.857C83.8649 195.227 81.5699 196.921 79.5279 198.936C77.6818 200.771 75.9509 202.927 75.2508 205.528C74.6278 207.926 75.0949 210.709 76.8639 212.462C77.5839 213.187 78.4589 213.59 79.4319 213.793C80.5009 214.014 81.6489 214.377 82.7569 214.357C84.5459 214.316 86.4319 212.946 86.8589 211.091C87.3259 208.995 85.6929 207.443 83.8649 207C81.6289 206.455 79.4119 206.032 77.1369 206.536C74.5698 207.12 72.0809 208.491 69.8639 209.881C65.0029 212.925 60.8609 217.219 57.9249 222.258C55.3389 226.713 54.1518 233.425 48.9419 235.481C48.4158 235.683 47.8719 235.824 47.3079 235.884C47.0549 235.905 46.7828 235.864 46.5498 235.924C46.1028 236.005 48.0268 236.207 48.0669 236.248C47.9879 236.187 47.6578 236.086 47.5798 236.066C46.6858 235.683 45.5768 235.884 44.6829 235.502C45.6748 235.924 46.7828 236.066 47.8329 236.267C48.7469 236.449 49.6218 236.57 50.5558 236.409C52.6158 236.046 54.3859 234.695 55.6308 233.002C57.1868 230.906 58.0618 228.386 59.1509 226.007C60.2768 223.528 61.6779 221.17 63.3309 219.033C66.5199 214.861 70.5838 211.414 75.1729 209.055C77.2149 207.987 79.3929 207 81.7059 206.858C82.1529 206.838 82.5809 206.879 83.0099 206.879C80.9479 206.898 80.8899 206.334 81.7839 206.717C81.9979 206.797 82.2119 206.919 82.4059 207.04C83.1849 207.544 83.7679 208.35 83.9429 209.297C84.2739 211.031 83.0279 212.643 81.5899 213.369C81.2399 213.55 80.8509 213.691 80.4619 213.752C80.2479 213.793 80.0339 213.793 79.8198 213.812C78.6929 213.933 82.2509 214.659 81.1429 214.034C80.1699 213.469 79.3929 212.844 78.8099 211.837C76.1459 207.282 79.4119 202.383 82.6199 199.279C86.2569 195.772 90.7299 193.212 95.5129 191.821C98.0019 191.095 100.588 190.671 103.174 190.611C103.719 190.591 104.263 190.591 104.788 190.611C105.099 190.611 105.41 190.631 105.702 190.671C107.627 190.853 103.99 190.088 105.235 190.611C106.344 191.055 107.413 191.499 108.191 192.465C109.61 194.2 109.124 196.558 107.335 197.747C106.499 198.292 105.624 198.493 104.652 198.553C103.485 198.634 107.121 199.36 106.052 198.836C105.76 198.695 105.488 198.574 105.235 198.372C104.788 198.049 104.38 197.646 104.049 197.203C102.552 195.167 102.436 192.285 103.193 189.926C104.127 187.064 106.15 184.786 108.074 182.588C107.996 182.67 106.791 182.327 106.636 182.287C106.519 182.266 105.371 181.904 105.255 182.025Z" fill="#3CC196"/>
<path d="M249.922 101.277C250.433 96.9649 248.389 93.0059 245.259 90.1309C241.683 86.8409 237.179 85.2769 232.453 84.5739C223.064 83.1689 212.716 84.6059 204.508 78.8889C201.06 76.4939 198.728 72.9489 198.217 68.7339C197.674 64.2309 198.952 59.7589 199.75 55.3519C200.548 51.0089 200.996 46.4419 199.079 42.3219C197.291 38.4579 193.906 35.6469 190.585 33.1249C186.752 30.1859 182.76 27.5039 180.173 23.3199C177.714 19.3919 176.5 14.3779 179.439 10.3539C179.311 10.5129 177.299 10.2259 177.044 10.1939C176.724 10.1629 174.808 9.84292 174.648 10.0979C172.125 13.5149 172.636 17.7629 174.457 21.4039C176.437 25.3959 179.63 28.2069 183.143 30.8569C186.528 33.4119 190.137 35.8709 192.692 39.3519C195.375 42.9929 196.014 47.2409 195.503 51.6479C194.545 60.0469 190.424 69.6279 197.387 76.6219C203.966 83.2639 214.026 83.1689 222.68 83.7439C228.429 84.1269 234.305 85.0529 239.032 88.5979C242.928 91.5369 245.771 95.9429 245.164 100.958C245.1 100.958 249.89 101.436 249.922 101.277Z" fill="#0063F7"/>
<path d="M178.192 252.664C175.222 253.207 172.22 253.782 169.25 254.325C168.994 254.356 168.515 257.136 168.451 257.455C168.387 257.742 167.941 260.553 167.717 260.584C170.687 260.042 173.689 259.467 176.659 258.924C176.915 258.892 177.394 256.113 177.457 255.794C177.521 255.475 177.968 252.696 178.192 252.664Z" fill="#3CC196"/>
<path d="M209.961 216.652C206.927 214.768 203.893 212.883 200.891 211C200.987 211.063 200.253 213.874 200.189 214.13C200.125 214.417 199.326 217.163 199.55 217.291C202.584 219.175 205.618 221.059 208.62 222.944C208.524 222.88 209.258 220.069 209.322 219.814C209.386 219.527 210.185 216.78 209.961 216.652Z" fill="#0063F7"/>
<path d="M135.199 211C131.431 211.479 128.173 213.459 125.97 216.558C125.842 216.717 127.662 218.952 127.854 219.176C128.013 219.399 129.866 221.635 129.77 221.763C131.942 218.665 135.231 216.685 139 216.206C138.776 216.238 137.307 213.843 137.116 213.587C136.892 213.3 135.551 210.969 135.199 211Z" fill="#0063F7"/>
<path d="M15.083 209.432C12.656 211.317 11.06 213.904 10.484 216.938C10.421 217.193 11.922 218.47 12.145 218.694C12.337 218.917 13.869 220.163 13.838 220.418C14.444 217.416 16.041 214.829 18.437 212.913C18.309 213.009 15.243 209.305 15.083 209.432Z" fill="#3CC196"/>
<g filter="url(#filter0_d)">
<rect x="156" y="84" width="96" height="96" rx="20" fill="white"/>
</g>
<path d="M185.446 140.443C185.446 144.143 182.423 147.166 178.723 147.166C175.023 147.166 172 144.143 172 140.443C172 136.742 175.023 133.72 178.723 133.72H185.446V140.443Z" fill="#E01E5A"/>
<path d="M188.834 140.443C188.834 136.742 191.857 133.72 195.557 133.72C199.257 133.72 202.28 136.742 202.28 140.443V157.277C202.28 160.977 199.257 164 195.557 164C191.857 164 188.834 160.977 188.834 157.277V140.443Z" fill="#E01E5A"/>
<path d="M195.557 113.446C191.857 113.446 188.834 110.423 188.834 106.723C188.834 103.023 191.857 100 195.557 100C199.257 100 202.28 103.023 202.28 106.723V113.446H195.557Z" fill="#36C5F0"/>
<path d="M195.557 116.834C199.257 116.834 202.28 119.856 202.28 123.557C202.28 127.257 199.257 130.28 195.557 130.28H178.723C175.023 130.28 172 127.257 172 123.557C172 119.856 175.023 116.834 178.723 116.834H195.557Z" fill="#36C5F0"/>
<path d="M222.553 123.557C222.553 119.856 225.576 116.834 229.277 116.834C232.977 116.834 236 119.856 236 123.557C236 127.257 232.977 130.28 229.277 130.28H222.553V123.557Z" fill="#2EB67D"/>
<path d="M219.166 123.557C219.166 127.257 216.143 130.28 212.443 130.28C208.743 130.28 205.72 127.257 205.72 123.557V106.723C205.72 103.023 208.743 100 212.443 100C216.143 100 219.166 103.023 219.166 106.723V123.557Z" fill="#2EB67D"/>
<path d="M212.443 150.553C216.143 150.553 219.166 153.576 219.166 157.276C219.166 160.977 216.143 164 212.443 164C208.743 164 205.72 160.977 205.72 157.276V150.553H212.443Z" fill="#ECB22E"/>
<path d="M212.443 147.166C208.743 147.166 205.72 144.143 205.72 140.443C205.72 136.743 208.743 133.72 212.443 133.72H229.277C232.977 133.72 236 136.743 236 140.443C236 144.143 232.977 147.166 229.277 147.166H212.443Z" fill="#ECB22E"/>
<g filter="url(#filter1_d)">
<rect x="12" y="84" width="96" height="96" rx="20" fill="white"/>
</g>
<g filter="url(#filter2_d)">
<path d="M59.8909 161.838L58.5746 161.306C47.4579 157.115 39.8016 150.155 35.1495 141.236C32.7205 136.58 31.2346 131.623 30.5096 126.591C30.0115 123.134 29.9226 120.057 30.0711 117.571C30.0842 117.352 30.0984 117.156 30.1129 116.985C30.1225 116.872 30.1293 116.801 30.1367 116.73L30.4495 114.197L32.1177 113.769L32.8551 113.58C40.3956 111.61 46.522 109.261 51.354 106.741C53.0853 105.838 54.5388 104.969 55.7278 104.161C56.1637 103.864 56.5393 103.593 56.8554 103.35C57.0705 103.185 57.2322 103.052 57.3267 102.97C58.8001 101.681 60.9662 101.678 62.4433 102.96C62.5555 103.056 62.715 103.185 62.9272 103.348C63.2459 103.592 63.6222 103.864 64.0581 104.16C65.2494 104.97 66.7021 105.838 68.4321 106.741C73.2637 109.262 79.3871 111.61 86.9155 113.577L89.3324 114.197L89.6426 116.705C89.6525 116.801 89.6594 116.872 89.6689 116.985C89.6834 117.156 89.6976 117.352 89.7107 117.571C89.8592 120.057 89.7704 123.134 89.2722 126.591C88.5473 131.623 87.0614 136.58 84.6324 141.236C79.9802 150.155 72.3239 157.115 61.2073 161.306L59.8909 161.838Z" fill="white"/>
</g>
<mask id="mask0" mask-type="alpha" maskUnits="userSpaceOnUse" x="30" y="102" width="60" height="60">
<path d="M59.8909 161.838L58.5746 161.306C47.4579 157.115 39.8016 150.155 35.1495 141.236C32.7205 136.58 31.2346 131.623 30.5096 126.591C30.0115 123.134 29.9226 120.057 30.0711 117.571C30.0842 117.352 30.0984 117.156 30.1129 116.985C30.1225 116.872 30.1293 116.801 30.1367 116.73L30.4495 114.197L32.1177 113.769L32.8551 113.58C40.3956 111.61 46.522 109.261 51.354 106.741C53.0853 105.838 54.5388 104.969 55.7278 104.161C56.1637 103.864 56.5393 103.593 56.8554 103.35C57.0705 103.185 57.2322 103.052 57.3267 102.97C58.8001 101.681 60.9662 101.678 62.4433 102.96C62.5555 103.056 62.715 103.185 62.9272 103.348C63.2459 103.592 63.6222 103.864 64.0581 104.16C65.2494 104.97 66.7021 105.838 68.4321 106.741C73.2637 109.262 79.3871 111.61 86.9155 113.577L89.3324 114.197L89.6426 116.705C89.6525 116.801 89.6594 116.872 89.6689 116.985C89.6834 117.156 89.6976 117.352 89.7107 117.571C89.8592 120.057 89.7704 123.134 89.2722 126.591C88.5473 131.623 87.0614 136.58 84.6324 141.236C79.9802 150.155 72.3239 157.115 61.2073 161.306L59.8909 161.838Z" fill="white"/>
</mask>
<g mask="url(#mask0)">
<path fill-rule="evenodd" clip-rule="evenodd" d="M59.9457 159.086L87.1917 116.232L115.165 137.04L80.4529 173.928L59.9457 159.086Z" fill="url(#paint0_linear)"/>
</g>
<path d="M87.1316 116.99C87.1637 117.299 90.3723 147.634 60.2866 158.957L59.8909 159.117L59.4952 158.957C29.4095 147.634 32.618 117.299 32.6501 116.99L32.7464 116.211L33.4951 116.02C51.0031 111.445 58.2331 105.528 58.9925 104.867C59.5165 104.408 60.2652 104.408 60.7893 104.867C61.5593 105.528 68.7786 111.445 86.2867 116.02L87.0354 116.211L87.1316 116.99Z" fill="#FF5252"/>
<mask id="mask1" mask-type="alpha" maskUnits="userSpaceOnUse" x="32" y="104" width="56" height="56">
<path d="M87.1316 116.99C87.1637 117.299 90.3723 147.634 60.2866 158.957L59.8909 159.117L59.4952 158.957C29.4095 147.634 32.618 117.299 32.6501 116.99L32.7464 116.211L33.4951 116.02C51.0031 111.445 58.2331 105.528 58.9925 104.867C59.5165 104.408 60.2652 104.408 60.7893 104.867C61.5593 105.528 68.7786 111.445 86.2867 116.02L87.0354 116.211L87.1316 116.99Z" fill="white"/>
</mask>
<g mask="url(#mask1)">
<path fill-rule="evenodd" clip-rule="evenodd" d="M68.4521 140.783C73.5157 135.719 73.5242 127.518 68.4711 122.465C68.3748 122.369 68.2774 122.274 68.1789 122.181L68.3775 121.983L88.9236 142.529L70.5062 160.946L51.693 142.133C56.7537 145.805 63.8812 145.354 68.4521 140.783Z" fill="url(#paint1_linear)"/>
<path fill-rule="evenodd" clip-rule="evenodd" d="M87.5179 103.842V159.117H59.8227C59.8227 159.117 60.0135 134.117 59.8227 103.842C59.811 101.981 87.5179 103.842 87.5179 103.842Z" fill="url(#paint2_linear)"/>
</g>
<g filter="url(#filter3_d)">
<path fill-rule="evenodd" clip-rule="evenodd" d="M69.0901 122.768C71.5775 125.211 72.9199 128.483 72.9199 131.951C72.9199 135.42 71.5775 138.691 69.0901 141.135C66.5633 143.697 63.2468 144.958 59.8908 144.958C56.5744 144.958 53.2184 143.697 50.6916 141.135C48.2042 138.691 46.8618 135.42 46.8618 131.951C46.8618 128.483 48.2042 125.211 50.6916 122.768C55.7452 117.683 64.0364 117.683 69.0901 122.768ZM66.879 138.928C68.7347 137.075 69.7612 134.592 69.7612 131.951C69.7612 129.862 69.09 127.852 67.9055 126.197L54.1264 139.952C55.7846 141.135 57.7982 141.805 59.8907 141.805C62.536 141.805 65.0234 140.78 66.879 138.928ZM65.6551 123.95L51.8759 137.706C50.6915 136.05 50.0203 134.04 50.0203 131.951C50.0203 129.31 51.0468 126.827 52.9025 124.975C54.7581 123.122 57.2455 122.098 59.8908 122.098C61.9833 122.098 63.9969 122.768 65.6551 123.95Z" fill="url(#paint3_linear)"/>
</g>
<path d="M116 124H148" stroke="#9E9E9E" stroke-width="2" stroke-miterlimit="10"/>
<path d="M148 140H116" stroke="#9E9E9E" stroke-width="2" stroke-miterlimit="10"/>
<path d="M140 116L148 124L140 132" stroke="#9E9E9E" stroke-width="2" stroke-miterlimit="10" stroke-linecap="square"/>
<path d="M124 148L116 140L124 132" stroke="#9E9E9E" stroke-width="2" stroke-miterlimit="10" stroke-linecap="square"/>
<defs>
<filter id="filter0_d" x="151.688" y="81.8441" width="104.624" height="104.624" filterUnits="userSpaceOnUse" color-interpolation-filters="sRGB">
<feFlood flood-opacity="0" result="BackgroundImageFix"/>
<feColorMatrix in="SourceAlpha" type="matrix" values="0 0 0 0 0 0 0 0 0 0 0 0 0 0 0 0 0 0 127 0"/>
<feOffset dy="2.15588"/>
<feGaussianBlur stdDeviation="2.15588"/>
<feColorMatrix type="matrix" values="0 0 0 0 0.054902 0 0 0 0 0.117647 0 0 0 0 0.243137 0 0 0 0.08 0"/>
<feBlend mode="normal" in2="BackgroundImageFix" result="effect1_dropShadow"/>
<feBlend mode="normal" in="SourceGraphic" in2="effect1_dropShadow" result="shape"/>
</filter>
<filter id="filter1_d" x="7.68824" y="81.8441" width="104.624" height="104.624" filterUnits="userSpaceOnUse" color-interpolation-filters="sRGB">
<feFlood flood-opacity="0" result="BackgroundImageFix"/>
<feColorMatrix in="SourceAlpha" type="matrix" values="0 0 0 0 0 0 0 0 0 0 0 0 0 0 0 0 0 0 127 0"/>
<feOffset dy="2.15588"/>
<feGaussianBlur stdDeviation="2.15588"/>
<feColorMatrix type="matrix" values="0 0 0 0 0.054902 0 0 0 0 0.117647 0 0 0 0 0.243137 0 0 0 0.08 0"/>
<feBlend mode="normal" in2="BackgroundImageFix" result="effect1_dropShadow"/>
<feBlend mode="normal" in="SourceGraphic" in2="effect1_dropShadow" result="shape"/>
</filter>
<filter id="filter2_d" x="28.006" y="100.001" width="63.7699" height="63.8369" filterUnits="userSpaceOnUse" color-interpolation-filters="sRGB">
<feFlood flood-opacity="0" result="BackgroundImageFix"/>
<feColorMatrix in="SourceAlpha" type="matrix" values="0 0 0 0 0 0 0 0 0 0 0 0 0 0 0 0 0 0 127 0"/>
<feOffset/>
<feGaussianBlur stdDeviation="0.999999"/>
<feColorMatrix type="matrix" values="0 0 0 0 0 0 0 0 0 0 0 0 0 0 0 0 0 0 0.174423 0"/>
<feBlend mode="normal" in2="BackgroundImageFix" result="effect1_dropShadow"/>
<feBlend mode="normal" in="SourceGraphic" in2="effect1_dropShadow" result="shape"/>
</filter>
<filter id="filter3_d" x="44.8618" y="116.954" width="30.058" height="30.0039" filterUnits="userSpaceOnUse" color-interpolation-filters="sRGB">
<feFlood flood-opacity="0" result="BackgroundImageFix"/>
<feColorMatrix in="SourceAlpha" type="matrix" values="0 0 0 0 0 0 0 0 0 0 0 0 0 0 0 0 0 0 127 0"/>
<feOffset/>
<feGaussianBlur stdDeviation="0.999999"/>
<feColorMatrix type="matrix" values="0 0 0 0 0 0 0 0 0 0 0 0 0 0 0 0 0 0 0.174423 0"/>
<feBlend mode="normal" in2="BackgroundImageFix" result="effect1_dropShadow"/>
<feBlend mode="normal" in="SourceGraphic" in2="effect1_dropShadow" result="shape"/>
</filter>
<linearGradient id="paint0_linear" x1="109.611" y1="122.526" x2="60.4366" y2="122.526" gradientUnits="userSpaceOnUse">
<stop stop-opacity="0.01"/>
<stop offset="1" stop-opacity="0.0518286"/>
</linearGradient>
<linearGradient id="paint1_linear" x1="75.1501" y1="142.934" x2="71.0089" y2="137.646" gradientUnits="userSpaceOnUse">
<stop stop-opacity="0.01"/>
<stop offset="1" stop-opacity="0.0518286"/>
</linearGradient>
<linearGradient id="paint2_linear" x1="84.7324" y1="109.043" x2="60.0689" y2="109.043" gradientUnits="userSpaceOnUse">
<stop stop-opacity="0.01"/>
<stop offset="1" stop-opacity="0.0518286"/>
</linearGradient>
<linearGradient id="paint3_linear" x1="78.085" y1="131.899" x2="60.0769" y2="150.132" gradientUnits="userSpaceOnUse">
<stop stop-color="white"/>
<stop offset="1" stop-color="#E2E0E0"/>
</linearGradient>
</defs>
</svg>
