<svg width="144" height="144" viewBox="0 0 144 144" fill="none" xmlns="http://www.w3.org/2000/svg">
<rect width="144" height="144" fill="white"/>
<circle cx="71.9999" cy="72" r="58.9091" fill="#E5F0FF"/>
<path d="M29.922 55.4375L22.5955 72.1717C11.764 67.1769 4.86179 57.0515 3.51611 45.9591L21.6637 43.9417C22.3243 49.0061 25.5129 53.274 29.922 55.4375Z" fill="#FF5C5C"/>
<path d="M66.958 55.3193C59.6767 71.9457 40.4477 79.6189 23.7676 72.6831L31.0975 55.9489C32.777 56.6028 34.606 56.9611 36.515 56.9611C44.7873 56.9611 51.4913 50.2514 51.4913 41.9765C51.4913 36.2408 48.2715 31.2563 43.539 28.7415L50.8759 11.9934C66.9684 19.7013 74.1697 38.846 66.958 55.3193Z" fill="#004FC4"/>
<path d="M49.708 11.4682L42.385 28.1919C40.5838 27.4232 38.5983 26.9954 36.5155 26.9954C28.2432 26.9954 21.5357 33.7051 21.5357 41.98C21.5357 42.2095 21.5426 42.4391 21.5531 42.6652L3.38466 44.6896C2.94653 39.3712 3.78453 33.872 6.07254 28.6406C13.4164 11.8682 32.9235 4.20542 49.708 11.4682Z" fill="url(#paint0_linear)"/>
<g filter="url(#filter0_d)">
<path d="M16.3635 43.6364C16.3635 40.0214 19.294 37.0909 22.909 37.0909H127.636C131.251 37.0909 134.182 40.0214 134.182 43.6364V109.091C134.182 112.706 131.251 115.636 127.636 115.636H22.909C19.294 115.636 16.3635 112.706 16.3635 109.091V43.6364Z" fill="white"/>
</g>
<path fill-rule="evenodd" clip-rule="evenodd" d="M22.8828 41.4546C24.0876 41.4404 25.0766 42.4049 25.0908 43.6094C25.106 44.815 24.1413 45.8028 22.9365 45.818C21.7306 45.8321 20.7426 44.8677 20.7274 43.6631C20.7133 42.4576 21.6779 41.4698 22.8828 41.4546ZM28.7014 41.4546C29.9062 41.4404 30.8952 42.4049 30.9094 43.6094C30.9246 44.815 29.9599 45.8028 28.7551 45.818C27.5493 45.8321 26.5613 44.8677 26.5461 43.6631C26.5319 42.4576 27.4966 41.4698 28.7014 41.4546ZM36.7275 43.6094C36.7133 42.4049 35.7243 41.4404 34.5195 41.4546C33.3147 41.4698 32.35 42.4576 32.3642 43.6631C32.3794 44.8677 33.3673 45.8321 34.5732 45.818C35.778 45.8028 36.7427 44.815 36.7275 43.6094Z" fill="#D9D9D9"/>
<path d="M35.9382 54.5454H31.0908C29.8858 54.5454 28.9089 55.5223 28.9089 56.7272V104.691C28.9089 105.896 29.8858 106.873 31.0908 106.873H35.9382C37.1432 106.873 38.1201 105.896 38.1201 104.691V56.7272C38.1201 55.5223 37.1432 54.5454 35.9382 54.5454Z" fill="#D9D9D9"/>
<path d="M35.9382 93.7914H31.0908C29.8858 93.7914 28.9089 94.7682 28.9089 95.9732V104.692C28.9089 105.896 29.8858 106.873 31.0908 106.873H35.9382C37.1432 106.873 38.1201 105.896 38.1201 104.692V95.9732C38.1201 94.7682 37.1432 93.7914 35.9382 93.7914Z" fill="#3CC196"/>
<path d="M49.8922 54.5455H45.0412C43.8362 54.5455 42.8594 55.5223 42.8594 56.7273V104.691C42.8594 105.896 43.8362 106.873 45.0412 106.873H49.8922C51.0971 106.873 52.074 105.896 52.074 104.691V56.7273C52.074 55.5223 51.0971 54.5455 49.8922 54.5455Z" fill="#D9D9D9"/>
<path d="M49.8922 87.3078H45.0412C43.8362 87.3078 42.8594 88.2846 42.8594 89.4896V104.691C42.8594 105.896 43.8362 106.873 45.0412 106.873H49.8922C51.0971 106.873 52.074 105.896 52.074 104.691V89.4896C52.074 88.2846 51.0971 87.3078 49.8922 87.3078Z" fill="#3CC196"/>
<path d="M63.8426 54.5455H58.9916C57.7866 54.5455 56.8098 55.5223 56.8098 56.7273V104.691C56.8098 105.896 57.7866 106.873 58.9916 106.873H63.8426C65.0476 106.873 66.0244 105.896 66.0244 104.691V56.7273C66.0244 55.5223 65.0476 54.5455 63.8426 54.5455Z" fill="#D9D9D9"/>
<path d="M63.8391 74.2258H58.9916C57.7866 74.2258 56.8098 75.2026 56.8098 76.4076V104.691C56.8098 105.896 57.7866 106.873 58.9916 106.873H63.8391C65.0441 106.873 66.0209 105.896 66.0209 104.691V76.4076C66.0209 75.2026 65.0441 74.2258 63.8391 74.2258Z" fill="#3CC196"/>
<path d="M77.7898 54.5455H72.9423C71.7373 54.5455 70.7605 55.5223 70.7605 56.7273V104.691C70.7605 105.896 71.7373 106.873 72.9423 106.873H77.7898C78.9948 106.873 79.9716 105.896 79.9716 104.691V56.7273C79.9716 55.5223 78.9948 54.5455 77.7898 54.5455Z" fill="#D9D9D9"/>
<path d="M77.7898 80.7094H72.9423C71.7373 80.7094 70.7605 81.6862 70.7605 82.8912V104.691C70.7605 105.896 71.7373 106.873 72.9423 106.873H77.7898C78.9948 106.873 79.9716 105.896 79.9716 104.691V82.8912C79.9716 81.6862 78.9948 80.7094 77.7898 80.7094Z" fill="#3CC196"/>
<path d="M91.7474 54.5455H86.8964C85.6914 54.5455 84.7146 55.5223 84.7146 56.7273V104.691C84.7146 105.896 85.6914 106.873 86.8964 106.873H91.7474C92.9524 106.873 93.9292 105.896 93.9292 104.691V56.7273C93.9292 55.5223 92.9524 54.5455 91.7474 54.5455Z" fill="#D9D9D9"/>
<path d="M91.7474 67.6275H86.8964C85.6914 67.6275 84.7146 68.6043 84.7146 69.8093V104.692C84.7146 105.897 85.6914 106.873 86.8964 106.873H91.7474C92.9524 106.873 93.9292 105.897 93.9292 104.692V69.8093C93.9292 68.6043 92.9524 67.6275 91.7474 67.6275Z" fill="#3CC196"/>
<path d="M105.695 54.5455H100.847C99.6421 54.5455 98.6653 55.5224 98.6653 56.7273V104.692C98.6653 105.897 99.6421 106.873 100.847 106.873H105.695C106.9 106.873 107.876 105.897 107.876 104.692V56.7273C107.876 55.5224 106.9 54.5455 105.695 54.5455Z" fill="#3CC196"/>
<path d="M119.645 54.5455H114.798C113.593 54.5455 112.616 55.5224 112.616 56.7273V104.692C112.616 105.897 113.593 106.873 114.798 106.873H119.645C120.85 106.873 121.827 105.897 121.827 104.692V56.7273C121.827 55.5224 120.85 54.5455 119.645 54.5455Z" fill="#D9D9D9"/>
<path d="M119.645 63.8431H114.798C113.593 63.8431 112.616 64.8199 112.616 66.0249V104.692C112.616 105.897 113.593 106.873 114.798 106.873H119.645C120.85 106.873 121.827 105.897 121.827 104.692V66.0249C121.827 64.8199 120.85 63.8431 119.645 63.8431Z" fill="#3CC196"/>
<path d="M35.9385 93.7914H31.091C29.886 93.7914 28.9092 94.7682 28.9092 95.9732V104.691C28.9092 105.896 29.886 106.873 31.091 106.873H35.9385C37.1435 106.873 38.1203 105.896 38.1203 104.691V95.9732C38.1203 94.7682 37.1435 93.7914 35.9385 93.7914Z" fill="#3CC196"/>
<path d="M63.8394 74.2258H58.9919C57.7869 74.2258 56.8101 75.2026 56.8101 76.4076V104.691C56.8101 105.896 57.7869 106.873 58.9919 106.873H63.8394C65.0443 106.873 66.0212 105.896 66.0212 104.691V76.4076C66.0212 75.2026 65.0443 74.2258 63.8394 74.2258Z" fill="#3CC196"/>
<path d="M77.7901 80.7094H72.9426C71.7376 80.7094 70.7607 81.6862 70.7607 82.8912V104.691C70.7607 105.896 71.7376 106.873 72.9426 106.873H77.7901C78.995 106.873 79.9719 105.896 79.9719 104.691V82.8912C79.9719 81.6862 78.995 80.7094 77.7901 80.7094Z" fill="#3CC196"/>
<path d="M91.7476 67.6274H86.8967C85.6917 67.6274 84.7148 68.6043 84.7148 69.8093V104.692C84.7148 105.896 85.6917 106.873 86.8967 106.873H91.7476C92.9526 106.873 93.9294 105.896 93.9294 104.692V69.8093C93.9294 68.6043 92.9526 67.6274 91.7476 67.6274Z" fill="#3CC196"/>
<path d="M138.061 135.273H118.062C116.12 135.273 114.545 133.609 114.545 131.556V111.909C114.545 110.353 115.739 109.091 117.212 109.091H138.061C139.533 109.091 140.727 110.353 140.727 111.909V132.455C140.727 134.011 139.533 135.273 138.061 135.273Z" fill="#FFCC00"/>
<path fill-rule="evenodd" clip-rule="evenodd" d="M135.237 120.873C135.47 120.873 135.738 121.045 135.764 121.275L135.764 121.275C135.833 121.892 135.833 122.513 135.764 123.129C135.735 123.369 135.525 123.545 135.284 123.532H135.183C134.43 123.52 133.749 123.98 133.477 124.682C133.205 125.386 133.4 126.183 133.966 126.682C134.144 126.845 134.164 127.118 134.013 127.305C133.623 127.79 133.179 128.229 132.691 128.614C132.504 128.762 132.235 128.739 132.074 128.564C131.554 128.019 130.759 127.836 130.053 128.097C129.352 128.388 128.907 129.084 128.936 129.841C128.944 130.08 128.767 130.285 128.53 130.311C128.231 130.346 127.931 130.362 127.631 130.362C127.316 130.362 127.001 130.344 126.689 130.308C126.449 130.279 126.273 130.07 126.286 129.829C126.331 129.062 125.888 128.351 125.181 128.053C124.47 127.78 123.664 127.963 123.139 128.516C122.977 128.694 122.703 128.715 122.516 128.564C122.036 128.178 121.602 127.738 121.222 127.254C121.073 127.067 121.096 126.797 121.272 126.636C121.831 126.122 122.013 125.317 121.729 124.613C121.451 123.93 120.785 123.485 120.047 123.491C119.813 123.491 119.534 123.327 119.513 123.088C119.442 122.471 119.442 121.847 119.513 121.229C119.536 120.99 119.745 120.812 119.984 120.827C120.745 120.852 121.447 120.419 121.765 119.727C122.061 119.016 121.875 118.196 121.302 117.682C121.125 117.518 121.105 117.247 121.254 117.059C121.644 116.573 122.087 116.134 122.576 115.75C122.764 115.602 123.033 115.624 123.194 115.8C123.717 116.342 124.512 116.522 125.219 116.26C125.921 115.969 126.367 115.274 126.34 114.515C126.334 114.278 126.51 114.075 126.746 114.049C127.358 113.982 127.974 113.984 128.585 114.054C128.824 114.083 129.001 114.293 128.988 114.534C128.945 115.299 129.386 116.009 130.091 116.311C130.801 116.584 131.606 116.402 132.13 115.85C132.292 115.671 132.564 115.65 132.753 115.8C133.233 116.187 133.668 116.626 134.051 117.109C134.2 117.297 134.178 117.568 134 117.729C133.437 118.231 133.246 119.03 133.523 119.732C133.799 120.434 134.483 120.889 135.237 120.873ZM125.721 124.127C126.232 124.639 126.926 124.926 127.649 124.926L127.649 124.926C128.373 124.925 129.066 124.638 129.578 124.126C130.089 123.615 130.377 122.921 130.377 122.198C130.377 121.475 130.09 120.781 129.578 120.269C129.067 119.758 128.373 119.47 127.649 119.47C126.926 119.47 126.232 119.758 125.721 120.269C125.209 120.781 124.922 121.475 124.922 122.198C124.922 122.921 125.209 123.616 125.721 124.127Z" fill="white"/>
<defs>
<filter id="filter0_d" x="14.0117" y="35.915" width="122.522" height="83.2492" filterUnits="userSpaceOnUse" color-interpolation-filters="sRGB">
<feFlood flood-opacity="0" result="BackgroundImageFix"/>
<feColorMatrix in="SourceAlpha" type="matrix" values="0 0 0 0 0 0 0 0 0 0 0 0 0 0 0 0 0 0 127 0"/>
<feOffset dy="1.17593"/>
<feGaussianBlur stdDeviation="1.17593"/>
<feColorMatrix type="matrix" values="0 0 0 0 0.054902 0 0 0 0 0.117647 0 0 0 0 0.243137 0 0 0 0.08 0"/>
<feBlend mode="normal" in2="BackgroundImageFix" result="effect1_dropShadow"/>
<feBlend mode="normal" in="SourceGraphic" in2="effect1_dropShadow" result="shape"/>
</filter>
<linearGradient id="paint0_linear" x1="3.27271" y1="8.72727" x2="3.27271" y2="44.6896" gradientUnits="userSpaceOnUse">
<stop stop-color="#5B8DEF"/>
<stop offset="1" stop-color="#0063F7"/>
</linearGradient>
</defs>
</svg>
