<svg width="192" height="193" viewBox="0 0 192 193" fill="none" xmlns="http://www.w3.org/2000/svg">
<circle cx="95.9996" cy="96.419" r="78.5455" fill="#536DFE" fill-opacity="0.2"/>
<path d="M150.671 60.0511C150.267 60.0248 149.869 59.8335 149.56 59.4839C148.918 58.7453 148.936 57.5647 149.607 56.8524L154.973 51.1211C155.638 50.4088 156.702 50.4286 157.349 51.1739C157.991 51.9126 157.973 53.0931 157.302 53.8054L151.936 59.5367C151.586 59.9126 151.122 60.0841 150.671 60.0511Z" fill="#FF5C5C"/>
<path d="M146.876 56.7693C145.971 56.715 145.26 55.9549 145.278 55.0381L145.362 50.5985C145.38 49.6575 146.158 48.9095 147.099 48.9276C148.022 48.9577 148.788 49.7238 148.77 50.6648L148.686 55.1044C148.668 56.0454 147.89 56.7934 146.949 56.7753C146.924 56.7693 146.9 56.7693 146.876 56.7693Z" fill="#FF5C5C"/>
<path d="M153.047 63.9088C152.142 63.8545 151.43 63.0944 151.449 62.1775C151.467 61.2365 152.245 60.4886 153.186 60.5067L157.631 60.5911C158.56 60.6213 159.32 61.3873 159.302 62.3284C159.284 63.2694 158.506 64.0173 157.565 63.9992L153.125 63.9148C153.095 63.9148 153.071 63.9148 153.047 63.9088Z" fill="#FF5C5C"/>
<path d="M129.322 81.9531C126.029 81.9531 123.362 79.2809 123.362 75.9873V44.3311C123.362 31.5069 112.927 21.0714 100.103 21.0714H94.0104C81.1862 21.0714 70.7508 31.5069 70.7508 44.3311V75.9873C70.7508 79.2809 68.0846 81.9531 64.7851 81.9531C61.4915 81.9531 58.8193 79.2809 58.8193 75.9873V44.3311C58.8254 24.9319 74.6113 9.146 94.0104 9.146H100.097C119.496 9.146 135.282 24.9319 135.282 44.3311V75.9873C135.282 79.2809 132.616 81.9531 129.322 81.9531Z" fill="#004FC4"/>
<g filter="url(#filter0_dd)">
<path d="M149.017 138.761C149.017 144.407 144.439 148.985 138.793 148.985H55.3152C49.6692 148.979 45.0908 144.407 45.0908 138.761V68.8249C45.0908 63.1789 49.6692 58.6006 55.3152 58.6006H138.793C144.439 58.6006 149.017 63.1789 149.017 68.8249V138.761Z" fill="url(#paint0_linear)"/>
</g>
<rect opacity="0.378185" x="60.3633" y="89.146" width="72.7273" height="29.0909" rx="14.5454" fill="#E6E6E6"/>
<g filter="url(#filter1_d)">
<path fill-rule="evenodd" clip-rule="evenodd" d="M78.0327 111.713L77.7744 106.118L82.5738 109.152L84.0419 106.633L78.9462 104.076L84.0399 101.515L82.5698 98.9968L77.7728 102.035L78.0267 96.4399L75.102 96.441L75.3603 102.036L70.5609 99.0015L69.0928 101.521L74.1885 104.078L69.0948 106.638L70.5649 109.157L75.3619 106.119L75.108 111.714L78.0327 111.713ZM97.8319 111.705L97.5736 106.11L102.373 109.144L103.841 106.625L98.7454 104.068L103.839 101.507L102.369 98.989L97.572 102.027L97.8259 96.4321L94.9012 96.4332L95.1595 102.028L90.3601 98.9937L88.892 101.513L93.9877 104.07L88.894 106.631L90.3641 109.149L95.1611 106.111L94.9072 111.706L97.8319 111.705ZM117.631 111.697L117.373 106.102L122.172 109.137L123.64 106.617L118.545 104.06L123.638 101.5L122.168 98.9812L117.371 102.019L117.625 96.4243L114.7 96.4255L114.959 102.02L110.159 98.986L108.691 101.505L113.787 104.062L108.693 106.623L110.163 109.141L114.96 106.103L114.706 111.698L117.631 111.697Z" fill="white"/>
</g>
<defs>
<filter id="filter0_dd" x="43.0908" y="54.6006" width="107.926" height="98.3845" filterUnits="userSpaceOnUse" color-interpolation-filters="sRGB">
<feFlood flood-opacity="0" result="BackgroundImageFix"/>
<feColorMatrix in="SourceAlpha" type="matrix" values="0 0 0 0 0 0 0 0 0 0 0 0 0 0 0 0 0 0 127 0"/>
<feOffset dy="2"/>
<feGaussianBlur stdDeviation="1"/>
<feColorMatrix type="matrix" values="0 0 0 0 0 0 0 0 0 0 0 0 0 0 0 0 0 0 0.469597 0"/>
<feBlend mode="normal" in2="BackgroundImageFix" result="effect1_dropShadow"/>
<feColorMatrix in="SourceAlpha" type="matrix" values="0 0 0 0 0 0 0 0 0 0 0 0 0 0 0 0 0 0 127 0"/>
<feOffset dy="-2"/>
<feGaussianBlur stdDeviation="1"/>
<feColorMatrix type="matrix" values="0 0 0 0 0 0 0 0 0 0 0 0 0 0 0 0 0 0 0.185094 0"/>
<feBlend mode="normal" in2="effect1_dropShadow" result="effect2_dropShadow"/>
<feBlend mode="normal" in="SourceGraphic" in2="effect2_dropShadow" result="shape"/>
</filter>
<filter id="filter1_d" x="68.0928" y="96.4243" width="56.5475" height="17.2894" filterUnits="userSpaceOnUse" color-interpolation-filters="sRGB">
<feFlood flood-opacity="0" result="BackgroundImageFix"/>
<feColorMatrix in="SourceAlpha" type="matrix" values="0 0 0 0 0 0 0 0 0 0 0 0 0 0 0 0 0 0 127 0"/>
<feOffset dy="1"/>
<feGaussianBlur stdDeviation="0.5"/>
<feColorMatrix type="matrix" values="0 0 0 0 0 0 0 0 0 0 0 0 0 0 0 0 0 0 0.116805 0"/>
<feBlend mode="normal" in2="BackgroundImageFix" result="effect1_dropShadow"/>
<feBlend mode="normal" in="SourceGraphic" in2="effect1_dropShadow" result="shape"/>
</filter>
<linearGradient id="paint0_linear" x1="45.0908" y1="58.6006" x2="45.0908" y2="148.985" gradientUnits="userSpaceOnUse">
<stop stop-color="#5B8DEF"/>
<stop offset="1" stop-color="#0063F7"/>
</linearGradient>
</defs>
</svg>
