<svg width="193" height="193" viewBox="0 0 193 193" fill="none" xmlns="http://www.w3.org/2000/svg">
<rect width="192" height="192" fill="white"/>
<path d="M139.88 52.7585C139.572 54.5895 138.168 56.0033 136.768 57.17C127.458 64.9315 108.904 71.0982 99.8149 62.0325C101.101 62.1152 104.283 62.9492 106.931 63.049C113.217 63.2862 118.668 58.2678 123.267 53.6843C126.086 50.8746 128.984 41.5545 133.149 41.2298C137.125 40.9204 140.493 49.1071 139.88 52.7585Z" fill="#2C8F6F"/>
<path d="M104.48 49.9387C108.586 45.0452 112.247 42.1694 116.878 39.0782C121.508 35.9878 127.189 34.1895 132.481 35.4566C133.11 35.6069 133.747 35.8095 134.24 36.2386C134.802 36.7284 135.113 37.4567 135.405 38.1593C137.02 42.0408 140.611 47.5849 139.847 52.2699C130.898 49.2034 120.493 49.9434 111.622 53.5889C104.999 56.3105 99.7546 62.9848 99.1645 62.8312C93.5483 61.3724 102.547 52.2412 104.48 49.9387Z" fill="#3CC196"/>
<path d="M64.6719 41.7606C64.3887 43.6123 65.26 45.4047 66.2034 46.9586C72.4803 57.2964 87.8859 68.9794 99.1974 63.1122C97.9708 62.7914 94.739 62.6017 92.2361 61.8744C86.2915 60.1472 82.7646 53.6395 79.8977 47.8142C78.1399 44.243 78.3366 34.404 74.5474 32.7977C70.9315 31.2647 65.2369 38.0682 64.6719 41.7606Z" fill="#2C8F6F"/>
<path d="M98.7764 50.1186C96.4428 44.1822 93.8934 40.3087 90.495 35.9315C87.0966 31.554 82.2974 28.0861 76.8955 27.6634C76.2537 27.613 75.587 27.6097 74.9856 27.8672C74.2994 28.1612 73.7756 28.7605 73.2776 29.3408C70.5242 32.5472 65.3774 36.7307 64.6176 41.4372C74.0443 41.2702 83.6427 45.1849 90.8729 51.3996C96.2701 56.039 99.1157 64.0256 99.7218 64.0614C105.49 64.4009 99.8747 52.9121 98.7764 50.1186Z" fill="#3CC196"/>
<g filter="url(#filter0_d)">
<path fill-rule="evenodd" clip-rule="evenodd" d="M140.071 164.103L31.2729 146.657L45.9735 54.8063L154.772 72.253L140.071 164.103Z" fill="url(#paint0_linear)"/>
</g>
<path fill-rule="evenodd" clip-rule="evenodd" d="M158.475 96.7959L34.9777 76.8725L38.6849 53.5712L162.182 73.4942L158.475 96.7959Z" fill="url(#paint1_linear)"/>
<path d="M151.067 95.555L101.452 87.5841L96.1842 86.5937L96.162 86.7342L47.3276 78.8885L95.5477 90.6214L85.3455 155.169L94.7159 156.693L104.593 92.9463L149.748 103.809L151.067 95.555Z" fill="#004FC4"/>
<path d="M91.0657 156.693L77.5851 154.54L92.4867 61.8232C92.6379 60.8833 93.4968 60.2389 94.406 60.3841L104.595 62.0112C105.504 62.1564 106.118 63.0359 105.967 63.9758L91.0657 156.693Z" fill="#3CC196"/>
<path d="M128.913 135.601C130.98 136.762 133.372 136.809 135.486 135.764C135.649 135.694 135.416 133.649 135.416 133.417C135.416 133.185 135.161 131.141 135.3 131.071C133.187 132.117 130.794 132.047 128.727 130.909C128.89 131.002 128.797 132.999 128.797 133.255C128.797 133.556 128.657 135.462 128.913 135.601Z" fill="#FF5C5C"/>
<path d="M109.818 169.938C111.212 171.192 112.628 172.445 114.022 173.677C114.162 173.793 115.95 172.84 116.159 172.725C116.369 172.632 118.157 171.633 118.273 171.749C116.879 170.495 115.462 169.24 114.069 168.01C113.929 167.893 112.141 168.845 111.932 168.962C111.723 169.055 109.934 170.053 109.818 169.938Z" fill="#0063F7"/>
<path d="M178.927 135.273C179.669 137.874 178.415 140.684 176 141.893C176.209 141.776 177.835 142.775 178.113 142.915C178.415 143.054 179.925 144.029 180.25 143.89C182.689 142.682 183.92 139.871 183.177 137.271C183.084 136.969 181.365 136.411 181.063 136.249C180.552 136.016 180.064 135.784 179.553 135.552C179.46 135.505 178.927 135.319 178.927 135.273Z" fill="#AC5DD9"/>
<path d="M40.7719 143.363C43.582 143.247 46.3929 143.131 49.2031 143.015C49.3653 143.015 49.1799 136 49.2264 136C46.4162 136.116 43.6053 136.232 40.7951 136.348C40.633 136.348 40.8184 143.363 40.7719 143.363Z" fill="#FFCC00"/>
<path d="M69.8181 166.545C70.5381 167.985 71.2581 169.402 71.9781 170.842C72.0711 171.005 73.5111 171.005 73.7199 171.028C73.9293 171.051 75.3926 171.028 75.4617 171.167C74.7424 169.727 74.0217 168.31 73.3024 166.87C73.2093 166.708 71.7693 166.708 71.5599 166.684C71.3744 166.661 69.9104 166.684 69.8181 166.545Z" fill="#FF5C5C"/>
<path d="M22.5479 116.528C23.454 117.806 24.3595 119.06 25.2657 120.337C25.1959 120.244 27.9595 118.108 27.8664 117.991C26.9609 116.714 26.0555 115.46 25.1493 114.182C25.2191 114.252 22.4555 116.389 22.5479 116.528Z" fill="#FF5C5C"/>
<path d="M18.3333 2.30114C26.0678 3.60224 31.8278 11.0808 31.8046 18.8386C31.7813 22.9033 30.2947 26.8517 27.9027 30.1033C27.3682 30.8466 26.7646 31.5433 26.1369 32.2168C25.9515 32.4262 24.6046 33.6801 26.0678 32.3564C27.3449 31.195 26.4853 31.9615 26.1602 32.2168C25.6729 32.5884 25.1617 32.9368 24.6278 33.2859C22.7231 34.4699 20.5864 35.4684 18.3333 35.7011C15.9638 35.9564 13.5951 35.2597 12.1784 33.2859C11.6206 32.5186 11.2489 31.6131 11.1798 30.6611C11.1333 30.1731 11.2024 29.6851 11.342 29.2211C11.5973 28.3848 12.782 27.2466 10.9238 28.8953C10.5987 29.1746 10.2737 29.4531 9.94856 29.7317C13.8504 26.7353 18.2169 30.2888 20.4235 33.5877C22.4904 36.6764 23.582 40.323 23.8147 44.0161C24.0235 47.6859 23.3966 51.4022 21.9798 54.7702C21.2831 56.4655 20.3769 58.0684 19.3086 59.531C18.7515 60.2742 18.1704 60.995 17.5202 61.6451C17.334 61.8539 17.102 62.0401 16.9166 62.2488C16.8002 62.3884 19.0998 60.4139 18.1013 61.1571C17.6366 61.5055 17.1951 61.8539 16.7071 62.1557C13.2467 64.4321 7.53256 66.1739 4.58274 62.1557C3.56092 60.7622 3.05038 58.7877 3.8402 57.1622C3.93256 56.9761 4.02565 56.8371 4.11874 56.6742C4.83874 55.3739 1.58711 58.3928 2.58565 57.9986C2.95729 57.859 3.28238 57.6502 3.67729 57.5571C4.5602 57.3477 5.48892 57.4175 6.34783 57.6728C10.9006 59.0204 11.1798 64.2459 9.6002 68.0088C7.74202 72.4452 3.79365 75.5579 1.81911 79.947C-1.92053 88.3084 0.239469 98.8771 7.06856 104.986C7.1842 105.102 9.6002 102.594 9.69329 102.663C4.67583 98.1804 2.19074 91.3521 2.67874 84.6859C2.93402 81.3877 3.90929 78.1586 5.65111 75.3484C7.78856 71.8881 10.9704 69.0539 12.4104 65.1753C13.5951 61.9935 13.502 57.8124 10.2271 55.931C9.01911 55.2342 7.48602 54.9091 6.13911 55.3041C4.67583 55.7222 3.49111 57.0924 2.39947 58.091C1.40092 58.9971 0.750742 60.0422 0.797288 61.4357C0.843833 62.9455 1.60965 64.4088 2.70202 65.4306C5.65111 68.1251 10.2271 66.8015 13.27 65.0131C15.8482 63.5026 18.2169 61.3433 20.2606 59.1601C22.3049 56.9528 23.8846 54.3288 24.9064 51.4953C26.9966 45.8044 26.9733 39.2546 24.3718 33.7266C22.9551 30.7542 20.6329 27.3855 17.2649 26.5033C14.0824 25.667 11.4351 27.9201 9.43729 30.1499C7.1842 32.6815 9.18201 36.4677 11.9457 37.6051C15.6155 39.115 19.9122 37.0946 22.9093 34.9579C28.4366 31.0321 33.3377 25.5281 34.1966 18.5593C35.0329 11.8008 31.4795 4.80951 25.4635 1.55787C24.0235 0.768781 22.4904 0.257508 20.8649 0.00150816C20.6329 -0.0450373 19.7267 1.00005 19.5413 1.16369C19.4715 1.27933 18.5653 2.34769 18.3333 2.30114Z" fill="#FFCC00"/>
<path d="M13.3191 137.65C12.2885 142.116 11.1831 146.756 11.8282 151.357C12.1089 153.405 12.714 155.417 13.7591 157.19C14.7809 158.967 16.2165 160.275 17.8318 161.516C19.3438 162.676 20.9685 163.798 21.9569 165.485C23.1184 167.456 23.154 169.814 23.5235 172.015C24.1496 175.637 26.4216 178.533 29.8122 179.969C33.45 181.515 37.1555 180.599 40.7242 179.302C39.6245 179.708 38.4478 179.844 37.3496 180.249C37.3264 180.252 40.7911 179.481 38.9329 179.788C38.7715 179.806 38.6325 179.822 38.4711 179.841C38.1249 179.88 37.7533 179.9 37.402 179.893C36.5838 179.893 35.7547 179.801 34.9591 179.588C33.4442 179.225 32.0107 178.547 30.7816 177.612C29.5518 176.678 28.5271 175.486 27.8325 174.117C27.0107 172.457 26.8224 170.609 26.57 168.814C26.2995 166.858 25.8493 164.969 24.5045 163.44C23.346 162.1 21.8573 161.149 20.4915 160.043C17.5365 157.716 15.8347 154.498 15.2471 150.801C14.4951 146.071 15.6093 141.315 16.6733 136.727C16.6405 136.848 15.154 137.135 14.9715 137.18C14.8107 137.198 13.3671 137.457 13.3191 137.65Z" fill="#0063F7"/>
<path d="M152.745 148.178C155.413 150.527 159.4 153.609 163.11 151.276C164.664 150.3 164.854 148.674 165.103 147.033C165.294 145.789 164.824 144.375 163.696 143.653C162.112 142.649 160.412 143.795 159.708 145.223C159.342 145.973 159.166 146.765 159.004 147.57C158.829 148.447 158.624 149.338 158.579 150.243C158.36 154.259 159.4 158.375 161.35 161.925C162.347 163.735 163.579 165.404 165.044 166.889C166.379 168.231 167.947 169.49 169.838 169.999C171.582 170.453 173.606 170.113 174.881 168.826C175.408 168.303 175.702 167.666 175.849 166.959C176.01 166.181 176.274 165.346 176.259 164.541C176.23 163.239 175.233 161.868 173.884 161.557C172.36 161.218 171.231 162.405 170.909 163.735C170.512 165.361 170.205 166.973 170.571 168.628C170.996 170.495 171.993 172.305 173.004 173.917C175.218 177.453 178.341 180.465 182.006 182.6C185.246 184.481 190.127 185.344 191.622 189.133C191.769 189.516 191.872 189.911 191.915 190.322C191.931 190.506 191.901 190.704 191.944 190.873C192.003 191.198 192.15 189.799 192.18 189.77C192.136 189.827 192.062 190.067 192.048 190.124C191.769 190.774 191.915 191.581 191.638 192.231C191.944 191.509 192.048 190.703 192.194 189.94C192.326 189.275 192.414 188.639 192.297 187.959C192.033 186.461 191.051 185.174 189.819 184.269C188.295 183.137 186.462 182.501 184.732 181.709C182.929 180.89 181.214 179.871 179.66 178.669C176.626 176.349 174.119 173.394 172.403 170.056C171.627 168.571 170.909 166.987 170.806 165.305C170.791 164.98 170.821 164.669 170.821 164.357C170.835 165.856 170.424 165.898 170.703 165.248C170.761 165.093 170.85 164.937 170.938 164.796C171.304 164.229 171.891 163.805 172.579 163.678C173.84 163.437 175.013 164.343 175.541 165.389C175.672 165.644 175.775 165.927 175.819 166.21C175.849 166.365 175.849 166.521 175.863 166.677C175.951 167.496 176.479 164.909 176.024 165.714C175.614 166.422 175.159 166.987 174.427 167.411C171.114 169.349 167.551 166.973 165.294 164.64C162.743 161.995 160.881 158.742 159.87 155.263C159.342 153.453 159.033 151.573 158.99 149.692C158.975 149.295 158.975 148.9 158.99 148.518C158.99 148.292 159.004 148.066 159.033 147.853C159.166 146.453 158.609 149.098 158.99 148.193C159.312 147.386 159.635 146.609 160.338 146.043C161.6 145.011 163.315 145.365 164.179 146.666C164.576 147.274 164.722 147.91 164.766 148.617C164.824 149.466 165.352 146.821 164.971 147.599C164.869 147.811 164.781 148.009 164.634 148.193C164.399 148.518 164.106 148.815 163.784 149.055C162.303 150.144 160.207 150.229 158.491 149.678C156.41 148.999 154.753 147.527 153.155 146.128C153.214 146.185 152.965 147.061 152.936 147.174C152.92 147.259 152.657 148.094 152.745 148.178Z" fill="#3CC196"/>
<path d="M192.201 27.6932C189.065 27.3216 186.186 28.8081 184.095 31.0845C181.702 33.6852 180.565 36.9609 180.054 40.3979C179.032 47.2263 180.077 54.7521 175.919 60.7216C174.177 63.2292 171.599 64.9252 168.534 65.2969C165.259 65.6918 162.006 64.7623 158.801 64.1819C155.643 63.6016 152.321 63.2758 149.325 64.6699C146.515 65.9703 144.47 68.4321 142.636 70.8474C140.499 73.635 138.548 76.5383 135.505 78.4198C132.649 80.2081 129.002 81.091 126.075 78.9536C126.191 79.0467 125.982 80.5099 125.959 80.6954C125.937 80.9281 125.704 82.3216 125.889 82.438C128.374 84.2729 131.464 83.9012 134.112 82.5769C137.015 81.1369 139.059 78.8147 140.987 76.2598C142.845 73.7979 144.633 71.1732 147.165 69.315C149.813 67.3638 152.902 66.899 156.107 67.2707C162.216 67.9674 169.184 70.9645 174.27 65.9005C179.101 61.1158 179.032 53.7994 179.45 47.5056C179.729 43.3245 180.402 39.051 182.98 35.6132C185.118 32.7798 188.322 30.7121 191.969 31.1536C191.969 31.2001 192.317 27.7165 192.201 27.6932Z" fill="#FF5C5C"/>
<path d="M144.734 19.8414C146.778 23.3716 150.47 25.648 154.536 25.9032C154.627 25.9032 155.278 25.0901 155.232 25.1367C155.789 24.5098 156.324 23.9061 156.858 23.2792C157.392 22.6516 157.95 22.0247 158.483 21.3978C158.576 21.2814 159.041 20.608 159.134 20.608C155.07 20.3527 151.376 18.0763 149.332 14.5454C149.402 14.6618 147.195 16.9381 147.01 17.1701C146.8 17.4021 144.595 19.6094 144.734 19.8414Z" fill="#FFCC00"/>
<path d="M183.756 62.4056C184.15 64.5656 184.569 66.7489 184.964 68.9089C184.986 69.0951 187.008 69.4434 187.24 69.49C187.449 69.5365 189.493 69.8609 189.516 70.0238C189.121 67.8638 188.703 65.6805 188.308 63.5205C188.285 63.3344 186.264 62.986 186.032 62.9402C185.8 62.8936 183.779 62.5685 183.756 62.4056Z" fill="#3CC196"/>
<path d="M157.565 39.3016C156.195 41.5081 154.824 43.7146 153.454 45.8979C153.5 45.8281 155.545 46.3619 155.731 46.4085C155.94 46.455 157.937 47.0361 158.03 46.8732C159.4 44.6666 160.77 42.4601 162.141 40.2768C162.094 40.3466 160.05 39.8128 159.865 39.7663C159.656 39.7197 157.658 39.1386 157.565 39.3016Z" fill="#0063F7"/>
<path d="M98.9105 27.2445C99.677 29.6365 101.675 31.4016 104.16 31.8663C104.322 31.8896 105.297 30.0779 105.414 29.8925C105.53 29.7063 106.505 27.8714 106.645 27.8946C104.183 27.4066 102.185 25.6648 101.396 23.2728C101.465 23.5048 100.281 24.9914 100.141 25.2466C99.8392 25.7114 99.5614 26.1761 99.2588 26.6401C99.1897 26.7565 98.8872 27.1514 98.9105 27.2445Z" fill="#FF5C5C"/>
<path d="M168.727 103.128C169.076 105.868 170.516 108.238 172.77 109.84C172.885 109.933 174.511 108.609 174.674 108.47C174.836 108.354 176.462 107.007 176.555 107.076C174.302 105.497 172.862 103.105 172.514 100.364C172.537 100.527 170.795 101.595 170.609 101.734C170.4 101.897 168.705 102.872 168.727 103.128Z" fill="#0063F7"/>
<path d="M56.008 12.5599C55.8684 15.8348 57.5644 18.901 60.4211 20.5032C60.6996 20.6661 63.0684 18.8312 63.3942 18.6217C64.0909 18.181 64.7876 17.7163 65.4611 17.2515C65.5535 17.1817 66.2509 16.6479 66.3207 16.6712C63.4633 15.0683 61.768 12.0028 61.9076 8.72717C61.9076 8.77372 60.9324 9.33154 61.0247 9.26172C60.328 9.70317 59.6313 10.1446 58.9345 10.6086C58.2378 11.0501 57.5411 11.5148 56.8676 11.9795C56.728 12.0726 56.0313 12.4435 56.008 12.5599Z" fill="#3CC196"/>
<path d="M18.7515 81.8746C15.3355 82.2593 12.8126 85.6142 13.3639 89.0018C13.5588 90.1182 14.1057 91.2724 14.457 92.34C14.8293 93.3968 15.4279 94.5524 15.6126 95.6469C15.0402 92.2688 17.5842 88.9044 21.0002 88.5204C20.9275 88.5284 19.985 85.4542 19.9072 85.1822C19.8301 84.9109 18.9493 81.8586 18.7515 81.8746Z" fill="#AC5DD9"/>
<path d="M37.0908 42.578C38.6232 43.6929 40.1563 44.8311 41.6894 45.946C41.8988 46.1082 44.8254 42.5082 45.0108 42.6478C43.4777 41.5329 41.9454 40.3947 40.4123 39.2798C40.1803 39.0936 37.2537 42.6944 37.0908 42.578Z" fill="#0063F7"/>
<path d="M47.5606 181.104C46.7374 182.501 45.9141 183.896 45.0908 185.292C45.1745 185.161 48.3359 186.808 48.4436 186.629C49.2668 185.232 50.0901 183.837 50.9134 182.441C50.8297 182.584 47.6675 180.925 47.5606 181.104Z" fill="#FFCC00"/>
<path d="M2.18195 164.192C2.92522 165.307 3.69176 166.422 4.43504 167.513C4.48158 167.584 5.94486 166.957 6.08449 166.886C6.2234 166.84 7.68667 166.19 7.70995 166.237C6.96667 165.121 6.20013 164.006 5.45685 162.915C5.41031 162.845 3.94704 163.472 3.80813 163.542C3.69176 163.589 2.20522 164.238 2.18195 164.192Z" fill="#3CC196"/>
<path d="M152.314 181.031C153.685 182.796 155.567 183.956 157.773 184.375C157.959 184.421 158.887 183.329 159.05 183.167C159.212 183.028 160.119 181.913 160.304 181.936C158.121 181.495 156.239 180.334 154.846 178.591C154.916 178.684 152.222 180.914 152.314 181.031Z" fill="#3CC196"/>
<defs>
<filter id="filter0_d" x="29.9396" y="54.8063" width="126.166" height="111.963" filterUnits="userSpaceOnUse" color-interpolation-filters="sRGB">
<feFlood flood-opacity="0" result="BackgroundImageFix"/>
<feColorMatrix in="SourceAlpha" type="matrix" values="0 0 0 0 0 0 0 0 0 0 0 0 0 0 0 0 0 0 127 0"/>
<feOffset dy="1.33333"/>
<feGaussianBlur stdDeviation="0.666667"/>
<feColorMatrix type="matrix" values="0 0 0 0 0 0 0 0 0 0 0 0 0 0 0 0 0 0 0.469597 0"/>
<feBlend mode="normal" in2="BackgroundImageFix" result="effect1_dropShadow"/>
<feBlend mode="normal" in="SourceGraphic" in2="effect1_dropShadow" result="shape"/>
</filter>
<linearGradient id="paint0_linear" x1="31.2729" y1="54.8063" x2="31.2729" y2="164.103" gradientUnits="userSpaceOnUse">
<stop stop-color="#5B8DEF"/>
<stop offset="1" stop-color="#0063F7"/>
</linearGradient>
<linearGradient id="paint1_linear" x1="34.9777" y1="53.5712" x2="34.9777" y2="96.7959" gradientUnits="userSpaceOnUse">
<stop stop-color="#0063F7"/>
<stop offset="1" stop-color="#5B8DEF"/>
</linearGradient>
</defs>
</svg>
