<svg width="24" height="24" viewBox="0 0 24 24" fill="none" xmlns="http://www.w3.org/2000/svg">
    <path fill-rule="evenodd" clip-rule="evenodd" d="M21.2898 10.4C21.5742 10.4 21.9023 10.6102 21.9344 10.8922L21.9342 10.8922C22.0178 11.6453 22.0178 12.4047 21.9342 13.1578C21.8982 13.4508 21.642 13.6656 21.3475 13.65H21.224C20.3029 13.6359 19.4709 14.1977 19.1388 15.0563C18.8068 15.9157 19.0451 16.8907 19.7357 17.5001C19.9537 17.6993 19.9787 18.0329 19.7935 18.2618C19.3169 18.8547 18.7748 19.3915 18.1779 19.8618C17.949 20.0422 17.6201 20.0149 17.424 19.8001C16.788 19.1344 15.8169 18.9102 14.9536 19.2297C14.0974 19.5852 13.5528 20.436 13.588 21.3617C13.5981 21.6539 13.3817 21.9039 13.0919 21.936C12.727 21.9782 12.3606 21.9985 11.9934 21.9977C11.609 21.9977 11.2239 21.9758 10.8419 21.9321C10.5489 21.8969 10.3341 21.6407 10.3497 21.3461C10.4044 20.4093 9.86375 19.5406 8.99969 19.1757C8.12947 18.8429 7.14509 19.0663 6.50369 19.7421C6.30525 19.9593 5.97087 19.9851 5.74197 19.7999C5.15525 19.3288 4.62477 18.7913 4.15993 18.1999C3.97869 17.971 4.00603 17.6406 4.22165 17.4437C4.90447 16.8164 5.12713 15.8321 4.77947 14.9719C4.44047 14.1367 3.62563 13.593 2.72407 13.6C2.43813 13.6 2.09751 13.4 2.07173 13.1078C1.98423 12.3532 1.98423 11.5907 2.07173 10.836C2.09907 10.5431 2.35455 10.3259 2.64751 10.3439C3.57723 10.3743 4.43505 9.84541 4.82411 9.00009C5.18583 8.13133 4.95849 7.12821 4.25771 6.50009C4.04208 6.30009 4.01708 5.96805 4.1999 5.73837C4.67568 5.14461 5.21786 4.60791 5.81552 4.13837C6.04442 3.95791 6.37332 3.98525 6.5702 4.20009C7.21006 4.86259 8.18194 5.08291 9.046 4.76181C9.90304 4.40715 10.4491 3.55715 10.4155 2.62981C10.4077 2.33995 10.6234 2.0923 10.9116 2.06027C11.6593 1.97824 12.4132 1.98058 13.16 2.06574C13.4522 2.10168 13.6678 2.35792 13.6522 2.65246C13.5999 3.58754 14.1389 4.4555 14.9999 4.82426C15.8679 5.15786 16.8515 4.93598 17.4921 4.26176C17.6897 4.04301 18.0233 4.01645 18.2538 4.20004C18.8405 4.6727 19.3726 5.20942 19.8397 5.80004C20.0226 6.02974 19.9952 6.36099 19.778 6.55786C19.0897 7.1711 18.8568 8.14844 19.1944 9.00626C19.532 9.86408 20.3687 10.4203 21.2898 10.4ZM9.65856 14.3774C10.2835 15.0032 11.132 15.354 12.0156 15.354L12.0156 15.354C12.8999 15.3532 13.7476 15.0016 14.3726 14.3766C14.9976 13.7517 15.3491 12.904 15.3499 12.0204C15.3499 11.1361 14.9983 10.2876 14.3734 9.66264C13.7484 9.03764 12.8999 8.68608 12.0156 8.68608C11.132 8.68608 10.2836 9.03766 9.65856 9.66264C9.03356 10.2876 8.682 11.1361 8.682 12.0204C8.682 12.904 9.03356 13.7524 9.65856 14.3774Z" fill="#9E9E9E"/>
</svg>
