<svg width="24" height="24" viewBox="0 0 24 24" fill="none" xmlns="http://www.w3.org/2000/svg">
<path d="M4.959 14.0001C4.986 13.6751 5 13.3411 5 13.0001V8.00008C5.00426 6.72257 5.35689 5.47042 6.01994 4.37845C6.68299 3.28648 7.63133 2.39604 8.76287 1.80301C9.8944 1.20999 11.1663 0.936839 12.4415 1.01297C13.7167 1.08911 14.9471 1.51164 16 2.23508" stroke="#212121" stroke-width="2" stroke-miterlimit="10" stroke-linecap="square"/>
<path d="M18.536 5.46411C18.8449 6.27384 19.0022 7.13348 19 8.00011V13.0001C19.0297 15.4702 19.7203 17.8872 21 20.0001H4" stroke="#212121" stroke-width="2" stroke-miterlimit="10"/>
<path d="M13.4409 23.0423C13.6534 22.8924 13.8399 22.7112 13.9948 22.5061H10.0051C10.16 22.7112 10.3466 22.8924 10.5591 23.0423C10.9807 23.3396 11.484 23.4993 12 23.4993C12.5159 23.4993 13.0193 23.3396 13.4409 23.0423Z" stroke="#212121"/>
<path d="M22 2L2 22" stroke="#212121" stroke-width="2" stroke-miterlimit="10" stroke-linecap="square"/>
</svg>
