<svg width="145" height="145" viewBox="0 0 145 145" fill="none" xmlns="http://www.w3.org/2000/svg">
<rect width="144" height="144" fill="white"/>
<path d="M104.91 39.5688C104.679 40.942 103.626 42.0024 102.576 42.8774C95.5936 48.6985 81.6783 53.3235 74.8613 46.5243C75.8258 46.5863 78.2126 47.2118 80.1981 47.2867C84.9129 47.4646 89.0009 43.7008 92.4501 40.2632C94.5645 38.1558 96.738 31.1658 99.8621 30.9223C102.844 30.6902 105.37 36.8302 104.91 39.5688Z" fill="#2C8F6F"/>
<path d="M78.3599 37.4538C81.44 33.7838 84.1854 31.6269 87.6584 29.3085C91.1313 26.9907 95.3916 25.642 99.3607 26.5923C99.8324 26.705 100.311 26.857 100.68 27.1788C101.102 27.5462 101.335 28.0924 101.554 28.6193C102.765 31.5305 105.458 35.6885 104.885 39.2023C98.1733 36.9024 90.3697 37.4574 83.7165 40.1916C78.7498 42.2327 74.8161 47.2384 74.3736 47.1233C70.1614 46.0292 76.9105 39.1808 78.3599 37.4538Z" fill="#3CC196"/>
<path d="M48.5046 31.3204C48.2922 32.7092 48.9457 34.0534 49.6532 35.2189C54.3609 42.9722 65.9151 51.7344 74.3987 47.3341C73.4788 47.0935 71.0549 46.9512 69.1777 46.4057C64.7193 45.1103 62.0741 40.2296 59.9239 35.8605C58.6055 33.1822 58.7531 25.803 55.9112 24.5982C53.1993 23.4484 48.9283 28.5511 48.5046 31.3204Z" fill="#2C8F6F"/>
<path d="M74.083 37.5889C72.3328 33.1365 70.4207 30.2314 67.8719 26.9485C65.3231 23.6654 61.7237 21.0645 57.6722 20.7474C57.1909 20.7097 56.6909 20.7072 56.2399 20.9003C55.7252 21.1208 55.3324 21.5703 54.9589 22.0055C52.8938 24.4103 49.0337 27.5479 48.4639 31.0778C55.5339 30.9525 62.7327 33.8885 68.1553 38.5496C72.2032 42.0291 74.3374 48.0191 74.792 48.0459C79.1183 48.3006 74.9067 39.684 74.083 37.5889Z" fill="#3CC196"/>
<g filter="url(#filter0_d_3651_3129)">
<path fill-rule="evenodd" clip-rule="evenodd" d="M105.054 123.077L23.4551 109.992L34.4805 41.1046L116.079 54.1897L105.054 123.077Z" fill="url(#paint0_linear_3651_3129)"/>
</g>
<path fill-rule="evenodd" clip-rule="evenodd" d="M118.857 72.5969L26.2344 57.6544L29.0148 40.1784L121.637 55.1206L118.857 72.5969Z" fill="url(#paint1_linear_3651_3129)"/>
<path d="M113.301 71.6662L76.0892 65.688L72.1386 64.9452L72.1219 65.0506L35.4961 59.1664L71.6612 67.966L64.0096 116.377L71.0373 117.52L78.445 69.7097L112.312 77.8568L113.301 71.6662Z" fill="#004FC4"/>
<path d="M68.2999 117.52L58.1895 115.905L69.3657 46.3674C69.4791 45.6624 70.1233 45.1791 70.8051 45.288L78.447 46.5083C79.1286 46.6172 79.5893 47.2769 79.4759 47.9818L68.2999 117.52Z" fill="#3CC196"/>
<path d="M96.685 101.701C98.2357 102.572 100.03 102.607 101.615 101.823C101.737 101.77 101.562 100.237 101.562 100.063C101.562 99.8891 101.371 98.3558 101.476 98.3035C99.8906 99.0878 98.0961 99.0355 96.5459 98.1818C96.6681 98.2516 96.5983 99.7495 96.5983 99.9409C96.5983 100.167 96.4935 101.596 96.685 101.701Z" fill="#FF5C5C"/>
<path d="M82.3633 127.453C83.4089 128.394 84.4709 129.334 85.5166 130.258C85.6213 130.345 86.9626 129.63 87.1191 129.544C87.2762 129.474 88.6175 128.725 88.7042 128.812C87.6591 127.871 86.5966 126.93 85.5515 126.007C85.4467 125.92 84.1055 126.634 83.9484 126.721C83.7918 126.791 82.4506 127.54 82.3633 127.453Z" fill="#0063F7"/>
<path d="M134.195 101.455C134.752 103.406 133.811 105.513 132 106.42C132.157 106.332 133.376 107.081 133.585 107.186C133.811 107.29 134.944 108.022 135.188 107.918C137.017 107.012 137.94 104.903 137.383 102.953C137.313 102.727 136.024 102.308 135.797 102.187C135.414 102.012 135.048 101.838 134.665 101.664C134.595 101.629 134.195 101.489 134.195 101.455Z" fill="#AC5DD9"/>
<path d="M30.5794 107.522C32.687 107.435 34.7952 107.348 36.9028 107.261C37.0245 107.261 36.8854 102 36.9203 102C34.8126 102.087 32.7045 102.174 30.5968 102.261C30.4752 102.261 30.6143 107.522 30.5794 107.522Z" fill="#FFCC00"/>
<path d="M52.3633 124.909C52.9033 125.989 53.4433 127.052 53.9833 128.132C54.0531 128.254 55.1331 128.254 55.2896 128.271C55.4467 128.288 56.5442 128.271 56.596 128.375C56.0566 127.295 55.516 126.233 54.9766 125.152C54.9067 125.031 53.8267 125.031 53.6696 125.013C53.5306 124.996 52.4326 125.013 52.3633 124.909Z" fill="#FF5C5C"/>
<path d="M16.9109 87.396C17.5905 88.3544 18.2696 89.2947 18.9492 90.2526C18.8969 90.1833 20.9696 88.5807 20.8998 88.4935C20.2207 87.5356 19.5416 86.5947 18.862 85.6364C18.9143 85.6887 16.8416 87.2918 16.9109 87.396Z" fill="#FF5C5C"/>
<path d="M13.75 1.72586C19.5509 2.70168 23.8709 8.31059 23.8534 14.129C23.836 17.1775 22.7211 20.1388 20.9271 22.5775C20.5261 23.135 20.0734 23.6575 19.6027 24.1626C19.4636 24.3197 18.4534 25.26 19.5509 24.2673C20.5087 23.3962 19.864 23.9711 19.6201 24.1626C19.2547 24.4413 18.8712 24.7026 18.4709 24.9644C17.0423 25.8524 15.4398 26.6013 13.75 26.7759C11.9729 26.9673 10.1963 26.4448 9.13379 24.9644C8.71542 24.389 8.43669 23.7099 8.38488 22.9959C8.34997 22.6299 8.40178 22.2639 8.50651 21.9159C8.69797 21.2886 9.58651 20.4349 8.19288 21.6715C7.94906 21.881 7.70524 22.0899 7.46142 22.2988C10.3878 20.0515 13.6627 22.7166 15.3176 25.1908C16.8678 27.5073 17.6865 30.2422 17.8611 33.012C18.0176 35.7644 17.5474 38.5517 16.4849 41.0777C15.9623 42.3491 15.2827 43.5513 14.4814 44.6482C14.0636 45.2057 13.6278 45.7462 13.1401 46.2339C13.0005 46.3904 12.8265 46.53 12.6874 46.6866C12.6001 46.7913 14.3249 45.3104 13.576 45.8679C13.2274 46.1291 12.8963 46.3904 12.5303 46.6168C9.93506 48.324 5.64942 49.6304 3.43706 46.6168C2.67069 45.5717 2.28778 44.0908 2.88015 42.8717C2.94942 42.732 3.01924 42.6279 3.08906 42.5057C3.62906 41.5304 1.19033 43.7946 1.93924 43.499C2.21797 43.3942 2.46178 43.2377 2.75797 43.1679C3.42015 43.0108 4.11669 43.0631 4.76087 43.2546C8.17542 44.2653 8.38488 48.1844 7.20015 51.0066C5.80651 54.3339 2.84524 56.6684 1.36433 59.9602C-1.4404 66.2313 0.179602 74.1579 5.30142 78.7391C5.38815 78.8264 7.20015 76.9451 7.26997 76.9975C3.50688 73.6353 1.64306 68.514 2.00906 63.5144C2.20051 61.0408 2.93197 58.6189 4.23833 56.5113C5.84142 53.916 8.22778 51.7904 9.30778 48.8815C10.1963 46.4951 10.1265 43.3593 7.67033 41.9482C6.76433 41.4257 5.61451 41.1819 4.60433 41.478C3.50688 41.7917 2.61833 42.8193 1.7996 43.5682C1.05069 44.2479 0.563057 45.0317 0.597966 46.0768C0.632875 47.2091 1.20724 48.3066 2.02651 49.0729C4.23833 51.0939 7.67033 50.1011 9.95251 48.7599C11.8861 47.6269 13.6627 46.0075 15.1954 44.37C16.7287 42.7146 17.9134 40.7466 18.6798 38.6215C20.2474 34.3533 20.23 29.441 18.2789 25.295C17.2163 23.0657 15.4747 20.5391 12.9487 19.8775C10.5618 19.2502 8.57633 20.94 7.07797 22.6124C5.38815 24.5111 6.88651 27.3508 8.95924 28.2039C11.7116 29.3362 14.9341 27.8209 17.182 26.2184C21.3274 23.274 25.0032 19.146 25.6474 13.9195C26.2747 8.85059 23.6096 3.60713 19.0976 1.1684C18.0176 0.576586 16.8678 0.193131 15.6487 0.00113112C15.4747 -0.033778 14.7951 0.75004 14.656 0.872768C14.6036 0.959495 13.924 1.76077 13.75 1.72586Z" fill="#FFCC00"/>
<path d="M9.98955 103.238C9.21664 106.587 8.38755 110.067 8.87136 113.518C9.08191 115.054 9.53573 116.563 10.3195 117.893C11.0859 119.225 12.1626 120.206 13.3741 121.137C14.5081 122.007 15.7266 122.849 16.4679 124.114C17.339 125.592 17.3657 127.36 17.6428 129.011C18.1125 131.728 19.8165 133.9 22.3594 134.977C25.0877 136.136 27.8668 135.449 30.5434 134.476C29.7186 134.781 28.8361 134.883 28.0125 135.187C27.995 135.189 30.5935 134.611 29.1999 134.841C29.0788 134.855 28.9746 134.866 28.8535 134.881C28.5939 134.91 28.3152 134.925 28.0517 134.92C27.4381 134.92 26.8163 134.851 26.2195 134.691C25.0834 134.419 24.0083 133.91 23.0865 133.209C22.1641 132.509 21.3955 131.615 20.8746 130.588C20.2583 129.343 20.117 127.957 19.9277 126.611C19.7248 125.144 19.3872 123.727 18.3786 122.58C17.5097 121.575 16.3932 120.862 15.3688 120.032C13.1526 118.287 11.8763 115.874 11.4355 113.101C10.8715 109.553 11.7072 105.986 12.5052 102.545C12.4806 102.636 11.3657 102.851 11.2288 102.885C11.1083 102.899 10.0255 103.093 9.98955 103.238Z" fill="#0063F7"/>
<path d="M114.559 111.134C116.56 112.895 119.551 115.207 122.333 113.457C123.498 112.725 123.641 111.505 123.828 110.275C123.971 109.341 123.619 108.281 122.772 107.739C121.585 106.987 120.31 107.846 119.782 108.918C119.507 109.479 119.375 110.073 119.254 110.678C119.122 111.336 118.968 112.004 118.935 112.682C118.77 115.694 119.551 118.782 121.013 121.443C121.76 122.801 122.684 124.053 123.784 125.167C124.784 126.174 125.96 127.118 127.379 127.5C128.687 127.839 130.205 127.585 131.161 126.62C131.557 126.227 131.777 125.75 131.887 125.219C132.008 124.636 132.206 124.01 132.195 123.405C132.173 122.43 131.425 121.401 130.414 121.168C129.27 120.913 128.424 121.804 128.182 122.801C127.885 124.021 127.654 125.23 127.929 126.471C128.248 127.871 128.995 129.229 129.754 130.438C131.414 133.089 133.756 135.349 136.505 136.95C138.935 138.361 142.596 139.008 143.717 141.85C143.827 142.137 143.904 142.434 143.937 142.741C143.948 142.879 143.926 143.028 143.959 143.155C144.003 143.398 144.113 142.349 144.136 142.327C144.102 142.37 144.047 142.55 144.036 142.593C143.827 143.08 143.937 143.685 143.729 144.173C143.959 143.632 144.036 143.028 144.146 142.455C144.245 141.956 144.311 141.479 144.223 140.97C144.025 139.846 143.288 138.88 142.365 138.201C141.222 137.353 139.847 136.875 138.55 136.281C137.197 135.667 135.911 134.903 134.746 134.001C132.47 132.262 130.59 130.045 129.303 127.542C128.72 126.428 128.182 125.24 128.105 123.979C128.094 123.735 128.116 123.501 128.116 123.267C128.126 124.392 127.819 124.424 128.028 123.936C128.071 123.819 128.138 123.703 128.204 123.597C128.479 123.172 128.918 122.854 129.435 122.758C130.381 122.578 131.26 123.258 131.656 124.042C131.755 124.233 131.832 124.445 131.865 124.657C131.887 124.774 131.887 124.891 131.898 125.007C131.964 125.622 132.36 123.681 132.019 124.286C131.711 124.816 131.37 125.24 130.82 125.558C128.336 127.011 125.664 125.23 123.971 123.48C122.058 121.496 120.661 119.056 119.903 116.448C119.507 115.09 119.275 113.679 119.243 112.269C119.232 111.972 119.232 111.675 119.243 111.388C119.243 111.219 119.254 111.049 119.275 110.89C119.375 109.84 118.957 111.824 119.243 111.145C119.485 110.54 119.727 109.957 120.254 109.532C121.2 108.758 122.486 109.023 123.135 109.999C123.432 110.455 123.542 110.932 123.575 111.463C123.619 112.099 124.015 110.116 123.729 110.699C123.652 110.858 123.586 111.007 123.476 111.145C123.3 111.388 123.08 111.611 122.838 111.792C121.728 112.608 120.156 112.671 118.869 112.258C117.308 111.749 116.065 110.646 114.866 109.596C114.911 109.639 114.724 110.296 114.702 110.38C114.691 110.444 114.493 111.07 114.559 111.134Z" fill="#3CC196"/>
<path d="M144.151 20.7699C141.799 20.4912 139.639 21.6061 138.071 23.3134C136.277 25.2639 135.423 27.7206 135.04 30.2985C134.274 35.4197 135.057 41.0641 131.939 45.5412C130.633 47.4219 128.699 48.6939 126.4 48.9726C123.944 49.2688 121.505 48.5717 119.101 48.1365C116.732 47.7012 114.241 47.4568 111.993 48.5025C109.886 49.4777 108.353 51.3241 106.977 53.1356C105.374 55.2263 103.911 57.4037 101.629 58.8148C99.4862 60.1561 96.7512 60.8183 94.5563 59.2152C94.6431 59.285 94.4865 60.3825 94.4691 60.5216C94.4522 60.6961 94.2776 61.7412 94.4167 61.8285C96.2805 63.2046 98.5976 62.9259 100.584 61.9327C102.761 60.8526 104.294 59.111 105.74 57.1948C107.133 55.3485 108.475 53.3799 110.373 51.9863C112.359 50.5228 114.677 50.1743 117.08 50.453C121.662 50.9756 126.888 53.2234 130.703 49.4254C134.325 45.8368 134.274 40.3496 134.587 35.6292C134.796 32.4934 135.301 29.2883 137.235 26.7099C138.838 24.5848 141.241 23.0341 143.977 23.3652C143.977 23.4001 144.237 20.7874 144.151 20.7699Z" fill="#FF5C5C"/>
<path d="M108.551 14.8811C110.084 17.5287 112.853 19.236 115.902 19.4275C115.971 19.4275 116.459 18.8176 116.425 18.8525C116.842 18.3824 117.244 17.9296 117.644 17.4595C118.044 16.9887 118.463 16.5185 118.863 16.0484C118.933 15.9611 119.281 15.456 119.351 15.456C116.303 15.2645 113.533 13.5573 112 10.9091C112.052 10.9964 110.397 12.7036 110.258 12.8776C110.101 13.0516 108.446 14.7071 108.551 14.8811Z" fill="#FFCC00"/>
<path d="M137.816 46.8043C138.113 48.4243 138.426 50.0617 138.722 51.6817C138.739 51.8214 140.256 52.0827 140.43 52.1176C140.586 52.1525 142.119 52.3957 142.136 52.5179C141.841 50.8979 141.527 49.2605 141.231 47.6405C141.213 47.5008 139.698 47.2396 139.524 47.2052C139.35 47.1703 137.834 46.9265 137.816 46.8043Z" fill="#3CC196"/>
<path d="M118.174 29.4761C117.146 31.131 116.118 32.7859 115.091 34.4234C115.125 34.371 116.658 34.7714 116.798 34.8063C116.955 34.8412 118.452 35.277 118.522 35.1548C119.55 33.4999 120.578 31.845 121.606 30.2075C121.571 30.2599 120.038 29.8595 119.898 29.8246C119.742 29.7897 118.244 29.3539 118.174 29.4761Z" fill="#0063F7"/>
<path d="M74.1826 20.4333C74.7575 22.2273 76.2559 23.5511 78.1197 23.8996C78.2413 23.9171 78.9728 22.5584 79.0601 22.4193C79.1473 22.2796 79.8788 20.9035 79.9835 20.9209C78.1371 20.5549 76.6388 19.2485 76.0464 17.4545C76.0988 17.6285 75.2108 18.7435 75.1055 18.9349C74.8791 19.2835 74.6708 19.632 74.4439 19.98C74.3921 20.0673 74.1651 20.3635 74.1826 20.4333Z" fill="#FF5C5C"/>
<path d="M126.546 77.346C126.807 79.4013 127.887 81.1784 129.578 82.38C129.664 82.4498 130.884 81.4571 131.006 81.3524C131.127 81.2656 132.347 80.2549 132.417 80.3073C130.727 79.1225 129.647 77.3285 129.386 75.2727C129.403 75.3949 128.097 76.1962 127.957 76.3004C127.801 76.4225 126.529 77.154 126.546 77.346Z" fill="#0063F7"/>
<path d="M42.006 9.42C41.9013 11.8762 43.1733 14.1758 45.3158 15.3775C45.5247 15.4996 47.3013 14.1235 47.5456 13.9664C48.0682 13.6358 48.5907 13.2873 49.0958 12.9387C49.1651 12.8864 49.6882 12.486 49.7405 12.5035C47.5975 11.3013 46.326 9.00218 46.4307 6.54546C46.4307 6.58037 45.6993 6.99873 45.7685 6.94637C45.246 7.27746 44.7235 7.60855 44.2009 7.95655C43.6784 8.28764 43.1558 8.63618 42.6507 8.98473C42.546 9.05455 42.0235 9.33273 42.006 9.42Z" fill="#3CC196"/>
<path d="M14.0634 61.406C11.5014 61.6945 9.60921 64.2107 10.0227 66.7514C10.1688 67.5887 10.579 68.4543 10.8425 69.2551C11.1218 70.0476 11.5707 70.9143 11.7092 71.7352C11.2799 69.2016 13.1879 66.6783 15.7499 66.3903C15.6954 66.3963 14.9885 64.0907 14.9301 63.8867C14.8723 63.6832 14.2118 61.394 14.0634 61.406Z" fill="#AC5DD9"/>
<path d="M27.8184 31.9334C28.9676 32.7696 30.1175 33.6232 31.2673 34.4594C31.4244 34.5811 33.6193 31.8811 33.7584 31.9858C32.6085 31.1496 31.4593 30.296 30.3095 29.4598C30.1355 29.3201 27.9405 32.0207 27.8184 31.9334Z" fill="#0063F7"/>
<path d="M35.6707 135.828C35.0533 136.876 34.4358 137.922 33.8184 138.969C33.8811 138.871 36.2522 140.106 36.3329 139.972C36.9504 138.924 37.5678 137.878 38.1853 136.831C38.1225 136.938 35.7509 135.694 35.6707 135.828Z" fill="#FFCC00"/>
<path d="M1.63672 123.144C2.19417 123.98 2.76908 124.816 3.32654 125.635C3.36145 125.688 4.4589 125.218 4.56363 125.165C4.66781 125.13 5.76526 124.642 5.78272 124.678C5.22526 123.841 4.65036 123.005 4.0929 122.186C4.05799 122.134 2.96054 122.604 2.85636 122.656C2.76908 122.692 1.65417 123.179 1.63672 123.144Z" fill="#3CC196"/>
<path d="M114.235 135.773C115.263 137.097 116.674 137.967 118.329 138.281C118.468 138.316 119.165 137.497 119.287 137.375C119.409 137.271 120.088 136.435 120.228 136.452C118.59 136.121 117.179 135.25 116.134 133.943C116.186 134.013 114.166 135.686 114.235 135.773Z" fill="#3CC196"/>
<defs>
<filter id="filter0_d_3651_3129" x="22.9096" y="41.1046" width="93.7149" height="83.0635" filterUnits="userSpaceOnUse" color-interpolation-filters="sRGB">
<feFlood flood-opacity="0" result="BackgroundImageFix"/>
<feColorMatrix in="SourceAlpha" type="matrix" values="0 0 0 0 0 0 0 0 0 0 0 0 0 0 0 0 0 0 127 0" result="hardAlpha"/>
<feOffset dy="0.545455"/>
<feGaussianBlur stdDeviation="0.272727"/>
<feColorMatrix type="matrix" values="0 0 0 0 0 0 0 0 0 0 0 0 0 0 0 0 0 0 0.469597 0"/>
<feBlend mode="normal" in2="BackgroundImageFix" result="effect1_dropShadow_3651_3129"/>
<feBlend mode="normal" in="SourceGraphic" in2="effect1_dropShadow_3651_3129" result="shape"/>
</filter>
<linearGradient id="paint0_linear_3651_3129" x1="23.4551" y1="41.1046" x2="23.4551" y2="123.077" gradientUnits="userSpaceOnUse">
<stop stop-color="#5B8DEF"/>
<stop offset="1" stop-color="#0063F7"/>
</linearGradient>
<linearGradient id="paint1_linear_3651_3129" x1="26.2344" y1="40.1784" x2="26.2344" y2="72.5969" gradientUnits="userSpaceOnUse">
<stop stop-color="#0063F7"/>
<stop offset="1" stop-color="#5B8DEF"/>
</linearGradient>
</defs>
</svg>
