<svg width="32" height="32" viewBox="0 0 32 32" fill="none" xmlns="http://www.w3.org/2000/svg">
    <path d="M15.9425 30.9185L15.2843 30.6525C9.72596 28.5569 5.89781 25.0769 3.57174 20.6178C2.35724 18.2895 1.6143 15.811 1.25182 13.2953C1.00275 11.5667 0.958326 10.028 1.03258 8.78521C1.03913 8.67559 1.04622 8.57774 1.05348 8.4919C1.05824 8.43568 1.06167 8.39995 1.06535 8.36453L1.22175 7.09785L2.05586 6.88402L2.42456 6.78952C6.19483 5.80449 9.25804 4.63008 11.674 3.36989C12.5397 2.91838 13.2664 2.4839 13.8609 2.07983C14.0789 1.9317 14.2667 1.79589 14.4247 1.67446C14.5322 1.59184 14.6131 1.5258 14.6604 1.48469C15.3971 0.840154 16.4801 0.838442 17.2187 1.47955C17.2748 1.52755 17.3545 1.59226 17.4606 1.67357C17.62 1.79573 17.8081 1.93159 18.0261 2.07968C18.6217 2.48434 19.3481 2.91864 20.2131 3.36997C22.6289 4.63046 25.6906 5.80461 29.4548 6.78806L30.6632 7.09785L30.8183 8.35224C30.8233 8.39995 30.8267 8.43568 30.8315 8.4919C30.8387 8.57774 30.8458 8.67559 30.8524 8.78521C30.9266 10.028 30.8822 11.5667 30.6331 13.2953C30.2707 15.811 29.5277 18.2895 28.3132 20.6178C25.9872 25.0769 22.159 28.5569 16.6007 30.6525L15.9425 30.9185Z" fill="#EEEEEE"/>
    <mask id="mask0" mask-type="alpha" maskUnits="userSpaceOnUse" x="2" y="2" width="28" height="28">
        <path d="M29.5628 8.4943C29.5789 8.6489 31.1832 23.8163 16.1403 29.4781L15.9425 29.558L15.7446 29.4781C0.701748 23.8163 2.30603 8.6489 2.32208 8.4943L2.37021 8.10512L2.74454 8.00915C11.4986 5.72205 15.1136 2.76321 15.4933 2.43267C15.7553 2.20343 16.1296 2.20343 16.3917 2.43267C16.7767 2.76321 20.3863 5.72205 29.1404 8.00915L29.5147 8.10512L29.5628 8.4943Z" fill="white"/>
    </mask>
    <g mask="url(#mask0)">
        <rect x="2" y="4.7998" width="28" height="2.8" fill="#3538BF"/>
        <rect x="2" y="7.6001" width="28" height="2.8" fill="#3538BF" stroke="#3538BF"/>
        <rect x="2" y="10.3999" width="28" height="2.8" fill="#3538BF" stroke="#3538BF"/>
        <rect x="2" y="13.2002" width="28" height="2.8" fill="#3538BF" stroke="#3538BF"/>
        <rect x="2" y="16" width="28" height="2.8" fill="#3538BF" stroke="#3538BF"/>
        <rect x="2" y="18.7998" width="28" height="2.8" fill="#3538BF" stroke="#3538BF"/>
        <rect x="2" y="21.6001" width="28" height="2.8" fill="#3538BF" stroke="#3538BF"/>
        <rect x="2" y="24.3999" width="28" height="2.8" fill="#3538BF" stroke="#3538BF"/>
        <rect x="2" y="27.2002" width="28" height="2.8" fill="#3538BF" stroke="#3538BF"/>
    </g>
</svg>
