<svg xmlns="http://www.w3.org/2000/svg" width="72" height="72" viewBox="0 0 72 72">
    <g fill="none" fill-rule="evenodd">
        <g fill-rule="nonzero">
            <g>
                <g transform="translate(-684 -257) translate(496 233) translate(188 24)">
                    <circle cx="36" cy="36" r="36" fill="#D8F2EA"/>
                    <g fill="#3CC196">
                        <path d="M24 8V2l-8 8 8 8v-6c6.62 0 12 5.38 12 12 0 2.02-.5 3.94-1.4 5.6l2.92 2.92C39.08 30.06 40 27.14 40 24c0-8.84-7.16-16-16-16zm0 28c-6.62 0-12-5.38-12-12 0-2.02.5-3.94 1.4-5.6l-2.92-2.92C8.92 17.94 8 20.86 8 24c0 8.84 7.16 16 16 16v6l8-8-8-8v6z" transform="translate(12 12)"/>
                    </g>
                </g>
            </g>
        </g>
    </g>
</svg>
