<svg xmlns="http://www.w3.org/2000/svg" width="20" height="21" viewBox="0 0 20 21">
    <path fill="#868E97" fill-rule="evenodd" d="M10 1.125c1.242 0 2.411.234 3.507.703a9.031 9.031 0 0 1 2.865 1.925 9.031 9.031 0 0 1 1.925 2.865A8.821 8.821 0 0 1 19 10.125a8.821 8.821 0 0 1-.703 3.507 9.031 9.031 0 0 1-1.925 2.865 9.031 9.031 0 0 1-2.865 1.925 8.821 8.821 0 0 1-3.507.703 8.821 8.821 0 0 1-3.507-.703 9.031 9.031 0 0 1-2.865-1.925 9.031 9.031 0 0 1-1.925-2.865A8.821 8.821 0 0 1 1 10.125c0-1.242.234-2.411.703-3.507a9.031 9.031 0 0 1 1.925-2.865 9.031 9.031 0 0 1 2.865-1.925A8.821 8.821 0 0 1 10 1.125zm0 16.893c1.09 0 2.112-.208 3.067-.624a7.947 7.947 0 0 0 2.496-1.697 8.131 8.131 0 0 0 1.688-2.505 7.597 7.597 0 0 0 .624-3.067c0-1.09-.208-2.112-.624-3.067a8.023 8.023 0 0 0-1.688-2.496 8.023 8.023 0 0 0-2.496-1.688A7.597 7.597 0 0 0 10 2.25c-1.09 0-2.112.208-3.067.624a8.023 8.023 0 0 0-2.496 1.688 8.023 8.023 0 0 0-1.688 2.496 7.597 7.597 0 0 0-.624 3.067c0 1.09.208 2.112.624 3.067.416.955.979 1.79 1.688 2.505a7.947 7.947 0 0 0 2.496 1.697 7.597 7.597 0 0 0 3.067.624zm3.182-11.075a.537.537 0 0 1 .158.396c0 .158-.053.29-.158.395l-2.391 2.391 2.39 2.39a.537.537 0 0 1 .159.396.537.537 0 0 1-.554.554.537.537 0 0 1-.395-.158L10 10.916l-2.39 2.39a.537.537 0 0 1-.396.159.537.537 0 0 1-.396-.158.537.537 0 0 1-.158-.396c0-.158.053-.29.158-.395l2.391-2.391-2.39-2.39a.537.537 0 0 1-.159-.396.537.537 0 0 1 .554-.554c.158 0 .29.053.395.158L10 9.334l2.39-2.39a.537.537 0 0 1 .396-.159c.158 0 .29.053.396.158z"/>
</svg>
