<svg width="140" height="150" viewBox="0 0 140 150" fill="none" xmlns="http://www.w3.org/2000/svg">
    <path d="M73.194 44.4311H76.2106V38.3993H73.194C71.5227 38.3993 70.1774 39.7488 70.1774 41.4254C70.1978 43.0816 71.543 44.4311 73.194 44.4311Z" fill="#EDC573"/>
    <path d="M76.4552 19.4859L73.6424 67.2703C73.5812 68.1291 74.2539 68.8856 75.1099 68.9265H75.1303C75.9864 68.9879 76.659 69.724 76.5978 70.5827L74.7634 103.175C74.7227 104.034 75.3749 104.79 76.231 104.831L79.5329 105.036C80.389 105.097 81.1431 104.422 81.1839 103.564L85.8311 23.0232C85.8719 22.4098 85.5458 21.8373 84.9954 21.551L78.7584 18.1773C77.7393 17.6457 76.5163 18.3409 76.4552 19.4859Z" fill="white"/>
    <path d="M86.3815 103.216H50.7121C49.7542 103.216 49 103.993 49 104.934C49 105.895 49.7745 106.651 50.7121 106.651H86.3815C87.3395 106.651 88.0936 105.874 88.0936 104.934C88.114 103.993 87.3395 103.216 86.3815 103.216Z" fill="#EEEEEE"/>
    <path d="M70.1978 41.4254C70.1978 39.9737 71.2169 38.7673 72.5621 38.481V37.1929L65.2448 34.2076L65.9378 49.3384L72.5621 45.433V44.3698C71.1965 44.0631 70.1978 42.8567 70.1978 41.4254Z" fill="#FDD279"/>
    <path d="M60.9645 86.3677H62.5747C63.2474 86.3677 63.7977 85.8157 63.7977 85.1409V1.22681C63.7977 0.552067 63.2474 0 62.5747 0H60.9645C60.2919 0 59.7416 0.552067 59.7416 1.22681V85.1614C59.7416 85.8157 60.2919 86.3677 60.9645 86.3677Z" fill="white"/>
    <path d="M60.5365 0.0817871C60.0881 0.265809 59.762 0.695194 59.762 1.22681V85.1614C59.762 85.6725 60.0881 86.1224 60.5365 86.3064V0.0817871Z" fill="#FDD279"/>
    <path d="M63.7773 85.1409C63.7773 85.1409 74.4985 46.9257 63.7773 1.20636V85.1409Z" fill="#EEEEEE"/>
    <ellipse cx="22" cy="97" rx="22" ry="3" fill="#54B468"/>
    <path d="M34.4594 61H8.54058C7.14815 61 6 61.9974 6 63.2137V64.7219H37V63.2137C37 61.9974 35.8519 61 34.4594 61Z" fill="#EDC573"/>
    <path d="M31.6501 66.4247H29.2317L30.4043 73.3576H12.5957L13.7683 66.4247H11.3499H8.93144L6 98H7.19701H8.41844L11.9606 77.0065H31.015L34.5816 98H35.803H37L34.0686 66.4247H31.6501Z" fill="#EDC573"/>
    <g clip-path="url(#clip0)">
        <path fill-rule="evenodd" clip-rule="evenodd" d="M28.6211 13.5498C28.6512 17.6292 27.3256 15.833 21.4507 16.5028C16.7207 17.0508 12.0811 18.6642 7.65234 20.2472C6.41711 20.7039 5.72418 20.2168 5.06138 20.9779C1.77748 25.6052 3.31398 30.3847 2.83195 31.5111C2.19927 32.9115 1.74736 35.1033 1.74736 36.8386C1.74736 39.0609 2.0185 40.8875 2.68131 42.3792C3.28386 46.5194 4.4287 50.5987 5.75431 54.5563C4.66972 55.1956 3.46462 56.0784 2.47042 58.5443C-0.0301635 64.8764 3.7659 69.5037 9.88177 71.3607C12.8041 72.2436 19.7937 72.3349 24.4032 71.2085C29.4345 69.9603 31.6037 65.6679 25.5481 64.3589C22.4449 63.6891 18.0764 64.298 16.9617 64.4502C15.0637 64.7546 8.94782 64.8155 7.89336 63.476C6.41711 61.619 8.28502 59.1227 9.30935 58.9096C10.7856 60.036 12.2618 61.8017 24.5538 61.1319C39.1054 60.4013 37.7195 51.1467 37.7497 39.4871C42.0278 40.6135 45.0104 40.583 48.0533 40.1568C52.9942 39.5175 53.4461 32.1808 48.3847 32.2722C48.2943 33.429 48.7462 35.3164 47.3905 35.3773C46.0046 35.4382 46.4264 33.703 46.2757 32.5766C41.124 33.4594 37.8099 34.738 36.876 29.0452C36.3939 26.1836 35.7914 21.5867 34.4055 18.9382C33.6222 17.4465 33.3511 18.0249 33.2607 16.8681C33.1402 15.5286 33.4113 13.0323 32.5075 12.0886C31.0614 12.0581 29.8262 13.1541 28.6211 13.5498Z" fill="white"/>
        <path fill-rule="evenodd" clip-rule="evenodd" d="M5.18191 18.8164C4.82038 17.3552 8.19465 16.8681 9.79141 16.3506C13.7984 15.0415 17.6848 14.0369 21.8424 13.4585C24.0116 13.1541 27.175 12.1495 27.898 12.4843C27.9281 13.4889 27.5064 13.1845 25.6686 13.702C24.7045 13.976 23.4392 14.1891 22.5655 14.3109C17.7149 15.072 12.4426 16.2897 7.803 17.8727C7.01968 18.1771 5.93509 18.9382 5.18191 18.8164ZM7.65236 20.2777C12.0811 18.6642 16.7509 17.0812 21.4507 16.5332C26.8436 15.8939 28.4704 17.3552 28.6512 14.4327C28.7416 13.0019 27.5064 8.73986 26.7833 7.58303C24.4635 3.80812 15.9675 7.82658 13.3163 9.34872L3.10311 14.0674C-2.13907 15.8635 0.421768 18.3293 3.61528 20.0341C4.09732 20.2777 4.12745 20.2168 4.5191 20.369C5.45305 20.7648 6.38701 20.7343 7.65236 20.2777Z" fill="#FDD279"/>
        <path fill-rule="evenodd" clip-rule="evenodd" d="M2.68137 42.3488C0.933982 43.1707 -0.964048 45.4539 0.572452 48.894C2.50061 53.1559 11.81 54.7085 18.3778 53.0342C24.7045 51.4512 27.3558 46.8543 26.0904 40.0351C24.8552 33.1246 13.1055 31.5416 9.03827 35.2556C8.37547 35.8644 7.47164 37.3257 7.62228 38.7565C7.80304 41.5572 13.6478 40.7657 15.4855 40.5526C16.299 40.4613 16.8714 40.37 17.7752 40.5222C19.1008 40.7048 18.4682 39.8524 19.4624 39.4567C19.0406 38.3608 18.1368 38.3608 19.1008 36.9299C19.5528 36.6255 22.3245 37.4779 23.2886 38.4825C24.0417 39.2131 23.8309 40.2178 22.8969 40.4004C21.7822 40.644 21.1495 40.1873 20.2758 40.096C19.8239 40.8571 19.854 40.6135 19.372 41.1615C19.7938 42.1661 19.9745 41.5268 20.4566 41.405C21.3604 41.1615 21.7219 42.3488 20.7579 42.5314C20.2156 42.7445 20.0348 42.501 20.1854 43.1403C20.2156 43.1707 20.788 43.1098 21.0893 43.1403C21.6315 43.2316 21.9027 44.2971 20.8181 44.2667C20.547 44.2667 20.2758 44.1753 20.1553 44.632C20.0348 45.0582 20.4867 44.9364 20.8482 45.0886C21.6617 45.393 21.8123 46.2759 20.547 46.0932C20.0649 46.0019 20.0047 45.6366 18.7092 46.6107C12.8946 49.5333 4.85055 46.1237 2.68137 42.3488Z" fill="#EDC573"/>
        <path fill-rule="evenodd" clip-rule="evenodd" d="M44.9502 25.7878C45.5828 26.762 45.3719 27.6144 46.9988 27.4317C48.0834 27.31 48.4148 26.8838 49.0174 25.7269C50.5237 23.8395 50.7648 16.6245 47.7219 14.3718C48.3847 19.4557 42.2387 19.3948 44.9502 25.7878Z" fill="#FDD279"/>
        <path fill-rule="evenodd" clip-rule="evenodd" d="M5.1819 18.8164C5.93509 18.9382 7.01967 18.1771 7.80299 17.9336C12.4426 16.3506 17.7149 15.1328 22.5654 14.3718C23.4391 14.2196 24.7045 14.0369 25.6686 13.7629C27.5064 13.2454 27.9281 13.5498 27.898 12.5452C27.1749 12.2103 23.9814 13.2149 21.8424 13.5194C17.6848 14.0978 13.7984 15.1024 9.7914 16.4114C8.19465 16.8681 4.82037 17.3552 5.1819 18.8164Z" fill="white"/>
        <path fill-rule="evenodd" clip-rule="evenodd" d="M4.82036 49.4114C5.48317 50.1725 5.27227 50.3856 6.47737 50.5987C7.95362 50.8727 6.14597 50.7814 8.9177 50.9945C9.79139 51.0553 10.6651 51.5424 11.2375 51.0858C11.6894 50.7205 12.0208 49.6245 11.7196 48.9852C11.2074 48.285 9.33948 48.3764 8.31515 48.0111C7.35107 47.6762 7.83311 47.9806 7.14018 47.9806C6.35686 47.9806 6.98954 47.8588 6.23635 47.6153C5.8447 47.4935 5.39278 47.4935 5.00113 47.6458C4.06718 48.0415 4.33832 48.833 4.82036 49.4114Z" fill="white"/>
        <path fill-rule="evenodd" clip-rule="evenodd" d="M19.9444 29.1365C19.7636 30.2629 20.4867 31.0849 21.5713 31.4502C21.3604 32.2721 21.029 32.4548 20.7277 33.0332C20.4565 33.5812 20.9687 33.9161 21.3604 33.4899C21.752 33.0941 21.8725 32.6679 22.1738 32.1808C23.7404 34.0987 26.0904 33.8247 27.1147 31.5111C27.2653 31.1762 27.3256 30.8413 27.2955 30.5369C27.2352 29.7149 26.3615 29.5323 26.1808 30.202C26.0602 30.6891 26.5122 30.7804 26.241 31.3284C25.3673 33.0941 23.3488 32.6983 22.3546 31.298C22.5052 30.9327 23.4994 29.8367 22.686 28.4972C21.9328 28.3146 20.5469 28.7408 19.9444 29.1365Z" fill="#2F2F2F"/>
        <path fill-rule="evenodd" clip-rule="evenodd" d="M12.7439 35.3773C11.7196 35.9253 11.4183 38.0867 11.5388 38.5129C11.7497 39.274 12.4728 39.0913 13.0753 39.0304C13.5573 38.9696 14.5817 39.2131 15.0938 39.0304C15.7868 38.7869 15.606 38.2389 15.8169 37.6301C16.0278 37.0517 16.5098 36.7168 16.2387 36.0166C15.9374 35.1947 13.2862 35.1033 12.7439 35.3773Z" fill="white"/>
        <path fill-rule="evenodd" clip-rule="evenodd" d="M20.2758 47.9502C19.3117 47.7066 17.715 48.011 17.022 48.4981C16.0579 49.1983 14.7323 48.7112 14.8227 50.0203C14.9734 51.9686 18.1367 50.5682 19.4322 50.5682C20.1553 50.5682 20.4264 50.4465 20.8181 50.1725C20.9988 49.2288 20.6072 48.4981 20.2758 47.9502Z" fill="white"/>
        <path fill-rule="evenodd" clip-rule="evenodd" d="M46.3059 29.6236C46.2758 33.7639 46.3661 37.9345 46.3661 42.0747C46.336 47.524 48.7462 47.25 48.6558 42.3183C48.5956 37.965 48.4148 33.6421 48.3244 29.3192C47.6616 29.6541 47.3302 29.6845 46.3059 29.6236Z" fill="#FFF0DA"/>
        <path fill-rule="evenodd" clip-rule="evenodd" d="M49.62 33.7029L49.0475 33.3681C48.5052 33.0332 47.6617 32.9723 47.0591 33.3376C46.6072 33.5812 46.5771 33.9769 47.3905 34.1291C48.1738 34.2814 49.0777 34.2205 49.62 33.7029Z" fill="white"/>
        <path fill-rule="evenodd" clip-rule="evenodd" d="M48.9872 35.7426L49.1077 34.738C48.7161 34.6162 46.6674 34.464 46.7578 35.3164C46.7879 35.7731 48.2943 35.8035 48.6558 35.7731L48.9872 35.7426Z" fill="white"/>
        <path fill-rule="evenodd" clip-rule="evenodd" d="M48.927 37.2648L49.2584 36.3819C48.7764 36.2602 46.7578 36.0471 46.9687 37.0212C47.0591 37.5692 48.5052 37.3256 48.927 37.2648Z" fill="white"/>
        <path fill-rule="evenodd" clip-rule="evenodd" d="M49.0777 38.8173L49.0475 38.0563C48.7161 37.9649 46.7277 37.9345 46.8482 38.9087C46.9085 39.2435 48.5052 39.1522 48.8969 38.9087L49.0777 38.8173Z" fill="white"/>
        <path fill-rule="evenodd" clip-rule="evenodd" d="M46.3059 29.6237C46.8783 29.9281 47.9629 29.8063 48.3244 29.3192C48.6558 28.6799 48.927 26.9142 48.9873 25.6965C48.445 26.1836 46.4867 26.4272 44.92 25.7574C45.2213 27.0665 45.7636 28.893 46.3059 29.6237Z" fill="white"/>
        <path fill-rule="evenodd" clip-rule="evenodd" d="M12.4125 60.1882L11.7798 59.3054C11.1472 59.8229 10.9363 62.6236 11.9305 61.345C12.1112 61.1015 12.2619 60.4318 12.4125 60.1882ZM32.5377 58.5139L31.4832 59.5185C31.7845 60.8275 33.1101 61.893 32.7787 59.6098C32.7184 59.1227 32.6883 59.0009 32.5377 58.5139ZM30.8807 59.488L29.7961 59.9447C29.9166 61.5277 31.2121 62.6541 30.9409 59.9142L30.8807 59.488ZM29.2839 60.1882L28.0788 60.4318C27.9282 60.3709 28.1089 60.6449 28.2294 60.9797C28.8621 62.8976 29.5249 61.8321 29.2839 60.1882ZM27.6871 60.4013L26.6327 60.7057C26.5724 62.0148 27.7173 63.6891 27.6871 60.4013ZM17.263 60.4926L16.1182 60.6144C16.1182 61.0406 15.9977 62.7454 16.54 62.4714C17.1727 62.1365 17.263 61.1624 17.263 60.4926ZM15.5458 60.6144L14.2503 60.5535C13.7984 61.6799 14.5214 64.3284 15.5458 60.6144ZM13.9189 60.3404L12.8946 60.0055C12.7741 60.2795 12.1414 62.8367 13.1356 61.9843C13.4971 61.7408 13.8586 60.7971 13.9189 60.3404Z" fill="white"/>
        <path d="M23.2492 22.103C24.8453 21.1445 26.6195 21.6469 27.3293 23.1517C27.455 23.4305 27.5524 23.6905 27.5167 23.9923C27.4755 24.3149 27.3419 24.5679 27.0136 24.6348C26.7791 24.6826 26.5363 24.5946 26.3865 24.365C26.2975 24.2407 26.2553 24.107 26.1794 23.9752C25.4283 22.7929 24.7889 22.6532 23.7196 23.4651C23.3308 23.7604 22.9262 24.2405 22.4873 23.7212C22.0201 23.1831 22.4943 22.733 22.8921 22.3623C23.0134 22.2394 23.1837 22.1409 23.2492 22.103Z" fill="#2F2F2F"/>
        <path d="M14.1127 24.647C15.0318 24.1504 16.0256 24.2081 17.0252 24.5788C17.317 24.6911 17.5399 24.8961 17.4932 25.2394C17.4431 25.6374 17.1549 25.8042 16.7625 25.8203C16.6611 25.8262 16.5707 25.7907 16.4824 25.789C14.7388 25.6731 14.7388 25.6731 13.9266 27.3555C13.7578 27.6991 13.5566 27.9562 13.1524 27.8913C12.6447 27.7983 12.5989 27.3855 12.6491 26.9874C12.7858 26.0121 13.1978 25.2114 14.1127 24.647Z" fill="#2F2F2F"/>
    </g>
    <defs>
        <clipPath id="clip0">
            <rect width="52" height="66" fill="white" transform="translate(0 6)"/>
        </clipPath>
    </defs>
</svg>



