<?xml version="1.0" encoding="utf-8"?>
<!-- Generator: Adobe Illustrator 24.1.2, SVG Export Plug-In . SVG Version: 6.00 Build 0)  -->
<svg version="1.1" id="Layer_1" xmlns="http://www.w3.org/2000/svg" xmlns:xlink="http://www.w3.org/1999/xlink" x="0px" y="0px"
	 viewBox="0 0 140.3 131" style="enable-background:new 0 0 140.3 131;" xml:space="preserve">
<style type="text/css">
	.st0{fill:#2B5BAA;}
</style>
<path class="st0" d="M122,121c4.4,2.4,9.1,4.1,14.2,5c-3.9,0.1-9.4,0.1-13.1-1.1c-2.4-0.7-5.6-2-9.1-4.1c-13-7.6-22.7-19.8-29.6-33
	c-7.2-13.8-10-29.9-19.4-42.4c-3.6-4.8-8.3-8.6-14-10.4c-3.4-1.1-5.3-0.7-8.9-2c-5-1.8-9.3-5.4-12.2-9.8c4.5,1.9,9.2,2.4,13.9,3.7
	c9.2,2.5,17.6,7.7,24.1,14.7c10.8,11.7,15.8,28.7,22.4,42.8c2.3,4.9,5.1,9.5,8.1,14C104.4,107.4,112.2,115.7,122,121z"/>
<path class="st0" d="M23.5,47.1c-10-20.8-6.4-15.1-18.7-28.4c-9.1-9.9,24.6-9.5,26.4-9.7C56,5.4,48.7,6.5,62.5,2.6
	C57.9,12,32.5,18.2,16.7,19.5C22.4,27.3,21.9,33.4,23.5,47.1z M11.4,13.5c-0.2-0.3-0.4-0.5-0.6-0.6L11.4,13.5z"/>
</svg>
