<?xml version="1.0" encoding="utf-8"?>
<!-- Generator: Adobe Illustrator 24.1.2, SVG Export Plug-In . SVG Version: 6.00 Build 0)  -->
<svg version="1.1" id="Layer_1" xmlns="http://www.w3.org/2000/svg" xmlns:xlink="http://www.w3.org/1999/xlink" x="0px" y="0px"
	 viewBox="0 0 272.7 297.5" style="enable-background:new 0 0 272.7 297.5;" xml:space="preserve">
<style type="text/css">
	.st0{clip-path:url(#SVGID_2_);}
	.st1{fill:#FFFFFF;}
	.st2{fill:#CADCF1;}
	.st3{fill:none;stroke:#84AADA;stroke-miterlimit:10;}
	.st4{fill:#2B5BAA;stroke:#2B5BAA;stroke-miterlimit:10;}
	.st5{fill:#2B5BAA;}
	.st6{fill:none;stroke:#2B5BAA;stroke-miterlimit:10;}
	.st7{fill:#4876BA;}
	.st8{fill:#D5E4F5;stroke:#2B5BAA;stroke-width:3;stroke-miterlimit:10;}
	.st9{fill:none;stroke:#84AADA;stroke-linecap:round;stroke-linejoin:round;stroke-miterlimit:10;}
	.st10{fill:none;stroke:#2B5BAA;stroke-width:3;stroke-linecap:round;stroke-linejoin:round;stroke-miterlimit:10;}
	.st11{fill:none;stroke:#4876BA;stroke-width:4;stroke-linecap:round;stroke-miterlimit:10;}
	.st12{fill:#D5E4F5;stroke:#84AADA;stroke-miterlimit:10;}
</style>
<g>
	<defs>
		<rect id="SVGID_1_" x="3.2" y="3.6" width="266" height="291"/>
	</defs>
	<clipPath id="SVGID_2_">
		<use xlink:href="#SVGID_1_"  style="overflow:visible;"/>
	</clipPath>
	<g class="st0">
		<path class="st1" d="M58.4,51c2.4-5,1.3-10.8,1.4-16.1c0.3-6.1,1.4-12.1,2.6-18.1c1.4-7.1,2.1-10.6,4.2-11.6
			c2.6-1.2,6-0.4,18.7,9.2c3.5,2.6,6.8,5.2,10.2,8c2.2,1.8,4.4,3.7,6.4,5.8c1.5,1.4,2.6,3.7,4.8,4.1c0.9,0.1,1.8,0,2.6-0.1
			c6.4-1.3,13.9-0.3,20.2,1.3c2.4,0.6,5,2.1,7.5,1.9c2.6-0.1,4.6-2.2,6.8-3.4c2.7-1.5,5.3-3.1,8-4.6c4.1-2.5,8.2-4.9,12.3-7.4
			c6.6-4,10.8-6.6,14.1-4.9c3.9,1.9,4.4,8.5,4.9,15.3c0.5,6.8-0.1,11.4-0.6,16.5c-0.4,4.9-0.8,9.8-0.9,14.7c0,4.8-0.4,9.8,1,14.3
			c1,3.5,3.7,6.2,5.9,8.8c2.4,3,4.1,6.1,4.9,9.8c1.5,7.6,0.6,15.7-2.3,22.8c-3.2,7.6-8.6,13.2-15.3,17.8c-3.6,2.6-9.3,6.7-17.1,8
			c-1.3,0.1-3.1,0.4-3.1,0.6c0,0.4,9.1,1,18.4,0c13.9-1.5,22.9-2.6,29.5-8.6c1.7-1.5,5.7-5.8,10.4-5.5c0.8,0,1.8,0.3,3.7,0.6
			c0,0,0.9,0.1,1.4,0.3c3,0.6,4.4,0.9,5.3,1.5c3.3,2.6-0.3,11.6-0.6,12.3c-1.3,3.4-2.6,3.6-3.1,3.7c-1,0-1.4-0.8-2.4-0.6
			c-1.5,0.3-2.3,2.6-2.4,3.1c-1.5,4.5-11.4,10.4-16.6,13.5c-5.9,3.5-12.2,6.1-18.7,8.4c-3.2,1.2-6.4,2.3-9.6,3.4
			c-2.2,0.8-7.5,0.9-7.2,4.3c0.1,1.8,1.4,3.2,2.2,4.8c1,2.2,1.8,4.4,2.6,6.7c1.4,4.4,2.6,8.9,3.6,13.5c3.3,15.4,7.1,30.7,8.7,46.4
			c0.8,7.2,1.2,14.6,0.9,21.8c-0.1,4.6,1,16.4-3.6,19.2c-1.3,0.8-3,1.2-4.5,1.3c-5.5,0.8-12.7,1.4-17.5-2.2
			c-2.6-1.9-3.6-4.8-3.9-7.9c-0.8-6.5-3.3-12.6-6.7-18.1c-2.1-3.4-3.7-7-6.3-10.1c-1.2-1.4-2.6-3.1-4.4-3.7c-2.3-0.9-5.1,0-7.6,0.4
			c-9.5,2.5-19.6,3.1-29.1,5.7c-8.9,2.5-14.3,7.9-18.3,16c-2.4,4.9-5.1,9.7-7.3,14.7c-0.1,0.3-0.5,1.2-1.3,1.8
			c-1.3,1.2-2.7,1.4-5.5,1.8c-4.5,0.5-9.4,1.3-13.8,0.4c-12.9-2.7-10.7-27.2-11.3-37.3c-0.6-11.1-1.4-25.8,0.6-44.8
			c1.7-15.1,5-29.9,9.6-44.4c0-0.1,0.1-0.3,0-0.5c0-0.4-0.4-0.5-0.8-0.6c-8.4-3-17.2-8.3-23.7-14.7c-6.9-5.7-10.7-10.4-16.6-17.8
			c-4-5-6.3-8.5-6.2-12.9c0-0.6,0.3-6.7,4.2-9.2c4-2.5,7.5-1,10.8,1.7c8.5,6.6,17.9,12.9,27.8,17.3c0,0,5.8,2.4,11.1,3.7
			c1.7,0.4,3.6,0.6,3.6,0.6c0.4,0,1.2,0.1,2.6,0.4c1.5,0.3,1.7,0.3,1.7,0.1c0.3-0.5-6.7-4.5-10.4-7.4C41.3,116.8,39.1,98.5,39,97.7
			c-0.9-8.3,0.8-16.6,4-24.3c2.3-5.4,5.5-10.7,9-15.5C54.2,55.7,57.1,53.9,58.4,51z"/>
		<path class="st2" d="M114.2,151.3c-2.7,0-7.1,0-12.2,1.8c-9.5,3.5-14.7,10.6-16.6,13.5c-4.6,7.2-5.4,15.1-5.5,23.3
			c-0.1,9.2,0.5,18.3,2.1,27.3c1.2,6.3,2.6,14.6,7.2,19.5c3.1,3.2,7.5,5.5,11.6,6.8c9.6,3.1,20.7,2.3,30.2-1.4
			c9.1-3.5,16.9-10.1,18.9-19.9c2.6-12.5,0-25.4-1.5-37.9c-1.2-9.7-3.3-20.1-11.4-26.3C128.2,151.4,116.4,151.3,114.2,151.3z"/>
		<path class="st2" d="M42.6,207.6c3.1,1.2,7.3,3.4,10.4,7.4c2.7,3.6,1.8,4.9,4.2,9.2c4.8,8.4,13.2,12.5,16.6,14.1
			c5,2.4,5.4,1.4,8.6,3.7c1.3,0.9,10.8,7.4,9.1,15.4c-1.2,5.9-7.6,8.8-8.6,9.2l-6.2,12.9l-6.2,11.1l-9.8,1.8H49.8l-7.3-11.1
			l-2.3-55.7L42.6,207.6z"/>
		<path class="st2" d="M169.9,196.7c-1.3-0.6-3.7,1.4-4.9,3.1c-1.2,1.5-2.6,4.1-2.4,8.6c0.1,8.1,4.6,9.8,4.2,16
			c-0.3,4.3-2.4,4.1-4.2,9.8c-0.5,1.5-3.7,11.6,1.3,19.6c4.8,7.6,15.3,11.1,17.8,8.6c1-1,0.3-2.6-0.6-9.2c-0.9-6.2-0.5-6.1-1.3-12.3
			c-2.7-22.7-8.9-28.1-8.6-39.2C171.2,200.4,171.3,197.2,169.9,196.7z"/>
		<path class="st2" d="M29.1,118.8c1,2.2-0.6,3.1-1.3,7.4c-1,7.7,3.1,16.3,6.7,16.5c1,0.1,1.4-0.4,2.4,0c1.9,0.8,2.8,3.7,2.4,6.2
			c-0.6,3.5-4.4,5.9-7.3,5.5c-1.9-0.3-3.1-1.7-4.2-3.1c-6.3-7.2,7.1,10.3-10.4-10.4C5,126.1,4.3,124.3,4,121.7
			c-0.3-1.4-0.8-6.3,2.4-9.8c1.8-2.1,5-3.7,8-3.1c1.9,0.4,2.1,1.5,4.9,3.7C24.6,116.7,27.8,115.9,29.1,118.8z"/>
		<path class="st2" d="M148.6,38.9c0.8-3.1,8.5-3,12.3-5.9c0.1,0,1.3-1,3-1.4c0.8-0.1,1.7-0.4,2.4,0c0.9,0.5,1.2,1.8,1.3,2.5
			c0.8,5.4-0.3,11.7-0.6,14.1c-0.5,3.5-0.8,3.9-1.3,4.3c-3.1,2.1-11.3-5.8-12.9-7.4C149.7,42.1,148.1,40.6,148.6,38.9z"/>
		<path class="st2" d="M120.4,54.9c-0.4-6.7-5.8-8.4-5.5-14.1c0.3-4.5,3.7-6.7,2.4-8.6c-1-1.4-4.5-1.7-6.8-1.4
			c-1.7,0.4-2.8,1.2-4.2,0.6c-0.9-0.4-1.3-1-1.8-1.8c-0.6-0.8-2.1-1.9-4.9-4.3c-9.8-7.9-8.2-6.6-9.1-7.4c-8.7-7-10-9.4-15.9-12.3
			c-3.9-1.9-6.6-2.5-8-1.3c-1,0.8-1.3,1.9-1.3,2.5c-1.1,6.7-2.9,11.6-4.3,16.3c0.8,4.2-0.4,7.9-0.6,12.1c-0.1,4.1,0.4,7.9-0.8,11.9
			c0,0.8-0.2,1.7-0.5,2.7c-1.3,4.4-4.5,6.4-7.3,9.2c-6.3,6.1-8.4,13.4-10.4,20.3c-2.4,8.3-4.2,14.6-1.3,20.3
			c4.1,7.9,14.8,9.4,22.6,10.4c3.1,0.4,19.7,2.6,23.9-4.9c1.2-1.8,0.5-2.7,1.3-6.7c0,0,1.4-7.7,6.7-15.3
			c8.6-12.3,20.5-10.2,24.6-21.4C119.8,60.1,120.5,57.9,120.4,54.9z"/>
		<path class="st2" d="M204.3,134c-1.7,2.6-0.9,4.8-1.3,8.6c0,0.9-0.6,6.2-3.1,9.8c-3.3,5-7.8,3.6-14.1,8.6
			c-4.2,3.5-8.6,9.3-7.3,11.1c2.6,3.7,29.3-13.5,33.7-17.2c0.6-0.5,1.3-1,1.8-1.8c2.6-3.4,1.7-7,3.1-7.4c1.3-0.4,2.2,2.1,3.7,1.8
			c1-0.1,1.4-1.5,3.1-6.2c1.8-4.9,2.3-5.8,1.8-7.4c-0.1-0.3-0.8-2.3-2.4-3.1c-2.2-0.9-3.7,1-6.2,0c-1.3-0.5-1.2-1.3-2.4-1.8
			c-2.2-0.9-4.6,0.4-6.2,1.3C207.5,131,205.6,131.9,204.3,134z"/>
		<path class="st1" d="M93.9,44.7c-0.6,3.1-8.4,3.4-12.1,6.4c-0.1,0.1-1.3,1-2.8,1.5c-0.8,0.3-1.7,0.5-2.4,0.1
			c-0.9-0.5-1.3-1.7-1.3-2.5c-1-5.4-0.3-11.7,0-14.1c0.4-3.6,0.5-4,1-4.4c3.1-2.2,11.6,5.3,13.1,6.7C92.5,41.5,94.3,43,93.9,44.7z"
			/>
		<path class="st3" d="M58.7,50.4c2.4-5,1.3-10.8,1.4-16.1c0.3-6.1,1.4-12.1,2.6-18.1c1.4-7.1,2.1-10.6,4.2-11.6
			c2.3-1.2,5.8-0.4,18.4,9.2c3.5,2.6,6.8,5.2,10.2,8c2.2,1.8,4.4,3.7,6.4,5.8c1.5,1.4,2.6,3.7,4.8,4.1c0.9,0.1,1.8,0,2.6-0.1
			c6.4-1.3,13.9-0.3,20.2,1.3c2.4,0.6,5,2.1,7.5,1.9c2.6-0.1,4.6-2.2,6.8-3.4c2.7-1.5,5.3-3.1,8-4.6c4.1-2.5,8.2-4.9,12.3-7.4
			c6.6-4,10.8-6.6,14.1-4.9c3.9,1.9,4.4,8.5,4.9,15.3c0.5,6.8-0.1,11.4-0.6,16.5c-0.4,4.9-0.8,9.8-0.9,14.7c0,4.8-0.4,9.8,1,14.3
			c1,3.5,3.7,6.2,5.9,8.8c2.4,3,4.1,6.1,4.9,9.8c1.5,7.6,0.6,15.7-2.3,22.8c-3.2,7.6-8.6,13.2-15.3,17.8c-3.6,2.6-9.3,6.7-17.1,8
			c-1.3,0.1-3.1,0.4-3.1,0.6c0,0.4,9.1,1,18.4,0c13.9-1.5,22.9-2.5,29.5-8.6c1.7-1.5,5.7-5.8,10.4-5.5c0.8,0,1.8,0.3,3.7,0.6
			c0,0,0.9,0.1,1.4,0.3c3,0.6,4.4,0.9,5.3,1.5c3.3,2.5-0.3,11.6-0.6,12.3c-1.3,3.4-2.6,3.6-3.1,3.7c-1,0-1.4-0.8-2.4-0.6
			c-1.5,0.3-2.3,2.6-2.4,3.1c-1.5,4.5-11.4,10.4-16.6,13.5c-5.9,3.5-12.2,6.1-18.7,8.4c-3.2,1.2-6.4,2.3-9.6,3.4
			c-2.2,0.8-7.5,0.9-7.2,4.3c0.1,1.8,1.4,3.2,2.2,4.8c1,2.2,1.8,4.4,2.6,6.7c1.4,4.4,2.6,8.9,3.6,13.5c3.3,15.4,7.1,30.7,8.7,46.4
			c0.8,7.2,1.2,14.6,0.9,21.8c-0.1,4.6,1,16.4-3.6,19.2c-1.3,0.8-3,1.2-4.5,1.3c-5.5,0.8-12.7,1.4-17.5-2.2
			c-2.6-1.9-3.6-4.8-3.9-7.9c-0.8-6.4-3.3-12.5-6.7-18.1c-2.1-3.4-3.7-7-6.3-10.1c-1.2-1.4-2.6-3.1-4.4-3.7c-2.3-0.9-5.1,0-7.6,0.4
			c-9.5,2.5-19.6,3.1-29.1,5.7c-8.9,2.5-14.3,7.9-18.3,16c-2.4,4.9-5.1,9.7-7.3,14.7c-0.1,0.3-0.5,1.2-1.3,1.8
			c-1.3,1.2-2.7,1.4-5.5,1.8c-4.5,0.5-9.4,1.3-13.8,0.4c-12.9-2.7-10.7-27.2-11.3-37.3c-0.6-11.1-1.4-25.8,0.6-44.8
			c1.7-15.1,5-29.9,9.6-44.4c0-0.1,0.1-0.3,0-0.5c0-0.4-0.4-0.5-0.8-0.6c-8.4-3-17.2-8.3-23.7-14.7c-6.9-5.7-10.7-10.4-16.6-17.8
			c-4-5-6.3-8.5-6.2-12.9c0-0.6,0.3-6.7,4.2-9.2c4-2.5,7.5-1,10.8,1.7c8.5,6.7,17.9,13,27.8,17.4c0,0,5.8,2.4,11.1,3.7
			c1.7,0.4,3.6,0.6,3.6,0.6c0.4,0,1.2,0.1,2.6,0.4c1.5,0.3,1.7,0.3,1.7,0.1c0.3-0.5-6.7-4.5-10.4-7.4C41.3,116.3,39.1,98,39,97.2
			C38.1,89,39.8,80.6,43,73c2.3-5.4,5.5-10.7,9-15.5C54.4,55,57.2,53.4,58.7,50.4z"/>
		<path class="st3" d="M218.4,130.4c-0.5,0.1-4.8,1.5-6.2,5.5c-1.4,4,0.8,9.2,5.5,11.6"/>
		<path class="st4" d="M125.7,67.8c4.4-1.7,24.3,1.7,28.4,3.7c1.2,0.6,0.9,1.3-2.4,0.9c-3.7-0.5-5.8-1.7-8.7-2.3
			c-4.1-0.9-8.5-0.9-12.6-1C127.3,68.8,124.3,68.3,125.7,67.8z"/>
		<path class="st5" d="M135.7,75.2c-1.8-0.5-3.9-1-5.5,0c-0.3,0.1-1.5,1-1.8,2.5c-0.4,2.6,2.8,5.7,6.2,6.2c3.9,0.6,8-2.1,8-4.3
			C142.4,77.1,137.4,75.7,135.7,75.2z"/>
		<path class="st6" d="M98.9,38.7l-13.2,16L66,56.7c-1.5,0.1-2.4,2.1-1.5,3.4l10.8,16l-5.9,21.5c-0.4,1.3,0.9,2.5,2.1,2.1l19.8-5.8
			l17.4,11.2c1.5,1,3.6,0,3.7-1.9l1-20.4l17.5-13.4c1.4-1.2,1.2-3.4-0.6-3.9l-19.4-7.2l-8.5-19.1C101.8,37.8,100,37.5,98.9,38.7z"/>
		<path class="st7" d="M110,103.8c-0.1,0-0.1,0-0.3-0.1L91.6,91.9L71.3,98l6.2-22.2L66.1,59c0-0.1,0-0.1,0-0.3
			c0-0.1,0.1-0.1,0.3-0.1l20.3-2.2L100.5,40c0,0,0,0,0.1,0s0.1,0,0.1,0.1l8.9,19.9l20.2,7.5c0.1,0,0.3,0.3,0.3,0.3s0,0.3-0.1,0.4
			l-18.4,13.8l-1,21.3C110.5,103.7,110.1,103.8,110,103.8z"/>
		<path class="st2" d="M100.2,43.2l7.5,16.6l0.6,1.4l1.4,0.5l17,6.3l-15.6,11.9l-1.3,1v1.7l-0.9,18.2l-15.7-9.9L92,90l-1.5,0.5
			L74,95.3l5-18.2l0.4-1.7l-1-1.4L69,60.1l17.1-1.8l1.4-0.1l1-1.2L100.2,43.2z M100.6,38c-0.5,0-1.2,0.3-1.5,0.8l-13.2,16l-19.7,2.1
			c-1.5,0.1-2.4,2.1-1.5,3.4l10.8,16.1l-5.9,21.4c-0.3,1.2,0.5,2.2,1.5,2.2c0.1,0,0.3,0,0.5,0L91.3,94l17.4,11.2
			c0.4,0.3,0.9,0.4,1.3,0.4c1.3,0,2.3-0.9,2.4-2.3l1-20.4l17.6-13.4c1.4-1.2,1.2-3.4-0.6-3.9L111,58.4l-8.5-19.1
			C102.1,38.5,101.4,38,100.6,38z"/>
		<path class="st1" d="M92.7,51.8l16.6,42.3l0.6-12.9l17.1-13.5l-19-6.1l-8-18.4L92.7,51.8z"/>
		<path class="st6" d="M182.5,50.4l-13.2,16l-19.7,2.1c-1.5,0.1-2.4,2.1-1.5,3.4l10.8,16.1l-5.9,21.4c-0.4,1.3,0.9,2.5,2.1,2.1
			l19.8-5.9l17.4,11.2c1.5,1,3.6,0,3.7-1.9l1-20.4L214.6,81c1.4-1.2,1.2-3.4-0.6-3.9l-19.4-7.2L186,50.8
			C185.4,49.5,183.6,49.2,182.5,50.4z"/>
		<path class="st7" d="M193.6,115.4c-0.1,0-0.1,0-0.3-0.1l-18.1-11.7l-20.3,6.1l6-22.2l-11.3-16.8c0-0.1,0-0.1,0-0.3
			c0-0.1,0.1-0.1,0.3-0.1l20.5-2.2l13.8-16.5c0,0,0,0,0.1,0c0.1,0,0.1,0,0.1,0.1l8.9,19.9l20.2,7.5c0.1,0,0.3,0.3,0.3,0.3
			c0,0.1,0,0.3-0.1,0.4l-18.3,13.9l-1,21.3C194.1,115.3,193.8,115.4,193.6,115.4z"/>
		<path class="st2" d="M183.8,54.9l7.5,16.6l0.6,1.4l1.4,0.5l17,6.3l-15.6,11.9l-1.3,1v1.7l-0.9,18.2l-15.7-9.9l-1.4-0.9l-1.5,0.5
			l-16.3,4.8l5-18.2l0.4-1.7l-1-1.4l-9.4-13.9l17.1-1.8l1.4-0.1l1-1.2L183.8,54.9z M184.2,49.8c-0.5,0-1.2,0.3-1.5,0.8l-13.2,16
			l-19.7,2.1c-1.5,0.1-2.4,2.1-1.5,3.4L159,88.1l-5.9,21.5c-0.3,1.2,0.5,2.2,1.5,2.2c0.1,0,0.3,0,0.5,0l19.8-5.9l17.4,11.2
			c0.4,0.3,0.9,0.4,1.3,0.4c1.3,0,2.3-0.9,2.4-2.3l1-20.4l17.6-13.4c1.4-1.2,1.2-3.4-0.6-3.9l-19.4-7.2l-8.5-19.1
			C185.7,50.1,185,49.8,184.2,49.8z"/>
		<path class="st1" d="M176.4,63.6l16.6,42.3l0.6-12.9l17.1-13.5l-19-6.2l-8-18.4L176.4,63.6z"/>
		<path class="st8" d="M127.1,91.7c-0.5,0.9,0.4,2.5,1.3,3.7c1.3,1.9,2.1,3.2,3.7,3.7c2.6,0.6,4.9-1.4,6.7-3
			c1.3-1.2,1.3-1.7,1.3-1.9c0-1.2-1.8-1.3-3.3-3.4c-1-1.3-1-2.2-1.8-2.5c-0.8-0.3-1.5,0.1-2.4,0.6c-0.9,0.4-1,0.8-1.8,1.3
			C128.5,91.4,127.5,90.9,127.1,91.7z"/>
		<path class="st9" d="M150.4,248.1c-6.9,1-13.9,2.1-20.8,3.1"/>
		<path class="st10" d="M120.9,88.7c2.1,2.2,5.5,3.1,8.5,2.3c2.2-0.6,4-2.3,5.1-4.3c0.3-0.6,1.8-5.9,0.6-6.1c-0.3,0-2.2,5.3,0,9.2
			c1.3,2.3,3.5,3.4,4.2,3.7c3.9,1.5,7.5-0.4,8-0.6"/>
		<path class="st7" d="M257.9,63.7c4.5,2.6,8,6.2,9.8,9.7c1.8,3.5,2.1,6.7,0.6,9.2l-0.6,1L265,82l-6.7-3.9c-2.2-1.3-5-0.5-6.3,1.7
			c-1.3,2.2-0.5,5,1.7,6.3l6.7,3.9l2.7,1.5l-1.5,2.7l-2.7-1.5l-6.7-3.9c-2.2-1.3-5-0.5-6.3,1.7c-1.3,2.2-0.5,5,1.7,6.3l6.7,3.9
			l2.7,1.5l-1.5,2.7l-2.7-1.5l-6.7-3.9c-2.2-1.3-5-0.5-6.3,1.7c-1.3,2.2-0.5,5,1.7,6.3l6.7,3.9l2.4,1.4c-1.5,1.5-4,2.5-7.1,2.6
			c-3,0.1-6.3-0.5-9.8-1.9c-1.2-0.5-2.3-1-3.5-1.7c-4.5-2.6-8-6.2-9.8-9.7c-1.4-2.7-1.8-5.3-1.3-7.4h0.1l2.3,1.3l6.7,3.9
			c2.2,1.3,5,0.5,6.3-1.7c1.3-2.2,0.5-5-1.7-6.3l-6.7-3.9l-2.6-1.5l1.5-2.7l2.6,1.5l6.7,3.9c2.2,1.3,5,0.5,6.3-1.7
			c1.3-2.2,0.5-5-1.7-6.3l-6.7-3.9l-2.6-1.5l1.5-2.7l2.6,1.5l6.7,3.9c2.2,1.3,5,0.5,6.3-1.7c1.3-2.2,0.5-5-1.7-6.3l-6.7-3.9
			l-2.6-1.5l0.6-1c0.1-0.3,0.4-0.6,0.6-0.9c1.4-1.8,4.1-3,7.5-3.1C248.5,59.9,253.3,61.1,257.9,63.7z M234.4,67.8l2.6,1.5l6.7,3.9
			c0.8,0.4,1,1.3,0.5,2.1c-0.4,0.8-1.3,1-2.1,0.5l-6.7-3.9l-2.6-1.5L234.4,67.8z M256.9,80.8l6.7,3.9l2.7,1.5l-1.5,2.7l-2.7-1.5
			l-6.7-3.9c-0.8-0.4-1-1.3-0.5-2.1C255.2,80.7,256.1,80.5,256.9,80.8z M228.2,78.5l2.6,1.5l6.7,3.9c0.8,0.4,1,1.3,0.5,2.1
			c-0.4,0.8-1.3,1-2.1,0.5l-6.7-3.9l-2.6-1.5L228.2,78.5z M250.7,91.5l6.7,3.9l2.7,1.5l-1.5,2.7l-2.7-1.5l-6.7-3.9
			c-0.8-0.4-1-1.3-0.5-2.1C249,91.3,249.9,91,250.7,91.5z M222,89.1l2.6,1.5l6.7,3.9c0.8,0.4,1,1.3,0.5,2.1c-0.4,0.8-1.3,1-2.1,0.5
			l-6.7-3.9l-2.6-1.4l0.5-1.2L222,89.1z M244.5,102.1l6.7,3.9l2.7,1.5l-1,1.7l-0.6,0.9l-2.6-1.5l-6.7-3.9c-0.8-0.4-1-1.3-0.5-2.1
			C243,101.9,243.8,101.7,244.5,102.1z M221.5,108.4c1.9,2.2,4.4,4.1,7.2,5.8c2.8,1.7,5.8,2.7,8.6,3.4l-0.8,1.3
			c-0.5,0.8-1.2,1.4-1.8,1.7c-0.6,0.3-1.2,0.3-1.5,0l-0.9-0.5l-10.5-6.2l-0.9-0.5c-0.4-0.3-0.6-0.6-0.8-1.3c-0.1-0.6,0-1.5,0.5-2.3
			L221.5,108.4z"/>
		<path class="st7" d="M225.2,121l-94,162.1L225.2,121z"/>
		<path class="st11" d="M225.2,121l-94,162.1"/>
		<path class="st12" d="M223,131.7c-2.2-1.5-5.3-1.4-7.6-0.3c-2.6,1.3-3.5,3.7-4.2,5.7c-0.1,0.3-2.6,7.1,0.5,9.9
			c0.3,0.3,1.4,1.3,2.6,1c1.2-0.3,1.3-1.5,2.3-1.7c1.2-0.1,1.5,1.7,2.8,1.9c1.5,0.3,3.5-2.2,4.4-3.7
			C225.7,141.1,227,134.4,223,131.7z"/>
	</g>
</g>
</svg>
