<?xml version="1.0" encoding="UTF-8"?>
<svg width="160px" height="64px" viewBox="0 0 160 64" version="1.1" xmlns="http://www.w3.org/2000/svg" xmlns:xlink="http://www.w3.org/1999/xlink">
    <g id="Page-1" stroke="none" stroke-width="1" fill="none" fill-rule="evenodd">
        <g id="Edit" transform="translate(15.000000, 12.000000)" fill="#FFFFFF">
            <g id="48">
                <g transform="translate(0.125000, 0.125000)">
                    <rect id="Rectangle-2" x="3.375" y="33.375" width="33.375" height="3.375"></rect>
                    <g id="Group" transform="translate(3.750000, 4.500000)">
                        <path d="M3.75754447,8.84514633 L29.0350209,8.84514633 C29.9186765,8.84514633 30.6350209,9.56149073 30.6350209,10.4451463 L30.6350209,15.5974191 C30.6350209,16.4810747 29.9186765,17.1974191 29.0350209,17.1974191 L3.75754447,17.1974191 C2.87388887,17.1974191 2.15754447,16.4810747 2.15754447,15.5974191 L2.15754447,10.4451463 C2.15754447,9.56149073 2.87388887,8.84514633 3.75754447,8.84514633 Z" id="Rectangle-3" transform="translate(16.396283, 13.021283) rotate(-45.000000) translate(-16.396283, -13.021283) "></path>
                        <polygon id="Rectangle-3" transform="translate(3.562177, 25.687177) rotate(-45.000000) translate(-3.562177, -25.687177) " points="0.786905588 23.4247691 6.33744751 23.4247691 6.33744751 27.8800934 3.90525154 27.949584"></polygon>
                    </g>
                </g>
            </g>
            <path d="M69.9082031,29.3095703 L58.6699219,29.3095703 L56.0039062,37 L51.8818359,37 L62.6484375,7.140625 L66.1142578,7.140625 L76.6552734,37 L72.5332031,37 L69.9082031,29.3095703 Z M59.8388672,25.9257812 L68.7597656,25.9257812 L64.4121094,13.1083984 L64.2890625,13.1083984 L59.8388672,25.9257812 Z M79.5673828,26.3154297 C79.5673828,22.7470525 80.3295822,19.8691516 81.8540039,17.6816406 C83.3784256,15.4941297 85.5146347,14.4003906 88.2626953,14.4003906 C89.5615299,14.4003906 90.7133739,14.639646 91.7182617,15.1181641 C92.7231496,15.5966821 93.5810511,16.2939407 94.2919922,17.2099609 L94.2919922,5.0078125 L98.3320312,5.0078125 L98.3320312,37 L95.2353516,37 L94.6201172,34.1904297 C93.8955042,35.2568413 93.0000053,36.0634738 91.9335938,36.6103516 C90.8671822,37.1572293 89.6298899,37.4306641 88.2216797,37.4306641 C85.5146349,37.4306641 83.3955155,36.4497168 81.8642578,34.487793 C80.3330002,32.5258691 79.5673828,29.9453285 79.5673828,26.7460938 L79.5673828,26.3154297 Z M83.6074219,26.7460938 C83.6074219,28.9882925 84.0654251,30.7827081 84.9814453,32.1293945 C85.8974655,33.476081 87.3193263,34.1494141 89.2470703,34.1494141 C90.4502013,34.1494141 91.46191,33.8759793 92.2822266,33.3291016 C93.1025432,32.7822238 93.7724583,32.0166065 94.2919922,31.0322266 L94.2919922,20.6757812 C93.7724583,19.759761 93.0991252,19.031741 92.2719727,18.4916992 C91.4448201,17.9516575 90.4502011,17.6816406 89.2880859,17.6816406 C87.34667,17.6816406 85.9145554,18.4814373 84.9916992,20.0810547 C84.068843,21.6806721 83.6074219,23.7587763 83.6074219,26.3154297 L83.6074219,26.7460938 Z M103.438477,26.3154297 C103.438477,22.7470525 104.200676,19.8691516 105.725098,17.6816406 C107.249519,15.4941297 109.385728,14.4003906 112.133789,14.4003906 C113.432624,14.4003906 114.584468,14.639646 115.589355,15.1181641 C116.594243,15.5966821 117.452145,16.2939407 118.163086,17.2099609 L118.163086,5.0078125 L122.203125,5.0078125 L122.203125,37 L119.106445,37 L118.491211,34.1904297 C117.766598,35.2568413 116.871099,36.0634738 115.804688,36.6103516 C114.738276,37.1572293 113.500984,37.4306641 112.092773,37.4306641 C109.385729,37.4306641 107.266609,36.4497168 105.735352,34.487793 C104.204094,32.5258691 103.438477,29.9453285 103.438477,26.7460938 L103.438477,26.3154297 Z M107.478516,26.7460938 C107.478516,28.9882925 107.936519,30.7827081 108.852539,32.1293945 C109.768559,33.476081 111.19042,34.1494141 113.118164,34.1494141 C114.321295,34.1494141 115.333004,33.8759793 116.15332,33.3291016 C116.973637,32.7822238 117.643552,32.0166065 118.163086,31.0322266 L118.163086,20.6757812 C117.643552,19.759761 116.970219,19.031741 116.143066,18.4916992 C115.315914,17.9516575 114.321295,17.6816406 113.15918,17.6816406 C111.217764,17.6816406 109.785649,18.4814373 108.862793,20.0810547 C107.939937,21.6806721 107.478516,23.7587763 107.478516,26.3154297 L107.478516,26.7460938 Z" id="Add"></path>
        </g>
    </g>
</svg>