<?xml version="1.0" encoding="UTF-8"?>
<svg width="160px" height="64px" viewBox="0 0 160 64" version="1.1" xmlns="http://www.w3.org/2000/svg" xmlns:xlink="http://www.w3.org/1999/xlink">
    <g id="Page-1" stroke="none" stroke-width="1" fill="none" fill-rule="evenodd">
        <g id="Edit" transform="translate(15.000000, 12.000000)" fill="#FFFFFF">
            <g id="48">
                <g transform="translate(0.125000, 0.125000)">
                    <rect id="Rectangle-2" x="3.375" y="33.375" width="33.375" height="3.375"></rect>
                    <g id="Group" transform="translate(3.750000, 4.500000)">
                        <path d="M3.75754447,8.84514633 L29.0350209,8.84514633 C29.9186765,8.84514633 30.6350209,9.56149073 30.6350209,10.4451463 L30.6350209,15.5974191 C30.6350209,16.4810747 29.9186765,17.1974191 29.0350209,17.1974191 L3.75754447,17.1974191 C2.87388887,17.1974191 2.15754447,16.4810747 2.15754447,15.5974191 L2.15754447,10.4451463 C2.15754447,9.56149073 2.87388887,8.84514633 3.75754447,8.84514633 Z" id="Rectangle-3" transform="translate(16.396283, 13.021283) rotate(-45.000000) translate(-16.396283, -13.021283) "></path>
                        <polygon id="Rectangle-3" transform="translate(3.562177, 25.687177) rotate(-45.000000) translate(-3.562177, -25.687177) " points="0.786905588 23.4247691 6.33744751 23.4247691 6.33744751 27.8800934 3.90525154 27.949584"></polygon>
                    </g>
                </g>
            </g>
            <path d="M69.7900391,23.1572266 L57.5263672,23.1572266 L57.5263672,33.8417969 L71.8818359,33.8417969 L71.8818359,37 L53.4863281,37 L53.4863281,7.140625 L71.65625,7.140625 L71.65625,10.3193359 L57.5263672,10.3193359 L57.5263672,19.9785156 L69.7900391,19.9785156 L69.7900391,23.1572266 Z M75.1835938,26.3154297 C75.1835938,22.7470525 75.9457932,19.8691516 77.4702148,17.6816406 C78.9946365,15.4941297 81.1308456,14.4003906 83.8789062,14.4003906 C85.1777409,14.4003906 86.3295848,14.639646 87.3344727,15.1181641 C88.3393605,15.5966821 89.1972621,16.2939407 89.9082031,17.2099609 L89.9082031,5.0078125 L93.9482422,5.0078125 L93.9482422,37 L90.8515625,37 L90.2363281,34.1904297 C89.5117151,35.2568413 88.6162163,36.0634738 87.5498047,36.6103516 C86.4833931,37.1572293 85.2461008,37.4306641 83.8378906,37.4306641 C81.1308458,37.4306641 79.0117264,36.4497168 77.4804688,34.487793 C75.9492111,32.5258691 75.1835938,29.9453285 75.1835938,26.7460938 L75.1835938,26.3154297 Z M79.2236328,26.7460938 C79.2236328,28.9882925 79.681636,30.7827081 80.5976562,32.1293945 C81.5136765,33.476081 82.9355372,34.1494141 84.8632812,34.1494141 C86.0664123,34.1494141 87.0781209,33.8759793 87.8984375,33.3291016 C88.7187541,32.7822238 89.3886693,32.0166065 89.9082031,31.0322266 L89.9082031,20.6757812 C89.3886693,19.759761 88.7153362,19.031741 87.8881836,18.4916992 C87.061031,17.9516575 86.0664121,17.6816406 84.9042969,17.6816406 C82.9628809,17.6816406 81.5307663,18.4814373 80.6079102,20.0810547 C79.685054,21.6806721 79.2236328,23.7587763 79.2236328,26.3154297 L79.2236328,26.7460938 Z M104.345703,37 L100.305664,37 L100.305664,14.8105469 L104.345703,14.8105469 L104.345703,37 Z M104.345703,9.12988281 L100.305664,9.12988281 L100.305664,5.0078125 L104.345703,5.0078125 L104.345703,9.12988281 Z M116.178711,9.45800781 L116.178711,14.8105469 L120.382812,14.8105469 L120.382812,17.8046875 L116.178711,17.8046875 L116.178711,31.2783203 C116.178711,32.317388 116.394041,33.048826 116.824707,33.4726562 C117.255373,33.8964865 117.826168,34.1083984 118.537109,34.1083984 C118.769532,34.1083984 119.029295,34.077637 119.316406,34.0161133 C119.603517,33.9545895 119.842772,33.8896488 120.03418,33.8212891 L120.587891,36.5898438 C120.287108,36.8359387 119.842776,37.0375969 119.254883,37.1948242 C118.666989,37.3520516 118.08594,37.4306641 117.511719,37.4306641 C115.871086,37.4306641 114.565435,36.9350635 113.594727,35.9438477 C112.624019,34.9526318 112.138672,33.3974715 112.138672,31.2783203 L112.138672,17.8046875 L108.611328,17.8046875 L108.611328,14.8105469 L112.138672,14.8105469 L112.138672,9.45800781 L116.178711,9.45800781 Z"></path>
        </g>
    </g>
</svg>