<svg xmlns="http://www.w3.org/2000/svg"
    xmlns:xlink="http://www.w3.org/1999/xlink">
    <defs>
        <symbol viewBox="0 0 24 24" id="app-update">
            <path d="M9 2C7.355 2 6 3.355 6 5c0 .352.074.685.188 1H2v4h1v9c0 1.1.9 2 2 2h6V10h2v11h6c1.1 0 2-.9 2-2v-9h1V6h-4.188c.114-.315.188-.648.188-1 0-1.645-1.355-3-3-3-.769 0-1.467.304-2 .787v-.021l-.117.117-.883.883-.883-.883L11 2.766v.021A2.975 2.975 0 009 2zm0 2c.564 0 1 .436 1 1 0 .564-.436 1-1 1-.564 0-1-.436-1-1 0-.564.436-1 1-1zm6 0c.564 0 1 .436 1 1 0 .564-.436 1-1 1-.564 0-1-.436-1-1 0-.564.436-1 1-1z" />
        </symbol>
        <symbol viewBox="0 0 24 24" id="arrow-angled-right">
            <path d="M7.031 5L6 6.719 14.156 12 6 17.281 7.031 19l11-7z" />
        </symbol>
        <symbol viewBox="0 0 24 24" id="arrow-double-right">
            <path d="M6.688 3L4 4.813 8.906 12 4 19.188 6.688 21l6.218-9zm7.125 0l-2.72 1.813L16 12l-4.906 7.188L13.813 21 20 12z" />
        </symbol>
        <symbol viewBox="0 0 24 24" id="arrow-right">
            <path d="M13 6v4H2v4h11v4l9-6z" />
        </symbol>
        <symbol viewBox="0 0 24 24" id="bug">
            <path d="M8.906 2L7.72 3.594 9.25 4.75C9.082 5.129 9 5.55 9 6h6c0-.434-.063-.852-.219-1.219l1.563-1.156L15.156 2l-1.781 1.344A3.035 3.035 0 0012 3a3.05 3.05 0 00-1.344.313zM8 7c-.555 0-1.043.68-1.406 1.781L4.156 7.375l-1 1.719 2.969 1.719A16.88 16.88 0 006 13H3v2h3.125a8.26 8.26 0 00.563 2.063L4.094 19.03l1.218 1.594 2.47-1.875c.89.93 2.038 1.438 3.218 1.844V13h2v7.688c1.445-.438 2.582-.91 3.406-1.782l2.313 1.75 1.218-1.562-2.5-1.938c.22-.605.348-1.308.438-2.156H21v-2h-3c0-.793-.063-1.559-.156-2.25l2.906-1.688-1-1.75-2.375 1.375C17.015 7.646 16.539 7 16 7z" />
        </symbol>
        <symbol viewBox="0 0 24 24" fill-rule="evenodd" stroke-linejoin="round" stroke-miterlimit="1.414" id="canonicalized-page">
            <path d="M20 2c1.102 0 2 .898 2 2v16c0 1.102-.898 2-2 2H4c-1.102 0-2-.898-2-2V4c0-1.102.898-2 2-2h16zm-7.255 14.468v-2.979H5.299v-2.978h7.446V7.532L18.701 12l-5.956 4.468z" />
        </symbol>
        <symbol viewBox="0 0 24 24" id="chevron-down">
            <path d="M2 8v4l10 5 10-5V8l-10 5z" />
        </symbol>
        <symbol viewBox="0 0 24 24" id="chevron-up">
            <path d="M12 8L2 13v4l10-5 10 5v-4z" />
        </symbol>
        <symbol viewBox="0 0 24 24" id="crawl-behaviour">
            <path d="M10 2v8H6l6 8 6-8h-4V2zM2 20v2h20v-2z" />
        </symbol>
        <symbol viewBox="0 0 24 24" id="crawl-restrictions">
            <path d="M0 4v5.906a1.024 1.024 0 000 .219V12h24V6.312a1.025 1.025 0 000-.593V4zm2 2h1.563L2 7.563zm4.438 0h3.125l-4 4H2.438zm6 0h3.124l-4 4H8.438zm6 0h3.125l-4 4h-3.125zM22 8.438V10h-1.563zM2 13v7h2v-7zm18 0v7h2v-7z" />
        </symbol>
        <symbol viewBox="0 0 32 32" fill-rule="evenodd" stroke-linejoin="round" stroke-miterlimit="1.414" id="cross">
            <path d="M29.886 24.74l-8.575-8.531 8.575-8.531a.878.878 0 000-1.242l-4.051-4.03a.89.89 0 00-1.248-.001l-8.575 8.531-8.575-8.531a.882.882 0 00-1.249.001l-4.051 4.03a.88.88 0 000 1.242l8.575 8.531-8.575 8.531a.877.877 0 000 1.243l4.051 4.03c.343.34.906.34 1.249 0l8.575-8.531 8.575 8.531c.342.34.906.34 1.248 0l4.051-4.03a.875.875 0 000-1.243z" fill-rule="nonzero" />
        </symbol>
        <symbol viewBox="0 0 24 24" id="css">
            <path d="M20.332 6H3.668C2.746 6 2 6.766 2 7.715v8.57C2 17.23 2.746 18 3.668 18h16.668c.918 0 1.664-.77 1.664-1.715v-8.57C22 6.765 21.254 6 20.332 6zM7.105 13.996c.88 0 .852-.836.86-1.043h1.203c.008 1.086-.414 2.016-2.063 2.016-1.585 0-2.085-.95-2.085-2.485v-.988c0-1.32.453-2.496 2.1-2.496 1.785 0 2.008 1.395 2.055 2.055H7.969c-.004-.207-.047-1.098-.848-1.082-.898.02-.894 1.234-.894 1.511v1c.003.637.023 1.508.878 1.512zm5.286-2.531c1.07.52 1.668 1.008 1.66 1.89 0 .258-.121 1.614-1.84 1.614a1.984 1.984 0 01-2.059-1.91h1.207c0 .175.13.968.852.957.363-.008.629-.22.633-.653 0-.625-1.008-.847-1.504-1.195-.5-.348-1.027-.754-1.043-1.547C10.277 9.52 10.94 9 12.187 9c1.774 0 1.872 1.531 1.872 1.797h-1.2c0-.121-.02-.836-.695-.832-.52 0-.691.3-.664.668.035.515.559.68.89.832zm4.945 0c1.742.66 1.66 1.652 1.66 1.89.004 1.243-1.148 1.614-1.84 1.614-1.383 0-2.062-.992-2.062-1.91H16.3c.039.468.207.953.855.957.348.004.614-.223.63-.653.026-.754-.813-.883-1.505-1.195-.554-.25-1.058-.758-1.039-1.547C15.27 9.387 15.972 9 17.13 9 18.945 9 19 10.32 19 10.797h-1.2c0-.121 0-.813-.69-.832-.516-.02-.66.32-.669.668-.011.57.762.777.895.832z" />
        </symbol>
        <symbol viewBox="0 0 24 24" id="dashboard">
            <path d="M12 2C6.5 2 2 6.5 2 12s4.5 10 10 10 10-4.5 10-10S17.5 2 12 2zm0 2c4.398 0 8 3.602 8 8s-3.602 8-8 8-8-3.602-8-8 3.602-8 8-8zm.5.906V6c.3 0 .605.094.906.094l.188-1c-.301-.102-.696-.086-1.094-.188zm-2 .188c-.398.199-.793.304-1.094.406l.406.906.876-.312zm4.781.718l-3.062 4.22c-.074-.01-.145-.032-.219-.032a1.999 1.999 0 100 4 2 2 0 002-2c0-.277-.055-.543-.156-.781-.004-.008.004-.024 0-.031L16.906 7zm-7.687.782c-.301.199-.582.52-.782.718L7.5 8c.2-.2.488-.395.688-.594zm10.312 1.718l-.812.5c.199.301.304.481.406.782l.906-.406c-.101-.301-.3-.575-.5-.876zm-12.312.782c-.102.3-.305.699-.407 1l1 .312L6.5 9.5zM19 11.313l-1 .093v.906h1zm-14 .874c0 .399.094.727.094 1.126l1-.22c0-.3-.094-.605-.094-.905zm12.688 1.907c-.2.3-.301.613-.5.812l.906.5c.199-.3.3-.601.5-1zm-11 .812l-.782.5c.102.301.301.606.5.906l.782-.625a2.1 2.1 0 01-.5-.78z" />
        </symbol>
        <symbol viewBox="0 0 24 24" id="download">
            <path d="M10 2v8H6l6 8 6-8h-4V2zM2 20v2h20v-2z" />
        </symbol>
        <symbol viewBox="0 0 24 24" id="explore">
            <path d="M7.5 4c-1.207 0-2.203.86-2.438 2H4.47c-.867 0-1.64.547-1.907 1.375L.406 14.063A4.943 4.943 0 000 16c0 2.75 2.25 5 5 5 2.035 0 3.785-1.242 4.563-3h4.874c.778 1.758 2.528 3 4.563 3 2.75 0 5-2.25 5-5 0-.688-.152-1.34-.406-1.938l-2.219-6.687A2.008 2.008 0 0019.469 6h-.532c-.234-1.14-1.23-2-2.437-2-1.207 0-2.203.86-2.438 2H9.939A2.496 2.496 0 007.5 4zM5 13c1.668 0 3 1.332 3 3s-1.332 3-3 3-3-1.332-3-3 1.332-3 3-3zm14 0c1.668 0 3 1.332 3 3s-1.332 3-3 3-3-1.332-3-3 1.332-3 3-3zm-7 1c.55 0 1 .45 1 1s-.45 1-1 1-1-.45-1-1 .45-1 1-1z" />
        </symbol>
        <symbol viewBox="0 0 24 24" id="faq">
            <path d="M12 2C6.5 2 2 6.5 2 12s4.5 10 10 10 10-4.5 10-10S17.5 2 12 2zm0 2c4.398 0 8 3.602 8 8s-3.602 8-8 8-8-3.602-8-8 3.602-8 8-8zm-.094 3C8.606 7 9 10 9 10h2c0-1.398.7-1.5 1-1.5.8 0 1 .914 1 1.313 0 2.101-2 1.585-2 4.187h2c0-1.7 2-1.79 2-4.188C15 8.915 14.508 7 11.906 7zM11 15v2h2v-2z" />
        </symbol>
        <symbol viewBox="0 0 24 24" id="feedback">
            <path d="M20 2H4c-1.102 0-2 .898-2 2v18l4-4h14c1.102 0 2-.898 2-2V4c0-1.102-.898-2-2-2zm-7 9h-2V9h2zm4 0h-2V9h2zm-8 0H7V9h2z" />
        </symbol>
        <symbol viewBox="0 0 24 24" id="help">
            <path d="M12 2C6.488 2 2 6.488 2 12s4.488 10 10 10 10-4.488 10-10S17.512 2 12 2zm-2 2.25v3.188A5.002 5.002 0 007.437 10H4.25A8 8 0 0110 4.25zm4 0A8 8 0 0119.75 10h-3.188A5.002 5.002 0 0014 7.437zM12 9c1.668 0 3 1.332 3 3s-1.332 3-3 3-3-1.332-3-3 1.332-3 3-3zm-7.75 5h3.188A5.002 5.002 0 0010 16.563v3.187A8 8 0 014.25 14zm12.313 0h3.187A8 8 0 0114 19.75v-3.188A5.002 5.002 0 0016.563 14z" />
        </symbol>
        <symbol viewBox="0 0 24 24" id="html">
            <path d="M2 4v16c0 1.102.898 2 2 2h16c1.102 0 2-.898 2-2V4c0-1.102-.898-2-2-2H4c-1.102 0-2 .898-2 2zm15 5H7V7h10zm0 4H7v-2h10zm-3 4H7v-2h7z" />
        </symbol>
        <symbol viewBox="0 0 24 24" id="http">
            <path d="M12 0C8.7 0 6 2.7 6 6v2h2V6c0-2.219 1.781-4 4-4 2.219 0 4 1.781 4 4v5H3v13h18V11h-3V6c0-3.3-2.7-6-6-6z" />
        </symbol>
        <symbol viewBox="0 0 24 24" id="https">
            <path d="M12 0C8.7 0 6 2.7 6 6v5H3v13h18V11h-3V6c0-3.3-2.7-6-6-6zm0 2c2.219 0 4 1.781 4 4v5H8V6c0-2.219 1.781-4 4-4z" />
        </symbol>
        <symbol viewBox="0 0 24 24" id="image">
            <path d="M4 4c-1.102 0-2 .898-2 2v12c0 1.102.898 2 2 2h16c1.102 0 2-.898 2-2V6c0-1.102-.898-2-2-2zm0 2h16v12H4zm12.5 2a1.5 1.5 0 100 3 1.5 1.5 0 000-3zM8 10l-2 2v4h12v-1.594L14 12l-2 1z" />
        </symbol>
        <symbol viewBox="0 0 24 24" fill-rule="evenodd" stroke-linejoin="round" stroke-miterlimit="1.414" id="info">
            <path d="M14.178 22.566H9.902V9.736h4.276v12.83zm0-17.106H9.902V1.183h4.276V5.46z" fill-rule="nonzero" />
        </symbol>
        <symbol viewBox="0 0 24 24" id="info-circle">
            <path d="M12 2C6.477 2 2 6.477 2 12s4.477 10 10 10 10-4.477 10-10S17.523 2 12 2zm1 15h-2v-6h2zm0-8h-2V7h2z" />
        </symbol>
        <symbol viewBox="0 0 50 50" id="js">
            <path d="M43.336 4H6.668A2.669 2.669 0 004 6.668v36.664A2.669 2.669 0 006.668 46h36.664A2.668 2.668 0 0046 43.336V6.668A2.668 2.668 0 0043.336 4zM27 36.184C27 40.18 24.656 42 21.234 42c-3.093 0-5.324-2.074-6.234-4l3.145-1.902C18.75 37.172 19.672 38 21 38c1.27 0 2-.496 2-2.426V23h4zM35.676 42c-3.543 0-5.555-1.785-6.676-4l3-2c.816 1.336 1.707 2.613 3.59 2.613 1.582 0 2.41-.789 2.41-1.883 0-1.304-.86-1.77-2.598-2.53l-.953-.41c-2.754-1.173-4.586-2.642-4.586-5.75 0-2.86 2.184-5.04 5.59-5.04 2.426 0 4.168.844 5.426 3.055l-2.969 1.91c-.656-1.176-1.36-1.637-2.457-1.637-1.117 0-1.824.711-1.824 1.637 0 1.144.707 1.605 2.344 2.316l.953.41C40.172 32.078 42 33.496 42 36.684 42 40.117 39.3 42 35.676 42z" />
        </symbol>
        <symbol viewBox="0 0 26 26" id="link">
            <path d="M19.625.156c-1.629.078-3.195.79-4.406 2l-4.75 4.75c.746-.75 3.515-.234 4.187.438l2.875-2.875c.637-.637 1.434-1.028 2.25-1.063a2.62 2.62 0 012.032.781 2.65 2.65 0 01.78 1.907c0 .855-.39 1.707-1.062 2.375l-5 5.031c-1.258 1.258-3.172 1.36-4.281.25a1.642 1.642 0 00-2.313 0 1.639 1.639 0 000 2.313 5.873 5.873 0 004.188 1.718c1.672 0 3.379-.683 4.688-2l5.03-5c1.278-1.273 2-2.976 2-4.687 0-1.59-.6-3.102-1.718-4.219C22.93.68 21.325.078 19.625.156zm-7.75 8.063c-1.672 0-3.406.687-4.719 2l-5 5c-1.277 1.273-2 2.976-2 4.687 0 1.59.602 3.102 1.719 4.219 1.195 1.195 2.8 1.797 4.5 1.719 1.629-.078 3.195-.79 4.406-2l4.75-4.75c-.75.75-3.515.234-4.187-.438l-2.875 2.875c-.637.637-1.434 1.024-2.25 1.063a2.615 2.615 0 01-2.032-.782 2.656 2.656 0 01-.78-1.906c0-.855.39-1.707 1.062-2.375l5-5.031c1.258-1.258 3.172-1.355 4.281-.25.637.637 1.68.637 2.313 0a1.639 1.639 0 000-2.313 5.88 5.88 0 00-4.188-1.718z" />
        </symbol>
        <symbol viewBox="0 0 24 24" id="login">
            <path d="M4 2c-1.102 0-2 .898-2 2v16c0 1.102.898 2 2 2h10c1.102 0 2-.898 2-2v-4h-2v4H4V4h10v4h2V4c0-1.102-.898-2-2-2zm4 10l4 3v-2h10v-2H12V9z" />
        </symbol>
        <symbol viewBox="0 0 24 24" id="logout">
            <path d="M4 2c-1.102 0-2 .898-2 2v16c0 1.102.898 2 2 2h10c1.102 0 2-.898 2-2v-4h-2v4H4V4h10v4h2V4c0-1.102-.898-2-2-2zm14 7v2H8v2h10v2l4-3z" />
        </symbol>
        <symbol viewBox="0 0 24 24" id="new">
            <path d="M11 5v6H5v2h6v6h2v-6h6v-2h-6V5z" />
        </symbol>
        <symbol viewBox="0 0 24 24" id="non-indexable-page">
            <path d="M12 2C6.477 2 2 6.477 2 12s4.477 10 10 10 10-4.477 10-10S17.523 2 12 2zm7 12H5v-4h14z" />
        </symbol>
        <symbol viewBox="0 0 24 24" id="options">
            <path d="M11 2c-1.293 0-2.395.844-2.813 2H2v2h6.188C8.604 7.156 9.707 8 11 8s2.395-.844 2.813-2H22V4h-8.188C13.396 2.844 12.293 2 11 2zm0 2c.563 0 1 .438 1 1 0 .563-.438 1-1 1-.563 0-1-.438-1-1 0-.563.438-1 1-1zm6 5c-1.293 0-2.395.844-2.813 2H2v2h12.188c.417 1.156 1.519 2 2.812 2s2.395-.844 2.813-2H22v-2h-2.188C19.395 9.844 18.294 9 17 9zm0 2c.563 0 1 .438 1 1 0 .563-.438 1-1 1-.563 0-1-.438-1-1 0-.563.438-1 1-1zM7 16c-1.293 0-2.395.844-2.813 2H2v2h2.188c.417 1.156 1.519 2 2.812 2s2.395-.844 2.813-2H22v-2H9.812C9.396 16.844 8.293 16 7 16zm0 2c.563 0 1 .438 1 1 0 .563-.438 1-1 1-.563 0-1-.438-1-1 0-.563.438-1 1-1z" />
        </symbol>
        <symbol viewBox="0 0 24 24" id="pdf">
            <path d="M5.742 2a1.833 1.833 0 00-.597.105 1.772 1.772 0 00-1.04 1.04c-.066.18-.105.55-.105.55v16.606s.04.375.105.554c.172.465.54.844.997 1.024.191.074.39.113.593.121C8.98 21.992 18 22 18 22a2 2 0 002-2V8l-6-6zM6 4h6v6h6v10H6zm8 .828L17.172 8H14zM8 12v2h2.027v-2zm3 0v2h5v-2zm-3 4v2h2.027v-2zm3 0v2h5v-2z" fill-rule="evenodd" />
        </symbol>
        <symbol viewBox="0 0 24 24" id="recrawl">
            <path d="M12 2v2c4.465 0 8 3.535 8 8s-3.535 8-8 8-8-3.535-8-8a7.96 7.96 0 011.438-4.563l2.156 2.157L9 2.5 2 4l2.031 2.031C2.773 7.707 2 9.761 2 12c0 5.535 4.465 10 10 10s10-4.465 10-10S17.535 2 12 2z" />
        </symbol>
        <symbol viewBox="0 0 24 24" id="redirect">
            <path d="M18 2v3H0v2h18v3l5.313-4zM6 14L.687 18 6 22v-3h18v-2H6z" />
        </symbol>
        <symbol viewBox="0 0 24 24" id="restore">
            <path d="M9 2L2 7l7 5V9h4.5c2.527 0 4.5 1.973 4.5 4.5S16.027 18 13.5 18H2v4h11.5c4.676 0 8.5-3.824 8.5-8.5S18.176 5 13.5 5H9z" />
        </symbol>
        <symbol viewBox="0 0 50 50" id="robots">
            <path d="M43 26v-3.969C43 17.601 39.395 14 34.969 14H26v-3.14c1.723-.45 3-2 3-3.86 0-2.207-1.793-4-4-4s-4 1.793-4 4c0 1.86 1.281 3.41 3 3.86V14h-8.969C10.605 14 7 17.602 7 22.031V26H2v12h5v9h36v-9h5V26zM27 38v7h-4v-7zM15 26.5a3.5 3.5 0 117 0 3.5 3.5 0 11-7 0zM17 38h4v7h-4zm16 7h-4v-7h4zm-1.5-15a3.5 3.5 0 110-7 3.5 3.5 0 110 7z" />
        </symbol>
        <symbol viewBox="0 0 24 24" id="search">
            <path d="M9 2C5.102 2 2 5.102 2 9s3.102 7 7 7c1.723 0 3.29-.613 4.5-1.625l.5.5v.813L20.313 22 22 20.312 15.687 14h-.874l-.47-.469A6.998 6.998 0 0016 9c0-3.898-3.102-7-7-7zm0 2c2.8 0 5 2.2 5 5s-2.2 5-5 5-5-2.2-5-5 2.2-5 5-5z" />
        </symbol>
        <symbol viewBox="0 0 24 24" id="security">
            <path d="M12 1C8.676 1 6 3.676 6 7v1c-1.102 0-2 .898-2 2v10c0 1.102.898 2 2 2h12c1.102 0 2-.898 2-2V10c0-1.102-.898-2-2-2V7c0-3.324-2.676-6-6-6zm0 2c2.277 0 4 1.723 4 4v1H8V7c0-2.277 1.723-4 4-4zm0 10c1.102 0 2 .898 2 2 0 1.102-.898 2-2 2-1.102 0-2-.898-2-2 0-1.102.898-2 2-2z" />
        </symbol>
        <symbol viewBox="0 0 24 24" id="seo">
            <path d="M9 2C5.102 2 2 5.102 2 9s3.102 7 7 7c1.723 0 3.29-.613 4.5-1.625l.5.5v.813L20.313 22 22 20.312 15.687 14h-.874l-.47-.469A6.998 6.998 0 0016 9c0-3.898-3.102-7-7-7zm0 2c2.8 0 5 2.2 5 5s-2.2 5-5 5-5-2.2-5-5 2.2-5 5-5z" />
        </symbol>
        <symbol viewBox="0 0 24 24" id="speed">
            <path d="M9 0v2h6V0zm10.406 1.594L17.97 3l2.5 2.594 1.437-1.375zM12 3C6.465 3 2 7.465 2 13s4.465 10 10 10 10-4.465 10-10S17.535 3 12 3zm0 2c4.465 0 8 3.535 8 8s-3.535 8-8 8-8-3.535-8-8 3.535-8 8-8zm-1 2v8h2V7z" />
        </symbol>
        <symbol viewBox="0 0 32 32" id="tick">
            <path d="M27 4L12 19l-7-7-5 5 12 12L32 9z" />
        </symbol>
        <symbol viewBox="0 0 32 25" id="tick-white">
            <path d="M27 0L12 15 5 8l-5 5 12 12L32 5z" />
        </symbol>
        <symbol viewBox="0 0 24 24" id="types-to-check">
            <path d="M9 2C5.102 2 2 5.102 2 9s3.102 7 7 7c1.723 0 3.29-.613 4.5-1.625l.5.5v.813L20.313 22 22 20.312 15.687 14h-.874l-.47-.469A6.998 6.998 0 0016 9c0-3.898-3.102-7-7-7zm0 2c2.8 0 5 2.2 5 5s-2.2 5-5 5-5-2.2-5-5 2.2-5 5-5z" />
        </symbol>
        <symbol viewBox="0 0 24 24" id="uncrawled">
            <path d="M12 2C6.5 2 2 6.5 2 12s4.5 10 10 10 10-4.5 10-10S17.5 2 12 2zm0 2c4.398 0 8 3.602 8 8s-3.602 8-8 8-8-3.602-8-8 3.602-8 8-8zm-.094 3C8.606 7 9 10 9 10h2c0-1.398.7-1.5 1-1.5.8 0 1 .914 1 1.313 0 2.101-2 1.585-2 4.187h2c0-1.7 2-1.79 2-4.188C15 8.915 14.508 7 11.906 7zM11 15v2h2v-2z" />
        </symbol>
        <symbol viewBox="0 0 24 24" id="xml">
            <path d="M13 5L9 19h2l4-14zM6 7l-4 5 4 5h2l-4-5 4-5zm10 0l4 5-4 5h2l4-5-4-5z" />
        </symbol>
    </defs>
</svg>