<svg xmlns="http://www.w3.org/2000/svg" viewBox="0 0 24 24"><path d="M8.906 2L7.72 3.594 9.25 4.75C9.082 5.129 9 5.55 9 6h6c0-.434-.063-.852-.219-1.219l1.563-1.156L15.156 2l-1.781 1.344A3.035 3.035 0 0 0 12 3a3.05 3.05 0 0 0-1.344.313zM8 7c-.555 0-1.043.68-1.406 1.781L4.156 7.375l-1 1.719 2.969 1.719A16.88 16.88 0 0 0 6 13H3v2h3.125a8.26 8.26 0 0 0 .563 2.063L4.094 19.03l1.218 1.594 2.47-1.875c.89.93 2.038 1.438 3.218 1.844V13h2v7.688c1.445-.438 2.582-.91 3.406-1.782l2.313 1.75 1.218-1.562-2.5-1.938c.22-.605.348-1.308.438-2.156H21v-2h-3c0-.793-.063-1.559-.156-2.25l2.906-1.688-1-1.75-2.375 1.375C17.015 7.646 16.539 7 16 7z"/></svg>