<svg viewBox="0 0 32 32" xmlns="http://www.w3.org/2000/svg" fill-rule="evenodd" clip-rule="evenodd" stroke-linejoin="round" stroke-miterlimit="1.414"><path d="M29.886 24.74l-8.575-8.531 8.575-8.531a.878.878 0 0 0 0-1.242l-4.051-4.03a.89.89 0 0 0-1.248-.001l-8.575 8.531-8.575-8.531a.882.882 0 0 0-1.249.001l-4.051 4.03a.88.88 0 0 0 0 1.242l8.575 8.531-8.575 8.531a.877.877 0 0 0 0 1.243l4.051 4.03c.343.34.906.34 1.249 0l8.575-8.531 8.575 8.531c.342.34.906.34 1.248 0l4.051-4.03a.875.875 0 0 0 0-1.243z" fill-rule="nonzero"/></svg>