<svg xmlns="http://www.w3.org/2000/svg" viewBox="0 0 24 24"><path d="M20.332 6H3.668C2.746 6 2 6.766 2 7.715v8.57C2 17.23 2.746 18 3.668 18h16.668c.918 0 1.664-.77 1.664-1.715v-8.57C22 6.765 21.254 6 20.332 6zM7.105 13.996c.88 0 .852-.836.86-1.043h1.203c.008 1.086-.414 2.016-2.063 2.016-1.585 0-2.085-.95-2.085-2.485v-.988c0-1.32.453-2.496 2.1-2.496 1.785 0 2.008 1.395 2.055 2.055H7.969c-.004-.207-.047-1.098-.848-1.082-.898.02-.894 1.234-.894 1.511v1c.003.637.023 1.508.878 1.512zm5.286-2.531c1.07.52 1.668 1.008 1.66 1.89 0 .258-.121 1.614-1.84 1.614a1.984 1.984 0 0 1-2.059-1.91h1.207c0 .175.13.968.852.957.363-.008.629-.22.633-.653 0-.625-1.008-.847-1.504-1.195-.5-.348-1.027-.754-1.043-1.547C10.277 9.52 10.94 9 12.187 9c1.774 0 1.872 1.531 1.872 1.797h-1.2c0-.121-.02-.836-.695-.832-.52 0-.691.3-.664.668.035.515.559.68.89.832zm4.945 0c1.742.66 1.66 1.652 1.66 1.89.004 1.243-1.148 1.614-1.84 1.614-1.383 0-2.062-.992-2.062-1.91H16.3c.039.468.207.953.855.957.348.004.614-.223.63-.653.026-.754-.813-.883-1.505-1.195-.554-.25-1.058-.758-1.039-1.547C15.27 9.387 15.972 9 17.13 9 18.945 9 19 10.32 19 10.797h-1.2c0-.121 0-.813-.69-.832-.516-.02-.66.32-.669.668-.011.57.762.777.895.832z"/></svg>