<svg xmlns="http://www.w3.org/2000/svg" viewBox="0 0 24 24"><path d="M12 2C6.5 2 2 6.5 2 12s4.5 10 10 10 10-4.5 10-10S17.5 2 12 2zm0 2c4.398 0 8 3.602 8 8s-3.602 8-8 8-8-3.602-8-8 3.602-8 8-8zm.5.906V6c.3 0 .605.094.906.094l.188-1c-.301-.102-.696-.086-1.094-.188zm-2 .188c-.398.199-.793.304-1.094.406l.406.906.876-.312zm4.781.718l-3.062 4.22c-.074-.01-.145-.032-.219-.032a1.999 1.999 0 1 0 0 4 2 2 0 0 0 2-2c0-.277-.055-.543-.156-.781-.004-.008.004-.024 0-.031L16.906 7zm-7.687.782c-.301.199-.582.52-.782.718L7.5 8c.2-.2.488-.395.688-.594zm10.312 1.718l-.812.5c.199.301.304.481.406.782l.906-.406c-.101-.301-.3-.575-.5-.876zm-12.312.782c-.102.3-.305.699-.407 1l1 .312L6.5 9.5zM19 11.313l-1 .093v.906h1zm-14 .874c0 .399.094.727.094 1.126l1-.22c0-.3-.094-.605-.094-.905zm12.688 1.907c-.2.3-.301.613-.5.812l.906.5c.199-.3.3-.601.5-1zm-11 .812l-.782.5c.102.301.301.606.5.906l.782-.625a2.1 2.1 0 0 1-.5-.78z"/></svg>