<svg xmlns="http://www.w3.org/2000/svg" viewBox="0 0 24 24"><path d="M7.5 4c-1.207 0-2.203.86-2.438 2H4.47c-.867 0-1.64.547-1.907 1.375L.406 14.063A4.943 4.943 0 0 0 0 16c0 2.75 2.25 5 5 5 2.035 0 3.785-1.242 4.563-3h4.874c.778 1.758 2.528 3 4.563 3 2.75 0 5-2.25 5-5 0-.688-.152-1.34-.406-1.938l-2.219-6.687A2.008 2.008 0 0 0 19.469 6h-.532c-.234-1.14-1.23-2-2.437-2-1.207 0-2.203.86-2.438 2H9.939A2.496 2.496 0 0 0 7.5 4zM5 13c1.668 0 3 1.332 3 3s-1.332 3-3 3-3-1.332-3-3 1.332-3 3-3zm14 0c1.668 0 3 1.332 3 3s-1.332 3-3 3-3-1.332-3-3 1.332-3 3-3zm-7 1c.55 0 1 .45 1 1s-.45 1-1 1-1-.45-1-1 .45-1 1-1z"/></svg>