<svg xmlns="http://www.w3.org/2000/svg" viewBox="0 0 50 50"><path d="M43.336 4H6.668A2.669 2.669 0 0 0 4 6.668v36.664A2.669 2.669 0 0 0 6.668 46h36.664A2.668 2.668 0 0 0 46 43.336V6.668A2.668 2.668 0 0 0 43.336 4zM27 36.184C27 40.18 24.656 42 21.234 42c-3.093 0-5.324-2.074-6.234-4l3.145-1.902C18.75 37.172 19.672 38 21 38c1.27 0 2-.496 2-2.426V23h4zM35.676 42c-3.543 0-5.555-1.785-6.676-4l3-2c.816 1.336 1.707 2.613 3.59 2.613 1.582 0 2.41-.789 2.41-1.883 0-1.304-.86-1.77-2.598-2.53l-.953-.41c-2.754-1.173-4.586-2.642-4.586-5.75 0-2.86 2.184-5.04 5.59-5.04 2.426 0 4.168.844 5.426 3.055l-2.969 1.91c-.656-1.176-1.36-1.637-2.457-1.637-1.117 0-1.824.711-1.824 1.637 0 1.144.707 1.605 2.344 2.316l.953.41C40.172 32.078 42 33.496 42 36.684 42 40.117 39.3 42 35.676 42z"/></svg>