<svg xmlns="http://www.w3.org/2000/svg" viewBox="0 0 26 26"><path d="M19.625.156c-1.629.078-3.195.79-4.406 2l-4.75 4.75c.746-.75 3.515-.234 4.187.438l2.875-2.875c.637-.637 1.434-1.028 2.25-1.063a2.62 2.62 0 0 1 2.032.781 2.65 2.65 0 0 1 .78 1.907c0 .855-.39 1.707-1.062 2.375l-5 5.031c-1.258 1.258-3.172 1.36-4.281.25a1.642 1.642 0 0 0-2.313 0 1.639 1.639 0 0 0 0 2.313 5.873 5.873 0 0 0 4.188 1.718c1.672 0 3.379-.683 4.688-2l5.03-5c1.278-1.273 2-2.976 2-4.687 0-1.59-.6-3.102-1.718-4.219C22.93.68 21.325.078 19.625.156zm-7.75 8.063c-1.672 0-3.406.687-4.719 2l-5 5c-1.277 1.273-2 2.976-2 4.687 0 1.59.602 3.102 1.719 4.219 1.195 1.195 2.8 1.797 4.5 1.719 1.629-.078 3.195-.79 4.406-2l4.75-4.75c-.75.75-3.515.234-4.187-.438l-2.875 2.875c-.637.637-1.434 1.024-2.25 1.063a2.615 2.615 0 0 1-2.032-.782 2.656 2.656 0 0 1-.78-1.906c0-.855.39-1.707 1.062-2.375l5-5.031c1.258-1.258 3.172-1.355 4.281-.25.637.637 1.68.637 2.313 0a1.639 1.639 0 0 0 0-2.313 5.88 5.88 0 0 0-4.188-1.718z"/></svg>