<svg xmlns="http://www.w3.org/2000/svg" viewBox="0 0 24 24"><path d="M11 2c-1.293 0-2.395.844-2.813 2H2v2h6.188C8.604 7.156 9.707 8 11 8s2.395-.844 2.813-2H22V4h-8.188C13.396 2.844 12.293 2 11 2zm0 2c.563 0 1 .438 1 1 0 .563-.438 1-1 1-.563 0-1-.438-1-1 0-.563.438-1 1-1zm6 5c-1.293 0-2.395.844-2.813 2H2v2h12.188c.417 1.156 1.519 2 2.812 2s2.395-.844 2.813-2H22v-2h-2.188C19.395 9.844 18.294 9 17 9zm0 2c.563 0 1 .438 1 1 0 .563-.438 1-1 1-.563 0-1-.438-1-1 0-.563.438-1 1-1zM7 16c-1.293 0-2.395.844-2.813 2H2v2h2.188c.417 1.156 1.519 2 2.812 2s2.395-.844 2.813-2H22v-2H9.812C9.396 16.844 8.293 16 7 16zm0 2c.563 0 1 .438 1 1 0 .563-.438 1-1 1-.563 0-1-.438-1-1 0-.563.438-1 1-1z"/></svg>